<svg width="130" height="28" viewBox="0 0 130 28" fill="none" xmlns="http://www.w3.org/2000/svg">
<path d="M38.6805 20.4192V6.78485H40.7377V12.7099H47.5349V6.78485H49.5987V20.4192H47.5349V14.4741H40.7377V20.4192H38.6805ZM55.5305 20.6455C54.8825 20.6455 54.2967 20.5257 53.773 20.286C53.2492 20.0419 52.8343 19.6891 52.528 19.2275C52.2262 18.7659 52.0753 18.2001 52.0753 17.5299C52.0753 16.9529 52.1863 16.478 52.4082 16.1052C52.6301 15.7324 52.9297 15.4372 53.3069 15.2198C53.6842 15.0023 54.1058 14.8381 54.5718 14.7271C55.0379 14.6162 55.5128 14.5318 55.9965 14.4741C56.609 14.4031 57.1061 14.3454 57.4878 14.301C57.8695 14.2522 58.1469 14.1746 58.32 14.068C58.493 13.9615 58.5796 13.7884 58.5796 13.5488V13.5022C58.5796 12.9207 58.4154 12.4703 58.0869 12.1507C57.763 11.8312 57.2792 11.6714 56.6356 11.6714C55.9655 11.6714 55.4373 11.8201 55.0512 12.1174C54.6695 12.4103 54.4054 12.7366 54.2589 13.0961L52.3882 12.67C52.6101 12.0486 52.9341 11.5471 53.3602 11.1654C53.7907 10.7793 54.2856 10.4997 54.8448 10.3266C55.404 10.149 55.9921 10.0603 56.609 10.0603C57.0173 10.0603 57.4501 10.1091 57.9072 10.2067C58.3688 10.3 58.7993 10.473 59.1987 10.726C59.6026 10.979 59.9333 11.3407 60.1907 11.8112C60.4481 12.2772 60.5768 12.883 60.5768 13.6286V20.4192H58.6329V19.0211H58.553C58.4243 19.2786 58.2312 19.5315 57.9738 19.7801C57.7163 20.0286 57.3857 20.235 56.9818 20.3992C56.5779 20.5634 56.0942 20.6455 55.5305 20.6455ZM55.9632 19.0478C56.5136 19.0478 56.984 18.939 57.3746 18.7216C57.7696 18.5041 58.0692 18.22 58.2734 17.8694C58.4819 17.5143 58.5862 17.1349 58.5862 16.731V15.4128C58.5152 15.4838 58.3777 15.5504 58.1735 15.6126C57.9738 15.6702 57.7452 15.7213 57.4878 15.7657C57.2304 15.8056 56.9796 15.8433 56.7355 15.8788C56.4914 15.9099 56.2872 15.9365 56.123 15.9587C55.7369 16.0076 55.384 16.0897 55.0645 16.2051C54.7494 16.3205 54.4964 16.4869 54.3055 16.7044C54.1191 16.9174 54.0259 17.2014 54.0259 17.5565C54.0259 18.0492 54.2079 18.422 54.5718 18.675C54.9358 18.9235 55.3996 19.0478 55.9632 19.0478ZM65.3386 14.3476V20.4192H63.3481V10.1934H65.2587V11.8578H65.3852C65.6205 11.3163 65.9888 10.8814 66.4904 10.5529C66.9963 10.2245 67.6332 10.0603 68.401 10.0603C69.0978 10.0603 69.7081 10.2067 70.2318 10.4997C70.7555 10.7882 71.1616 11.2187 71.4501 11.7912C71.7386 12.3637 71.8828 13.0716 71.8828 13.9149V20.4192H69.8923V14.1546C69.8923 13.4134 69.6992 12.8342 69.3131 12.417C68.927 11.9954 68.3966 11.7845 67.722 11.7845C67.2604 11.7845 66.8498 11.8844 66.4904 12.0841C66.1353 12.2839 65.8535 12.5768 65.6449 12.9629C65.4407 13.3446 65.3386 13.8062 65.3386 14.3476ZM78.5004 20.6189C77.6749 20.6189 76.9381 20.4081 76.2901 19.9865C75.6466 19.5604 75.1406 18.9546 74.7723 18.169C74.4083 17.379 74.2264 16.4314 74.2264 15.3263C74.2264 14.2212 74.4105 13.2758 74.7789 12.4902C75.1517 11.7047 75.6621 11.1033 76.3101 10.6861C76.9581 10.2689 77.6926 10.0603 78.5137 10.0603C79.1484 10.0603 79.6588 10.1668 80.0449 10.3798C80.4355 10.5884 80.7373 10.8325 80.9503 11.1122C81.1678 11.3918 81.3365 11.6381 81.4563 11.8511H81.5761V6.78485H83.5667V20.4192H81.6227V18.8281H81.4563C81.3365 19.0455 81.1634 19.2941 80.937 19.5737C80.7151 19.8533 80.4089 20.0974 80.0183 20.306C79.6277 20.5146 79.1218 20.6189 78.5004 20.6189ZM78.9398 18.9213C79.5123 18.9213 79.9961 18.7704 80.3911 18.4686C80.7905 18.1623 81.0923 17.7385 81.2965 17.197C81.5051 16.6555 81.6094 16.0253 81.6094 15.3063C81.6094 14.5962 81.5073 13.9748 81.3032 13.4422C81.099 12.9096 80.7994 12.4947 80.4044 12.1973C80.0094 11.8999 79.5212 11.7513 78.9398 11.7513C78.3406 11.7513 77.8413 11.9066 77.4419 12.2173C77.0424 12.528 76.7406 12.9518 76.5365 13.4888C76.3367 14.0259 76.2369 14.6317 76.2369 15.3063C76.2369 15.9898 76.339 16.6045 76.5431 17.1504C76.7473 17.6963 77.0491 18.129 77.4485 18.4486C77.8524 18.7637 78.3495 18.9213 78.9398 18.9213ZM91.0964 8.55571V6.78485H101.648V8.55571H97.3943V20.4192H95.3438V8.55571H91.0964ZM106.765 20.6256C105.806 20.6256 104.969 20.4059 104.255 19.9665C103.54 19.5271 102.986 18.9124 102.591 18.1224C102.196 17.3324 101.998 16.4092 101.998 15.3529C101.998 14.2922 102.196 13.3646 102.591 12.5701C102.986 11.7757 103.54 11.1588 104.255 10.7194C104.969 10.28 105.806 10.0603 106.765 10.0603C107.723 10.0603 108.56 10.28 109.275 10.7194C109.989 11.1588 110.544 11.7757 110.939 12.5701C111.334 13.3646 111.531 14.2922 111.531 15.3529C111.531 16.4092 111.334 17.3324 110.939 18.1224C110.544 18.9124 109.989 19.5271 109.275 19.9665C108.56 20.4059 107.723 20.6256 106.765 20.6256ZM106.771 18.9546C107.393 18.9546 107.908 18.7903 108.316 18.4619C108.724 18.1335 109.026 17.6963 109.221 17.1504C109.421 16.6045 109.521 16.0031 109.521 15.3463C109.521 14.6938 109.421 14.0947 109.221 13.5488C109.026 12.9984 108.724 12.5568 108.316 12.2239C107.908 11.8911 107.393 11.7246 106.771 11.7246C106.146 11.7246 105.626 11.8911 105.214 12.2239C104.805 12.5568 104.501 12.9984 104.301 13.5488C104.106 14.0947 104.009 14.6938 104.009 15.3463C104.009 16.0031 104.106 16.6045 104.301 17.1504C104.501 17.6963 104.805 18.1335 105.214 18.4619C105.626 18.7903 106.146 18.9546 106.771 18.9546ZM118.181 20.6256C117.222 20.6256 116.385 20.4059 115.671 19.9665C114.956 19.5271 114.401 18.9124 114.006 18.1224C113.611 17.3324 113.414 16.4092 113.414 15.3529C113.414 14.2922 113.611 13.3646 114.006 12.5701C114.401 11.7757 114.956 11.1588 115.671 10.7194C116.385 10.28 117.222 10.0603 118.181 10.0603C119.139 10.0603 119.976 10.28 120.69 10.7194C121.405 11.1588 121.96 11.7757 122.355 12.5701C122.75 13.3646 122.947 14.2922 122.947 15.3529C122.947 16.4092 122.75 17.3324 122.355 18.1224C121.96 18.9124 121.405 19.5271 120.69 19.9665C119.976 20.4059 119.139 20.6256 118.181 20.6256ZM118.187 18.9546C118.809 18.9546 119.323 18.7903 119.732 18.4619C120.14 18.1335 120.442 17.6963 120.637 17.1504C120.837 16.6045 120.937 16.0031 120.937 15.3463C120.937 14.6938 120.837 14.0947 120.637 13.5488C120.442 12.9984 120.14 12.5568 119.732 12.2239C119.323 11.8911 118.809 11.7246 118.187 11.7246C117.561 11.7246 117.042 11.8911 116.629 12.2239C116.221 12.5568 115.917 12.9984 115.717 13.5488C115.522 14.0947 115.424 14.6938 115.424 15.3463C115.424 16.0031 115.522 16.6045 115.717 17.1504C115.917 17.6963 116.221 18.1335 116.629 18.4619C117.042 18.7903 117.561 18.9546 118.187 18.9546ZM127.28 6.78485V20.4192H125.289V6.78485H127.28Z" fill="#6C89D7"/>
<path d="M23.5638 5.79576C23.1065 5.79576 22.6679 5.97894 22.3446 6.30501C22.0212 6.63108 21.8396 7.07333 21.8396 7.53446V12.7506H20.6901V5.21619C20.6901 4.75506 20.5085 4.31282 20.1851 3.98675C19.8618 3.66068 19.4232 3.47749 18.9659 3.47749C18.5086 3.47749 18.0701 3.66068 17.7467 3.98675C17.4234 4.31282 17.2417 4.75506 17.2417 5.21619V12.7506H16.0923V4.05706C16.0923 3.59593 15.9106 3.15368 15.5873 2.82761C15.2639 2.50154 14.8254 2.31836 14.3681 2.31836C13.9108 2.31836 13.4722 2.50154 13.1489 2.82761C12.8255 3.15368 12.6439 3.59593 12.6439 4.05706V12.7506H11.4944V6.37533C11.4944 5.9142 11.3128 5.47195 10.9894 5.14588C10.6661 4.81981 10.2275 4.63663 9.77024 4.63663C9.31295 4.63663 8.8744 4.81981 8.55105 5.14588C8.2277 5.47195 8.04604 5.9142 8.04604 6.37533V18.9056L5.49424 14.7327C5.2534 14.3392 4.86742 14.0583 4.42119 13.9518C3.97497 13.8452 3.50507 13.9218 3.11485 14.1647C2.72464 14.4076 2.44607 14.7968 2.34045 15.2468C2.23482 15.6968 2.31078 16.1706 2.55162 16.5641L6.35633 22.7539C6.87123 23.5934 7.59023 24.2864 8.44517 24.7672C9.30011 25.248 10.2627 25.5006 11.2415 25.501H19.5407C21.0649 25.501 22.5268 24.8904 23.6046 23.8035C24.6824 22.7166 25.288 21.2425 25.288 19.7054V7.53446C25.288 7.07333 25.1063 6.63108 24.783 6.30501C24.4596 5.97894 24.0211 5.79576 23.5638 5.79576Z" fill="#6C89D7"/>
</svg>
