<svg width="52" height="29" viewBox="0 0 52 29" fill="none" xmlns="http://www.w3.org/2000/svg">
<rect width="52" height="29" rx="3" fill="#484848"/>
<rect x="0.5" y="0.5" width="51" height="28" rx="2.5" stroke="black" stroke-opacity="0.2"/>
<path d="M30.2228 15.1438C30.4867 15.0698 30.5489 14.724 30.3273 14.5626L23.1553 9.3394C22.9253 9.17192 22.6058 9.35643 22.6358 9.63933L23.5733 18.4621C23.6022 18.7347 23.9328 18.8537 24.1289 18.6621L25.7508 17.0774C25.8274 17.0026 25.954 17.02 26.0076 17.1128L27.3931 19.5125C27.4384 19.591 27.5387 19.6179 27.6172 19.5726L29.267 18.62C29.3455 18.5747 29.3724 18.4744 29.3271 18.3959L27.9416 15.9962C27.888 15.9034 27.9363 15.7851 28.0394 15.7562L30.2228 15.1438Z" fill="#C4C4C4"/>
<path d="M30.2903 15.3846C30.7553 15.2541 30.8649 14.6449 30.4745 14.3605L23.3025 9.13731C22.8973 8.84224 22.3343 9.16732 22.3872 9.66574L23.3247 18.4885C23.3757 18.9688 23.9582 19.1785 24.3036 18.841L25.8464 17.3336L27.1766 19.6375C27.2909 19.8355 27.5442 19.9034 27.7422 19.7891L29.392 18.8365C29.5901 18.7222 29.6579 18.469 29.5436 18.2709L28.2134 15.967L30.2903 15.3846Z" stroke="black" stroke-opacity="0.33" stroke-width="0.5"/>
</svg>
