<svg width="25" height="43" viewBox="0 0 25 43" fill="none" xmlns="http://www.w3.org/2000/svg">
<path d="M11.8657 3.97144H12.8657V24.2458H11.8657V3.97144Z" fill="#2C2C2C"/>
<path d="M0.766113 22.9949H24.4592V24.2459H0.766113V22.9949Z" fill="#2C2C2C"/>
<rect x="0.772461" y="4.47144" width="23.5427" height="37.4146" rx="10.8725" fill="#C4C4C4" stroke="#2C2C2C"/>
<path fill-rule="evenodd" clip-rule="evenodd" d="M8.24553 20.3027C8.63605 19.9121 9.26922 19.9121 9.65974 20.3027L12.3657 23.0086L15.0717 20.3027C15.4622 19.9121 16.0954 19.9121 16.4859 20.3027C16.8764 20.6932 16.8764 21.3263 16.4859 21.7169L13.0728 25.13C12.6823 25.5205 12.0491 25.5205 11.6586 25.13L8.24553 21.7169C7.85501 21.3263 7.85501 20.6932 8.24553 20.3027Z" fill="#2C2C2C" stroke="white" stroke-linecap="round" stroke-linejoin="round"/>
<path fill-rule="evenodd" clip-rule="evenodd" d="M16.4859 6.38509C16.0954 6.77561 15.4622 6.77561 15.0717 6.38509L12.3657 3.67911L9.65974 6.38509C9.26922 6.77561 8.63605 6.77561 8.24553 6.38509C7.85501 5.99456 7.85501 5.3614 8.24553 4.97087L11.6586 1.55779C12.0491 1.16726 12.6823 1.16726 13.0728 1.55779L16.4859 4.97087C16.8764 5.3614 16.8764 5.99456 16.4859 6.38509Z" fill="#2C2C2C" stroke="white" stroke-linecap="round" stroke-linejoin="round"/>
<rect x="9.52002" y="9.30688" width="5.69106" height="10.315" rx="2.84553" fill="#F7C440" stroke="#2C2C2C"/>
</svg>
