<svg width="43" height="50" viewBox="0 0 43 50" fill="none" xmlns="http://www.w3.org/2000/svg">
<g clip-path="url(#clip0_624_11440)">
<rect x="9.51562" y="11.2437" width="24.5427" height="38.4146" rx="12" fill="#C4C4C4"/>
<rect x="9.51562" y="10.8835" width="12.2715" height="18.9546" fill="#F7C440"/>
<path d="M21.2871 11.2437H22.2871V29.8381H21.2871V11.2437Z" fill="#2C2C2C"/>
<path d="M9.94043 29.2H33.6335V30.451H9.94043V29.2Z" fill="#2C2C2C"/>
<rect x="18.9414" y="16.5386" width="5.69106" height="10.315" rx="2.84553" fill="#C4C4C4" stroke="#2C2C2C"/>
</g>
<rect x="10.0156" y="11.7437" width="23.5427" height="37.4146" rx="11.5" stroke="#2C2C2C"/>
<path fill-rule="evenodd" clip-rule="evenodd" d="M25.9073 6.44783C25.5168 6.83835 24.8836 6.83835 24.4931 6.44783L21.7871 3.74185L19.0811 6.44783C18.6906 6.83835 18.0574 6.83835 17.6669 6.44783C17.2764 6.05731 17.2764 5.42414 17.6669 5.03362L21.08 1.62053C21.4705 1.23001 22.1037 1.23001 22.4942 1.62053L25.9073 5.03362C26.2978 5.42414 26.2978 6.05731 25.9073 6.44783Z" fill="#2C2C2C" stroke="white" stroke-linecap="round" stroke-linejoin="round"/>
<path fill-rule="evenodd" clip-rule="evenodd" d="M12.8822 7.37817C12.8822 7.93046 12.4345 8.37817 11.8822 8.37817L8.05534 8.37817L8.05534 12.205C8.05534 12.7573 7.60763 13.205 7.05534 13.205C6.50306 13.205 6.05534 12.7573 6.05534 12.205L6.05534 7.37817C6.05534 6.82589 6.50306 6.37817 7.05534 6.37817L11.8822 6.37817C12.4345 6.37817 12.8822 6.82589 12.8822 7.37817Z" fill="#2C2C2C" stroke="white" stroke-linecap="round" stroke-linejoin="round"/>
<path fill-rule="evenodd" clip-rule="evenodd" d="M6.12894 17.3712C6.46859 17.8067 6.39088 18.4351 5.95538 18.7747L2.93777 21.1281L5.29121 24.1458C5.63085 24.5813 5.55315 25.2096 5.11765 25.5493C4.68215 25.8889 4.05377 25.8112 3.71413 25.3757L0.745709 21.5696C0.406063 21.1341 0.483767 20.5057 0.919266 20.1661L4.72542 17.1976C5.16092 16.858 5.7893 16.9357 6.12894 17.3712Z" fill="#2C2C2C" stroke="white" stroke-linecap="round" stroke-linejoin="round"/>
<path fill-rule="evenodd" clip-rule="evenodd" d="M36.4897 17.3712C36.1501 17.8067 36.2278 18.4351 36.6633 18.7747L39.6809 21.1281L37.3274 24.1458C36.9878 24.5813 37.0655 25.2096 37.501 25.5493C37.9365 25.8889 38.5649 25.8112 38.9045 25.3757L41.8729 21.5696C42.2126 21.1341 42.1349 20.5057 41.6994 20.1661L37.8932 17.1976C37.4577 16.858 36.8294 16.9357 36.4897 17.3712Z" fill="#2C2C2C" stroke="white" stroke-linecap="round" stroke-linejoin="round"/>
<path fill-rule="evenodd" clip-rule="evenodd" d="M30.6447 7.37817C30.6447 7.93046 31.0924 8.37817 31.6447 8.37817L35.4715 8.37817L35.4715 12.205C35.4715 12.7573 35.9192 13.205 36.4715 13.205C37.0238 13.205 37.4715 12.7573 37.4715 12.205L37.4715 7.37817C37.4715 6.82589 37.0238 6.37817 36.4715 6.37817L31.6447 6.37817C31.0924 6.37817 30.6447 6.82589 30.6447 7.37817Z" fill="#2C2C2C" stroke="white" stroke-linecap="round" stroke-linejoin="round"/>
<defs>
<clipPath id="clip0_624_11440">
<rect x="9.51562" y="11.2437" width="24.5427" height="38.4146" rx="12" fill="white"/>
</clipPath>
</defs>
</svg>
