<svg width="17" height="17" viewBox="0 0 17 17" fill="none" xmlns="http://www.w3.org/2000/svg">
<path d="M10.118 3.99243C10.118 3.164 9.44647 2.49243 8.61804 2.49243C7.78961 2.49243 7.11804 3.164 7.11804 3.99243V6.53442L4.57617 6.53442C3.74774 6.53442 3.07617 7.206 3.07617 8.03442C3.07617 8.86285 3.74774 9.53442 4.57617 9.53442L7.11804 9.53442V12.0762C7.11804 12.9046 7.78961 13.5762 8.61804 13.5762C9.44647 13.5762 10.118 12.9046 10.118 12.0762V9.53442L12.6599 9.53442C13.4883 9.53442 14.1599 8.86285 14.1599 8.03442C14.1599 7.206 13.4883 6.53442 12.6599 6.53442L10.118 6.53442V3.99243Z" fill="#C4C4C4"/>
</svg>
