<svg width="57" height="39" viewBox="0 0 57 39" fill="none" xmlns="http://www.w3.org/2000/svg">
<rect width="57" height="39" rx="3" fill="#C4C4C4"/>
<rect x="0.5" y="0.5" width="56" height="38" rx="2.5" stroke="black" stroke-opacity="0.2"/>
<path d="M14.5735 17.6036C14.5212 17.1399 14.3057 16.7807 13.9269 16.526C13.5481 16.268 13.0713 16.139 12.4966 16.139C12.0852 16.139 11.7292 16.2043 11.4288 16.335C11.1284 16.4623 10.8949 16.6386 10.7283 16.864C10.5651 17.086 10.4834 17.3391 10.4834 17.6232C10.4834 17.8616 10.5389 18.0673 10.65 18.2404C10.7643 18.4135 10.9128 18.5588 11.0957 18.6763C11.2818 18.7906 11.481 18.887 11.6933 18.9653C11.9056 19.0404 12.1097 19.1025 12.3056 19.1515L13.2852 19.4062C13.6053 19.4845 13.9334 19.5907 14.2698 19.7246C14.6061 19.8584 14.918 20.0348 15.2054 20.2536C15.4927 20.4724 15.7246 20.7434 15.9009 21.0667C16.0805 21.39 16.1703 21.7769 16.1703 22.2276C16.1703 22.7958 16.0234 23.3003 15.7295 23.7411C15.4388 24.182 15.016 24.5298 14.4608 24.7845C13.909 25.0392 13.2412 25.1665 12.4574 25.1665C11.7064 25.1665 11.0565 25.0473 10.5079 24.809C9.95931 24.5706 9.52989 24.2326 9.21967 23.795C8.90945 23.3542 8.73801 22.8317 8.70535 22.2276H10.2238C10.2532 22.59 10.3708 22.8921 10.5765 23.1338C10.7855 23.3721 11.0516 23.5501 11.3749 23.6677C11.7015 23.782 12.059 23.8391 12.4476 23.8391C12.8754 23.8391 13.2558 23.7722 13.5889 23.6383C13.9253 23.5011 14.1898 23.3117 14.3825 23.0701C14.5751 22.8252 14.6714 22.5394 14.6714 22.2129C14.6714 21.9157 14.5865 21.6724 14.4167 21.483C14.2502 21.2936 14.0232 21.1369 13.7359 21.0128C13.4518 20.8887 13.1301 20.7793 12.7709 20.6846L11.5855 20.3613C10.7822 20.1425 10.1454 19.8209 9.67521 19.3964C9.20824 18.9719 8.97476 18.4102 8.97476 17.7114C8.97476 17.1334 9.1315 16.6288 9.44499 16.1978C9.75848 15.7668 10.183 15.432 10.7185 15.1937C11.2541 14.952 11.8582 14.8312 12.5309 14.8312C13.2101 14.8312 13.8094 14.9504 14.3286 15.1888C14.8511 15.4271 15.2625 15.7553 15.5629 16.1733C15.8634 16.588 16.0201 17.0648 16.0332 17.6036H14.5735ZM18.099 25V14.9683H19.6125V19.3278H24.6137V14.9683H26.1321V25H24.6137V20.6258H19.6125V25H18.099ZM29.9699 14.9683V25H28.4563V14.9683H29.9699ZM32.294 25V14.9683H38.5148V16.2713H33.8076V19.3278H38.0691V20.6258H33.8076V25H32.294ZM40.0014 16.2713V14.9683H47.7652V16.2713H44.6352V25H43.1265V16.2713H40.0014Z" fill="#373737"/>
</svg>
