<svg width="108" height="39" viewBox="0 0 108 39" fill="none" xmlns="http://www.w3.org/2000/svg">
<rect width="108" height="39" rx="3" fill="#C4C4C4"/>
<rect x="0.5" y="0.5" width="107" height="38" rx="2.5" stroke="black" stroke-opacity="0.2"/>
<path d="M38.1952 17.6036C38.143 17.1399 37.9275 16.7807 37.5487 16.526C37.1699 16.268 36.6931 16.139 36.1184 16.139C35.7069 16.139 35.351 16.2043 35.0505 16.335C34.7501 16.4623 34.5166 16.6386 34.3501 16.864C34.1868 17.086 34.1052 17.3391 34.1052 17.6232C34.1052 17.8616 34.1607 18.0673 34.2717 18.2404C34.386 18.4135 34.5346 18.5588 34.7175 18.6763C34.9036 18.7906 35.1028 18.887 35.315 18.9653C35.5273 19.0404 35.7314 19.1025 35.9273 19.1515L36.907 19.4062C37.227 19.4845 37.5552 19.5907 37.8915 19.7246C38.2279 19.8584 38.5397 20.0348 38.8271 20.2536C39.1145 20.4724 39.3463 20.7434 39.5227 21.0667C39.7023 21.39 39.7921 21.7769 39.7921 22.2276C39.7921 22.7958 39.6451 23.3003 39.3512 23.7411C39.0606 24.182 38.6377 24.5298 38.0826 24.7845C37.5307 25.0392 36.8629 25.1665 36.0792 25.1665C35.3281 25.1665 34.6783 25.0473 34.1297 24.809C33.5811 24.5706 33.1516 24.2326 32.8414 23.795C32.5312 23.3542 32.3598 22.8317 32.3271 22.2276H33.8456C33.875 22.59 33.9925 22.8921 34.1982 23.1338C34.4072 23.3721 34.6734 23.5501 34.9967 23.6677C35.3232 23.782 35.6808 23.8391 36.0694 23.8391C36.4972 23.8391 36.8776 23.7722 37.2107 23.6383C37.547 23.5011 37.8115 23.3117 38.0042 23.0701C38.1969 22.8252 38.2932 22.5394 38.2932 22.2129C38.2932 21.9157 38.2083 21.6724 38.0385 21.483C37.8719 21.2936 37.645 21.1369 37.3576 21.0128C37.0735 20.8887 36.7519 20.7793 36.3927 20.6846L35.2073 20.3613C34.404 20.1425 33.7672 19.8209 33.297 19.3964C32.83 18.9719 32.5965 18.4102 32.5965 17.7114C32.5965 17.1334 32.7533 16.6288 33.0667 16.1978C33.3802 15.7668 33.8047 15.432 34.3403 15.1937C34.8758 14.952 35.48 14.8312 36.1527 14.8312C36.8319 14.8312 37.4311 14.9504 37.9503 15.1888C38.4728 15.4271 38.8843 15.7553 39.1847 16.1733C39.4851 16.588 39.6419 17.0648 39.6549 17.6036H38.1952ZM41.7207 25V14.9683H45.2964C46.0769 14.9683 46.7235 15.1104 47.2362 15.3945C47.7488 15.6786 48.1325 16.0672 48.3873 16.5603C48.642 17.0501 48.7693 17.602 48.7693 18.2159C48.7693 18.8331 48.6403 19.3882 48.3824 19.8813C48.1276 20.3711 47.7423 20.7597 47.2264 21.0471C46.7137 21.3312 46.0687 21.4732 45.2915 21.4732H42.8326V20.1899H45.1544C45.6475 20.1899 46.0475 20.105 46.3545 19.9352C46.6614 19.7621 46.8867 19.527 47.0304 19.2298C47.1741 18.9327 47.246 18.5947 47.246 18.2159C47.246 17.8371 47.1741 17.5007 47.0304 17.2068C46.8867 16.9129 46.6598 16.6827 46.3496 16.5162C46.0426 16.3496 45.6377 16.2664 45.1348 16.2664H43.2343V25H41.7207ZM50.4469 25H48.8403L52.4503 14.9683H54.199L57.809 25H56.2024L53.3663 16.7905H53.2879L50.4469 25ZM50.7163 21.0716H55.9281V22.3451H50.7163V21.0716ZM67.2381 18.2306H65.7099C65.6511 17.904 65.5417 17.6167 65.3817 17.3685C65.2217 17.1203 65.0257 16.9097 64.7939 16.7366C64.562 16.5635 64.3024 16.4329 64.0151 16.3447C63.731 16.2566 63.4289 16.2125 63.1089 16.2125C62.5309 16.2125 62.0133 16.3578 61.5561 16.6484C61.1022 16.9391 60.743 17.3652 60.4785 17.9269C60.2173 18.4886 60.0867 19.1743 60.0867 19.9842C60.0867 20.8005 60.2173 21.4896 60.4785 22.0512C60.743 22.6129 61.1039 23.0374 61.561 23.3248C62.0182 23.6122 62.5325 23.7558 63.104 23.7558C63.4207 23.7558 63.7212 23.7134 64.0053 23.6285C64.2926 23.5403 64.5522 23.4113 64.7841 23.2415C65.016 23.0717 65.2119 22.8644 65.3719 22.6194C65.5352 22.3713 65.6478 22.0872 65.7099 21.7671L67.2381 21.772C67.1565 22.2651 66.9981 22.719 66.763 23.1338C66.5312 23.5452 66.2324 23.9012 65.8666 24.2016C65.5041 24.4987 65.0894 24.729 64.6225 24.8922C64.1555 25.0555 63.6461 25.1372 63.0942 25.1372C62.2256 25.1372 61.4516 24.9314 60.7724 24.52C60.0932 24.1052 59.5576 23.5126 59.1658 22.7419C58.7772 21.9712 58.5829 21.052 58.5829 19.9842C58.5829 18.9131 58.7788 17.9938 59.1707 17.2264C59.5625 16.4558 60.0981 15.8647 60.7773 15.4533C61.4565 15.0385 62.2288 14.8312 63.0942 14.8312C63.6265 14.8312 64.1228 14.9079 64.5833 15.0614C65.047 15.2116 65.4633 15.4337 65.8323 15.7276C66.2013 16.0182 66.5067 16.3741 66.7483 16.7954C66.99 17.2134 67.1532 17.6918 67.2381 18.2306ZM69.1692 25V14.9683H75.4586V16.2713H70.6828V19.3278H75.1304V20.6258H70.6828V23.6971H75.5174V25H69.1692Z" fill="#373737"/>
</svg>
