<svg width="53" height="39" viewBox="0 0 53 39" fill="none" xmlns="http://www.w3.org/2000/svg">
<rect width="53" height="39" rx="3" fill="#C4C4C4"/>
<rect x="0.5" y="0.5" width="52" height="38" rx="2.5" stroke="black" stroke-opacity="0.2"/>
<path d="M17.4341 18.2306H15.9058C15.847 17.904 15.7376 17.6167 15.5776 17.3685C15.4176 17.1203 15.2217 16.9097 14.9898 16.7366C14.758 16.5635 14.4984 16.4329 14.211 16.3447C13.9269 16.2566 13.6249 16.2125 13.3048 16.2125C12.7268 16.2125 12.2093 16.3578 11.7521 16.6484C11.2982 16.9391 10.939 17.3652 10.6745 17.9269C10.4132 18.4886 10.2826 19.1743 10.2826 19.9842C10.2826 20.8005 10.4132 21.4896 10.6745 22.0512C10.939 22.6129 11.2998 23.0374 11.757 23.3248C12.2141 23.6122 12.7285 23.7558 13.2999 23.7558C13.6167 23.7558 13.9171 23.7134 14.2012 23.6285C14.4886 23.5403 14.7482 23.4113 14.98 23.2415C15.2119 23.0717 15.4078 22.8644 15.5678 22.6194C15.7311 22.3713 15.8438 22.0872 15.9058 21.7671L17.4341 21.772C17.3524 22.2651 17.1941 22.719 16.9589 23.1338C16.7271 23.5452 16.4283 23.9012 16.0626 24.2016C15.7001 24.4987 15.2854 24.729 14.8184 24.8922C14.3514 25.0555 13.842 25.1372 13.2901 25.1372C12.4215 25.1372 11.6476 24.9314 10.9684 24.52C10.2891 24.1052 9.75358 23.5126 9.36172 22.7419C8.97312 21.9712 8.77883 21.052 8.77883 19.9842C8.77883 18.9131 8.97476 17.9938 9.36662 17.2264C9.75848 16.4558 10.294 15.8647 10.9733 15.4533C11.6525 15.0385 12.4248 14.8312 13.2901 14.8312C13.8224 14.8312 14.3188 14.9079 14.7792 15.0614C15.2429 15.2116 15.6593 15.4337 16.0283 15.7276C16.3973 16.0182 16.7026 16.3741 16.9442 16.7954C17.1859 17.2134 17.3492 17.6918 17.4341 18.2306ZM18.8704 16.2713V14.9683H26.6342V16.2713H23.5042V25H21.9955V16.2713H18.8704ZM28.4698 25V14.9683H32.0455C32.8227 14.9683 33.4676 15.1022 33.9803 15.37C34.4963 15.6378 34.8816 16.0084 35.1363 16.4819C35.391 16.9521 35.5184 17.4958 35.5184 18.113C35.5184 18.7269 35.3894 19.2674 35.1314 19.7344C34.8767 20.1981 34.4914 20.5589 33.9754 20.8169C33.4627 21.0748 32.8178 21.2038 32.0406 21.2038H29.3319V19.9009H31.9034C32.3933 19.9009 32.7917 19.8307 33.0986 19.6903C33.4089 19.5499 33.6358 19.3458 33.7795 19.078C33.9232 18.8102 33.995 18.4886 33.995 18.113C33.995 17.7342 33.9215 17.406 33.7746 17.1285C33.6309 16.8509 33.404 16.6386 33.0937 16.4917C32.7868 16.3415 32.3835 16.2664 31.8839 16.2664H29.9833V25H28.4698ZM33.4219 20.474L35.9004 25H34.1762L31.7467 20.474H33.4219ZM37.4801 25V14.9683H38.9936V23.6971H43.5392V25H37.4801Z" fill="#373737"/>
</svg>
