<svg width="92" height="28" viewBox="0 0 92 28" fill="none" xmlns="http://www.w3.org/2000/svg">
<path d="M40.2681 19.6301V18.2588L47.4378 7.76708H40.2082V5.99627H49.9542V7.36765L42.7845 17.8593H50.0142V19.6301H40.2681ZM56.9042 19.8365C55.9456 19.8365 55.109 19.6168 54.3945 19.1774C53.6799 18.7381 53.1252 18.1234 52.7302 17.3334C52.3352 16.5434 52.1377 15.6203 52.1377 14.564C52.1377 13.5033 52.3352 12.5758 52.7302 11.7813C53.1252 10.9869 53.6799 10.37 54.3945 9.93065C55.109 9.49128 55.9456 9.27159 56.9042 9.27159C57.8629 9.27159 58.6994 9.49128 59.414 9.93065C60.1285 10.37 60.6833 10.9869 61.0783 11.7813C61.4732 12.5758 61.6707 13.5033 61.6707 14.564C61.6707 15.6203 61.4732 16.5434 61.0783 17.3334C60.6833 18.1234 60.1285 18.7381 59.414 19.1774C58.6994 19.6168 57.8629 19.8365 56.9042 19.8365ZM56.9109 18.1656C57.5322 18.1656 58.047 18.0013 58.4553 17.6729C58.8636 17.3445 59.1654 16.9074 59.3607 16.3615C59.5604 15.8156 59.6603 15.2142 59.6603 14.5574C59.6603 13.905 59.5604 13.3058 59.3607 12.7599C59.1654 12.2096 58.8636 11.768 58.4553 11.4352C58.047 11.1023 57.5322 10.9359 56.9109 10.9359C56.2851 10.9359 55.7658 11.1023 55.3531 11.4352C54.9448 11.768 54.6408 12.2096 54.4411 12.7599C54.2458 13.3058 54.1482 13.905 54.1482 14.5574C54.1482 15.2142 54.2458 15.8156 54.4411 16.3615C54.6408 16.9074 54.9448 17.3445 55.3531 17.6729C55.7658 18.0013 56.2851 18.1656 56.9109 18.1656ZM68.3628 19.8365C67.4041 19.8365 66.5676 19.6168 65.853 19.1774C65.1385 18.7381 64.5837 18.1234 64.1887 17.3334C63.7937 16.5434 63.5962 15.6203 63.5962 14.564C63.5962 13.5033 63.7937 12.5758 64.1887 11.7813C64.5837 10.9869 65.1385 10.37 65.853 9.93065C66.5676 9.49128 67.4041 9.27159 68.3628 9.27159C69.3214 9.27159 70.158 9.49128 70.8725 9.93065C71.587 10.37 72.1418 10.9869 72.5368 11.7813C72.9318 12.5758 73.1293 13.5033 73.1293 14.564C73.1293 15.6203 72.9318 16.5434 72.5368 17.3334C72.1418 18.1234 71.587 18.7381 70.8725 19.1774C70.158 19.6168 69.3214 19.8365 68.3628 19.8365ZM68.3694 18.1656C68.9908 18.1656 69.5056 18.0013 69.9139 17.6729C70.3222 17.3445 70.624 16.9074 70.8193 16.3615C71.019 15.8156 71.1188 15.2142 71.1188 14.5574C71.1188 13.905 71.019 13.3058 70.8193 12.7599C70.624 12.2096 70.3222 11.768 69.9139 11.4352C69.5056 11.1023 68.9908 10.9359 68.3694 10.9359C67.7436 10.9359 67.2244 11.1023 66.8116 11.4352C66.4033 11.768 66.0993 12.2096 65.8996 12.7599C65.7043 13.3058 65.6067 13.905 65.6067 14.5574C65.6067 15.2142 65.7043 15.8156 65.8996 16.3615C66.0993 16.9074 66.4033 17.3445 66.8116 17.6729C67.2244 18.0013 67.7436 18.1656 68.3694 18.1656ZM75.5141 19.6301V9.40474H77.4247V11.069H77.5512C77.7642 10.5054 78.1126 10.066 78.5964 9.75091C79.0801 9.43137 79.6593 9.27159 80.3339 9.27159C81.0174 9.27159 81.5899 9.43137 82.0515 9.75091C82.5175 10.0705 82.8614 10.5098 83.0833 11.069H83.1898C83.4339 10.5231 83.8223 10.0882 84.3548 9.76422C84.8874 9.4358 85.522 9.27159 86.2588 9.27159C87.1863 9.27159 87.943 9.56229 88.5289 10.1437C89.1191 10.7251 89.4143 11.6016 89.4143 12.7733V19.6301H87.4238V12.9597C87.4238 12.2673 87.2352 11.7658 86.8579 11.4551C86.4807 11.1445 86.0302 10.9891 85.5065 10.9891C84.8586 10.9891 84.3548 11.1889 83.9953 11.5883C83.6359 11.9833 83.4561 12.4914 83.4561 13.1128V19.6301H81.4723V12.8332C81.4723 12.2784 81.2992 11.8324 80.953 11.4951C80.6068 11.1578 80.1564 10.9891 79.6016 10.9891C79.2244 10.9891 78.876 11.089 78.5564 11.2887C78.2413 11.484 77.9861 11.7569 77.7909 12.1075C77.6 12.4582 77.5046 12.8642 77.5046 13.3258V19.6301H75.5141Z" fill="#F68258"/>
<path d="M12.5417 6.96747C12.5417 6.19787 11.9178 5.57397 11.1482 5.57397C10.3786 5.57397 9.75472 6.19787 9.75472 6.96747V9.75447H6.96772C6.19811 9.75447 5.57422 10.3784 5.57422 11.148C5.57422 11.9176 6.19811 12.5415 6.96772 12.5415H9.75472V15.3285C9.75472 16.0981 10.3786 16.722 11.1482 16.722C11.9178 16.722 12.5417 16.0981 12.5417 15.3285V12.5415H15.3287C16.0983 12.5415 16.7222 11.9176 16.7222 11.148C16.7222 10.3784 16.0983 9.75447 15.3287 9.75447H12.5417V6.96747Z" fill="#F68258"/>
<path d="M11.148 0C5.00127 0 0 5.00127 0 11.148C0 17.2947 5.00127 22.296 11.148 22.296C13.6214 22.2955 16.0236 21.4675 17.972 19.9438L24.4404 26.577C24.9824 27.1328 25.874 27.1384 26.423 26.5895C26.9622 26.0502 26.9677 25.1777 26.4353 24.6317L19.9424 17.9734C21.4669 16.0248 22.2954 13.6221 22.296 11.148C22.296 5.00127 17.2947 0 11.148 0ZM11.148 19.509C6.5369 19.509 2.787 15.7591 2.787 11.148C2.787 6.5369 6.5369 2.787 11.148 2.787C15.7591 2.787 19.509 6.5369 19.509 11.148C19.509 15.7591 15.7591 19.509 11.148 19.509Z" fill="#F68258"/>
</svg>
