<svg width="72" height="72" viewBox="0 0 72 72" fill="none" xmlns="http://www.w3.org/2000/svg">
<path d="M20.5191 54C17.8976 54 15.5686 53.5529 13.5321 52.6587C11.5064 51.7538 9.91398 50.5095 8.75488 48.9259C7.59579 47.3422 7.01083 45.5215 7 43.4639H16.0994C16.1102 44.0995 16.3052 44.6705 16.6844 45.1768C17.0743 45.6724 17.6051 46.0602 18.2768 46.3403C18.9484 46.6204 19.7175 46.7605 20.5841 46.7605C21.4182 46.7605 22.1548 46.615 22.794 46.3241C23.4331 46.0225 23.9314 45.6077 24.2889 45.0798C24.6463 44.552 24.8197 43.9487 24.8088 43.27C24.8197 42.602 24.6138 42.0095 24.1914 41.4924C23.7797 40.9753 23.2002 40.5713 22.4527 40.2804C21.7053 39.9895 20.8441 39.8441 19.8692 39.8441H16.4894V33.6388H19.8692C20.7683 33.6388 21.559 33.4933 22.2415 33.2025C22.9348 32.9116 23.471 32.5076 23.8501 31.9905C24.2401 31.4734 24.4297 30.8809 24.4189 30.2129C24.4297 29.5665 24.2726 28.9956 23.9476 28.5C23.6227 28.0044 23.1677 27.6166 22.5827 27.3365C22.0086 27.0564 21.3424 26.9163 20.5841 26.9163C19.7608 26.9163 19.0242 27.0618 18.3743 27.3527C17.7351 27.6435 17.2314 28.0475 16.8631 28.5646C16.4948 29.0817 16.3052 29.6743 16.2944 30.3422H7.64996C7.66079 28.3169 8.21867 26.5285 9.3236 24.9772C10.4394 23.4259 11.9668 22.2085 13.9058 21.3251C15.8448 20.4417 18.0709 20 20.5841 20C23.0431 20 25.2151 20.4148 27.0999 21.2443C28.9956 22.0738 30.4743 23.2158 31.5359 24.6702C32.6083 26.1138 33.1391 27.7674 33.1283 29.6312C33.15 31.4842 32.5108 33.0032 31.2109 34.1882C29.9218 35.3733 28.2861 36.0735 26.3037 36.289V36.5475C28.9902 36.8384 31.0105 37.6572 32.3646 39.0038C33.7187 40.3397 34.3849 42.0203 34.3632 44.0456C34.374 45.9848 33.7891 47.7031 32.6083 49.2006C31.4384 50.698 29.8081 51.8723 27.7174 52.7234C25.6375 53.5745 23.2381 54 20.5191 54Z" fill="white"/>
<path d="M48.4261 53.0951H35.6219V20H48.2961C51.7192 20 54.6765 20.6625 57.168 21.9876C59.6703 23.302 61.5986 25.198 62.9526 27.6759C64.3175 30.1429 65 33.1001 65 36.5475C65 39.9949 64.323 42.9575 62.9689 45.4354C61.6148 47.9024 59.6974 49.7985 57.2168 51.1236C54.7361 52.4379 51.8059 53.0951 48.4261 53.0951ZM44.6563 45.4677H48.1011C49.7477 45.4677 51.1505 45.2037 52.3096 44.6759C53.4795 44.148 54.3678 43.2376 54.9744 41.9449C55.5919 40.6521 55.9006 38.853 55.9006 36.5475C55.9006 34.2421 55.5865 32.443 54.9582 31.1502C54.3407 29.8574 53.4308 28.9471 52.2283 28.4192C51.0368 27.8913 49.5743 27.6274 47.8411 27.6274H44.6563V45.4677Z" fill="white"/>
</svg>
