<svg width="32" height="32" viewBox="0 0 32 32" fill="none" xmlns="http://www.w3.org/2000/svg">
<path d="M14.4286 5C12.6928 5 11.2857 6.40711 11.2857 8.14286H17.5714C21.0429 8.14286 23.8571 10.9571 23.8571 14.4286V20.7143C25.5929 20.7143 27 19.3072 27 17.5714V8.14286C27 6.40711 25.5929 5 23.8571 5H14.4286Z" fill="white"/>
<path d="M5 14.4286C5 12.6928 6.40711 11.2857 8.14286 11.2857H17.5714C19.3072 11.2857 20.7143 12.6928 20.7143 14.4286V23.8571C20.7143 25.5929 19.3072 27 17.5714 27H8.14286C6.4071 27 5 25.5929 5 23.8571V14.4286Z" fill="white"/>
</svg>
