<svg width="9" height="8" viewBox="0 0 9 8" fill="none" xmlns="http://www.w3.org/2000/svg">
<path d="M2.59556 0.464492C2.20503 0.0739674 1.57187 0.0739678 1.18134 0.464492C0.79082 0.855016 0.790819 1.48818 1.18134 1.87871L3.30264 4L1.18132 6.12132C0.790796 6.51184 0.790797 7.14501 1.18132 7.53553C1.57185 7.92605 2.20501 7.92605 2.59553 7.53553L4.71685 5.41421L6.8382 7.53556C7.22872 7.92608 7.86189 7.92608 8.25241 7.53556C8.64294 7.14503 8.64294 6.51187 8.25241 6.12135L6.13106 4L8.25239 1.87868C8.64291 1.48815 8.64291 0.854987 8.25239 0.464463C7.86186 0.0739388 7.2287 0.0739387 6.83817 0.464463L4.71685 2.58579L2.59556 0.464492Z" fill="#9D9D9D"/>
</svg>
