<svg width="17" height="16" viewBox="0 0 17 16" fill="none" xmlns="http://www.w3.org/2000/svg">
<path fill-rule="evenodd" clip-rule="evenodd" d="M9.15147 3.03011C9.05494 2.98866 8.95099 2.96729 8.84593 2.96729C8.74088 2.96729 8.63693 2.98866 8.5404 3.03011L2.94501 5.45468C2.88715 5.48038 2.83236 5.51249 2.78168 5.55043C2.63229 5.63367 2.50793 5.75541 2.42151 5.90298C2.3351 6.05055 2.28979 6.21858 2.29029 6.38959V10.653C2.29029 10.9079 2.39153 11.1523 2.57175 11.3325C2.75196 11.5127 2.99638 11.614 3.25125 11.614C3.50611 11.614 3.75053 11.5127 3.93075 11.3325C4.11096 11.1523 4.21221 10.9079 4.21221 10.653V7.41462L8.5404 9.28867C8.73611 9.37315 8.95717 9.37315 9.15147 9.28867L14.7469 6.8655C14.8844 6.80589 15.0016 6.70736 15.0839 6.58202C15.1662 6.45669 15.21 6.31003 15.21 6.16009C15.21 6.01016 15.1662 5.86349 15.0839 5.73816C15.0016 5.61282 14.8844 5.51429 14.7469 5.45468L9.15147 3.03011ZM5.02181 9.38019L7.8716 10.615C8.17894 10.7481 8.51031 10.8168 8.84523 10.8168C9.18015 10.8168 9.51152 10.7481 9.81886 10.615L12.6687 9.38019V11.2922C12.6687 11.4612 12.6152 11.6245 12.5138 11.7569L12.5124 11.7583L12.511 11.7611L12.5081 11.7639L12.5025 11.7724L12.4842 11.7935L12.4321 11.854C12.3899 11.9038 12.3303 11.9657 12.2533 12.0399C12.0984 12.1877 11.8731 12.375 11.5732 12.5594C10.9664 12.9312 10.0639 13.2832 8.84593 13.2832C7.62661 13.2832 6.72549 12.9312 6.12005 12.558C5.80402 12.3622 5.51523 12.1255 5.26117 11.854L5.20907 11.7921L5.19217 11.771L5.18654 11.7625L5.18373 11.7597V11.7569C5.08067 11.7569 5.02616 11.3631 5.02603 11.2937L5.02181 9.38019Z" fill="white"/>
</svg>
