<svg width="24" height="25" viewBox="0 0 24 25" fill="none" xmlns="http://www.w3.org/2000/svg">
<path d="M1.2 17.8032C1.2 17.3614 1.55817 17.0032 2 17.0032H11.2C11.6418 17.0032 12 17.3614 12 17.8032V22.2536C12 22.6954 11.6418 23.0536 11.2 23.0536H2C1.55817 23.0536 1.2 22.6954 1.2 22.2536V17.8032ZM0 10.5427C0 10.1009 0.358172 9.74268 0.8 9.74268H6.4C6.84183 9.74268 7.2 10.1009 7.2 10.5427V14.9931C7.2 15.4349 6.84183 15.7931 6.4 15.7931H0.8C0.358173 15.7931 0 15.4349 0 14.9931V10.5427ZM8.4 10.5427C8.4 10.1009 8.75817 9.74268 9.2 9.74268H14.8C15.2418 9.74268 15.6 10.1009 15.6 10.5427V14.9931C15.6 15.4349 15.2418 15.7931 14.8 15.7931H9.2C8.75817 15.7931 8.4 15.4349 8.4 14.9931V10.5427ZM16.8 10.5427C16.8 10.1009 17.1582 9.74268 17.6 9.74268H23.2C23.6418 9.74268 24 10.1009 24 10.5427V14.9931C24 15.4349 23.6418 15.7931 23.2 15.7931H17.6C17.1582 15.7931 16.8 15.4349 16.8 14.9931V10.5427ZM13.2 17.8032C13.2 17.3614 13.5582 17.0032 14 17.0032H22C22.4418 17.0032 22.8 17.3614 22.8 17.8032V22.2536C22.8 22.6954 22.4418 23.0536 22 23.0536H14C13.5582 23.0536 13.2 22.6954 13.2 22.2536V17.8032ZM1.2 3.28218C1.2 2.84035 1.55817 2.48218 2 2.48218H10C10.4418 2.48218 10.8 2.84035 10.8 3.28218V7.7326C10.8 8.17443 10.4418 8.5326 10 8.5326H2C1.55817 8.5326 1.2 8.17443 1.2 7.7326V3.28218ZM12 3.28218C12 2.84035 12.3582 2.48218 12.8 2.48218H22C22.4418 2.48218 22.8 2.84035 22.8 3.28218V7.7326C22.8 8.17443 22.4418 8.5326 22 8.5326H12.8C12.3582 8.5326 12 8.17443 12 7.7326V3.28218Z" fill="white"/>
</svg>
