<svg width="17" height="17" viewBox="0 0 17 17" fill="none" xmlns="http://www.w3.org/2000/svg">
<path fill-rule="evenodd" clip-rule="evenodd" d="M14.4292 11.1856C14.3045 11.4276 14.2612 11.7061 14.3316 11.969L14.6379 13.1121C14.8372 13.8557 14.1567 14.5361 13.4132 14.3368L12.1163 13.9894C11.8743 13.9245 11.6183 13.956 11.3894 14.0579C10.6081 14.4058 9.74291 14.5991 8.83252 14.5991C5.35728 14.5991 2.54004 11.7819 2.54004 8.30664C2.54004 4.8314 5.35728 2.01416 8.83252 2.01416C12.3078 2.01416 15.125 4.8314 15.125 8.30664C15.125 9.34409 14.8739 10.3229 14.4292 11.1856ZM7.73745 8.47867L7.41732 5.40539C7.37173 4.96768 7.53161 4.53355 7.85021 4.22996C8.39883 3.7072 9.26122 3.7072 9.80984 4.22996C10.1284 4.53355 10.2883 4.96768 10.2427 5.40539L9.92259 8.47867C9.8643 9.03825 9.39264 9.46334 8.83002 9.46334C8.26741 9.46334 7.79574 9.03825 7.73745 8.47867ZM10.0682 11.3132C10.0682 11.997 9.51385 12.5513 8.83007 12.5513C8.14629 12.5513 7.59197 11.997 7.59197 11.3132C7.59197 10.6294 8.14629 10.0751 8.83007 10.0751C9.51385 10.0751 10.0682 10.6294 10.0682 11.3132Z" fill="white"/>
</svg>
