<svg width="40" height="12" viewBox="0 0 40 12" fill="none" xmlns="http://www.w3.org/2000/svg">
<path fill-rule="evenodd" clip-rule="evenodd" d="M29.2933 6.24835C29.2933 3.3143 31.6719 0.935791 34.6059 0.935791C37.5399 0.935791 39.9185 3.3143 39.9185 6.24835C39.9185 9.18239 37.5399 11.5609 34.6059 11.5609C31.6719 11.5609 29.2933 9.18239 29.2933 6.24835ZM0.578209 6.24835C0.578209 3.3143 2.95672 0.93579 5.89077 0.93579C8.82481 0.935791 11.2033 3.3143 11.2033 6.24835C11.2033 9.18239 8.82481 11.5609 5.89077 11.5609C2.95672 11.5609 0.578209 9.18239 0.578209 6.24835ZM20.2483 0.935791C17.3143 0.935791 14.9358 3.3143 14.9358 6.24835C14.9358 9.18239 17.3143 11.5609 20.2483 11.5609C23.1824 11.5609 25.5609 9.18239 25.5609 6.24835C25.5609 3.3143 23.1824 0.935791 20.2483 0.935791Z" fill="#949594"/>
</svg>
