<svg width="17" height="17" viewBox="0 0 17 17" fill="none" xmlns="http://www.w3.org/2000/svg">
<path fill-rule="evenodd" clip-rule="evenodd" d="M3.0875 3.1499C2.3143 3.1499 1.6875 3.7767 1.6875 4.5499V12.9499C1.6875 13.7231 2.3143 14.3499 3.0875 14.3499H14.2875C15.0607 14.3499 15.6875 13.7231 15.6875 12.9499V4.5499C15.6875 3.7767 15.0607 3.1499 14.2875 3.1499H3.0875ZM13.785 10.6058C14.1078 10.3412 14.155 9.86509 13.8904 9.5423C13.6259 9.21952 13.1498 9.17231 12.827 9.43687L10.584 11.2752L8.49895 9.45241C8.18474 9.17771 7.70735 9.20975 7.43266 9.52395C7.15797 9.83816 7.19 10.3156 7.5042 10.5902L9.91031 12.6938C10.2809 13.0178 10.8314 13.0265 11.2122 12.7145L13.785 10.6058Z" fill="white"/>
</svg>
