<svg width="16" height="16" viewBox="0 0 16 16" fill="none" xmlns="http://www.w3.org/2000/svg">
<path d="M10.5526 13.7285C10.5989 13.7555 10.6429 13.7868 10.6825 13.8242C10.8128 13.9473 10.8916 14.115 10.9022 14.2939C10.9127 14.473 10.8542 14.6495 10.7391 14.7871C10.624 14.9246 10.4611 15.0139 10.283 15.0352L10.2 15.04H9.55941C9.46694 15.04 9.37634 15.0219 9.29086 14.9902L10.5526 13.7285Z" fill="white"/>
<path d="M6.15121 10.1338C6.24076 10.1567 6.3253 10.1975 6.39925 10.2529C6.54847 10.365 6.64728 10.5321 6.67367 10.7168C6.69992 10.9015 6.6518 11.0891 6.53988 11.2383L5.68343 12.3799C5.5215 12.5957 5.28338 12.7415 5.01742 12.7871C4.75149 12.8327 4.47827 12.7746 4.25375 12.625L2.89437 11.7188C2.75375 11.8316 2.57501 11.886 2.39535 11.8711C2.21585 11.856 2.04851 11.7731 1.92855 11.6387C1.80863 11.5042 1.74533 11.3285 1.75082 11.1484C1.75634 10.9683 1.83083 10.7968 1.95882 10.6699L2.30648 10.3223C2.42266 10.2059 2.57642 10.1335 2.74007 10.1172C2.90361 10.101 3.06816 10.1423 3.20492 10.2334L4.75765 11.2686L5.4139 10.3936C5.46935 10.3197 5.53852 10.257 5.618 10.21C5.69744 10.1629 5.78542 10.1322 5.87679 10.1191C5.96825 10.1061 6.06171 10.1109 6.15121 10.1338Z" fill="white"/>
<path d="M8.79281 0.96094C9.31417 0.960171 9.81768 1.15199 10.2059 1.5C10.594 1.84804 10.8394 2.3274 10.8953 2.84571C10.9513 3.36406 10.8136 3.88477 10.5086 4.30762C10.2035 4.73052 9.75266 5.02632 9.243 5.13672L9.12289 5.15918L10.1336 6.77539L11.3475 6.29004C11.5143 6.22279 11.7006 6.22232 11.868 6.28809C11.9403 6.31648 12.0051 6.358 12.0633 6.40723L10.2977 8.17285C10.1165 8.19414 9.93173 8.1817 9.75375 8.13184C9.45557 8.04823 9.19344 7.86787 9.00765 7.62012L8.93929 7.52246L8.82504 7.33887L8.39828 9.0459C8.36136 9.19418 8.29993 9.33513 8.21761 9.46387L8.15511 9.55567L8.59066 9.87891L7.58383 10.8857L6.26058 9.90332C6.22114 9.87434 6.18478 9.8412 6.15218 9.80469C5.95669 9.64822 5.80708 9.44188 5.71761 9.20801C5.62815 8.974 5.60212 8.71976 5.6434 8.47266L5.66683 8.36231L6.22543 6.12598L5.12093 6.45703L4.53304 8.22266C4.47658 8.39344 4.35645 8.53579 4.19808 8.6211C4.03983 8.70633 3.85505 8.72833 3.68148 8.68164C3.50778 8.63479 3.3585 8.52254 3.26449 8.36914C3.17052 8.21577 3.13853 8.03245 3.17562 7.85645L3.19711 7.77735L3.785 6.01172C3.85038 5.81593 3.95817 5.63688 4.10043 5.48731C4.24276 5.33767 4.41683 5.22157 4.60922 5.14649L4.71664 5.1084L7.13558 4.38281C6.88941 4.07167 6.73555 3.69712 6.69222 3.30274C6.64894 2.90828 6.71857 2.50955 6.89144 2.15235C7.06436 1.79514 7.33448 1.49398 7.67074 1.28321C8.00702 1.07247 8.39595 0.960837 8.79281 0.96094Z" fill="white"/>
<path d="M12.5564 7.07406C12.6376 6.99664 12.7441 6.95232 12.8555 6.94961C12.9629 6.94961 13.0703 6.99628 13.147 7.07406L14.129 8.06961C14.2063 8.14958 14.2496 8.25708 14.2496 8.36906C14.2496 8.48103 14.2063 8.58854 14.129 8.6685L13.3618 9.44628L11.7892 7.85183L12.5564 7.07406Z" fill="white"/>
<path d="M6.26678 15.0396V13.4374L11.3366 8.30295L12.9092 9.89739L7.84705 15.0396H6.26678Z" fill="white"/>
</svg>
