<svg width="17" height="16" viewBox="0 0 17 16" fill="none" xmlns="http://www.w3.org/2000/svg">
<path d="M10.9987 13.5139C10.8468 13.9444 10.565 14.3173 10.1923 14.581C9.81963 14.8447 9.37431 14.9863 8.91775 14.9863C8.46119 14.9863 8.01587 14.8447 7.64317 14.581C7.27047 14.3173 6.98875 13.9444 6.83683 13.5139H10.9987ZM8.91775 1.01367C10.2829 1.01367 11.5921 1.55596 12.5573 2.52124C13.5226 3.48652 14.0649 4.79571 14.0649 6.16082V8.75498C14.065 8.86911 14.0917 8.98164 14.1428 9.08367L15.4046 11.608C15.4663 11.7313 15.4954 11.8683 15.4892 12.0061C15.483 12.1438 15.4417 12.2777 15.3692 12.395C15.2967 12.5123 15.1955 12.6091 15.075 12.6762C14.9546 12.7434 14.819 12.7786 14.6811 12.7786H14.3693L15.1568 13.5661C15.2908 13.7048 15.3649 13.8905 15.3632 14.0833C15.3615 14.2761 15.2842 14.4605 15.1479 14.5969C15.0115 14.7332 14.8271 14.8105 14.6343 14.8122C14.4415 14.8139 14.2558 14.7398 14.1171 14.6058L2.67867 3.16812C2.60844 3.10029 2.55243 3.01916 2.51389 2.92945C2.47535 2.83973 2.45507 2.74325 2.45422 2.64561C2.45337 2.54798 2.47198 2.45116 2.50895 2.36079C2.54592 2.27042 2.60052 2.18832 2.66956 2.11928C2.7386 2.05024 2.8207 1.99565 2.91106 1.95867C3.00143 1.9217 3.09825 1.9031 3.19589 1.90395C3.29352 1.90479 3.39001 1.92508 3.47972 1.96362C3.56943 2.00215 3.65057 2.05817 3.7184 2.1284L4.74194 3.15195C5.21841 2.48962 5.84572 1.95024 6.57198 1.57841C7.29824 1.20659 8.10258 1.01301 8.91849 1.01367M3.78752 5.73949L10.8266 12.7786H3.15442C3.01653 12.7786 2.88093 12.7434 2.76049 12.6762C2.64005 12.6091 2.53877 12.5123 2.46628 12.395C2.39378 12.2777 2.35247 12.1438 2.34628 12.0061C2.34008 11.8683 2.3692 11.7313 2.43087 11.608L3.6934 9.08367C3.74428 8.98158 3.77071 8.86905 3.7706 8.75498V6.16082C3.7706 6.01866 3.77624 5.87822 3.78752 5.73949Z" fill="white"/>
</svg>
