<svg width="17" height="16" viewBox="0 0 17 16" fill="none" xmlns="http://www.w3.org/2000/svg">
<g clip-path="url(#clip0_118_1265)">
<path fill-rule="evenodd" clip-rule="evenodd" d="M0.83252 2.03865C0.83252 0.910916 1.74734 -0.00390625 2.87507 -0.00390625H14.79C15.9177 -0.00390625 16.8325 0.910916 16.8325 2.03865V13.9535C16.8325 15.0813 15.9177 15.9961 14.79 15.9961H2.87507C1.74734 15.9961 0.83252 15.0813 0.83252 13.9535V2.03865ZM7.69914 4.81918C7.69914 4.34915 7.31811 3.96811 6.84808 3.96811C6.37805 3.96811 5.99701 4.34915 5.99701 4.81918V5.1596H5.65659C5.18656 5.1596 4.80552 5.54064 4.80552 6.01067C4.80552 6.4807 5.18656 6.86173 5.65659 6.86173H5.99701V9.13058H5.65659C5.18656 9.13058 4.80552 9.51162 4.80552 9.98165C4.80552 10.4517 5.18656 10.8327 5.65659 10.8327H5.99701V11.1731C5.99701 11.6432 6.37805 12.0242 6.84808 12.0242C7.31811 12.0242 7.69914 11.6432 7.69914 11.1731V10.8327H9.96896V11.1731C9.96896 11.6432 10.35 12.0242 10.82 12.0242C11.2901 12.0242 11.6711 11.6432 11.6711 11.1731V10.8327H12.0115C12.4815 10.8327 12.8626 10.4517 12.8626 9.98165C12.8626 9.51162 12.4815 9.13058 12.0115 9.13058H11.6711V6.86173H12.0115C12.4815 6.86173 12.8626 6.4807 12.8626 6.01067C12.8626 5.54064 12.4815 5.1596 12.0115 5.1596H11.6711V4.81918C11.6711 4.34915 11.2901 3.96811 10.82 3.96811C10.35 3.96811 9.96896 4.34915 9.96896 4.81918V5.1596H7.69914V4.81918ZM7.69914 9.13058V6.86173H9.96896V9.13058H7.69914Z" fill="white"/>
</g>
<defs>
<clipPath id="clip0_118_1265">
<rect width="16" height="16" fill="white" transform="translate(0.83252 -0.00390625)"/>
</clipPath>
</defs>
</svg>
