<svg width="17" height="16" viewBox="0 0 17 16" fill="none" xmlns="http://www.w3.org/2000/svg">
<g clip-path="url(#clip0_118_1257)">
<path d="M15.3734 4.06924L9.35765 1.01199C9.19692 0.9295 9.01628 0.88623 8.83264 0.88623C8.649 0.88623 8.46837 0.9295 8.30763 1.01199L2.2919 4.07051C2.12011 4.15782 1.9767 4.28637 1.87665 4.44273C1.7766 4.59909 1.72359 4.77754 1.72314 4.95943V11.032C1.72359 11.2139 1.7766 11.3924 1.87665 11.5487C1.9767 11.7051 2.12011 11.8336 2.2919 11.9209L8.30763 14.9795C8.46837 15.062 8.649 15.1052 8.83264 15.1052C9.01628 15.1052 9.19692 15.062 9.35765 14.9795L15.3734 11.9209C15.5452 11.8336 15.6886 11.7051 15.7886 11.5487C15.8887 11.3924 15.9417 11.2139 15.9421 11.032V4.96007C15.9421 4.77785 15.8892 4.59901 15.7892 4.44228C15.6891 4.28555 15.5455 4.1567 15.3734 4.06924ZM8.83264 7.48841L3.33987 4.69466L8.83264 1.90091L14.3254 4.69466L8.83264 7.48841ZM9.37953 13.815V8.36653L14.8484 5.58675V11.032L9.37953 13.815Z" fill="white"/>
</g>
<defs>
<clipPath id="clip0_118_1257">
<rect width="16" height="16" fill="white" transform="translate(0.83252 -0.00390625)"/>
</clipPath>
</defs>
</svg>
