<svg width="54" height="39" viewBox="0 0 54 39" fill="none" xmlns="http://www.w3.org/2000/svg">
<rect x="0.54248" width="53" height="39" rx="3" fill="#C4C4C4"/>
<rect x="1.04248" y="0.5" width="52" height="38" rx="2.5" stroke="black" stroke-opacity="0.2"/>
<path d="M17.9766 18.2306H16.4483C16.3895 17.904 16.2801 17.6167 16.1201 17.3685C15.9601 17.1203 15.7642 16.9097 15.5323 16.7366C15.3005 16.5635 15.0409 16.4329 14.7535 16.3447C14.4694 16.2566 14.1673 16.2125 13.8473 16.2125C13.2693 16.2125 12.7517 16.3578 12.2946 16.6484C11.8407 16.9391 11.4814 17.3652 11.2169 17.9269C10.9557 18.4886 10.8251 19.1743 10.8251 19.9842C10.8251 20.8005 10.9557 21.4896 11.2169 22.0512C11.4814 22.6129 11.8423 23.0374 12.2995 23.3248C12.7566 23.6122 13.2709 23.7558 13.8424 23.7558C14.1592 23.7558 14.4596 23.7134 14.7437 23.6285C15.0311 23.5403 15.2907 23.4113 15.5225 23.2415C15.7544 23.0717 15.9503 22.8644 16.1103 22.6194C16.2736 22.3713 16.3863 22.0872 16.4483 21.7671L17.9766 21.772C17.8949 22.2651 17.7365 22.719 17.5014 23.1338C17.2696 23.5452 16.9708 23.9012 16.605 24.2016C16.2426 24.4987 15.8278 24.729 15.3609 24.8922C14.8939 25.0555 14.3845 25.1372 13.8326 25.1372C12.964 25.1372 12.1901 24.9314 11.5108 24.52C10.8316 24.1052 10.2961 23.5126 9.9042 22.7419C9.5156 21.9712 9.32131 21.052 9.32131 19.9842C9.32131 18.9131 9.51724 17.9938 9.9091 17.2264C10.301 16.4558 10.8365 15.8647 11.5157 15.4533C12.195 15.0385 12.9673 14.8312 13.8326 14.8312C14.3649 14.8312 14.8613 14.9079 15.3217 15.0614C15.7854 15.2116 16.2017 15.4337 16.5708 15.7276C16.9398 16.0182 17.2451 16.3741 17.4867 16.7954C17.7284 17.2134 17.8917 17.6918 17.9766 18.2306ZM19.4129 16.2713V14.9683H27.1767V16.2713H24.0467V25H22.538V16.2713H19.4129ZM29.0122 25V14.9683H32.588C33.3652 14.9683 34.0101 15.1022 34.5228 15.37C35.0387 15.6378 35.4241 16.0084 35.6788 16.4819C35.9335 16.9521 36.0609 17.4958 36.0609 18.113C36.0609 18.7269 35.9319 19.2674 35.6739 19.7344C35.4192 20.1981 35.0339 20.5589 34.5179 20.8169C34.0052 21.0748 33.3603 21.2038 32.5831 21.2038H29.8743V19.9009H32.4459C32.9358 19.9009 33.3342 19.8307 33.6411 19.6903C33.9513 19.5499 34.1783 19.3458 34.322 19.078C34.4657 18.8102 34.5375 18.4886 34.5375 18.113C34.5375 17.7342 34.464 17.406 34.3171 17.1285C34.1734 16.8509 33.9464 16.6386 33.6362 16.4917C33.3293 16.3415 32.926 16.2664 32.4263 16.2664H30.5258V25H29.0122ZM33.9644 20.474L36.4429 25H34.7187L32.2892 20.474H33.9644ZM38.0226 25V14.9683H39.5361V23.6971H44.0817V25H38.0226Z" fill="#373737"/>
</svg>
