<svg width="17" height="17" viewBox="0 0 17 17" fill="none" xmlns="http://www.w3.org/2000/svg">
<path fill-rule="evenodd" clip-rule="evenodd" d="M3.51627 11.0395C3.31168 10.2918 2.72023 8.2868 2.22178 6.9923C2.1139 6.70215 2.40405 6.39711 2.69048 6.51615C3.06246 6.66866 3.47534 6.84349 3.87708 7.01832C5.04883 7.51677 6.16851 7.99291 6.22059 7.89619C6.26151 7.82923 6.57392 7.14106 6.99798 6.21855C7.4332 5.26255 7.9838 4.05735 8.46366 3.03067C8.58641 2.76656 8.95836 2.77028 9.07739 3.03067L11.1865 7.60231C11.2646 7.76598 11.4581 7.84413 11.6255 7.77345L14.8059 6.47524C15.0737 6.36736 15.3491 6.62404 15.2561 6.8993L13.8686 11.0655C13.8202 11.2031 13.69 11.2998 13.5449 11.2998H3.85474C3.69851 11.2998 3.56091 11.192 3.51627 11.0395ZM4.09658 12.0624C3.72088 12.0624 3.41583 12.3674 3.41583 12.7431V13.2528C3.41583 13.6285 3.72088 13.9335 4.09658 13.9335H13.1097C13.4854 13.9335 13.7904 13.6285 13.7904 13.2528V12.7431C13.7904 12.3674 13.4854 12.0624 13.1097 12.0624H4.09658Z" fill="#C2F671"/>
</svg>
