<svg width="17" height="17" viewBox="0 0 17 17" fill="none" xmlns="http://www.w3.org/2000/svg">
<path fill-rule="evenodd" clip-rule="evenodd" d="M4.88989 6.4602C4.1038 6.4602 3.46655 5.82295 3.46655 5.03686C3.46655 4.25077 4.1038 3.61353 4.88989 3.61353C5.67598 3.61353 6.31323 4.25077 6.31323 5.03686C6.31323 5.82295 5.67598 6.4602 4.88989 6.4602ZM12.5832 6.4602C11.7972 6.4602 11.1599 5.82295 11.1599 5.03686C11.1599 4.25077 11.7972 3.61353 12.5832 3.61353C13.3693 3.61353 14.0066 4.25077 14.0066 5.03686C14.0066 5.82295 13.3693 6.4602 12.5832 6.4602ZM12.5832 14.1536C11.7972 14.1536 11.1599 13.5163 11.1599 12.7302C11.1599 11.9441 11.7972 11.3069 12.5832 11.3069C13.3693 11.3069 14.0066 11.9441 14.0066 12.7302C14.0066 13.5163 13.3693 14.1536 12.5832 14.1536ZM11.1599 8.88354C11.1599 9.66963 11.7972 10.3069 12.5832 10.3069C13.3693 10.3069 14.0066 9.66963 14.0066 8.88354C14.0066 8.09745 13.3693 7.46021 12.5832 7.46021C11.7972 7.46021 11.1599 8.09745 11.1599 8.88354ZM3.46655 12.7302C3.46655 13.5163 4.1038 14.1536 4.88989 14.1536C5.67598 14.1536 6.31323 13.5163 6.31323 12.7302C6.31323 11.9441 5.67598 11.3069 4.88989 11.3069C4.1038 11.3069 3.46655 11.9441 3.46655 12.7302ZM8.73657 14.1536C7.95048 14.1536 7.31323 13.5163 7.31323 12.7302C7.31323 11.9441 7.95048 11.3069 8.73657 11.3069C9.52266 11.3069 10.1599 11.9441 10.1599 12.7302C10.1599 13.5163 9.52266 14.1536 8.73657 14.1536ZM7.31323 5.03686C7.31323 5.82295 7.95048 6.4602 8.73657 6.4602C9.52266 6.4602 10.1599 5.82295 10.1599 5.03686C10.1599 4.25077 9.52266 3.61353 8.73657 3.61353C7.95048 3.61353 7.31323 4.25077 7.31323 5.03686ZM4.88989 10.3069C4.1038 10.3069 3.46655 9.66963 3.46655 8.88354C3.46655 8.09745 4.1038 7.46021 4.88989 7.46021C5.67598 7.46021 6.31323 8.09745 6.31323 8.88354C6.31323 9.66963 5.67598 10.3069 4.88989 10.3069ZM7.31323 8.88354C7.31323 9.66963 7.95048 10.3069 8.73657 10.3069C9.52266 10.3069 10.1599 9.66963 10.1599 8.88354C10.1599 8.09745 9.52266 7.46021 8.73657 7.46021C7.95048 7.46021 7.31323 8.09745 7.31323 8.88354Z" fill="white"/>
</svg>
