<svg width="17" height="17" viewBox="0 0 17 17" fill="none" xmlns="http://www.w3.org/2000/svg">
<path fill-rule="evenodd" clip-rule="evenodd" d="M8.59106 5.99072C7.80497 5.99072 7.16772 5.35347 7.16772 4.56738C7.16772 3.78129 7.80497 3.14404 8.59106 3.14404C9.37715 3.14404 10.0144 3.78129 10.0144 4.56738C10.0144 5.35347 9.37715 5.99072 8.59106 5.99072ZM8.59106 13.6841C7.80497 13.6841 7.16772 13.0468 7.16772 12.2607C7.16772 11.4747 7.80497 10.8374 8.59106 10.8374C9.37715 10.8374 10.0144 11.4747 10.0144 12.2607C10.0144 13.0468 9.37715 13.6841 8.59106 13.6841ZM7.16772 8.41406C7.16772 9.20015 7.80497 9.8374 8.59106 9.8374C9.37715 9.8374 10.0144 9.20015 10.0144 8.41406C10.0144 7.62797 9.37715 6.99072 8.59106 6.99072C7.80497 6.99072 7.16772 7.62797 7.16772 8.41406Z" fill="white"/>
</svg>
