<svg width="18" height="19" viewBox="0 0 18 19" fill="none" xmlns="http://www.w3.org/2000/svg">
<path d="M3.9729 7.42822H6.32223C7.2149 7.42822 7.93856 8.15188 7.93856 9.04455C7.93856 11.0418 9.55764 12.6609 11.5549 12.6609H14.0041V10.6609H11.5549C10.6622 10.6609 9.93856 9.93722 9.93856 9.04455C9.93856 7.04731 8.31947 5.42822 6.32223 5.42822H3.9729V7.42822Z" fill="#78FFD4"/>
<path fill-rule="evenodd" clip-rule="evenodd" d="M2.77778 17.0444H15.2222C16.2027 17.0444 17 16.2471 17 15.2667V2.82221C17 1.84177 16.2027 1.04443 15.2222 1.04443H2.77778C1.79733 1.04443 1 1.84177 1 2.82221V15.2667C1 16.2471 1.79733 17.0444 2.77778 17.0444ZM3 15.0444H15V3.04443H3V15.0444Z" fill="#78FFD4"/>
<path d="M3.9729 7.42822H6.32223C7.2149 7.42822 7.93856 8.15188 7.93856 9.04455C7.93856 11.0418 9.55764 12.6609 11.5549 12.6609H14.0041V10.6609H11.5549C10.6622 10.6609 9.93856 9.93722 9.93856 9.04455C9.93856 7.04731 8.31947 5.42822 6.32223 5.42822H3.9729V7.42822Z" stroke="black" stroke-opacity="0.2" stroke-width="2"/>
<path fill-rule="evenodd" clip-rule="evenodd" d="M2.77778 17.0444H15.2222C16.2027 17.0444 17 16.2471 17 15.2667V2.82221C17 1.84177 16.2027 1.04443 15.2222 1.04443H2.77778C1.79733 1.04443 1 1.84177 1 2.82221V15.2667C1 16.2471 1.79733 17.0444 2.77778 17.0444ZM3 15.0444H15V3.04443H3V15.0444Z" stroke="black" stroke-opacity="0.2" stroke-width="2"/>
</svg>
