<svg width="17" height="17" viewBox="0 0 17 17" fill="none" xmlns="http://www.w3.org/2000/svg">
<path d="M8.23878 1.25049C6.89548 1.25049 5.6072 1.78411 4.65734 2.73397C3.70748 3.68382 3.17386 4.97211 3.17386 6.3154V8.86812C3.17397 8.98037 3.14795 9.0911 3.09789 9.19155L1.85554 11.6755C1.79485 11.7969 1.76619 11.9317 1.77229 12.0673C1.77839 12.2028 1.81903 12.3346 1.89037 12.45C1.96171 12.5654 2.06137 12.6607 2.17988 12.7267C2.2984 12.7928 2.43183 12.8275 2.56752 12.8274H13.91C14.0457 12.8275 14.1792 12.7928 14.2977 12.7267C14.4162 12.6607 14.5158 12.5654 14.5872 12.45C14.6585 12.3346 14.6992 12.2028 14.7053 12.0673C14.7114 11.9317 14.6827 11.7969 14.622 11.6755L13.3804 9.19155C13.3301 9.09116 13.3038 8.98042 13.3037 8.86812V6.3154C13.3037 4.97211 12.7701 3.68382 11.8202 2.73397C10.8704 1.78411 9.58208 1.25049 8.23878 1.25049ZM8.23878 14.9981C7.7897 14.9984 7.3516 14.8593 6.98486 14.6001C6.61812 14.3409 6.3408 13.9744 6.1911 13.551H10.2864C10.1368 13.9744 9.85943 14.3409 9.49269 14.6001C9.12595 14.8593 8.68785 14.9984 8.23878 14.9981Z" fill="white"/>
</svg>
