<svg width="10" height="11" viewBox="0 0 10 11" fill="none" xmlns="http://www.w3.org/2000/svg">
<path d="M0.145771 2.34473C0.145771 3.34574 0.957255 4.15723 1.95827 4.15723C2.95929 4.15723 3.77077 3.34574 3.77077 2.34473C3.77077 1.34371 2.95929 0.532227 1.95827 0.532227C0.957255 0.532227 0.145771 1.34371 0.145771 2.34473Z" fill="#D2D2D2"/>
<path d="M6.22915 8.42822C6.22915 9.42924 7.04063 10.2407 8.04165 10.2407C9.04266 10.2407 9.85415 9.42924 9.85415 8.42822C9.85415 7.42721 9.04266 6.61572 8.04165 6.61572C7.04063 6.61572 6.22915 7.42721 6.22915 8.42822Z" fill="#D2D2D2"/>
<path d="M9.56124 2.23933C9.95176 1.8488 9.95175 1.21564 9.56123 0.825114C9.1707 0.434593 8.53753 0.434598 8.14701 0.825125L0.43864 8.53362C0.0481184 8.92415 0.0481234 9.55731 0.438651 9.94783C0.829178 10.3384 1.46234 10.3384 1.85286 9.94782L9.56124 2.23933Z" fill="#D2D2D2"/>
</svg>
