<svg width="16" height="17" viewBox="0 0 16 17" fill="none" xmlns="http://www.w3.org/2000/svg">
<g clip-path="url(#clip0_616_6929)">
<path d="M8 1.45068C12.1423 1.45068 15.5 4.80843 15.5 8.95068C15.5 13.0929 12.1423 16.4507 8 16.4507C3.85775 16.4507 0.5 13.0929 0.5 8.95068C0.5 4.80843 3.85775 1.45068 8 1.45068ZM8 2.95068C6.4087 2.95068 4.88258 3.58282 3.75736 4.70804C2.63214 5.83326 2 7.35938 2 8.95068C2 10.542 2.63214 12.0681 3.75736 13.1933C4.88258 14.3185 6.4087 14.9507 8 14.9507C9.5913 14.9507 11.1174 14.3185 12.2426 13.1933C13.3679 12.0681 14 10.542 14 8.95068C14 7.35938 13.3679 5.83326 12.2426 4.70804C11.1174 3.58282 9.5913 2.95068 8 2.95068ZM8 11.2007C8.19891 11.2007 8.38968 11.2797 8.53033 11.4204C8.67098 11.561 8.75 11.7518 8.75 11.9507C8.75 12.1496 8.67098 12.3404 8.53033 12.481C8.38968 12.6217 8.19891 12.7007 8 12.7007C7.80109 12.7007 7.61032 12.6217 7.46967 12.481C7.32902 12.3404 7.25 12.1496 7.25 11.9507C7.25 11.7518 7.32902 11.561 7.46967 11.4204C7.61032 11.2797 7.80109 11.2007 8 11.2007ZM8 4.45068C8.19891 4.45068 8.38968 4.5297 8.53033 4.67035C8.67098 4.81101 8.75 5.00177 8.75 5.20068V9.70068C8.75 9.8996 8.67098 10.0904 8.53033 10.231C8.38968 10.3717 8.19891 10.4507 8 10.4507C7.80109 10.4507 7.61032 10.3717 7.46967 10.231C7.32902 10.0904 7.25 9.8996 7.25 9.70068V5.20068C7.25 5.00177 7.32902 4.81101 7.46967 4.67035C7.61032 4.5297 7.80109 4.45068 8 4.45068Z" fill="white"/>
</g>
<defs>
<clipPath id="clip0_616_6929">
<rect width="16" height="16" fill="white" transform="translate(0 0.950684)"/>
</clipPath>
</defs>
</svg>
