<svg width="16" height="16" viewBox="0 0 16 16" fill="none" xmlns="http://www.w3.org/2000/svg">
<g clip-path="url(#clip0_2595_20801)">
<path d="M7.52973 0.861741C7.79005 0.602176 8.21199 0.601976 8.47212 0.861741L10.0336 2.42326H12.9106C13.2783 2.42377 13.5764 2.72252 13.5766 3.09026V5.96623L15.1381 7.52776C15.398 7.78786 15.3977 8.20979 15.1381 8.47014L13.5766 10.0336V12.9106C13.5763 13.2782 13.2782 13.5761 12.9106 13.5766H10.0346L8.47309 15.1381C8.21291 15.3983 7.79112 15.398 7.53071 15.1381L5.96528 13.5766H3.09028C2.72225 13.5766 2.42355 13.2785 2.42329 12.9106V10.0326L0.861766 8.47014C0.60177 8.2098 0.601714 7.788 0.861766 7.52776L2.42329 5.96623V3.09026C2.42345 2.72221 2.72219 2.42326 3.09028 2.42326H5.96626L7.52973 0.861741ZM8.99946 4.99944C8.63152 4.99961 8.33361 5.29849 8.33345 5.66643C8.33345 6.85125 7.97321 7.35503 7.58833 7.61174C7.14202 7.90928 6.48789 7.99942 5.66645 7.99944C5.29837 7.99944 4.99963 8.29838 4.99946 8.66643C4.99946 9.68812 5.79338 10.5465 6.71431 10.9447C7.68222 11.3633 8.93534 11.3557 10.059 10.5385C11.2621 9.66301 11.4397 8.26019 11.1674 7.17131C11.0303 6.62295 10.7709 6.10584 10.4223 5.7133C10.0801 5.32804 9.58997 4.99951 8.99946 4.99944Z" fill="white"/>
</g>
<defs>
<clipPath id="clip0_2595_20801">
<rect width="16" height="16" fill="white"/>
</clipPath>
</defs>
</svg>
