<svg width="17" height="17" viewBox="0 0 17 17" fill="none" xmlns="http://www.w3.org/2000/svg">
<path d="M14.1164 9.47467C14.1164 9.50105 14.1137 9.51951 14.1085 9.53007C13.7708 10.944 13.0639 12.0901 11.9876 12.9685C10.9114 13.8469 9.65047 14.2861 8.20492 14.2861C7.43466 14.2861 6.68947 14.1411 5.96933 13.8509C5.24919 13.5607 4.60687 13.1466 4.04237 12.6085L3.02152 13.6293C2.92128 13.7295 2.80257 13.7797 2.66541 13.7797C2.52824 13.7797 2.40953 13.7295 2.30929 13.6293C2.20905 13.5291 2.15894 13.4104 2.15894 13.2732V9.72791C2.15894 9.59074 2.20905 9.47203 2.30929 9.37179C2.40953 9.27155 2.52824 9.22144 2.66541 9.22144H6.21069C6.34786 9.22144 6.46657 9.27155 6.5668 9.37179C6.66704 9.47203 6.71716 9.59074 6.71716 9.72791C6.71716 9.86507 6.66704 9.98378 6.5668 10.084L5.48264 11.1682C5.85722 11.5164 6.28192 11.7854 6.75673 11.9754C7.23155 12.1653 7.72483 12.2603 8.23657 12.2603C8.94352 12.2603 9.60299 12.0888 10.215 11.7459C10.827 11.4029 11.3176 10.9308 11.6869 10.3293C11.7449 10.2397 11.8847 9.93102 12.1063 9.40345C12.1485 9.28211 12.2277 9.22144 12.3437 9.22144H13.8631C13.9317 9.22144 13.9911 9.2465 14.0412 9.29661C14.0913 9.34673 14.1164 9.40609 14.1164 9.47467ZM14.3142 3.1438V6.68909C14.3142 6.82626 14.2641 6.94496 14.1639 7.0452C14.0636 7.14544 13.9449 7.19556 13.8077 7.19556H10.2625C10.1253 7.19556 10.0066 7.14544 9.90634 7.0452C9.8061 6.94496 9.75598 6.82626 9.75598 6.68909C9.75598 6.55192 9.8061 6.43321 9.90634 6.33298L10.9984 5.2409C10.2176 4.51813 9.29699 4.15674 8.23657 4.15674C7.52962 4.15674 6.87016 4.3282 6.25817 4.67112C5.64619 5.01404 5.15555 5.48622 4.78625 6.08765C4.72821 6.17734 4.58841 6.48597 4.36683 7.01354C4.32462 7.13489 4.24549 7.19556 4.12942 7.19556H2.55462C2.48603 7.19556 2.42668 7.1705 2.37656 7.12038C2.32644 7.07026 2.30138 7.01091 2.30138 6.94232V6.88693C2.6443 5.47303 3.35653 4.32688 4.43805 3.44847C5.51957 2.57006 6.78575 2.13086 8.23657 2.13086C9.00683 2.13086 9.75598 2.27726 10.484 2.57006C11.2121 2.86287 11.8584 3.27569 12.4229 3.80854L13.4516 2.78769C13.5519 2.68745 13.6706 2.63733 13.8077 2.63733C13.9449 2.63733 14.0636 2.68745 14.1639 2.78769C14.2641 2.88793 14.3142 3.00663 14.3142 3.1438Z" fill="white"/>
</svg>
