<svg width="17" height="17" viewBox="0 0 17 17" fill="none" xmlns="http://www.w3.org/2000/svg">
<g clip-path="url(#clip0_55_256)">
<path fill-rule="evenodd" clip-rule="evenodd" d="M3.32124 16.2213C3.02821 15.9213 2.86358 15.5143 2.86358 15.0899V5.48994H1.30103V3.88994H4.42613V2.28994C4.42613 1.86559 4.59076 1.45863 4.8838 1.15857C5.17683 0.858512 5.57427 0.689941 5.98869 0.689941H10.6764C11.0908 0.689941 11.4882 0.858512 11.7812 1.15857C12.0743 1.45863 12.2389 1.86559 12.2389 2.28994V3.88994H15.364V5.48994H13.8015V15.0899C13.8015 15.5143 13.6368 15.9213 13.3438 16.2213C13.0508 16.5214 12.6533 16.6899 12.2389 16.6899H4.42613C4.01172 16.6899 3.61428 16.5214 3.32124 16.2213ZM10.6764 2.28994H5.98869V3.88994H10.6764V2.28994ZM7.55128 7.09033H5.98872V13.4903H7.55128V7.09033ZM10.6764 7.09033H9.11383V13.4903H10.6764V7.09033Z" fill="white"/>
</g>
<defs>
<clipPath id="clip0_55_256">
<rect width="16" height="16" fill="white" transform="translate(0.33252 0.689941)"/>
</clipPath>
</defs>
</svg>
