<svg width="17" height="17" viewBox="0 0 17 17" fill="none" xmlns="http://www.w3.org/2000/svg">
<path d="M0.917969 3.2975V1.35943C0.917969 1.00412 1.04437 0.699841 1.29718 0.446599C1.55043 0.193788 1.8547 0.067383 2.21002 0.067383H4.14809V3.2975H0.917969Z" fill="white"/>
<path d="M0.917969 11.6958V4.58955H4.14809V11.6958H0.917969Z" fill="white"/>
<path d="M5.44014 3.2975V0.067383H12.5464V3.2975H5.44014Z" fill="white"/>
<path d="M5.44014 16.0673V12.8371H12.5464V16.0673H5.44014Z" fill="white"/>
<path d="M13.6877 11.6958V4.58955H16.9178V11.6958H13.6877Z" fill="white"/>
<path d="M16.9178 12.7959V14.7339C16.9178 15.0892 16.7914 15.3935 16.5386 15.6468C16.2854 15.8996 15.9811 16.026 15.6258 16.026L13.6877 16.026V12.7959H16.9178Z" fill="#999999"/>
<path d="M13.6877 0.0673828L15.6258 0.0673829C15.9811 0.0673829 16.2854 0.193789 16.5386 0.4466C16.7914 0.699842 16.9178 1.00412 16.9178 1.35943V3.29751H13.6877V0.0673828Z" fill="white"/>
<path d="M4.14809 16.0673H2.21002C1.8547 16.0673 1.55043 15.9408 1.29719 15.688C1.04437 15.4348 0.917969 15.1305 0.917969 14.7752L0.917969 12.8371H4.14809V16.0673Z" fill="white"/>
</svg>
