<svg width="17" height="17" viewBox="0 0 17 17" fill="none" xmlns="http://www.w3.org/2000/svg">
<rect x="0.33252" y="0.689941" width="16" height="16" rx="3" fill="white"/>
<path d="M8.30285 6.65573L10.0645 7.67285V9.70708L8.30285 10.7242L6.54116 9.70708V7.67285L8.30285 6.65573Z" fill="#444444"/>
<path fill-rule="evenodd" clip-rule="evenodd" d="M7.00636 3.67099C6.98073 3.56766 6.96713 3.45962 6.96713 3.34837C6.96713 2.61072 7.56514 2.0127 8.30281 2.0127C9.04048 2.0127 9.63849 2.61072 9.63849 3.34837C9.63849 3.45957 9.6249 3.56762 9.59928 3.6709L12.0153 5.06584C12.2562 4.82963 12.5863 4.68396 12.9503 4.68396C13.688 4.68396 14.286 5.28198 14.286 6.01964C14.286 6.63714 13.8669 7.15677 13.2977 7.30969V9.99544C13.8669 10.1484 14.286 10.668 14.286 11.2855C14.286 12.0231 13.688 12.6212 12.9503 12.6212C12.6106 12.6212 12.3005 12.4944 12.0648 12.2855L9.59918 13.709C9.62486 13.8124 9.63849 13.9206 9.63849 14.032C9.63849 14.7697 9.04048 15.3677 8.30281 15.3677C7.56514 15.3677 6.96713 14.7697 6.96713 14.032C6.96713 13.9206 6.98077 13.8124 7.00646 13.7089L4.57642 12.3059C4.34381 12.5026 4.04304 12.6212 3.71458 12.6212C2.97691 12.6212 2.37891 12.0231 2.37891 11.2855C2.37891 10.6896 2.76919 10.1848 3.30809 10.0128V7.29232C2.76919 7.12032 2.37891 6.61554 2.37891 6.01964C2.37891 5.28198 2.97691 4.68396 3.71458 4.68396C4.06756 4.68396 4.38855 4.8209 4.62736 5.04451L7.00636 3.67099ZM9.23047 4.30933C8.9902 4.54131 8.66317 4.68405 8.30281 4.68405C7.94247 4.68405 7.61547 4.54135 7.37521 4.30942L5.00598 5.67727C5.03487 5.78653 5.05026 5.90129 5.05026 6.01964C5.05026 6.64313 4.62306 7.16685 4.04539 7.31405V9.99108C4.62306 10.1383 5.05026 10.662 5.05026 11.2855C5.05026 11.4272 5.0282 11.5637 4.98733 11.6918L7.37553 13.0706C7.61575 12.8389 7.94264 12.6963 8.30281 12.6963C8.66301 12.6963 8.98991 12.8389 9.23015 13.0707L11.6687 11.6628C11.6335 11.5432 11.6147 11.4165 11.6147 11.2855C11.6147 10.6835 12.0129 10.1745 12.5604 10.0076V7.29749C12.0129 7.13063 11.6147 6.62162 11.6147 6.01964C11.6147 5.912 11.6274 5.80737 11.6514 5.70711L9.23047 4.30933Z" fill="#444444"/>
</svg>
