<svg width="25" height="25" viewBox="0 0 25 25" fill="none" xmlns="http://www.w3.org/2000/svg">
<path d="M13.7559 20.5068C14.8604 20.5068 15.7559 19.6114 15.7559 18.5068V15.5068H18.7559C19.8604 15.5068 20.7559 14.6114 20.7559 13.5068V11.5068C20.7559 10.4023 19.8604 9.50684 18.7559 9.50684H15.7559V6.50684C15.7559 5.40227 14.8604 4.50684 13.7559 4.50684H11.7559C10.6513 4.50684 9.75586 5.40227 9.75586 6.50684L9.75586 9.50684H6.75586C5.65129 9.50684 4.75586 10.4023 4.75586 11.5068V13.5068C4.75586 14.6114 5.65129 15.5068 6.75586 15.5068H9.75586L9.75586 18.5068C9.75586 19.6114 10.6513 20.5068 11.7559 20.5068H13.7559Z" fill="white"/>
</svg>
