<svg width="16" height="16" viewBox="0 0 16 16" fill="none" xmlns="http://www.w3.org/2000/svg">
<g clip-path="url(#clip0_153_623)">
<path d="M1.09437 10.3157L2.52463 12.765C2.61959 12.9274 2.77584 13.0459 2.95902 13.0944C3.14221 13.1428 3.33734 13.1173 3.5015 13.0234L4.49983 12.4528C4.9146 12.7763 5.373 13.0418 5.855 13.24V14.3712C5.855 14.5589 5.93035 14.739 6.06446 14.8717C6.19857 15.0045 6.38047 15.079 6.57013 15.079H9.43066C9.62033 15.079 9.80222 15.0045 9.93634 14.8717C10.0705 14.739 10.1458 14.5589 10.1458 14.3712V13.24C10.6316 13.0398 11.0875 12.7749 11.501 12.4528L12.4993 13.0234C12.8404 13.218 13.2795 13.1012 13.4762 12.765L14.9064 10.3157C15.0005 10.153 15.0259 9.96013 14.977 9.77902C14.9281 9.59791 14.809 9.44325 14.6454 9.34873L13.6642 8.78738C13.7409 8.26531 13.7404 7.73498 13.6628 7.21305L14.644 6.6517C14.9844 6.45703 15.1024 6.02168 14.905 5.68473L13.4747 3.23546C13.3798 3.07299 13.2235 2.95451 13.0403 2.90606C12.8572 2.85761 12.662 2.88315 12.4979 2.97708L11.4995 3.54763C11.0866 3.22511 10.6308 2.96024 10.1451 2.76047V1.62927C10.1451 1.44153 10.0697 1.26147 9.93562 1.12872C9.80151 0.995967 9.61961 0.921387 9.42995 0.921387H6.56942C6.37975 0.921387 6.19786 0.995967 6.06375 1.12872C5.92963 1.26147 5.85429 1.44153 5.85429 1.62927V2.76047C5.36852 2.96066 4.91259 3.22549 4.49911 3.54763L3.5015 2.97708C3.42024 2.93048 3.33049 2.90019 3.2374 2.88796C3.1443 2.87572 3.04968 2.88178 2.95895 2.90578C2.86822 2.92977 2.78316 2.97124 2.70863 3.02781C2.63411 3.08438 2.57158 3.15494 2.52463 3.23546L1.09437 5.68473C1.00025 5.8474 0.974871 6.0403 1.02376 6.22141C1.07265 6.40252 1.19185 6.55718 1.35539 6.6517L2.33655 7.21305C2.25942 7.73505 2.25942 8.26538 2.33655 8.78738L1.35539 9.34873C1.01499 9.5434 0.896993 9.97875 1.09437 10.3157ZM7.99968 5.16868C9.57726 5.16868 10.8602 6.43863 10.8602 8.00022C10.8602 9.5618 9.57726 10.8317 7.99968 10.8317C6.4221 10.8317 5.13916 9.5618 5.13916 8.00022C5.13916 6.43863 6.4221 5.16868 7.99968 5.16868Z" fill="white"/>
</g>
<defs>
<clipPath id="clip0_153_623">
<rect width="16" height="16" fill="white"/>
</clipPath>
</defs>
</svg>
