<svg width="17" height="17" viewBox="0 0 17 17" fill="none" xmlns="http://www.w3.org/2000/svg">
<g clip-path="url(#clip0_118_1263)">
<path d="M8.00372 1.68945L0.33252 8.68945H2.63388V14.9117H6.46948V10.245H9.53796V11.1083L13.7034 6.88501L8.00372 1.68945ZM14.9385 8.02056C14.8271 8.02328 14.7205 8.06759 14.6393 8.14501L13.8722 8.92279L15.4448 10.5172L16.2119 9.73945C16.2892 9.65949 16.3325 9.55198 16.3325 9.44001C16.3325 9.32804 16.2892 9.22053 16.2119 9.14056L15.23 8.14501C15.1533 8.06723 15.0459 8.02056 14.9385 8.02056ZM13.4196 9.3739L8.77084 14.0872V15.6895H10.3511L14.9922 10.9683L13.4196 9.3739Z" fill="white"/>
</g>
<defs>
<clipPath id="clip0_118_1263">
<rect width="16" height="16" fill="white" transform="translate(0.33252 0.689453)"/>
</clipPath>
</defs>
</svg>
