<svg width="17" height="17" viewBox="0 0 17 17" fill="none" xmlns="http://www.w3.org/2000/svg">
<g clip-path="url(#clip0_379_2621)">
<path d="M15.7128 14.4063L14.7825 9.04202H15.0967C15.3494 9.04202 15.553 8.8384 15.553 8.58563V5.21539C15.553 4.96262 15.3494 4.759 15.0967 4.759H10.7785V1.5643C10.7785 1.31153 10.5749 1.10791 10.3222 1.10791H7.51362C7.26085 1.10791 7.05723 1.31153 7.05723 1.5643V4.759H2.73911C2.48634 4.759 2.28272 4.96262 2.28272 5.21539V8.58563C2.28272 8.8384 2.48634 9.04202 2.73911 9.04202H3.05331L2.12299 14.4063C2.11772 14.4326 2.11597 14.459 2.11597 14.4836C2.11597 14.7363 2.31959 14.9399 2.57235 14.9399H15.2634C15.2897 14.9399 15.3161 14.9382 15.3407 14.9329C15.5899 14.8908 15.7567 14.6538 15.7128 14.4063ZM3.51146 5.98774H8.28597V2.33664H9.54981V5.98774H14.3243V7.81329H3.51146V5.98774ZM11.7264 13.7112V10.9729C11.7264 10.8957 11.6632 10.8325 11.586 10.8325H10.7434C10.6662 10.8325 10.603 10.8957 10.603 10.9729V13.7112H7.23277V10.9729C7.23277 10.8957 7.16957 10.8325 7.09234 10.8325H6.24978C6.17254 10.8325 6.10935 10.8957 6.10935 10.9729V13.7112H3.49039L4.28205 9.14734H13.552L14.3436 13.7112H11.7264Z" fill="white"/>
</g>
<defs>
<clipPath id="clip0_379_2621">
<rect width="16" height="16" fill="white" transform="translate(0.917969 0.0239258)"/>
</clipPath>
</defs>
</svg>
