<svg width="15" height="15" viewBox="0 0 15 15" fill="none" xmlns="http://www.w3.org/2000/svg">
<mask id="path-1-outside-1_1770_2706" maskUnits="userSpaceOnUse" x="0" y="0" width="15" height="15" fill="black">
<rect fill="white" width="15" height="15"/>
<path fill-rule="evenodd" clip-rule="evenodd" d="M6.43583 1.73198C6.80962 0.756007 8.19038 0.756006 8.56417 1.73198L8.77059 2.27095C9.00431 2.8812 9.70228 3.17031 10.299 2.90406L10.8261 2.66891C11.7805 2.2431 12.7569 3.21945 12.3311 4.17387L12.0959 4.70095C11.8297 5.29772 12.1188 5.99569 12.729 6.22941L13.268 6.43583C14.244 6.80962 14.244 8.19038 13.268 8.56417L12.729 8.77059C12.1188 9.00431 11.8297 9.70228 12.0959 10.299L12.3311 10.8261C12.7569 11.7805 11.7805 12.7569 10.8261 12.3311L10.299 12.0959C9.70228 11.8297 9.00431 12.1188 8.77059 12.729L8.56417 13.268C8.19038 14.244 6.80962 14.244 6.43583 13.268L6.22941 12.729C5.99569 12.1188 5.29772 11.8297 4.70095 12.0959L4.17388 12.3311C3.21945 12.7569 2.2431 11.7805 2.66891 10.8261L2.90406 10.299C3.17031 9.70228 2.8812 9.00431 2.27095 8.77059L1.73198 8.56417C0.756007 8.19038 0.756006 6.80962 1.73198 6.43583L2.27095 6.22941C2.8812 5.99569 3.17031 5.29772 2.90406 4.70095L2.66891 4.17388C2.2431 3.21945 3.21945 2.2431 4.17387 2.66891L4.70095 2.90406C5.29772 3.17031 5.99569 2.8812 6.22941 2.27095L6.43583 1.73198ZM11.0074 7.58557C11.0074 8.07892 10.6075 8.47887 10.1141 8.47887H8.4771V10.1174C8.4771 10.6108 8.07715 11.0107 7.5838 11.0107C7.09044 11.0107 6.6905 10.6108 6.6905 10.1174V8.47887H4.90321C4.40985 8.47887 4.00991 8.07892 4.00991 7.58557C4.00991 7.09221 4.40985 6.69227 4.90321 6.69227H6.6905V4.90652C6.6905 4.41316 7.09044 4.01322 7.5838 4.01322C8.07715 4.01322 8.4771 4.41316 8.4771 4.90652V6.69227H10.1141C10.6075 6.69227 11.0074 7.09221 11.0074 7.58557Z"/>
</mask>
<path fill-rule="evenodd" clip-rule="evenodd" d="M6.43583 1.73198C6.80962 0.756007 8.19038 0.756006 8.56417 1.73198L8.77059 2.27095C9.00431 2.8812 9.70228 3.17031 10.299 2.90406L10.8261 2.66891C11.7805 2.2431 12.7569 3.21945 12.3311 4.17387L12.0959 4.70095C11.8297 5.29772 12.1188 5.99569 12.729 6.22941L13.268 6.43583C14.244 6.80962 14.244 8.19038 13.268 8.56417L12.729 8.77059C12.1188 9.00431 11.8297 9.70228 12.0959 10.299L12.3311 10.8261C12.7569 11.7805 11.7805 12.7569 10.8261 12.3311L10.299 12.0959C9.70228 11.8297 9.00431 12.1188 8.77059 12.729L8.56417 13.268C8.19038 14.244 6.80962 14.244 6.43583 13.268L6.22941 12.729C5.99569 12.1188 5.29772 11.8297 4.70095 12.0959L4.17388 12.3311C3.21945 12.7569 2.2431 11.7805 2.66891 10.8261L2.90406 10.299C3.17031 9.70228 2.8812 9.00431 2.27095 8.77059L1.73198 8.56417C0.756007 8.19038 0.756006 6.80962 1.73198 6.43583L2.27095 6.22941C2.8812 5.99569 3.17031 5.29772 2.90406 4.70095L2.66891 4.17388C2.2431 3.21945 3.21945 2.2431 4.17387 2.66891L4.70095 2.90406C5.29772 3.17031 5.99569 2.8812 6.22941 2.27095L6.43583 1.73198ZM11.0074 7.58557C11.0074 8.07892 10.6075 8.47887 10.1141 8.47887H8.4771V10.1174C8.4771 10.6108 8.07715 11.0107 7.5838 11.0107C7.09044 11.0107 6.6905 10.6108 6.6905 10.1174V8.47887H4.90321C4.40985 8.47887 4.00991 8.07892 4.00991 7.58557C4.00991 7.09221 4.40985 6.69227 4.90321 6.69227H6.6905V4.90652C6.6905 4.41316 7.09044 4.01322 7.5838 4.01322C8.07715 4.01322 8.4771 4.41316 8.4771 4.90652V6.69227H10.1141C10.6075 6.69227 11.0074 7.09221 11.0074 7.58557Z" fill="#7C7C7C"/>
<path d="M8.56417 1.73198L9.49802 1.37432L9.49802 1.37432L8.56417 1.73198ZM6.43583 1.73198L7.36968 2.08964V2.08964L6.43583 1.73198ZM8.77059 2.27095L7.83674 2.62861V2.62861L8.77059 2.27095ZM10.299 2.90406L9.89162 1.99083V1.99083L10.299 2.90406ZM10.8261 2.66891L11.2336 3.58215L11.2336 3.58215L10.8261 2.66891ZM12.3311 4.17387L11.4179 3.76644V3.76644L12.3311 4.17387ZM12.0959 4.70095L11.1827 4.29352V4.29352L12.0959 4.70095ZM12.729 6.22941L12.3714 7.16326H12.3714L12.729 6.22941ZM13.268 6.43583L12.9104 7.36968L13.268 6.43583ZM13.268 8.56417L13.6257 9.49802V9.49802L13.268 8.56417ZM12.729 8.77059L12.3714 7.83674H12.3714L12.729 8.77059ZM12.0959 10.299L11.1827 10.7065V10.7065L12.0959 10.299ZM12.3311 10.8261L13.2443 10.4187L12.3311 10.8261ZM10.8261 12.3311L11.2336 11.4179V11.4179L10.8261 12.3311ZM10.299 12.0959L10.7065 11.1827H10.7065L10.299 12.0959ZM8.77059 12.729L9.70444 13.0867L8.77059 12.729ZM8.56417 13.268L7.63032 12.9104L7.63032 12.9104L8.56417 13.268ZM6.43583 13.268L5.50198 13.6257L6.43583 13.268ZM6.22941 12.729L7.16326 12.3714V12.3714L6.22941 12.729ZM4.70095 12.0959L4.29352 11.1827H4.29352L4.70095 12.0959ZM4.17388 12.3311L4.58131 13.2443H4.58131L4.17388 12.3311ZM2.66891 10.8261L1.75568 10.4187L1.75568 10.4187L2.66891 10.8261ZM2.90406 10.299L3.8173 10.7065H3.8173L2.90406 10.299ZM2.27095 8.77059L1.9133 9.70444H1.9133L2.27095 8.77059ZM1.73198 8.56417L2.08964 7.63032L2.08964 7.63032L1.73198 8.56417ZM1.73198 6.43583L1.37432 5.50198L1.37432 5.50198L1.73198 6.43583ZM2.27095 6.22941L2.62861 7.16326H2.62861L2.27095 6.22941ZM2.90406 4.70095L1.99083 5.10838H1.99083L2.90406 4.70095ZM2.66891 4.17388L3.58215 3.76644L2.66891 4.17388ZM4.17387 2.66891L3.76644 3.58215H3.76644L4.17387 2.66891ZM4.70095 2.90406L5.10838 1.99083L5.10838 1.99083L4.70095 2.90406ZM6.22941 2.27095L7.16326 2.62861L6.22941 2.27095ZM11.0074 7.58557L10.0074 7.58556V7.58557H11.0074ZM8.4771 8.47887V7.47887H7.4771V8.47887H8.4771ZM7.5838 11.0107L7.58379 12.0107H7.5838V11.0107ZM6.6905 8.47887H7.6905V7.47887H6.6905V8.47887ZM6.6905 6.69227V7.69227H7.6905V6.69227H6.6905ZM8.4771 6.69227H7.4771V7.69227H8.4771V6.69227ZM9.49802 1.37432C8.79622 -0.45811 6.20378 -0.458106 5.50198 1.37432L7.36968 2.08964C7.38677 2.04502 7.40589 2.02962 7.41817 2.02166C7.43565 2.0103 7.46396 2 7.5 2C7.53604 2 7.56435 2.0103 7.58183 2.02166C7.5941 2.02962 7.61323 2.04502 7.63032 2.08964L9.49802 1.37432ZM9.70444 1.9133L9.49802 1.37432L7.63032 2.08964L7.83674 2.62861L9.70444 1.9133ZM9.89162 1.99083C9.81854 2.02343 9.73306 1.98803 9.70444 1.9133L7.83674 2.62861C8.27555 3.77437 9.58602 4.31718 10.7065 3.8173L9.89162 1.99083ZM10.4187 1.75568L9.89162 1.99083L10.7065 3.8173L11.2336 3.58215L10.4187 1.75568ZM13.2443 4.58131C14.0438 2.78933 12.2107 0.956204 10.4187 1.75568L11.2336 3.58215C11.2772 3.56268 11.3016 3.56532 11.3159 3.56836C11.3363 3.57269 11.3636 3.58543 11.3891 3.61091C11.4146 3.63639 11.4273 3.6637 11.4316 3.68409C11.4347 3.6984 11.4373 3.72281 11.4179 3.76644L13.2443 4.58131ZM13.0092 5.10838L13.2443 4.58131L11.4179 3.76644L11.1827 4.29352L13.0092 5.10838ZM13.0867 5.29555C13.012 5.26693 12.9766 5.18146 13.0092 5.10838L11.1827 4.29352C10.6828 5.41398 11.2256 6.72444 12.3714 7.16326L13.0867 5.29555ZM13.6257 5.50198L13.0867 5.29555L12.3714 7.16326L12.9104 7.36968L13.6257 5.50198ZM13.6257 9.49802C15.4581 8.79622 15.4581 6.20378 13.6257 5.50198L12.9104 7.36968C12.955 7.38677 12.9704 7.40589 12.9783 7.41817C12.9897 7.43565 13 7.46396 13 7.5C13 7.53604 12.9897 7.56435 12.9783 7.58183C12.9704 7.5941 12.955 7.61323 12.9104 7.63032L13.6257 9.49802ZM13.0867 9.70444L13.6257 9.49802L12.9104 7.63032L12.3714 7.83674L13.0867 9.70444ZM13.0092 9.89162C12.9766 9.81854 13.012 9.73306 13.0867 9.70444L12.3714 7.83674C11.2256 8.27555 10.6828 9.58602 11.1827 10.7065L13.0092 9.89162ZM13.2443 10.4187L13.0092 9.89162L11.1827 10.7065L11.4179 11.2336L13.2443 10.4187ZM10.4187 13.2443C12.2107 14.0438 14.0438 12.2107 13.2443 10.4187L11.4179 11.2336C11.4373 11.2772 11.4347 11.3016 11.4316 11.3159C11.4273 11.3363 11.4146 11.3636 11.3891 11.3891C11.3636 11.4146 11.3363 11.4273 11.3159 11.4316C11.3016 11.4347 11.2772 11.4373 11.2336 11.4179L10.4187 13.2443ZM9.89162 13.0092L10.4187 13.2443L11.2336 11.4179L10.7065 11.1827L9.89162 13.0092ZM9.70444 13.0867C9.73306 13.012 9.81854 12.9766 9.89162 13.0092L10.7065 11.1827C9.58602 10.6828 8.27555 11.2256 7.83674 12.3714L9.70444 13.0867ZM9.49802 13.6257L9.70444 13.0867L7.83674 12.3714L7.63032 12.9104L9.49802 13.6257ZM5.50198 13.6257C6.20378 15.4581 8.79622 15.4581 9.49802 13.6257L7.63032 12.9104C7.61323 12.955 7.5941 12.9704 7.58183 12.9783C7.56435 12.9897 7.53603 13 7.5 13C7.46396 13 7.43565 12.9897 7.41816 12.9783C7.40589 12.9704 7.38677 12.955 7.36968 12.9104L5.50198 13.6257ZM5.29555 13.0867L5.50198 13.6257L7.36968 12.9104L7.16326 12.3714L5.29555 13.0867ZM5.10838 13.0092C5.18146 12.9766 5.26693 13.012 5.29555 13.0867L7.16326 12.3714C6.72445 11.2256 5.41398 10.6828 4.29352 11.1827L5.10838 13.0092ZM4.58131 13.2443L5.10838 13.0092L4.29352 11.1827L3.76644 11.4179L4.58131 13.2443ZM1.75568 10.4187C0.956202 12.2107 2.78934 14.0438 4.58131 13.2443L3.76644 11.4179C3.72281 11.4373 3.6984 11.4347 3.68409 11.4316C3.6637 11.4273 3.63639 11.4146 3.61091 11.3891C3.58543 11.3636 3.57269 11.3363 3.56836 11.3159C3.56532 11.3016 3.56268 11.2772 3.58215 11.2336L1.75568 10.4187ZM1.99083 9.89162L1.75568 10.4187L3.58215 11.2336L3.8173 10.7065L1.99083 9.89162ZM1.9133 9.70444C1.98803 9.73306 2.02343 9.81854 1.99083 9.89162L3.8173 10.7065C4.31718 9.58602 3.77437 8.27555 2.62861 7.83674L1.9133 9.70444ZM1.37432 9.49802L1.9133 9.70444L2.62861 7.83674L2.08964 7.63032L1.37432 9.49802ZM1.37432 5.50198C-0.45811 6.20378 -0.458106 8.79622 1.37432 9.49802L2.08964 7.63032C2.04502 7.61323 2.02962 7.5941 2.02166 7.58183C2.0103 7.56435 2 7.53603 2 7.5C2 7.46396 2.0103 7.43565 2.02166 7.41816C2.02962 7.40589 2.04502 7.38677 2.08964 7.36968L1.37432 5.50198ZM1.9133 5.29555L1.37432 5.50198L2.08964 7.36968L2.62861 7.16326L1.9133 5.29555ZM1.99083 5.10838C2.02343 5.18146 1.98803 5.26693 1.9133 5.29555L2.62861 7.16326C3.77437 6.72445 4.31718 5.41398 3.8173 4.29352L1.99083 5.10838ZM1.75568 4.58131L1.99083 5.10838L3.8173 4.29352L3.58215 3.76644L1.75568 4.58131ZM4.58131 1.75568C2.78933 0.956202 0.956205 2.78934 1.75568 4.58131L3.58215 3.76644C3.56268 3.72281 3.56532 3.6984 3.56836 3.68409C3.57269 3.6637 3.58543 3.63639 3.61091 3.61091C3.63639 3.58543 3.6637 3.57269 3.68409 3.56836C3.6984 3.56532 3.72281 3.56268 3.76644 3.58215L4.58131 1.75568ZM5.10838 1.99083L4.58131 1.75568L3.76644 3.58215L4.29352 3.8173L5.10838 1.99083ZM5.29555 1.9133C5.26693 1.98803 5.18146 2.02343 5.10838 1.99083L4.29352 3.8173C5.41398 4.31718 6.72444 3.77437 7.16326 2.62861L5.29555 1.9133ZM5.50198 1.37432L5.29555 1.9133L7.16326 2.62861L7.36968 2.08964L5.50198 1.37432ZM10.1141 9.47887C11.1598 9.47887 12.0074 8.63121 12.0074 7.58557H10.0074C10.0074 7.52664 10.0552 7.47887 10.1141 7.47887V9.47887ZM8.4771 9.47887H10.1141V7.47887H8.4771V9.47887ZM7.4771 8.47887V10.1174H9.4771V8.47887H7.4771ZM7.4771 10.1174C7.4771 10.0585 7.52487 10.0107 7.5838 10.0107V12.0107C8.62944 12.0107 9.4771 11.1631 9.4771 10.1174H7.4771ZM7.5838 10.0107C7.64272 10.0107 7.6905 10.0585 7.6905 10.1174H5.6905C5.6905 11.1631 6.53816 12.0107 7.58379 12.0107L7.5838 10.0107ZM7.6905 10.1174V8.47887H5.6905V10.1174H7.6905ZM4.90321 9.47887H6.6905V7.47887H4.90321V9.47887ZM3.00991 7.58557C3.00991 8.63121 3.85757 9.47887 4.90321 9.47887V7.47887C4.96214 7.47887 5.00991 7.52664 5.00991 7.58557H3.00991ZM4.90321 5.69227C3.85757 5.69227 3.00991 6.53993 3.00991 7.58557H5.00991C5.00991 7.6445 4.96214 7.69227 4.90321 7.69227V5.69227ZM6.6905 5.69227H4.90321V7.69227H6.6905V5.69227ZM7.6905 6.69227V4.90652H5.6905V6.69227H7.6905ZM7.6905 4.90652C7.6905 4.96545 7.64273 5.01322 7.5838 5.01322V3.01322C6.53816 3.01322 5.6905 3.86088 5.6905 4.90652H7.6905ZM7.5838 5.01322C7.52487 5.01322 7.4771 4.96545 7.4771 4.90652H9.4771C9.4771 3.86088 8.62944 3.01322 7.5838 3.01322V5.01322ZM7.4771 4.90652V6.69227H9.4771V4.90652H7.4771ZM10.1141 5.69227H8.4771V7.69227H10.1141V5.69227ZM12.0074 7.58557C12.0074 6.53993 11.1598 5.69227 10.1141 5.69227V7.69227C10.0552 7.69227 10.0074 7.6445 10.0074 7.58556L12.0074 7.58557Z" fill="black" fill-opacity="0.2" mask="url(#path-1-outside-1_1770_2706)"/>
</svg>
