<svg width="13" height="14" viewBox="0 0 13 14" fill="none" xmlns="http://www.w3.org/2000/svg">
<path d="M2.00852 1.99671C2.07053 1.79377 2.26475 1.66309 2.47743 1.66309H10.5049C10.7099 1.66309 10.8985 1.78455 10.9661 1.97775C11.1763 2.57735 11.1429 2.95147 10.9712 3.40706C10.9 3.59565 10.713 3.713 10.5111 3.713H2.4687C2.26064 3.713 2.06899 3.58797 2.00493 3.38964C1.84964 2.90637 1.84607 2.52661 2.00852 1.99671Z" fill="#78FFD4"/>
<path d="M2.00852 10.7091C2.07053 10.5062 2.26475 10.3755 2.47743 10.3755H10.5049C10.7099 10.3755 10.8985 10.497 10.9661 10.6902C11.1763 11.2898 11.1429 11.6639 10.9712 12.1195C10.9 12.3081 10.713 12.4254 10.5111 12.4254H2.4687C2.26064 12.4254 2.06899 12.3004 2.00493 12.102C1.84964 11.6188 1.84607 11.239 2.00852 10.7091Z" fill="#78FFD4"/>
<path d="M1.48136 2.17529H1.69559C1.61257 2.54018 1.61051 2.85638 1.6879 3.20025H1.48136C1.4132 3.20025 1.34607 3.17463 1.30764 3.11877C1.14159 2.87585 1.14159 2.49969 1.30764 2.25678C1.34607 2.20092 1.4132 2.17529 1.48136 2.17529Z" fill="#78FFD4"/>
<path d="M11.3059 3.20025H11.5186C11.5868 3.20025 11.6539 3.17463 11.6923 3.11877C11.8584 2.87585 11.8584 2.49969 11.6923 2.25678C11.6539 2.20092 11.5868 2.17529 11.5186 2.17529H11.2947C11.3469 2.37977 11.371 2.56734 11.3684 2.7503C11.3659 2.90712 11.3433 3.05471 11.3059 3.20025Z" fill="#78FFD4"/>
<path d="M2.91272 3.96891V4.8878C2.91272 4.95596 2.93988 5.02103 2.98754 5.06869L3.23918 5.32033C3.46826 5.54941 3.43032 5.93017 3.16126 6.10954L3.02701 6.19921C2.95578 6.24636 2.91272 6.32632 2.91272 6.41241V10.1187H10.0874V6.41241C10.0874 6.32632 10.0444 6.24636 9.97313 6.19921L9.83888 6.10954C9.56982 5.93017 9.53188 5.54941 9.76096 5.32033L10.0126 5.06869C10.0603 5.02103 10.0874 4.95596 10.0874 4.8878V3.96891H2.91272Z" fill="#78FFD4"/>
<path d="M1.69559 10.8877H1.48136C1.4132 10.8877 1.34607 10.9133 1.30764 10.9692C1.14159 11.2121 1.14159 11.5883 1.30764 11.8312C1.34607 11.887 1.4132 11.9127 1.48136 11.9127H1.6879C1.61051 11.5688 1.61257 11.2526 1.69559 10.8877Z" fill="#78FFD4"/>
<path d="M11.5186 11.9127H11.3059C11.3433 11.7671 11.3659 11.6195 11.3684 11.4627C11.371 11.2797 11.3469 11.0922 11.2947 10.8877H11.5186C11.5868 10.8877 11.6539 10.9133 11.6923 10.9692C11.8584 11.2121 11.8584 11.5883 11.6923 11.8312C11.6539 11.887 11.5868 11.9127 11.5186 11.9127Z" fill="#78FFD4"/>
<path d="M11.5186 1.67529H11.3777C11.2018 1.34735 10.8546 1.16309 10.5049 1.16309H2.47743C2.12593 1.16309 1.77895 1.34932 1.60336 1.67529H1.48136C1.30111 1.67529 1.05371 1.74375 0.895727 1.97335L0.895725 1.97335L0.894856 1.97462C0.612522 2.38767 0.612522 2.98788 0.894856 3.40092L0.894854 3.40092L0.895726 3.40219C1.05371 3.63179 1.30111 3.70025 1.48136 3.70025H1.59561C1.76186 4.01177 2.08335 4.19291 2.41272 4.21143V4.8878C2.41272 5.08882 2.49274 5.28099 2.63399 5.42224C2.63399 5.42224 2.63399 5.42224 2.63399 5.42225L2.88563 5.67388C2.88724 5.67549 2.88795 5.67656 2.88824 5.67702L2.88894 5.67847C2.88932 5.67957 2.88972 5.6816 2.88945 5.6843C2.88919 5.68701 2.88839 5.68892 2.88782 5.68989L2.88691 5.6911C2.88657 5.69146 2.88572 5.69231 2.88391 5.69351L2.88353 5.69377L2.75105 5.78227C2.75066 5.78253 2.75027 5.78279 2.74988 5.78304C2.53917 5.92307 2.41272 6.15935 2.41272 6.41241V9.87759C2.08393 9.8989 1.76816 10.0818 1.60336 10.3877H1.48136C1.30111 10.3877 1.05371 10.4562 0.895727 10.6857L0.894856 10.687C0.612522 11.1001 0.612522 11.7003 0.894854 12.1133L0.895726 12.1146C1.05371 12.3442 1.30111 12.4127 1.48136 12.4127H1.59561C1.77127 12.7418 2.12025 12.9254 2.4687 12.9254H10.5111C10.8605 12.9254 11.2088 12.7419 11.386 12.4127H11.5186C11.6989 12.4127 11.9463 12.3442 12.1043 12.1146L12.1051 12.1133C12.3875 11.7003 12.3875 11.1001 12.1051 10.687L12.1043 10.6858C11.9463 10.4562 11.6989 10.3877 11.5186 10.3877H11.3777C11.2156 10.0856 10.9083 9.90541 10.5874 9.8789V6.41241C10.5874 6.15932 10.4609 5.92302 10.2502 5.783C10.2498 5.78275 10.2495 5.78251 10.2491 5.78227L10.1166 5.69377L10.1162 5.69351C10.1144 5.69231 10.1136 5.69146 10.1132 5.6911L10.1123 5.68989C10.1117 5.68892 10.111 5.68701 10.1107 5.6843C10.1104 5.6816 10.1108 5.67957 10.1112 5.67847L10.1119 5.67702C10.1122 5.67655 10.1129 5.67549 10.1145 5.67388L10.3662 5.42224C10.5074 5.28099 10.5874 5.08882 10.5874 4.8878V4.21009C10.9104 4.18547 11.2217 4.00552 11.386 3.70025H11.5186C11.6989 3.70025 11.9463 3.63179 12.1043 3.40219L12.1051 3.40092C12.3875 2.98788 12.3875 2.38766 12.1051 1.97462L12.1043 1.97335C11.9463 1.74375 11.6989 1.67529 11.5186 1.67529ZM11.438 10.5249C11.438 10.5249 11.438 10.5248 11.438 10.5248L11.2947 10.575L10.9661 10.6902L11.2947 10.5751L11.438 10.5249ZM10.6532 10.3973C10.6318 10.3908 10.6098 10.3857 10.5874 10.3821L10.6532 10.3973Z" stroke="black" stroke-opacity="0.2"/>
</svg>
