<svg width="17" height="16" viewBox="0 0 17 16" fill="none" xmlns="http://www.w3.org/2000/svg">
<g clip-path="url(#clip0_2383_21260)">
<path d="M9.83109 5.74849C10.1111 5.49179 10.5459 5.48395 10.836 5.74166C11.1259 5.9997 11.1687 6.43264 10.9463 6.74068L10.8985 6.80025L8.11137 9.93306C7.69719 10.3985 6.97678 10.4195 6.53617 9.97896L5.53422 8.97701C5.24155 8.6841 5.2414 8.20928 5.53422 7.91646C5.82706 7.62383 6.30192 7.62385 6.59477 7.91646L7.2852 8.60592L9.77738 5.80416L9.83109 5.74849Z" fill="white"/>
<path fill-rule="evenodd" clip-rule="evenodd" d="M6.44145 1.99166C7.05942 0.378892 9.34261 0.378297 9.96098 1.99068L10.167 2.52877C10.2446 2.73151 10.4789 2.83081 10.6807 2.74068L11.2051 2.50728C12.7835 1.80318 14.3986 3.4182 13.6944 4.99654L13.461 5.52096C13.3718 5.7206 13.467 5.95453 13.67 6.0356L14.208 6.23971L14.21 6.24068C15.8227 6.85882 15.8227 9.1411 14.21 9.75924L14.211 9.76021L13.6729 9.96627C13.4701 10.0438 13.3708 10.2781 13.461 10.4799L13.6944 11.0044C14.3984 12.5827 12.7834 14.1976 11.2051 13.4936L10.6807 13.2602C10.4788 13.1701 10.2445 13.2683 10.167 13.4712L9.96098 14.0102C9.34262 15.6225 7.0595 15.6219 6.44145 14.0092L6.44047 14.0073L6.23637 13.4702C6.16559 13.2929 5.97813 13.1968 5.79887 13.2348L5.72172 13.2602L5.19731 13.4936C3.61891 14.1978 2.0038 12.5828 2.70805 11.0044L2.94145 10.4799L2.96684 10.4028C3.00541 10.2219 2.90776 10.0341 2.73051 9.96627L2.19145 9.76021C0.579388 9.14166 0.579765 6.85862 2.19242 6.24068L2.19438 6.23971L2.73149 6.0356C2.90918 5.96503 3.00496 5.77762 2.96684 5.5981L2.94145 5.52096L2.70805 4.99654C2.00383 3.41813 3.61889 1.80307 5.19731 2.50728L5.72172 2.74068L5.79887 2.76607C5.97841 2.80415 6.16585 2.70848 6.23637 2.53072L6.44047 1.99361L6.44145 1.99166ZM8.55961 2.52779C8.43351 2.19982 7.96891 2.19982 7.84281 2.52779L7.84184 2.52681L7.63871 3.06392L7.63774 3.06685C7.2742 4.00922 6.23854 4.4891 5.29692 4.18209L5.11039 4.1108L4.58695 3.8774L4.58598 3.87642C4.26414 3.73325 3.93402 4.06338 4.07719 4.38521L4.07816 4.38619L4.31156 4.90963L4.38285 5.09615C4.68989 6.03775 4.20991 7.07338 3.26762 7.43697L3.26469 7.43795L2.72758 7.64107L2.72856 7.64205C2.40058 7.76815 2.40058 8.23275 2.72856 8.35885L2.72953 8.35982L3.26664 8.56588C4.21179 8.92711 4.68969 9.96365 4.38285 10.9047L4.31156 11.0913L4.07816 11.6147L4.07719 11.6157C3.934 11.9375 4.26411 12.2677 4.58598 12.1245L4.58695 12.1235L5.11039 11.8901L5.29692 11.8188C6.17572 11.5323 7.13591 11.9309 7.5557 12.7514L7.63774 12.934L7.63871 12.937L7.84184 13.4731C7.96807 13.8011 8.43476 13.8005 8.56059 13.4721L8.76664 12.935C9.15216 11.9274 10.3058 11.4499 11.292 11.8901L11.8155 12.1235L11.8164 12.1245C12.1382 12.2674 12.4682 11.9374 12.3252 11.6157L12.3243 11.6147L12.0909 11.0913C11.6507 10.105 12.1282 8.95139 13.1358 8.56588L13.6729 8.35982L13.6739 8.35885C14.0016 8.23269 14.0016 7.76824 13.6739 7.64205L13.1377 7.43795L13.1348 7.43697C12.1297 7.04924 11.6502 5.897 12.0909 4.90963L12.3243 4.38619L12.3252 4.38521C12.4684 4.06339 12.1382 3.73339 11.8164 3.87642L11.8155 3.8774L11.292 4.1108C10.3058 4.55094 9.15221 4.07337 8.76664 3.06588L8.56059 2.52877L8.55961 2.52779Z" fill="white"/>
</g>
<defs>
<clipPath id="clip0_2383_21260">
<rect width="15.9375" height="15.875" fill="white" transform="translate(0.200928)"/>
</clipPath>
</defs>
</svg>
