<svg width="13" height="14" viewBox="0 0 13 14" fill="none" xmlns="http://www.w3.org/2000/svg">
<g clip-path="url(#clip0_649_7557)">
<path fill-rule="evenodd" clip-rule="evenodd" d="M5.4221 1.09195C5.79494 0.118439 7.17222 0.11844 7.54506 1.09195L7.75096 1.62956C7.98409 2.23826 8.6803 2.52664 9.27556 2.26107L9.80131 2.02651C10.7533 1.60178 11.7272 2.57566 11.3025 3.52767L11.0679 4.05342C10.8023 4.64868 11.0907 5.34489 11.6994 5.57802L12.237 5.78392C13.2105 6.15676 13.2105 7.53403 12.237 7.90688L11.6994 8.11278C11.0907 8.34591 10.8023 9.04211 11.0679 9.63738L11.3025 10.1631C11.7272 11.1151 10.7533 12.089 9.80131 11.6643L9.27556 11.4297C8.6803 11.1642 7.98409 11.4525 7.75096 12.0612L7.54506 12.5988C7.17222 13.5724 5.79494 13.5724 5.4221 12.5988L5.2162 12.0612C4.98307 11.4525 4.28687 11.1642 3.6916 11.4297L3.16586 11.6643C2.21384 12.089 1.23996 11.1151 1.6647 10.1631L1.89925 9.63738C2.16482 9.04211 1.87645 8.34591 1.26774 8.11278L0.730131 7.90688C-0.243377 7.53403 -0.243377 6.15676 0.730131 5.78392L1.26774 5.57802C1.87645 5.34489 2.16482 4.64868 1.89925 4.05342L1.6647 3.52767C1.23996 2.57566 2.21384 1.60178 3.16586 2.02651L3.6916 2.26107C4.28687 2.52664 4.98307 2.23826 5.2162 1.62956L5.4221 1.09195ZM7.45794 6.04021H9.09146C9.58357 6.04021 9.98208 6.43873 9.98208 6.93084C9.98208 7.42295 9.58357 7.82146 9.09146 7.82146H7.45794V9.45636C7.45794 9.94847 7.05943 10.347 6.56731 10.347C6.07521 10.347 5.67669 9.94847 5.67669 9.45636L5.67669 7.82146H3.89321C3.40133 7.8212 3.00259 7.42279 3.00259 6.93084C3.00259 6.43889 3.40133 6.04048 3.89321 6.04021H5.67669L5.67669 4.25812C5.67695 3.76623 6.07537 3.3675 6.56732 3.3675C7.05926 3.3675 7.45768 3.76623 7.45794 4.25812V6.04021Z" fill="white"/>
</g>
<defs>
<clipPath id="clip0_649_7557">
<rect width="12.9672" height="12.9672" fill="white" transform="translate(0 0.361816)"/>
</clipPath>
</defs>
</svg>
