<svg width="16" height="17" viewBox="0 0 16 17" fill="none" xmlns="http://www.w3.org/2000/svg">
<path d="M7.99995 10.145C9.16156 10.145 10.1032 9.20336 10.1032 8.04175C10.1032 6.88013 9.16156 5.93845 7.99995 5.93845C6.83833 5.93845 5.89665 6.88013 5.89665 8.04175C5.89665 9.20336 6.83833 10.145 7.99995 10.145Z" fill="white"/>
<path fill-rule="evenodd" clip-rule="evenodd" d="M1.47515 9.07912C0.989078 8.47154 0.989078 7.61196 1.47515 7.00438C3.00553 5.09146 5.35965 3.86621 7.99994 3.86621C10.6402 3.86621 12.9943 5.09146 14.5247 7.00438C15.0108 7.61196 15.0108 8.47154 14.5247 9.07912C12.9943 10.992 10.6402 12.2173 7.99994 12.2173C5.35965 12.2173 3.00553 10.992 1.47515 9.07912ZM11.1813 8.04175C11.1813 9.79876 9.75696 11.2231 7.99995 11.2231C6.24294 11.2231 4.8186 9.79876 4.8186 8.04175C4.8186 6.28474 6.24294 4.8604 7.99995 4.8604C9.75696 4.8604 11.1813 6.28474 11.1813 8.04175Z" fill="white"/>
</svg>
