<svg width="17" height="17" viewBox="0 0 17 17" fill="none" xmlns="http://www.w3.org/2000/svg">
<g clip-path="url(#clip0_379_2621)">
<path d="M14.4663 14.4566L13.6382 9.68164H13.9178C14.1428 9.68164 14.3241 9.50039 14.3241 9.27539V6.27539C14.3241 6.05039 14.1428 5.86914 13.9178 5.86914H10.0741V3.02539C10.0741 2.80039 9.89285 2.61914 9.66785 2.61914H7.16785C6.94285 2.61914 6.7616 2.80039 6.7616 3.02539V5.86914H2.91785C2.69285 5.86914 2.5116 6.05039 2.5116 6.27539V9.27539C2.5116 9.50039 2.69285 9.68164 2.91785 9.68164H3.19753L2.36941 14.4566C2.36472 14.4801 2.36316 14.5035 2.36316 14.5254C2.36316 14.7504 2.54441 14.9316 2.76941 14.9316H14.0663C14.0897 14.9316 14.1132 14.9301 14.135 14.9254C14.3569 14.8879 14.5053 14.677 14.4663 14.4566ZM3.60535 6.96289H7.85535V3.71289H8.98035V6.96289H13.2303V8.58789H3.60535V6.96289ZM10.9178 13.8379V11.4004C10.9178 11.3316 10.8616 11.2754 10.7928 11.2754H10.0428C9.9741 11.2754 9.91785 11.3316 9.91785 11.4004V13.8379H6.91785V11.4004C6.91785 11.3316 6.8616 11.2754 6.79285 11.2754H6.04285C5.9741 11.2754 5.91785 11.3316 5.91785 11.4004V13.8379H3.5866L4.29128 9.77539H12.5428L13.2475 13.8379H10.9178Z" fill="white"/>
</g>
<defs>
<clipPath id="clip0_379_2621">
<rect width="16" height="16" fill="white" transform="translate(0.417847 0.869141)"/>
</clipPath>
</defs>
</svg>
