<svg width="17" height="17" viewBox="0 0 17 17" fill="none" xmlns="http://www.w3.org/2000/svg">
<path d="M3.38245 2.69719C3.34008 2.21918 3.88548 1.91825 4.26727 2.20899L13.0668 8.91019C13.4554 9.20612 13.2968 9.82375 12.8137 9.89588L8.75522 10.5019C8.62946 10.5207 8.51403 10.5822 8.42842 10.6762L5.32206 14.0871C4.99816 14.4428 4.40601 14.2431 4.36353 13.764L3.38245 2.69719Z" fill="white"/>
<path d="M8.92943 14.9986L6.63058 10.8322C6.48322 10.5651 6.58027 10.2291 6.84736 10.0817L8.447 9.19913C8.71408 9.05177 9.05007 9.14882 9.19743 9.41591L11.4963 13.5824C11.6436 13.8495 11.5466 14.1855 11.2795 14.3328L9.67987 15.2154C9.41278 15.3628 9.0768 15.2657 8.92943 14.9986Z" fill="white"/>
</svg>
