<svg width="32" height="32" viewBox="0 0 32 32" fill="none" xmlns="http://www.w3.org/2000/svg">
<path fill-rule="evenodd" clip-rule="evenodd" d="M0 3.76471C0 1.68552 1.68552 0 3.76471 0H28.2353C30.3145 0 32 1.68552 32 3.76471V28.2353C32 30.3145 30.3145 32 28.2353 32H3.76471C1.68552 32 0 30.3145 0 28.2353V3.76471ZM8.213 3.76458C5.75577 3.76458 3.7638 5.75656 3.7638 8.21378C3.7638 9.29978 4.15289 10.2949 4.79928 11.0673C4.45148 11.856 4.18442 12.6884 4.00871 13.5541C3.88651 14.1561 4.27548 14.7432 4.87751 14.8654C5.47954 14.9876 6.06664 14.5987 6.18885 13.9966C6.30158 13.4413 6.46031 12.9026 6.66095 12.3848C7.14418 12.5647 7.66711 12.663 8.213 12.663C10.6702 12.663 12.6622 10.671 12.6622 8.21378C12.6622 7.66771 12.5638 7.14462 12.3838 6.66127C12.9018 6.46059 13.4405 6.30183 13.9959 6.18909C14.5979 6.06688 14.9869 5.47977 14.8647 4.87775C14.7425 4.27572 14.1554 3.88674 13.5534 4.00895C12.6876 4.1847 11.8549 4.45182 11.0661 4.79971C10.2938 4.15353 9.2988 3.76458 8.213 3.76458ZM23.7852 3.76458C22.6994 3.76458 21.7045 4.15352 20.9321 4.79967C20.1433 4.4518 19.3107 4.18469 18.445 4.00895C17.8429 3.88674 17.2558 4.27572 17.1336 4.87775C17.0114 5.47977 17.4004 6.06688 18.0024 6.18909C18.5578 6.30182 19.0965 6.46057 19.6144 6.66122C19.4344 7.14459 19.336 7.6677 19.336 8.21378C19.336 10.671 21.328 12.663 23.7852 12.663C24.3312 12.663 24.8543 12.5646 25.3376 12.3847C25.5382 12.9025 25.697 13.4412 25.8097 13.9966C25.9319 14.5986 26.519 14.9876 27.121 14.8654C27.7231 14.7432 28.1121 14.1561 27.9899 13.5541C27.8141 12.6883 27.547 11.8558 27.1992 11.067C27.8454 10.2946 28.2344 9.29963 28.2344 8.21378C28.2344 5.75656 26.2424 3.76458 23.7852 3.76458ZM17.1114 12.663C17.1114 12.0487 16.6134 11.5507 15.9991 11.5507C15.3848 11.5507 14.8868 12.0487 14.8868 12.663V14.8876H12.6622C12.0479 14.8876 11.5499 15.3856 11.5499 15.9999C11.5499 16.6142 12.0479 17.1122 12.6622 17.1122H14.8868V19.3368C14.8868 19.9511 15.3848 20.4491 15.9991 20.4491C16.6134 20.4491 17.1114 19.9511 17.1114 19.3368V17.1122H19.336C19.9503 17.1122 20.4483 16.6142 20.4483 15.9999C20.4483 15.3856 19.9503 14.8876 19.336 14.8876H17.1114V12.663ZM6.18885 18.0032C6.06664 17.4012 5.47954 17.0122 4.87751 17.1344C4.27548 17.2566 3.88651 17.8437 4.00871 18.4457C4.18442 19.3114 4.45147 20.1438 4.79925 20.9325C4.15288 21.7049 3.7638 22.7 3.7638 23.786C3.7638 26.2432 5.75577 28.2352 8.213 28.2352C9.29906 28.2352 10.2942 27.846 11.0667 27.1996C11.8553 27.5474 12.6878 27.8144 13.5534 27.9901C14.1554 28.1123 14.7425 27.7233 14.8647 27.1213C14.9869 26.5193 14.5979 25.9322 13.9959 25.81C13.4405 25.6972 12.9019 25.5385 12.3841 25.3379C12.5474 24.8992 12.6434 24.4277 12.6597 23.9361C12.6614 23.8863 12.6622 23.8362 12.6622 23.786C12.6622 21.3288 10.6702 19.3368 8.213 19.3368C8.16501 19.3368 8.11719 19.3375 8.06957 19.339C7.57545 19.3547 7.10167 19.4509 6.66092 19.615C6.4603 19.0971 6.30157 18.5585 6.18885 18.0032ZM27.9899 18.4457C28.1121 17.8437 27.7231 17.2566 27.121 17.1344C26.519 17.0122 25.9319 17.4012 25.8097 18.0032C25.697 18.5586 25.5383 19.0972 25.3376 19.6151C24.8543 19.4351 24.3312 19.3368 23.7852 19.3368C21.328 19.3368 19.336 21.3288 19.336 23.786C19.336 23.8266 19.3365 23.8671 19.3376 23.9074C19.3511 24.4094 19.4477 24.8907 19.6142 25.3379C19.0963 25.5385 18.5577 25.6973 18.0024 25.81C17.4004 25.9322 17.0114 26.5193 17.1336 27.1213C17.2558 27.7233 17.8429 28.1123 18.4449 27.9901C19.3105 27.8144 20.1429 27.5474 20.9315 27.1996C21.704 27.8461 22.6992 28.2352 23.7852 28.2352C26.2424 28.2352 28.2344 26.2432 28.2344 23.786C28.2344 22.7001 27.8454 21.7052 27.1992 20.9328C27.5471 20.144 27.8141 19.3115 27.9899 18.4457Z" fill="white"/>
</svg>
