<svg width="17" height="17" viewBox="0 0 17 17" fill="none" xmlns="http://www.w3.org/2000/svg">
<g clip-path="url(#clip0_118_1266)">
<path d="M1.85596 1.18945H14.8091C15.4022 1.18964 15.8324 1.63613 15.8325 2.11816V15.2607C15.8324 15.7439 15.4025 16.1893 14.8091 16.1895H1.85596C1.26253 16.1893 0.832662 15.7439 0.83252 15.2607V2.11816C0.832663 1.63613 1.26287 1.18964 1.85596 1.18945Z" stroke="white"/>
<path d="M9.05832 8.00087V6.28926C9.05832 6.09812 8.90394 5.94324 8.70321 5.94324H7.96207C7.76134 5.94324 7.59151 6.09812 7.59151 6.28926V11.0896C7.59151 11.2807 7.76134 11.4357 7.96207 11.4357H8.70321C8.90394 11.4357 9.05832 11.2807 9.05832 11.0896V9.37795H14.1848V14.6895H9.05832V13.0053C9.05832 12.8142 8.90394 12.6593 8.70321 12.6593H7.96207C7.76134 12.6593 7.59151 12.8142 7.59151 13.0053V14.6895H2.48047V2.68945H7.59151V4.57191C7.59151 4.76305 7.76134 4.91651 7.96207 4.91651H8.70321C8.90394 4.91651 9.05832 4.76305 9.05832 4.57191V2.68945H14.1848V8.00087H9.05832Z" fill="white"/>
</g>
<defs>
<clipPath id="clip0_118_1266">
<rect width="16" height="16" fill="white" transform="translate(0.33252 0.689453)"/>
</clipPath>
</defs>
</svg>
