<svg width="53" height="39" viewBox="0 0 53 39" fill="none" xmlns="http://www.w3.org/2000/svg">
<rect x="0.542725" y="0.207275" width="52" height="38" rx="3" fill="#484848"/>
<rect x="1.04272" y="0.707275" width="51" height="37" rx="2.5" stroke="black" stroke-opacity="0.2"/>
<path d="M30.7655 19.8511C31.0294 19.7771 31.0916 19.4313 30.8701 19.2699L23.698 14.0467C23.4681 13.8792 23.1485 14.0637 23.1785 14.3466L24.116 23.1694C24.1449 23.442 24.4755 23.561 24.6716 23.3694L26.2936 21.7847C26.3702 21.7099 26.4968 21.7273 26.5503 21.82L27.9358 24.2198C27.9811 24.2982 28.0815 24.3251 28.1599 24.2798L29.8097 23.3273C29.8882 23.282 29.9151 23.1817 29.8698 23.1032L28.4843 20.7034C28.4308 20.6107 28.479 20.4923 28.5821 20.4634L30.7655 19.8511Z" fill="#C4C4C4"/>
<path d="M30.833 20.0918C31.298 19.9614 31.4076 19.3521 31.0172 19.0678L23.8452 13.8446C23.44 13.5495 22.877 13.8746 22.9299 14.373L23.8674 23.1958C23.9184 23.676 24.5009 23.8857 24.8463 23.5482L26.3891 22.0409L27.7193 24.3448C27.8336 24.5428 28.0869 24.6107 28.2849 24.4963L29.9347 23.5438C30.1328 23.4295 30.2006 23.1762 30.0863 22.9782L28.7561 20.6743L30.833 20.0918Z" stroke="black" stroke-opacity="0.33" stroke-width="0.5"/>
</svg>
