<svg width="17" height="17" viewBox="0 0 17 17" fill="none" xmlns="http://www.w3.org/2000/svg">
<g clip-path="url(#clip0_118_1250)">
<path d="M16.2117 8.39727L14.1102 6.29665V3.32442C14.1102 3.21497 14.0668 3.11 13.9894 3.0326C13.912 2.95521 13.807 2.91173 13.6976 2.91173H10.7253L8.62388 0.810285C8.54649 0.732916 8.44154 0.689453 8.33211 0.689453C8.22268 0.689453 8.11772 0.732916 8.04033 0.810285L5.93972 2.91173H2.96749C2.85803 2.91173 2.75306 2.95521 2.67567 3.0326C2.59827 3.11 2.55479 3.21497 2.55479 3.32442V6.29665L0.453351 8.39809C0.375983 8.47548 0.33252 8.58043 0.33252 8.68987C0.33252 8.7993 0.375983 8.90425 0.453351 8.98164L2.55479 11.0823V14.0545C2.55479 14.1639 2.59827 14.2689 2.67567 14.3463C2.75306 14.4237 2.85803 14.4672 2.96749 14.4672H5.93972L8.04116 16.5686C8.11855 16.646 8.2235 16.6895 8.33293 16.6895C8.44236 16.6895 8.54732 16.646 8.62471 16.5686L10.7253 14.4672H13.6976C13.807 14.4672 13.912 14.4237 13.9894 14.3463C14.0668 14.2689 14.1102 14.1639 14.1102 14.0545V11.0823L16.2117 8.98082C16.2891 8.90342 16.3325 8.79847 16.3325 8.68904C16.3325 8.57961 16.2891 8.47466 16.2117 8.39727ZM8.33252 11.991C7.45689 11.991 6.61713 11.6432 5.99797 11.024C5.3788 10.4048 5.03096 9.56508 5.03096 8.68945C5.03096 7.81383 5.3788 6.97406 5.99797 6.3549C6.61713 5.73574 7.45689 5.3879 8.33252 5.3879C9.20815 5.3879 10.0479 5.73574 10.6671 6.3549C11.2862 6.97406 11.6341 7.81383 11.6341 8.68945C11.6341 9.56508 11.2862 10.4048 10.6671 11.024C10.0479 11.6432 9.20815 11.991 8.33252 11.991Z" fill="white"/>
</g>
<defs>
<clipPath id="clip0_118_1250">
<rect width="16" height="16" fill="white" transform="translate(0.33252 0.689453)"/>
</clipPath>
</defs>
</svg>
