<svg width="13" height="11" viewBox="0 0 13 11" fill="none" xmlns="http://www.w3.org/2000/svg">
<path d="M0.876465 1.22034C0.876465 0.668052 1.32418 0.220337 1.87646 0.220337H11.1235C11.6758 0.220337 12.1235 0.668052 12.1235 1.22034C12.1235 1.77262 11.6758 2.22034 11.1235 2.22034H1.87646C1.32418 2.22034 0.876465 1.77262 0.876465 1.22034Z" fill="#9D9D9D"/>
<path d="M0.876465 5.22034C0.876465 4.66805 1.32418 4.22034 1.87646 4.22034H11.1235C11.6758 4.22034 12.1235 4.66805 12.1235 5.22034C12.1235 5.77262 11.6758 6.22034 11.1235 6.22034H1.87646C1.32418 6.22034 0.876465 5.77262 0.876465 5.22034Z" fill="#9D9D9D"/>
<path d="M1.87646 8.22034C1.32418 8.22034 0.876465 8.66805 0.876465 9.22034C0.876465 9.77262 1.32418 10.2203 1.87646 10.2203H11.1235C11.6758 10.2203 12.1235 9.77262 12.1235 9.22034C12.1235 8.66805 11.6758 8.22034 11.1235 8.22034H1.87646Z" fill="#9D9D9D"/>
</svg>
