<svg width="10" height="20" viewBox="0 0 10 20" fill="none" xmlns="http://www.w3.org/2000/svg">
<path d="M5 12.1638C6.21387 12.1638 7.198 11.1797 7.198 9.96579C7.198 8.75192 6.21387 7.76779 5 7.76779C3.78613 7.76779 2.802 8.75192 2.802 9.96579C2.802 11.1797 3.78613 12.1638 5 12.1638Z" fill="#7F7F7F"/>
<path fill-rule="evenodd" clip-rule="evenodd" d="M7 0.984863H3V5.93381C1.51831 6.67014 0.5 8.19919 0.5 9.96603C0.5 11.7329 1.51831 13.2619 3 13.9983V19.0266H7V13.9983C8.48169 13.2619 9.5 11.7329 9.5 9.96603C9.5 8.19919 8.48169 6.67014 7 5.93381V0.984863ZM7.94946 9.96579C7.94946 11.5947 6.62891 12.9153 5 12.9153C3.37109 12.9153 2.05054 11.5947 2.05054 9.96579C2.05054 8.33688 3.37109 7.01633 5 7.01633C6.62891 7.01633 7.94946 8.33688 7.94946 9.96579Z" fill="#7F7F7F"/>
</svg>
