<svg width="14" height="14" viewBox="0 0 14 14" fill="none" xmlns="http://www.w3.org/2000/svg">
<path d="M3.7212 2.84731C3.77891 2.65847 3.95963 2.53687 4.15754 2.53687H11.6274C11.8181 2.53687 11.9936 2.64989 12.0566 2.82968C12.2521 3.38762 12.2211 3.73575 12.0613 4.15969C11.995 4.33518 11.821 4.44438 11.6331 4.44438H4.14942C3.9558 4.44438 3.77747 4.32803 3.71786 4.14348C3.57336 3.69378 3.57003 3.34041 3.7212 2.84731Z" fill="#87D7F6"/>
<path d="M3.7212 10.9545C3.77891 10.7657 3.95963 10.6441 4.15754 10.6441H11.6274C11.8181 10.6441 11.9936 10.7571 12.0566 10.9369C12.2521 11.4948 12.2211 11.8429 12.0613 12.2669C11.995 12.4424 11.821 12.5516 11.6331 12.5516H4.14942C3.9558 12.5516 3.77747 12.4352 3.71786 12.2507C3.57336 11.801 3.57003 11.4476 3.7212 10.9545Z" fill="#87D7F6"/>
<path d="M3.43001 3.01349H3.23066C3.16724 3.01349 3.10477 3.03733 3.06901 3.08931C2.9145 3.31535 2.9145 3.66539 3.06901 3.89143C3.10477 3.94341 3.16724 3.96725 3.23066 3.96725H3.42285C3.35084 3.64726 3.35276 3.35303 3.43001 3.01349Z" fill="#87D7F6"/>
<path d="M12.3728 3.96725H12.5707C12.6341 3.96725 12.6966 3.94341 12.7323 3.89143C12.8868 3.66539 12.8868 3.31535 12.7323 3.08931C12.6966 3.03733 12.6341 3.01349 12.5707 3.01349H12.3623C12.4109 3.20377 12.4333 3.37831 12.4309 3.54855C12.4286 3.69448 12.4076 3.83182 12.3728 3.96725Z" fill="#87D7F6"/>
<path fill-rule="evenodd" clip-rule="evenodd" d="M4.56259 5.53758V4.68252H11.2389V5.53758C11.2389 5.601 11.2136 5.66155 11.1693 5.7059L10.9351 5.94006C10.7219 6.15322 10.7573 6.50753 11.0076 6.67444L11.1325 6.75789C11.1988 6.80176 11.2389 6.87616 11.2389 6.95628V10.4051H4.56259V6.95628C4.56259 6.87616 4.60266 6.80176 4.66895 6.75789L4.79387 6.67444C5.04423 6.50753 5.07954 6.15322 4.86637 5.94006L4.63221 5.7059C4.58786 5.66155 4.56259 5.601 4.56259 5.53758ZM7.85118 5.23033C8.18338 5.23033 8.45269 5.4954 8.45269 5.82239V6.90336L9.65036 6.90336C9.98256 6.90336 10.2519 7.16844 10.2519 7.49542C10.2519 7.82241 9.98256 8.08748 9.65036 8.08748H8.45269V9.26681C8.45269 9.5938 8.18338 9.85887 7.85118 9.85887C7.51898 9.85887 7.24967 9.5938 7.24967 9.26681V8.08748H6.15097C5.81877 8.08748 5.54947 7.82241 5.54947 7.49542C5.54947 7.16844 5.81877 6.90336 6.15097 6.90336H7.24967V5.82239C7.24967 5.4954 7.51898 5.23033 7.85118 5.23033Z" fill="#87D7F6"/>
<path d="M3.43001 11.1207H3.23066C3.16724 11.1207 3.10477 11.1445 3.06901 11.1965C2.9145 11.4225 2.9145 11.7726 3.06901 11.9986C3.10477 12.0506 3.16724 12.0744 3.23066 12.0744H3.42285C3.35084 11.7545 3.35276 11.4602 3.43001 11.1207Z" fill="#87D7F6"/>
<path d="M12.3728 12.0744H12.5707C12.6341 12.0744 12.6966 12.0506 12.7323 11.9986C12.8868 11.7726 12.8868 11.4225 12.7323 11.1965C12.6966 11.1445 12.6341 11.1207 12.5707 11.1207H12.3623C12.4109 11.311 12.4333 11.4855 12.4309 11.6557C12.4286 11.8017 12.4076 11.939 12.3728 12.0744Z" fill="#87D7F6"/>
</svg>
