<svg width="17" height="16" viewBox="0 0 17 16" fill="none" xmlns="http://www.w3.org/2000/svg">
<g clip-path="url(#clip0_120_327)">
<path d="M8.79853 5.66979L10.8136 6.83321V9.16005L8.79853 10.3235L6.78341 9.16005V6.83321L8.79853 5.66979Z" fill="white"/>
<path fill-rule="evenodd" clip-rule="evenodd" d="M7.31553 2.25571C7.28621 2.13753 7.27067 2.01394 7.27067 1.88669C7.27067 1.04293 7.95468 0.358887 8.79848 0.358887C9.64227 0.358887 10.3263 1.04293 10.3263 1.88669C10.3263 2.01389 10.3107 2.13748 10.2814 2.25561L13.045 3.85121C13.3206 3.58102 13.6981 3.4144 14.1145 3.4144C14.9583 3.4144 15.6423 4.09844 15.6423 4.9422C15.6423 5.64853 15.163 6.2429 14.5118 6.41781V9.4899C15.163 9.66481 15.6423 10.2592 15.6423 10.9655C15.6423 11.8093 14.9583 12.4933 14.1145 12.4933C13.7259 12.4933 13.3713 12.3483 13.1016 12.1093L10.2813 13.7377C10.3107 13.8559 10.3263 13.9797 10.3263 14.1071C10.3263 14.9509 9.64227 15.6349 8.79848 15.6349C7.95468 15.6349 7.27067 14.9509 7.27067 14.1071C7.27067 13.9797 7.28627 13.8559 7.31566 13.7376L4.53608 12.1327C4.27001 12.3577 3.92598 12.4933 3.55027 12.4933C2.70648 12.4933 2.02246 11.8093 2.02246 10.9655C2.02246 10.2839 2.46887 9.7065 3.0853 9.50977V6.39795C2.46887 6.20121 2.02246 5.62382 2.02246 4.9422C2.02246 4.09844 2.70648 3.4144 3.55027 3.4144C3.95403 3.4144 4.3212 3.57103 4.59434 3.82681L7.31553 2.25571ZM9.85957 2.98592C9.58474 3.25127 9.21068 3.4145 8.79848 3.4145C8.3863 3.4145 8.01226 3.25127 7.73744 2.98598L5.02742 4.55059C5.06047 4.67557 5.07807 4.80683 5.07807 4.9422C5.07807 5.65538 4.58943 6.25444 3.92865 6.42281V9.48491C4.58943 9.65328 5.07807 10.2523 5.07807 10.9655C5.07807 11.1276 5.05285 11.2838 5.00609 11.4303L7.7378 13.0074C8.01259 12.7423 8.3865 12.5793 8.79848 12.5793C9.2105 12.5793 9.58441 12.7424 9.85921 13.0075L12.6485 11.3971C12.6083 11.2603 12.5867 11.1154 12.5867 10.9655C12.5867 10.2769 13.0423 9.69471 13.6685 9.50385V6.40386C13.0423 6.213 12.5867 5.63083 12.5867 4.9422C12.5867 4.81908 12.6013 4.6994 12.6288 4.58471L9.85957 2.98592Z" fill="white"/>
</g>
<defs>
<clipPath id="clip0_120_327">
<rect width="16" height="16" fill="white" transform="translate(0.83252 -0.00341797)"/>
</clipPath>
</defs>
</svg>
