<svg width="16" height="16" viewBox="0 0 16 16" fill="none" xmlns="http://www.w3.org/2000/svg">
<path fill-rule="evenodd" clip-rule="evenodd" d="M2 2.5C2 2.36739 2.05268 2.24022 2.14645 2.14645C2.24021 2.05268 2.36739 2 2.5 2H11.5C11.5657 1.99988 11.6308 2.01272 11.6915 2.03777C11.7523 2.06282 11.8075 2.0996 11.854 2.146L13.854 4.146C13.9004 4.19252 13.9372 4.24773 13.9622 4.30847C13.9873 4.36921 14.0001 4.4343 14 4.5V13.5C14 13.6326 13.9473 13.7598 13.8536 13.8536C13.7598 13.9473 13.6326 14 13.5 14H2.5C2.36739 14 2.24021 13.9473 2.14645 13.8536C2.05268 13.7598 2 13.6326 2 13.5V2.5ZM3 3V13H4V7.5C4 7.36739 4.05268 7.24022 4.14645 7.14645C4.24021 7.05268 4.36739 7 4.5 7H11.5C11.6326 7 11.7598 7.05268 11.8536 7.14645C11.9473 7.24022 12 7.36739 12 7.5V13H13V4.707L11.293 3H11V5.5C11 5.63261 10.9473 5.75979 10.8536 5.85355C10.7598 5.94732 10.6326 6 10.5 6H5.5C5.36739 6 5.24021 5.94732 5.14645 5.85355C5.05268 5.75979 5 5.63261 5 5.5V3H3ZM6 3V5H10V3H6Z" fill="white"/>
</svg>
