<svg width="53" height="39" viewBox="0 0 53 39" fill="none" xmlns="http://www.w3.org/2000/svg">
<rect x="0.542725" y="0.621826" width="52" height="38" rx="3" fill="#484848"/>
<rect x="1.04272" y="1.12183" width="51" height="37" rx="2.5" stroke="black" stroke-opacity="0.2"/>
<path d="M29.1809 15.056C29.1809 14.7028 29.4672 14.4164 29.8205 14.4164L31.0414 14.4164V13.1955C31.0414 12.8423 31.3277 12.5559 31.6809 12.5559C32.0342 12.5559 32.3205 12.8423 32.3205 13.1955V14.4164L33.5413 14.4164C33.8945 14.4164 34.1809 14.7028 34.1809 15.056C34.1809 15.4092 33.8945 15.6956 33.5413 15.6956H32.3205V16.9163C32.3205 17.2696 32.0342 17.5559 31.6809 17.5559C31.3277 17.5559 31.0414 17.2696 31.0414 16.9163V15.6956H29.8205C29.4672 15.6956 29.1809 15.4092 29.1809 15.056Z" fill="#C4C4C4"/>
<path d="M24.2537 16.7694C23.6499 16.7694 23.1604 17.2588 23.1604 17.8626V25.75C23.1604 26.1074 23.5659 26.3139 23.8549 26.1037L25.8997 24.6166C26.283 24.3378 26.8024 24.3378 27.1857 24.6166L29.2305 26.1037C29.5195 26.3139 29.925 26.1074 29.925 25.75V17.8626C29.925 17.2588 29.4355 16.7694 28.8317 16.7694H24.2537Z" fill="#C4C4C4"/>
<path d="M29.8205 14.1664C29.3292 14.1664 28.9309 14.5647 28.9309 15.056C28.9309 15.5473 29.3292 15.9456 29.8205 15.9456H30.7914V16.9163C30.7914 17.4076 31.1896 17.8059 31.6809 17.8059C32.1722 17.8059 32.5705 17.4076 32.5705 16.9163V15.9456H33.5413C34.0326 15.9456 34.4309 15.5473 34.4309 15.056C34.4309 14.5647 34.0326 14.1664 33.5413 14.1664L32.5705 14.1664V13.1955C32.5705 12.7042 32.1722 12.3059 31.6809 12.3059C31.1896 12.3059 30.7914 12.7042 30.7914 13.1955V14.1664L29.8205 14.1664ZM24.2537 16.5194C23.5118 16.5194 22.9104 17.1208 22.9104 17.8626V25.75C22.9104 26.3117 23.5477 26.6362 24.002 26.3058L26.0467 24.8188C26.3424 24.6037 26.743 24.6037 27.0387 24.8188L29.0834 26.3058C29.5377 26.6362 30.175 26.3117 30.175 25.75V17.8626C30.175 17.1208 29.5736 16.5194 28.8317 16.5194H24.2537Z" stroke="black" stroke-opacity="0.33" stroke-width="0.5" stroke-linecap="round"/>
</svg>
