<svg width="17" height="17" viewBox="0 0 17 17" fill="none" xmlns="http://www.w3.org/2000/svg">
<path d="M10.5405 13.3738C10.4251 13.7009 10.211 13.9841 9.92789 14.1844C9.64476 14.3848 9.30645 14.4924 8.9596 14.4924C8.61275 14.4924 8.27445 14.3848 7.99131 14.1844C7.70817 13.9841 7.49415 13.7009 7.37874 13.3738H10.5405ZM8.9596 3.87744C9.99667 3.87744 10.9913 4.28941 11.7246 5.02273C12.4579 5.75604 12.8699 6.75063 12.8699 7.7877V9.75846C12.8699 9.84516 12.8902 9.93065 12.9291 10.0082L13.8876 11.9259C13.9345 12.0196 13.9566 12.1237 13.9519 12.2283C13.9472 12.333 13.9158 12.4347 13.8607 12.5238C13.8057 12.6129 13.7287 12.6864 13.6372 12.7374C13.5457 12.7884 13.4427 12.8152 13.338 12.8152H13.1011L13.6994 13.4134C13.8011 13.5188 13.8574 13.6599 13.8562 13.8064C13.8549 13.9528 13.7962 14.0929 13.6926 14.1965C13.589 14.3001 13.4489 14.3588 13.3024 14.3601C13.156 14.3614 13.0149 14.3051 12.9095 14.2033L4.21982 5.51416C4.16646 5.46263 4.12391 5.40099 4.09463 5.33284C4.06535 5.26469 4.04994 5.19139 4.0493 5.11722C4.04866 5.04305 4.06279 4.96949 4.09088 4.90084C4.11896 4.83219 4.16044 4.76982 4.21289 4.71737C4.26534 4.66492 4.32771 4.62344 4.39636 4.59535C4.46501 4.56727 4.53857 4.55313 4.61274 4.55378C4.68691 4.55442 4.76021 4.56983 4.82836 4.59911C4.89652 4.62838 4.95816 4.67094 5.00969 4.72429L5.78727 5.50187C6.14924 4.99871 6.6258 4.58894 7.17753 4.30647C7.72927 4.024 8.34032 3.87694 8.96016 3.87744M5.0622 7.46761L10.4097 12.8152H4.58123C4.47648 12.8152 4.37347 12.7884 4.28197 12.7374C4.19047 12.6864 4.11353 12.6129 4.05846 12.5238C4.00338 12.4347 3.972 12.333 3.9673 12.2283C3.96259 12.1237 3.98471 12.0196 4.03156 11.9259L4.99069 10.0082C5.02935 9.93061 5.04943 9.84512 5.04935 9.75846V7.7877C5.04935 7.6797 5.05363 7.57301 5.0622 7.46761Z" fill="white"/>
</svg>
