<svg width="17" height="17" viewBox="0 0 17 17" fill="none" xmlns="http://www.w3.org/2000/svg">
<g clip-path="url(#clip0_120_371)">
<path d="M1.93252 16.6901H11.5325C12.4149 16.6901 13.1325 15.9725 13.1325 15.0901V5.49014C13.1325 4.60774 12.4149 3.89014 11.5325 3.89014H1.93252C1.05012 3.89014 0.33252 4.60774 0.33252 5.49014V15.0901C0.33252 15.9725 1.05012 16.6901 1.93252 16.6901Z" fill="white"/>
<path d="M14.7326 0.689941H5.17029C4.618 0.689941 4.17029 1.13766 4.17029 1.68994V2.28994H12.7326C13.8371 2.28994 14.7326 3.18537 14.7326 4.28994V12.8763H15.3326C15.8849 12.8763 16.3326 12.4286 16.3326 11.8763V2.28994C16.3326 1.40754 15.615 0.689941 14.7326 0.689941Z" fill="white"/>
</g>
<defs>
<clipPath id="clip0_120_371">
<rect width="16" height="16" fill="white" transform="translate(0.33252 0.689941)"/>
</clipPath>
</defs>
</svg>
