<svg width="14" height="14" viewBox="0 0 14 14" fill="none" xmlns="http://www.w3.org/2000/svg">
<path fill-rule="evenodd" clip-rule="evenodd" d="M11.624 3.22535C11.5451 3.03501 11.4296 2.86207 11.2839 2.71639C11.1382 2.5707 10.9653 2.45512 10.7749 2.37627C10.5846 2.29742 10.3806 2.25684 10.1745 2.25684C9.96851 2.25684 9.76449 2.29742 9.57415 2.37627C9.38381 2.45512 9.21087 2.5707 9.06519 2.71639L8.26358 3.51801C7.97148 3.37769 7.64299 3.3316 7.32355 3.38612C7.00412 3.44064 6.70951 3.59307 6.48048 3.82234L6.10713 4.19569C5.91107 4.39181 5.80093 4.65776 5.80093 4.93507C5.80093 5.21238 5.91107 5.47834 6.10713 5.67446L2.71662 9.06549C2.57079 9.21114 2.45509 9.38411 2.37613 9.5745C2.29718 9.76489 2.25651 9.96897 2.25647 10.1751V11.1163C2.25647 11.2827 2.32258 11.4423 2.44026 11.56C2.55793 11.6777 2.71753 11.7438 2.88395 11.7438H3.82518C4.03126 11.7438 4.23532 11.7032 4.42571 11.6244C4.6161 11.5455 4.78908 11.4299 4.93478 11.2842L8.32581 7.89314C8.52193 8.0892 8.78788 8.19934 9.06519 8.19934C9.3425 8.19934 9.60846 8.0892 9.80458 7.89314L10.1785 7.51979C10.4076 7.2907 10.56 6.99607 10.6144 6.67663C10.6688 6.35719 10.6226 6.02874 10.4823 5.73668L11.2839 4.93507C11.4296 4.7894 11.5451 4.61646 11.624 4.42612C11.7028 4.23577 11.7434 4.03176 11.7434 3.82573C11.7434 3.61971 11.7028 3.4157 11.624 3.22535ZM4.41418 8.8467L6.84704 6.41384L7.58642 7.15375L5.89321 8.8467H4.41418Z" fill="#9D9D9D"/>
</svg>
