<svg width="16" height="17" viewBox="0 0 16 17" fill="none" xmlns="http://www.w3.org/2000/svg">
<path d="M2.85597 2.28688C2.92699 2.05445 3.14942 1.90479 3.393 1.90479H12.5866C12.8214 1.90479 13.0374 2.0439 13.1149 2.26517C13.3555 2.95187 13.3174 3.38033 13.1207 3.90211C13.0391 4.1181 12.8249 4.2525 12.5937 4.2525H3.383C3.14471 4.2525 2.92522 4.1093 2.85185 3.88216C2.67401 3.32868 2.66992 2.89376 2.85597 2.28688Z" fill="white"/>
<path d="M2.85597 12.265C2.92699 12.0325 3.14942 11.8829 3.393 11.8829H12.5866C12.8214 11.8829 13.0374 12.022 13.1149 12.2432C13.3555 12.93 13.3174 13.3584 13.1207 13.8802C13.0391 14.0962 12.8249 14.2306 12.5937 14.2306H3.383C3.14471 14.2306 2.92522 14.0874 2.85185 13.8602C2.67401 13.3068 2.66992 12.8718 2.85597 12.265Z" fill="white"/>
<path d="M2.49758 2.4914H2.25223C2.17417 2.4914 2.09729 2.52075 2.05327 2.58472C1.8631 2.86293 1.8631 3.29373 2.05327 3.57194C2.09729 3.63591 2.17417 3.66526 2.25223 3.66526H2.48877C2.40015 3.27143 2.4025 2.90929 2.49758 2.4914Z" fill="white"/>
<path d="M13.504 3.66526H13.7476C13.8257 3.66526 13.9026 3.63591 13.9466 3.57194C14.1368 3.29373 14.1368 2.86293 13.9466 2.58472C13.9026 2.52075 13.8257 2.4914 13.7476 2.4914H13.4911C13.551 2.72559 13.5786 2.94041 13.5756 3.14994C13.5727 3.32954 13.5469 3.49857 13.504 3.66526Z" fill="white"/>
<path fill-rule="evenodd" clip-rule="evenodd" d="M3.89153 5.59797V4.54559H12.1085V5.59797C12.1085 5.67603 12.0774 5.75055 12.0228 5.80513L11.7346 6.09333C11.4723 6.35569 11.5157 6.79176 11.8239 6.99719L11.9776 7.09989C12.0592 7.15389 12.1085 7.24546 12.1085 7.34406V11.5887H3.89153V7.34406C3.89153 7.24546 3.94084 7.15389 4.02242 7.09989L4.17618 6.99719C4.48431 6.79176 4.52777 6.35569 4.26541 6.09333L3.97721 5.80513C3.92263 5.75055 3.89153 5.67603 3.89153 5.59797ZM7.93902 5.21981C8.34789 5.21981 8.67934 5.54606 8.67934 5.9485V7.27894L10.1534 7.27894C10.5623 7.27894 10.8937 7.60518 10.8937 8.00763C10.8937 8.41007 10.5623 8.73632 10.1534 8.73632H8.67934V10.1878C8.67934 10.5902 8.34789 10.9165 7.93902 10.9165C7.53016 10.9165 7.1987 10.5902 7.1987 10.1878V8.73632H5.84646C5.43759 8.73632 5.10614 8.41007 5.10614 8.00763C5.10614 7.60518 5.43759 7.27894 5.84646 7.27894H7.1987V5.9485C7.1987 5.54606 7.53016 5.21981 7.93902 5.21981Z" fill="white"/>
<path d="M2.49758 12.4695H2.25223C2.17417 12.4695 2.09729 12.4988 2.05327 12.5628C1.8631 12.841 1.8631 13.2718 2.05327 13.55C2.09729 13.614 2.17417 13.6433 2.25223 13.6433H2.48877C2.40015 13.2495 2.4025 12.8874 2.49758 12.4695Z" fill="white"/>
<path d="M13.504 13.6433H13.7476C13.8257 13.6433 13.9026 13.614 13.9466 13.55C14.1368 13.2718 14.1368 12.841 13.9466 12.5628C13.9026 12.4988 13.8257 12.4695 13.7476 12.4695H13.4911C13.551 12.7037 13.5786 12.9185 13.5756 13.128C13.5727 13.3076 13.5469 13.4767 13.504 13.6433Z" fill="white"/>
</svg>
