<svg width="53" height="39" viewBox="0 0 53 39" fill="none" xmlns="http://www.w3.org/2000/svg">
<rect x="0.542725" y="0.865723" width="52" height="38" rx="3" fill="#484848"/>
<rect x="1.04272" y="1.36572" width="51" height="37" rx="2.5" stroke="black" stroke-opacity="0.2"/>
<path d="M23.4676 17.9911C23.4046 17.9548 23.3795 17.8766 23.4094 17.8104L25.6264 12.8978C25.6627 12.8173 25.7631 12.7894 25.8358 12.8396L28.082 14.3912C28.1234 14.4198 28.1465 14.4681 28.1427 14.5181L28.0673 15.5307C28.0599 15.6299 28.1545 15.7056 28.2497 15.6765L29.3731 15.3336C29.4153 15.3207 29.4612 15.3282 29.497 15.354L29.9477 15.678C29.9905 15.7088 30.0127 15.7608 30.0051 15.813L29.8505 16.8862C29.8323 17.0126 29.9777 17.0965 30.078 17.0176L30.9309 16.3464C30.972 16.3141 31.0274 16.3071 31.0752 16.328L32.0012 16.7337C32.0867 16.7712 32.1131 16.8797 32.0544 16.9523L28.8238 20.9456C28.78 20.9998 28.7034 21.014 28.6431 20.9792L23.4676 17.9911Z" fill="#C4C4C4"/>
<path fill-rule="evenodd" clip-rule="evenodd" d="M22.4699 20.029C22.1992 19.8727 22.1065 19.5266 22.2628 19.2559L22.475 18.8883C22.6313 18.6177 22.9774 18.5249 23.2481 18.6812L28.149 21.5108C28.4197 21.667 28.5124 22.0131 28.3562 22.2838L28.144 22.6514C27.9877 22.9221 27.6416 23.0148 27.3709 22.8585L25.9006 22.0097L24.1319 26.1184C24.036 26.3413 23.8883 26.5443 23.6753 26.6607C22.3766 27.3702 20.9304 26.5278 21.0021 25.095C21.0131 24.8736 21.1166 24.6702 21.2542 24.4964L24.0627 20.9486L22.4699 20.029ZM22.3722 25.8547C22.6429 26.011 22.989 25.9182 23.1453 25.6476C23.3015 25.3769 23.2088 25.0308 22.9381 24.8745C22.6674 24.7182 22.3213 24.811 22.1651 25.0816C22.0088 25.3523 22.1015 25.6984 22.3722 25.8547Z" fill="#C4C4C4"/>
<path d="M25.9779 12.6339L25.8366 12.8383L25.9779 12.6339C25.7768 12.495 25.4991 12.5722 25.3985 12.7949L25.6264 12.8978L25.3985 12.7949L23.1815 17.7075C23.0988 17.8909 23.1684 18.107 23.3426 18.2076L28.5181 21.1957C28.6849 21.292 28.897 21.2526 29.0182 21.1029L32.2488 17.1095C32.4112 16.9087 32.3381 16.6084 32.1015 16.5047L31.1755 16.099C31.0433 16.0411 30.8898 16.0607 30.7764 16.15L30.1366 16.6533L30.2526 15.8487C30.2734 15.7042 30.2121 15.5602 30.0936 15.475L29.6429 15.151C29.5437 15.0797 29.417 15.0588 29.3001 15.0945L28.3284 15.3911L28.392 14.5367C28.4024 14.3982 28.3385 14.2645 28.2241 14.1855L25.9779 12.6339ZM22.0463 19.1309C21.821 19.5211 21.9547 20.0201 22.3449 20.2455L23.6871 21.0203L21.0582 24.3413C20.9019 24.5386 20.767 24.7909 20.7524 25.0825C20.7119 25.8922 21.1032 26.549 21.6986 26.897C22.2924 27.2441 23.072 27.2751 23.7952 26.8801C24.0735 26.7281 24.2522 26.4714 24.3616 26.2172L26.0191 22.3667L27.2459 23.075C27.6361 23.3003 28.1352 23.1666 28.3605 22.7764L28.5727 22.4088C28.798 22.0186 28.6643 21.5196 28.274 21.2943L23.3731 18.4647C22.9828 18.2394 22.4838 18.3731 22.2585 18.7633L22.0463 19.1309ZM22.9287 25.5226C22.8415 25.6737 22.6483 25.7254 22.4972 25.6382C22.3461 25.5509 22.2943 25.3577 22.3816 25.2066C22.4688 25.0555 22.662 25.0038 22.8131 25.091C22.9642 25.1782 23.016 25.3714 22.9287 25.5226Z" stroke="black" stroke-opacity="0.33" stroke-width="0.5"/>
</svg>
