<svg width="17" height="17" viewBox="0 0 17 17" fill="none" xmlns="http://www.w3.org/2000/svg">
<path fill-rule="evenodd" clip-rule="evenodd" d="M3.11271 11.4008C2.90811 10.6531 2.31667 8.64813 1.81821 7.35363C1.71034 7.06348 2.00049 6.75844 2.28691 6.87748C2.6589 7.02999 3.07178 7.20481 3.47352 7.37965C4.64526 7.8781 5.76495 8.35423 5.81703 8.25752C5.85795 8.19056 6.17035 7.50239 6.59441 6.57987C7.02963 5.62388 7.58024 4.41867 8.06009 3.392C8.18285 3.12789 8.55479 3.13161 8.67383 3.392L10.7829 7.96364C10.8611 8.12731 11.0546 8.20546 11.2219 8.13478L14.4023 6.83657C14.6702 6.72869 14.9455 6.98536 14.8525 7.26063L13.465 11.4268C13.4167 11.5645 13.2864 11.6612 13.1413 11.6612H3.45118C3.29494 11.6612 3.15734 11.5533 3.11271 11.4008ZM3.69302 12.4238C3.31732 12.4238 3.01226 12.7288 3.01226 13.1045V13.6141C3.01226 13.9898 3.31732 14.2948 3.69302 14.2948H12.7062C13.0819 14.2948 13.3868 13.9898 13.3868 13.6141V13.1045C13.3868 12.7288 13.0819 12.4238 12.7062 12.4238H3.69302Z" fill="white"/>
</svg>
