<svg width="53" height="39" viewBox="0 0 53 39" fill="none" xmlns="http://www.w3.org/2000/svg">
<rect x="0.542725" y="0.451172" width="52" height="38" rx="3" fill="#484848"/>
<rect x="1.04272" y="0.951172" width="51" height="37" rx="2.5" stroke="black" stroke-opacity="0.2"/>
<path fill-rule="evenodd" clip-rule="evenodd" d="M20.4621 17.9952C21.6526 19.0249 23.4524 18.8945 24.4821 17.7039C25.5117 16.5134 25.3813 14.7136 24.1907 13.6839C23.0002 12.6543 21.2004 12.7847 20.1707 13.9752C19.1411 15.1658 19.2715 16.9656 20.4621 17.9952ZM21.3779 16.9363C21.9836 17.4602 22.8993 17.3938 23.4231 16.7881C23.947 16.1824 23.8806 15.2667 23.2749 14.7428C22.6692 14.219 21.7535 14.2853 21.2296 14.891C20.7058 15.4968 20.7721 16.4125 21.3779 16.9363Z" fill="#C4C4C4"/>
<path fill-rule="evenodd" clip-rule="evenodd" d="M27.9882 24.7806C29.1787 25.8103 30.9785 25.6799 32.0082 24.4893C33.0378 23.2988 32.9074 21.499 31.7169 20.4693C30.5263 19.4397 28.7265 19.5701 27.6968 20.7606C26.6672 21.9512 26.7976 23.751 27.9882 24.7806ZM28.904 23.7217C29.5097 24.2456 30.4254 24.1792 30.9493 23.5735C31.4731 22.9678 31.4068 22.0521 30.801 21.5282C30.1953 21.0044 29.2796 21.0707 28.7558 21.6764C28.2319 22.2822 28.2983 23.1979 28.904 23.7217Z" fill="#C4C4C4"/>
<path d="M25.8199 18.0757C25.5407 17.8083 25.0976 17.818 24.8302 18.0972C24.5629 18.3765 24.5725 18.8196 24.8518 19.087L26.3627 20.5334C26.642 20.8007 27.0851 20.7911 27.3524 20.5118C27.6198 20.2325 27.6101 19.7894 27.3308 19.5221L25.8199 18.0757Z" fill="#C4C4C4"/>
<path d="M20.2985 18.1843C21.5935 19.3043 23.5512 19.1624 24.6711 17.8674C25.7911 16.5725 25.6492 14.6148 24.3543 13.4948C23.0593 12.3749 21.1016 12.5167 19.9816 13.8117C18.8617 15.1067 19.0035 17.0644 20.2985 18.1843ZM23.234 16.6246C22.8005 17.1259 22.0427 17.1808 21.5414 16.7472C21.0401 16.3137 20.9852 15.5559 21.4187 15.0546C21.8523 14.5533 22.6101 14.4984 23.1114 14.9319C23.6127 15.3655 23.6676 16.1233 23.234 16.6246ZM27.8246 24.9697C29.1196 26.0897 31.0773 25.9478 32.1973 24.6528C33.3172 23.3579 33.1754 21.4002 31.8804 20.2802C30.6701 19.2335 28.8809 19.289 27.7378 20.3579C27.8652 20.0136 27.7858 19.6115 27.5037 19.3415L25.9928 17.8951C25.6138 17.5323 25.0124 17.5454 24.6496 17.9244C24.2868 18.3034 24.2999 18.9047 24.6789 19.2676L26.1898 20.714C26.4966 21.0076 26.9489 21.055 27.3026 20.8615C26.4115 22.1466 26.6151 23.9236 27.8246 24.9697ZM30.7602 23.41C30.3266 23.9113 29.5688 23.9662 29.0675 23.5326C28.5662 23.0991 28.5113 22.3413 28.9449 21.84C29.3784 21.3387 30.1362 21.2838 30.6375 21.7173C31.1388 22.1509 31.1937 22.9087 30.7602 23.41Z" stroke="black" stroke-opacity="0.33" stroke-width="0.5" stroke-linecap="round"/>
</svg>
