<svg width="17" height="17" viewBox="0 0 17 17" fill="none" xmlns="http://www.w3.org/2000/svg">
<path fill-rule="evenodd" clip-rule="evenodd" d="M5.17282 2.34506C5.54789 1.96999 6.0566 1.75928 6.58703 1.75928L10.4128 1.75928C10.9432 1.75928 11.4519 1.96999 11.827 2.34506L14.5322 5.05026C14.9072 5.42533 15.1179 5.93404 15.1179 6.46447V10.2902C15.1179 10.8206 14.9072 11.3293 14.5322 11.7044L11.827 14.4096C11.4519 14.7847 10.9432 14.9954 10.4128 14.9954H6.58703C6.0566 14.9954 5.54789 14.7847 5.17282 14.4096L2.46762 11.7044C2.09255 11.3293 1.88184 10.8206 1.88184 10.2902L1.88184 6.46447C1.88184 5.93404 2.09255 5.42533 2.46762 5.05026L5.17282 2.34506ZM7.40479 8.5486L7.08465 5.47532C7.03906 5.03761 7.19894 4.60348 7.51754 4.29989C8.06616 3.77713 8.92855 3.77713 9.47717 4.29989C9.79577 4.60348 9.95565 5.03761 9.91006 5.47532L9.58993 8.5486C9.53164 9.10818 9.05997 9.53327 8.49736 9.53327C7.93474 9.53327 7.46308 9.10818 7.40479 8.5486ZM8.4974 12.6213C9.18119 12.6213 9.7355 12.0669 9.7355 11.3832C9.7355 10.6994 9.18119 10.1451 8.4974 10.1451C7.81362 10.1451 7.2593 10.6994 7.2593 11.3832C7.2593 12.0669 7.81362 12.6213 8.4974 12.6213Z" fill="white"/>
</svg>
