<svg width="17" height="17" viewBox="0 0 17 17" fill="none" xmlns="http://www.w3.org/2000/svg">
<path d="M4.13157 3.64759C4.19358 3.44465 4.3878 3.31396 4.60048 3.31396H12.6279C12.8329 3.31396 13.0215 3.43543 13.0892 3.62863C13.2993 4.22823 13.266 4.60234 13.0943 5.05794C13.023 5.24653 12.836 5.36388 12.6341 5.36388H4.59175C4.38368 5.36388 4.19203 5.23884 4.12797 5.04051C3.97269 4.55725 3.96911 4.17749 4.13157 3.64759Z" fill="white"/>
<path d="M4.13157 12.36C4.19358 12.1571 4.3878 12.0264 4.60048 12.0264H12.6279C12.8329 12.0264 13.0215 12.1478 13.0892 12.341C13.2993 12.9406 13.266 13.3147 13.0943 13.7703C13.023 13.9589 12.836 14.0763 12.6341 14.0763H4.59175C4.38368 14.0763 4.19203 13.9512 4.12797 13.7529C3.97269 13.2696 3.96911 12.8899 4.13157 12.36Z" fill="white"/>
<path d="M3.60441 3.82617H3.81864C3.73562 4.19106 3.73356 4.50726 3.81095 4.85113H3.60441C3.53625 4.85113 3.46912 4.82551 3.43068 4.76965C3.26464 4.52673 3.26464 4.15057 3.43068 3.90765C3.46912 3.85179 3.53625 3.82617 3.60441 3.82617Z" fill="white"/>
<path d="M13.429 4.85113H13.6417C13.7098 4.85113 13.777 4.82551 13.8154 4.76965C13.9814 4.52673 13.9814 4.15057 13.8154 3.90765C13.777 3.85179 13.7098 3.82617 13.6417 3.82617H13.4177C13.47 4.03065 13.4941 4.21822 13.4915 4.40118C13.4889 4.558 13.4664 4.70559 13.429 4.85113Z" fill="white"/>
<path d="M5.03577 5.61979V6.53868C5.03577 6.60684 5.06293 6.67191 5.11059 6.71957L5.36223 6.97121C5.59131 7.20029 5.55336 7.58105 5.28431 7.76042L5.15006 7.85009C5.07883 7.89724 5.03577 7.9772 5.03577 8.06329V11.7695H12.2105V8.06329C12.2105 7.9772 12.1674 7.89724 12.0962 7.85009L11.9619 7.76042C11.6929 7.58105 11.6549 7.20029 11.884 6.97121L12.1356 6.71957C12.1833 6.67191 12.2105 6.60684 12.2105 6.53868V5.61979H5.03577Z" fill="white"/>
<path d="M3.81864 12.5386H3.60441C3.53625 12.5386 3.46912 12.5642 3.43068 12.6201C3.26464 12.863 3.26464 13.2391 3.43068 13.482C3.46912 13.5379 3.53625 13.5635 3.60441 13.5635H3.81095C3.73356 13.2197 3.73562 12.9035 3.81864 12.5386Z" fill="white"/>
<path d="M13.6417 13.5635H13.429C13.4664 13.418 13.4889 13.2704 13.4915 13.1136C13.4941 12.9306 13.47 12.7431 13.4177 12.5386H13.6417C13.7098 12.5386 13.777 12.5642 13.8154 12.6201C13.9814 12.863 13.9814 13.2391 13.8154 13.482C13.777 13.5379 13.7098 13.5635 13.6417 13.5635Z" fill="white"/>
</svg>
