<svg width="17" height="17" viewBox="0 0 17 17" fill="none" xmlns="http://www.w3.org/2000/svg">
<g clip-path="url(#clip0_153_632)">
<path fill-rule="evenodd" clip-rule="evenodd" d="M2.51165 1.98676C2.28945 1.98676 2.10932 2.16689 2.10932 2.38909V14.459C2.10932 14.6812 2.28945 14.8613 2.51165 14.8613H14.5815C14.8037 14.8613 14.9839 14.6812 14.9839 14.459V2.38909C14.9839 2.16689 14.8037 1.98676 14.5815 1.98676H2.51165ZM0.5 2.38909C0.5 1.27809 1.40065 0.377441 2.51165 0.377441H14.5815C15.6925 0.377441 16.5932 1.27809 16.5932 2.38909V14.459C16.5932 15.57 15.6925 16.4706 14.5815 16.4706H2.51165C1.40065 16.4706 0.5 15.57 0.5 14.459V2.38909Z" fill="white"/>
<path fill-rule="evenodd" clip-rule="evenodd" d="M6.53509 4.3999C6.97949 4.3999 7.33975 4.76016 7.33975 5.20456V5.60689H9.75372V5.20456C9.75372 4.76016 10.114 4.3999 10.5584 4.3999C11.0028 4.3999 11.363 4.76016 11.363 5.20456V5.60689H11.7654C12.2098 5.60689 12.57 5.96715 12.57 6.41155C12.57 6.85595 12.2098 7.21621 11.7654 7.21621H11.363V9.63019H11.7654C12.2098 9.63019 12.57 9.99045 12.57 10.4348C12.57 10.8792 12.2098 11.2395 11.7654 11.2395H11.363V11.6418C11.363 12.0862 11.0028 12.4465 10.5584 12.4465C10.114 12.4465 9.75372 12.0862 9.75372 11.6418V11.2395H7.33975V11.6418C7.33975 12.0862 6.97949 12.4465 6.53509 12.4465C6.09068 12.4465 5.73043 12.0862 5.73043 11.6418V11.2395H5.3281C4.8837 11.2395 4.52344 10.8792 4.52344 10.4348C4.52344 9.99045 4.8837 9.63019 5.3281 9.63019H5.73043V7.21621H5.3281C4.8837 7.21621 4.52344 6.85595 4.52344 6.41155C4.52344 5.96715 4.8837 5.60689 5.3281 5.60689H5.73043V5.20456C5.73043 4.76016 6.09068 4.3999 6.53509 4.3999ZM7.33975 7.21621V9.63019H9.75372V7.21621H7.33975Z" fill="white"/>
</g>
<defs>
<clipPath id="clip0_153_632">
<rect width="16" height="16" fill="white" transform="translate(0.5 0.377441)"/>
</clipPath>
</defs>
</svg>
