<svg width="17" height="17" viewBox="0 0 17 17" fill="none" xmlns="http://www.w3.org/2000/svg">
<path d="M9.99988 4.53467C9.99988 3.70624 9.32831 3.03467 8.49988 3.03467C7.67145 3.03467 6.99988 3.70624 6.99988 4.53467V7.07666L4.45801 7.07666C3.62958 7.07666 2.95801 7.74823 2.95801 8.57666C2.95801 9.40509 3.62958 10.0767 4.45801 10.0767L6.99988 10.0767V12.6184C6.99988 13.4468 7.67145 14.1184 8.49988 14.1184C9.3283 14.1184 9.99988 13.4468 9.99988 12.6184V10.0767L12.5417 10.0767C13.3702 10.0767 14.0417 9.40509 14.0417 8.57666C14.0417 7.74823 13.3702 7.07666 12.5417 7.07666L9.99988 7.07666V4.53467Z" fill="white"/>
</svg>
