<svg width="17" height="17" viewBox="0 0 17 17" fill="none" xmlns="http://www.w3.org/2000/svg">
<g clip-path="url(#clip0_137_1891)">
<path fill-rule="evenodd" clip-rule="evenodd" d="M10.5646 2.64063C9.7948 1.30729 7.8703 1.30729 7.10049 2.64062L1.65253 12.0768C0.882725 13.4101 1.84497 15.0768 3.38457 15.0768L14.2805 15.0768C15.8201 15.0768 16.7824 13.4101 16.0126 12.0768L10.5646 2.64063ZM7.73745 9.16763L7.41732 6.09436C7.37173 5.65664 7.53161 5.22252 7.85021 4.91893C8.39883 4.39616 9.26122 4.39616 9.80984 4.91893C10.1284 5.22252 10.2883 5.65664 10.2427 6.09436L9.92259 9.16763C9.8643 9.72722 9.39264 10.1523 8.83002 10.1523C8.26741 10.1523 7.79574 9.72722 7.73745 9.16763ZM10.0682 12.0022C10.0682 12.686 9.51385 13.2403 8.83007 13.2403C8.14629 13.2403 7.59197 12.686 7.59197 12.0022C7.59197 11.3184 8.14629 10.7641 8.83007 10.7641C9.51385 10.7641 10.0682 11.3184 10.0682 12.0022Z" fill="white"/>
</g>
<defs>
<clipPath id="clip0_137_1891">
<rect x="0.83252" y="0.358887" width="16" height="16" rx="5" fill="white"/>
</clipPath>
</defs>
</svg>
