<svg width="17" height="17" viewBox="0 0 17 17" fill="none" xmlns="http://www.w3.org/2000/svg">
<path d="M8.87769 3.87305C7.84063 3.87305 6.84604 4.28502 6.11273 5.01833C5.37941 5.75165 4.96744 6.74624 4.96744 7.7833V9.75407C4.96752 9.84072 4.94744 9.92621 4.90878 10.0038L3.94966 11.9215C3.9028 12.0152 3.88068 12.1193 3.88539 12.2239C3.89009 12.3286 3.92147 12.4303 3.97655 12.5194C4.03162 12.6085 4.10856 12.682 4.20006 12.733C4.29156 12.784 4.39457 12.8108 4.49933 12.8108H13.2561C13.3608 12.8108 13.4638 12.784 13.5553 12.733C13.6468 12.682 13.7238 12.6085 13.7788 12.5194C13.8339 12.4303 13.8653 12.3286 13.87 12.2239C13.8747 12.1193 13.8526 12.0152 13.8057 11.9215L12.8472 10.0038C12.8083 9.92626 12.788 9.84077 12.7879 9.75407V7.7833C12.7879 6.74624 12.376 5.75165 11.6427 5.01833C10.9093 4.28502 9.91476 3.87305 8.87769 3.87305ZM8.87769 14.4866C8.53099 14.4868 8.19277 14.3794 7.90964 14.1793C7.6265 13.9792 7.4124 13.6963 7.29683 13.3694H10.4586C10.343 13.6963 10.1289 13.9792 9.84575 14.1793C9.56262 14.3794 9.22439 14.4868 8.87769 14.4866Z" fill="white"/>
</svg>
