<svg width="14" height="14" viewBox="0 0 14 14" fill="none" xmlns="http://www.w3.org/2000/svg">
<path fill-rule="evenodd" clip-rule="evenodd" d="M11.7524 3.24572C11.6716 3.0508 11.5533 2.87369 11.4041 2.72452C11.2549 2.57532 11.0778 2.45696 10.8829 2.37622C10.688 2.29547 10.479 2.25391 10.2681 2.25391C10.0571 2.25391 9.84815 2.29547 9.65323 2.37622C9.45831 2.45696 9.28121 2.57532 9.13203 2.72452L8.31114 3.54541C8.01201 3.40172 7.67562 3.35452 7.3485 3.41035C7.02138 3.46619 6.71969 3.62228 6.48515 3.85706L6.10282 4.23939C5.90205 4.44023 5.78926 4.71258 5.78926 4.99656C5.78926 5.28054 5.90205 5.55289 6.10282 5.75373L2.63077 9.22632C2.48143 9.37547 2.36294 9.5526 2.28209 9.74757C2.20123 9.94254 2.15959 10.1515 2.15955 10.3626V11.3265C2.15955 11.4969 2.22725 11.6603 2.34775 11.7808C2.46826 11.9013 2.6317 11.969 2.80212 11.969H3.76599C3.97702 11.9691 4.18599 11.9275 4.38096 11.8468C4.57593 11.766 4.75307 11.6476 4.90227 11.4984L8.37486 8.02577C8.5757 8.22654 8.84805 8.33933 9.13203 8.33933C9.41601 8.33933 9.68836 8.22654 9.8892 8.02577L10.2721 7.64344C10.5068 7.40884 10.6628 7.10712 10.7185 6.78C10.7742 6.45288 10.7269 6.11653 10.5832 5.81745L11.4041 4.99656C11.5533 4.84738 11.6716 4.67028 11.7524 4.47536C11.8331 4.28044 11.8747 4.07152 11.8747 3.86054C11.8747 3.64956 11.8331 3.44064 11.7524 3.24572ZM4.36938 9.00204L6.86052 6.5109L7.61769 7.2686L5.88399 9.00204H4.36938Z" fill="white"/>
</svg>
