<svg width="17" height="17" viewBox="0 0 17 17" fill="none" xmlns="http://www.w3.org/2000/svg">
<path d="M11.7948 6.51166V12.2908H11.8013V13.6049H12.7948V6.51166C12.7948 3.93149 10.7032 1.83984 8.12299 1.83984C5.54281 1.83984 3.45117 3.93148 3.45117 6.51166V13.6049H4.45642V12.6049H4.45117V6.51166C4.45117 4.48377 6.0951 2.83984 8.12299 2.83984C10.1509 2.83984 11.7948 4.48377 11.7948 6.51166Z" fill="white"/>
<path fill-rule="evenodd" clip-rule="evenodd" d="M4.83984 6.59524C4.83984 4.78196 6.3098 3.31201 8.12308 3.31201C9.93636 3.31201 11.4063 4.78197 11.4063 6.59525V13.6054H4.83984V6.59524ZM10.4849 9.10651C10.4849 9.54745 10.1274 9.90491 9.68646 9.90491C9.24552 9.90491 8.88806 9.54745 8.88806 9.10651C8.88806 8.66556 9.24552 8.30811 9.68646 8.30811C10.1274 8.30811 10.4849 8.66556 10.4849 9.10651Z" fill="white"/>
<path d="M13.4098 14.6553V13.9497H2.83618V14.6553H13.4098Z" fill="white"/>
</svg>
