<svg width="16" height="17" viewBox="0 0 16 17" fill="none" xmlns="http://www.w3.org/2000/svg">
<path fill-rule="evenodd" clip-rule="evenodd" d="M8.75892 2.32657L14.804 6.28484C15.1982 6.543 15.1803 7.09748 14.77 7.33253L14.753 7.34228L14.1743 6.35135C13.9797 6.01843 13.6614 5.77854 13.2918 5.68078C12.9253 5.58384 12.5348 5.63352 12.2041 5.82007C12.1989 5.43991 12.044 5.07842 11.7752 4.81226C11.502 4.54187 11.1337 4.39178 10.7517 4.39178H8.94178C8.55982 4.39178 8.19149 4.54187 7.91833 4.81226C7.64944 5.07842 7.49458 5.43991 7.48943 5.82006C7.32691 5.72834 7.14842 5.66887 6.96381 5.64461C6.77592 5.61992 6.58493 5.63212 6.40163 5.6806C6.21831 5.72909 6.04588 5.81302 5.89433 5.92806C5.74292 6.04299 5.61491 6.18734 5.51867 6.35222L4.614 7.90141L4.61199 7.90488C4.41942 8.23773 4.36699 8.63375 4.46744 9.00587C4.48882 9.08507 4.5167 9.16167 4.55056 9.23502L1.23 7.33253C0.819749 7.09748 0.801773 6.543 1.19603 6.28484L7.24109 2.32657C7.69727 2.02786 8.30274 2.02786 8.75892 2.32657ZM10.6375 9.70024L9.30869 10.4616C9.14087 10.3148 9.03681 10.1017 9.03681 9.87075C9.03681 9.44456 9.39122 9.07916 9.84675 9.07916C10.24 9.07916 10.5579 9.35153 10.6375 9.70024ZM4.78606 10.1471L1.64508 8.34749C1.50589 8.26774 1.32983 8.2728 1.19607 8.36039C0.801807 8.61854 0.819783 9.17303 1.23003 9.40808L4.4221 11.237C4.38823 10.8414 4.51978 10.4449 4.78606 10.1471Z" fill="white"/>
<path d="M5.47755 11.3488L6.38252 12.8986C6.4426 13.0014 6.54146 13.0763 6.65737 13.107C6.77328 13.1376 6.89674 13.1215 7.00061 13.062L7.63228 12.701C7.89472 12.9057 8.18477 13.0737 8.48974 13.1991V13.9148C8.48974 14.0336 8.53741 14.1476 8.62227 14.2316C8.70713 14.3156 8.82222 14.3627 8.94223 14.3627H10.7522C10.8722 14.3627 10.9873 14.3156 11.0721 14.2316C11.157 14.1476 11.2046 14.0336 11.2046 13.9148V13.1991C11.512 13.0724 11.8005 12.9049 12.0621 12.701L12.6938 13.062C12.9096 13.1852 13.1874 13.1113 13.3119 12.8986L14.2168 11.3488C14.2764 11.2459 14.2924 11.1239 14.2615 11.0093C14.2306 10.8947 14.1552 10.7968 14.0517 10.737L13.4309 10.3818C13.4794 10.0515 13.4791 9.71594 13.43 9.3857L14.0508 9.03052C14.2662 8.90735 14.3408 8.63189 14.2159 8.41869L13.311 6.86896C13.2509 6.76617 13.152 6.6912 13.0361 6.66054C12.9202 6.62989 12.7967 6.64605 12.6929 6.70548L12.0612 7.06649C11.7999 6.86241 11.5115 6.69483 11.2042 6.56842V5.85268C11.2042 5.73389 11.1565 5.61997 11.0717 5.53597C10.9868 5.45197 10.8717 5.40479 10.7517 5.40479H8.94177C8.82177 5.40479 8.70668 5.45197 8.62182 5.53597C8.53696 5.61997 8.48929 5.73389 8.48929 5.85268V6.56842C8.18193 6.69509 7.89345 6.86266 7.63183 7.06649L7.00061 6.70548C6.9492 6.67599 6.89241 6.65683 6.83351 6.64909C6.7746 6.64135 6.71473 6.64518 6.65732 6.66037C6.59992 6.67555 6.5461 6.70179 6.49894 6.73758C6.45179 6.77338 6.41223 6.81802 6.38252 6.86896L5.47755 8.41869C5.418 8.52162 5.40194 8.64367 5.43288 8.75826C5.46381 8.87286 5.53923 8.97071 5.64271 9.03052L6.26352 9.3857C6.21471 9.71598 6.21471 10.0515 6.26352 10.3818L5.64271 10.737C5.42733 10.8602 5.35267 11.1356 5.47755 11.3488ZM9.84674 8.09217C10.8449 8.09217 11.6567 8.8957 11.6567 9.88376C11.6567 10.8718 10.8449 11.6754 9.84674 11.6754C8.84856 11.6754 8.0368 10.8718 8.0368 9.88376C8.0368 8.8957 8.84856 8.09217 9.84674 8.09217Z" fill="white"/>
</svg>
