<svg width="17" height="17" viewBox="0 0 17 17" fill="none" xmlns="http://www.w3.org/2000/svg">
<path fill-rule="evenodd" clip-rule="evenodd" d="M13.3276 2.54541V1.83984H2.75403V2.54541H13.3276ZM3.36902 2.8902H4.37427V3.8902H4.36902V12.6049H4.37427V13.6049H3.36902V2.8902ZM11.7126 4.20428H11.7191V2.8902H12.7126V13.6049H11.7191V12.2908H11.7126V4.20428ZM11.2554 3.77191V3.06635H5.03259V3.77191H11.2554ZM13.3276 14.6553V13.9497H2.75403V14.6553H13.3276ZM11.2554 12.7232V13.4288H5.03259V12.7232H11.2554ZM7.65137 4.41504H8.52783V9.44995H11.2245V10.3264H8.52783V12.1006H7.65137V10.3264H4.95483V9.44995H7.65137V4.41504Z" fill="white"/>
</svg>
