<svg width="13" height="12" viewBox="0 0 13 12" fill="none" xmlns="http://www.w3.org/2000/svg">
<path d="M8 2.15137C8 1.32294 7.32843 0.651367 6.5 0.651367C5.67157 0.651367 5 1.32294 5 2.15137V4.69336L2.45813 4.69336C1.6297 4.69336 0.95813 5.36493 0.95813 6.19336C0.95813 7.02179 1.6297 7.69336 2.45813 7.69336L5 7.69336V10.2351C5 11.0635 5.67157 11.7351 6.5 11.7351C7.32843 11.7351 8 11.0635 8 10.2351V7.69336L10.5419 7.69336C11.3703 7.69336 12.0419 7.02179 12.0419 6.19336C12.0419 5.36493 11.3703 4.69336 10.5419 4.69336L8 4.69336V2.15137Z" fill="white"/>
</svg>
