<svg width="17" height="17" viewBox="0 0 17 17" fill="none" xmlns="http://www.w3.org/2000/svg">
<g clip-path="url(#clip0_616_6936)">
<path d="M7.71083 11.3541C7.71083 11.3546 7.71022 11.3548 7.70986 11.3545L5.29987 8.94392C5.03366 8.67764 5.03369 8.24599 5.29993 7.97974C5.56616 7.71351 5.9978 7.71347 6.26408 7.97966L7.71083 9.42589L11.0848 6.05128C11.3512 5.78485 11.7832 5.78483 12.0496 6.05124C12.316 6.31764 12.316 6.74958 12.0495 7.01597L7.71083 11.3541Z" fill="white"/>
<path fill-rule="evenodd" clip-rule="evenodd" d="M1.40918 8.41406C1.40918 4.27202 4.76713 0.914062 8.90918 0.914062C13.0512 0.914062 16.4092 4.27202 16.4092 8.41406C16.4092 12.5561 13.0512 15.9141 8.90918 15.9141C4.76713 15.9141 1.40918 12.5561 1.40918 8.41406ZM8.90918 14.5504C8.10334 14.5504 7.30539 14.3917 6.56089 14.0833C5.8164 13.7749 5.13993 13.3229 4.57012 12.7531C4.0003 12.1833 3.5483 11.5068 3.23992 10.7623C2.93154 10.0178 2.77282 9.2199 2.77282 8.41406C2.77282 7.60822 2.93154 6.81028 3.23992 6.06578C3.5483 5.32128 4.0003 4.64481 4.57012 4.075C5.13993 3.50518 5.8164 3.05318 6.56089 2.7448C7.30539 2.43642 8.10334 2.2777 8.90918 2.2777C10.5366 2.2777 12.0975 2.92421 13.2482 4.075C14.399 5.22579 15.0455 6.7866 15.0455 8.41406C15.0455 10.0415 14.399 11.6023 13.2482 12.7531C12.0975 13.9039 10.5366 14.5504 8.90918 14.5504Z" fill="white"/>
</g>
<defs>
<clipPath id="clip0_616_6936">
<rect width="16" height="16" fill="white" transform="translate(0.90918 0.414062)"/>
</clipPath>
</defs>
</svg>
