<svg width="17" height="17" viewBox="0 0 17 17" fill="none" xmlns="http://www.w3.org/2000/svg">
<path d="M15.0504 11.3239C15.3016 11.5751 15.3016 11.9824 15.0504 12.2336L12.9063 14.3772C12.504 14.7795 11.8082 14.4976 11.8082 13.9224V12.8508H10.2327C10.1886 12.8508 10.1449 12.8417 10.1045 12.8241C10.064 12.8066 10.0276 12.7809 9.99754 12.7486L8.10655 10.7225L9.53594 9.19104L10.9505 10.7067H11.8082V9.63514C11.8082 9.06057 12.5035 8.77755 12.9063 9.18029L15.0504 11.3239ZM1.8381 6.41847H4.08941L5.50401 7.93411L6.9334 6.4026L5.04241 4.37653C5.01231 4.34429 4.97591 4.31858 4.93546 4.30101C4.89501 4.28343 4.85138 4.27436 4.80728 4.27436H1.8381C1.66048 4.27436 1.51648 4.41837 1.51648 4.59598V6.09685C1.51648 6.27447 1.66048 6.41847 1.8381 6.41847ZM11.8082 6.41847V7.49009C11.8082 8.06525 12.504 8.3472 12.9063 7.94494L15.0504 5.80126C15.3016 5.55005 15.3016 5.14278 15.0504 4.8916L12.9063 2.748C12.5035 2.34523 11.8082 2.62828 11.8082 3.20282V4.27436H10.2327C10.1886 4.27436 10.1449 4.28343 10.1045 4.30101C10.064 4.31858 10.0276 4.34429 9.99754 4.37653L4.08941 10.7067H1.8381C1.66048 10.7067 1.51648 10.8507 1.51648 11.0283V12.5292C1.51648 12.7068 1.66048 12.8508 1.8381 12.8508H4.80728C4.89642 12.8508 4.98157 12.8138 5.04241 12.7486L10.9505 6.41847H11.8082Z" fill="white"/>
</svg>
