<svg width="17" height="17" viewBox="0 0 17 17" fill="none" xmlns="http://www.w3.org/2000/svg">
<g clip-path="url(#clip0_118_1274)">
<path fill-rule="evenodd" clip-rule="evenodd" d="M2.20047 0.414062C1.16087 0.414062 0.318115 1.25682 0.318115 2.29642V14.5317C0.318115 15.5713 1.16087 16.4141 2.20047 16.4141H14.4358C15.4754 16.4141 16.3181 15.5713 16.3181 14.5317V2.29642C16.3181 1.25682 15.4754 0.414062 14.4358 0.414062H2.20047ZM5.5041 4.91716H4.82071V5.60054C4.82071 6.00838 4.49009 6.33901 4.08225 6.33901C3.67441 6.33901 3.34379 6.00838 3.34379 5.60054V4.66273C3.34379 3.98756 3.89112 3.44023 4.56628 3.44023H5.5041C5.91194 3.44023 6.24256 3.77085 6.24256 4.17869C6.24256 4.58654 5.91194 4.91716 5.5041 4.91716ZM7.37973 3.44023C6.97189 3.44023 6.64127 3.77085 6.64127 4.17869C6.64127 4.58654 6.97189 4.91716 7.37973 4.91716H9.25536C9.6632 4.91716 9.99382 4.58654 9.99382 4.17869C9.99382 3.77085 9.6632 3.44023 9.25536 3.44023H7.37973ZM11.131 3.44023C10.7231 3.44023 10.3925 3.77085 10.3925 4.17869C10.3925 4.58654 10.7231 4.91716 11.131 4.91716H11.8144V5.60054C11.8144 6.00838 12.145 6.339 12.5528 6.339C12.9607 6.339 13.2913 6.00838 13.2913 5.60054V4.66273C13.2913 3.98756 12.744 3.44023 12.0688 3.44023H11.131ZM13.2913 7.47617C13.2913 7.06833 12.9607 6.73771 12.5528 6.73771C12.145 6.73771 11.8144 7.06833 11.8144 7.47617V9.3518C11.8144 9.75964 12.145 10.0903 12.5528 10.0903C12.9607 10.0903 13.2913 9.75964 13.2913 9.3518V7.47617ZM4.82071 7.47617C4.82071 7.06833 4.49009 6.73771 4.08225 6.73771C3.67441 6.73771 3.34379 7.06833 3.34379 7.47617V9.3518C3.34379 9.75965 3.67441 10.0903 4.08225 10.0903C4.49009 10.0903 4.82071 9.75965 4.82071 9.3518V7.47617ZM13.2913 11.2274C13.2913 10.8196 12.9607 10.489 12.5528 10.489C12.145 10.489 11.8144 10.8196 11.8144 11.2274V11.9108H11.131C10.7231 11.9108 10.3925 12.2414 10.3925 12.6493C10.3925 13.0571 10.7231 13.3877 11.131 13.3877H12.0688C12.744 13.3877 13.2913 12.8404 13.2913 12.1652V11.2274ZM4.82071 11.2274C4.82071 10.8196 4.49009 10.489 4.08225 10.489C3.67441 10.489 3.34379 10.8196 3.34379 11.2274V12.1652C3.34379 12.8404 3.89112 13.3877 4.56628 13.3877H5.5041C5.91194 13.3877 6.24256 13.0571 6.24256 12.6493C6.24256 12.2414 5.91194 11.9108 5.5041 11.9108H4.82071V11.2274ZM7.37973 11.9108C6.97189 11.9108 6.64127 12.2414 6.64127 12.6493C6.64127 13.0571 6.97189 13.3877 7.37973 13.3877H9.25536C9.6632 13.3877 9.99382 13.0571 9.99382 12.6493C9.99382 12.2414 9.6632 11.9108 9.25536 11.9108H7.37973Z" fill="white"/>
</g>
<defs>
<clipPath id="clip0_118_1274">
<rect width="16" height="16" fill="white" transform="translate(0.318115 0.414062)"/>
</clipPath>
</defs>
</svg>
