<svg width="17" height="17" viewBox="0 0 17 17" fill="none" xmlns="http://www.w3.org/2000/svg">
<g clip-path="url(#clip0_118_1268)">
<path fill-rule="evenodd" clip-rule="evenodd" d="M11.5325 16.6896H1.93252C1.05012 16.6896 0.33252 15.972 0.33252 15.0896V5.48961C0.33252 4.60721 1.05012 3.88961 1.93252 3.88961H11.5325C12.4149 3.88961 13.1325 4.60721 13.1325 5.48961V15.0896C13.1325 15.972 12.4149 16.6896 11.5325 16.6896ZM5.93221 7.08957H7.53221V9.48957H9.93221V11.0896H7.53221V13.4896H5.93221V11.0896H3.53221V9.48957H5.93221V7.08957Z" fill="white"/>
<path d="M14.7325 0.689453H5.17023C4.61795 0.689453 4.17023 1.13717 4.17023 1.68945V2.28945H12.7325C13.8371 2.28945 14.7325 3.18488 14.7325 4.28945V12.8758H15.3325C15.8848 12.8758 16.3325 12.4281 16.3325 11.8758V2.28945C16.3325 1.40705 15.6149 0.689453 14.7325 0.689453Z" fill="white"/>
</g>
<defs>
<clipPath id="clip0_118_1268">
<rect width="16" height="16.0002" fill="white" transform="translate(0.33252 0.689453)"/>
</clipPath>
</defs>
</svg>
