<svg width="72" height="72" viewBox="0 0 72 72" fill="none" xmlns="http://www.w3.org/2000/svg">
<path d="M8.64742 43.7535C9.18516 43.4014 9.89296 43.3811 10.4525 43.7017L32.4969 56.3319C34.5741 57.522 37.1832 57.522 39.2604 56.3319L61.3164 43.695C61.9476 43.3334 62.7461 43.3563 63.3527 43.7535C64.9377 44.7913 64.8654 47.0204 63.2162 47.9653L38.7779 61.9671C37.0716 62.9447 34.9285 62.9447 33.2222 61.9671L8.78397 47.9653C7.13472 47.0204 7.06245 44.7913 8.64742 43.7535Z" fill="white"/>
<path d="M8.64742 35.457C9.18516 35.1049 9.89296 35.0845 10.4525 35.4051L32.4969 48.0354C34.5741 49.2255 37.1832 49.2255 39.2604 48.0354L61.3164 35.3985C61.9476 35.0368 62.7461 35.0598 63.3527 35.457C64.9377 36.4948 64.8654 38.7239 63.2162 39.6688L38.7779 53.6706C37.0716 54.6482 34.9285 54.6482 33.2222 53.6706L8.78397 39.6688C7.13472 38.7239 7.06245 36.4948 8.64742 35.457Z" fill="white"/>
<path d="M63.3526 27.1131L39.0509 11.2004C37.217 9.9996 34.7829 9.9996 32.949 11.2004L8.64728 27.1131C7.06232 28.1509 7.13459 30.38 8.78383 31.3249L33.2221 45.3267C34.9284 46.3043 37.0715 46.3043 38.7778 45.3267L63.216 31.3249C64.8653 30.38 64.9375 28.1509 63.3526 27.1131Z" fill="white"/>
</svg>
