<svg width="72" height="72" viewBox="0 0 72 72" fill="none" xmlns="http://www.w3.org/2000/svg">
<path d="M6.24654 44.3901C6.83148 44.0071 7.60141 43.985 8.21007 44.3337L32.1895 58.0726C34.449 59.3672 37.287 59.3672 39.5465 58.0726L63.5385 44.3265C64.2252 43.9331 65.0937 43.958 65.7536 44.3901C67.4777 45.519 67.3991 47.9438 65.6051 48.9716L39.0217 64.2024C37.1657 65.2659 34.8345 65.2659 32.9784 64.2024L6.39507 48.9716C4.60106 47.9438 4.52245 45.519 6.24654 44.3901Z" fill="white"/>
<path d="M6.24654 35.3654C6.83148 34.9823 7.60141 34.9602 8.21007 35.309L32.1895 49.0478C34.449 50.3424 37.287 50.3424 39.5465 49.0478L63.5385 35.3017C64.2252 34.9083 65.0937 34.9333 65.7536 35.3654C67.4777 36.4943 67.3991 38.919 65.6051 39.9469L39.0217 55.1777C37.1657 56.2411 34.8345 56.2411 32.9784 55.1777L6.39507 39.9469C4.60106 38.919 4.52245 36.4943 6.24654 35.3654Z" fill="white"/>
<path d="M65.7535 26.289L39.3186 8.97967C37.3238 7.67344 34.6761 7.67344 32.6812 8.97967L6.24639 26.289C4.52231 27.418 4.60092 29.8427 6.39493 30.8706L32.9783 46.1014C34.8343 47.1648 37.1655 47.1648 39.0216 46.1014L65.6049 30.8706C67.3989 29.8427 67.4775 27.418 65.7535 26.289Z" fill="white"/>
</svg>
