<svg width="64" height="64" viewBox="0 0 64 64" fill="none" xmlns="http://www.w3.org/2000/svg">
<path fill-rule="evenodd" clip-rule="evenodd" d="M50.9885 4.08152C55.3157 4.03493 58.8488 7.52941 58.8489 11.8569V25.2788C58.8487 26.9286 58.1932 28.5116 57.0266 29.6782L55.9114 30.7925C54.9777 30.1933 53.8678 29.8442 52.676 29.8442H36.2541C32.9404 29.8442 30.2541 32.5305 30.2541 35.8442V36.1723L26.2922 32.2114L27.0403 31.4634C27.8665 30.6371 27.8664 29.2975 27.0403 28.4712C26.214 27.645 24.8743 27.6449 24.0481 28.4712L23.301 29.2192L22.552 28.4712C21.7258 27.6452 20.387 27.6452 19.5608 28.4712C18.7348 29.2973 18.734 30.6361 19.5598 31.4624L20.3088 32.2114L15.8196 36.6997L15.0715 35.9516C14.2453 35.1256 12.9056 35.1256 12.0793 35.9516C11.2534 36.7779 11.2534 38.1176 12.0793 38.9438L12.8284 39.6919L12.0803 40.4399C11.2541 41.2661 11.2532 42.6058 12.0793 43.4321C12.9056 44.2583 14.2462 44.2584 15.0725 43.4321L15.8196 42.6841L20.3088 47.1723L19.5608 47.9204C18.7346 48.7466 18.7337 50.0863 19.5598 50.9126C20.3861 51.7388 21.7267 51.7388 22.553 50.9126L23.301 50.1645L24.0481 50.9126C24.8742 51.7386 26.2139 51.7392 27.0403 50.9135C27.8666 50.0873 27.8666 48.7467 27.0403 47.9204L26.2922 47.1723L30.2541 43.2104V52.2661C30.2541 53.458 30.6021 54.5687 31.2014 55.5024L28.259 58.4458C25.8296 60.875 21.8907 60.8748 19.4612 58.4458L4.43187 43.4155C1.99007 40.9734 2.00436 37.0105 4.4641 34.5864L33.4602 6.01413C34.6075 4.88357 36.1493 4.24155 37.76 4.22409L50.9885 4.08152ZM51.9221 10.9223C50.5007 9.50105 48.1971 9.50106 46.7756 10.9223C45.3542 12.3438 45.3542 14.6483 46.7756 16.0698C48.197 17.4908 50.5007 17.4908 51.9221 16.0698C53.3435 14.6483 53.3436 12.3438 51.9221 10.9223Z" fill="#D9D9D9"/>
<path d="M27.7893 39.6919L23.301 44.1801L18.8118 39.6919L23.301 35.2036L27.7893 39.6919Z" fill="#D9D9D9"/>
<path d="M48.8213 43.1406C49.2904 43.1407 49.6632 43.3012 49.9404 43.6211C50.2178 43.9411 50.3564 44.3888 50.3564 44.9648C50.3564 45.3488 50.293 45.6797 50.165 45.957C50.037 46.2236 49.8607 46.4318 49.6367 46.5811C49.4129 46.7196 49.141 46.789 48.8213 46.7891C48.3626 46.7891 47.9941 46.6286 47.7168 46.3086C47.4396 45.9886 47.3008 45.5407 47.3008 44.9648C47.3008 44.5811 47.3594 44.2558 47.4766 43.9893C47.6045 43.7121 47.7861 43.5039 48.0205 43.3652C48.2552 43.2159 48.5226 43.1406 48.8213 43.1406Z" fill="#5EE663"/>
<path fill-rule="evenodd" clip-rule="evenodd" d="M52.6484 32.8721C54.3051 32.8723 55.6484 34.2164 55.6484 35.873V52.2383C55.6484 53.8951 54.3043 55.2383 52.6475 55.2383H36.2822C34.6254 55.2383 33.2822 53.8951 33.2822 52.2383V35.8721C33.2825 34.2154 34.6255 32.8721 36.2822 32.8721H52.6484ZM47.9404 41.0449C47.4179 41.045 46.9382 41.1411 46.501 41.333C46.0743 41.5143 45.7058 41.7759 45.3965 42.1172C45.0981 42.4584 44.8639 42.869 44.6934 43.3486C44.5227 43.8286 44.4365 44.3675 44.4365 44.9648C44.4365 45.754 44.5812 46.4417 44.8691 47.0283C45.1677 47.6148 45.5781 48.0737 46.1006 48.4043C46.6231 48.7242 47.2366 48.8847 47.9404 48.8848C48.5164 48.8848 49.0503 48.7461 49.541 48.4688C49.9258 48.2429 50.2073 47.9669 50.3887 47.6426V48.373C50.3886 48.9489 50.2232 49.3701 49.8926 49.6367C49.5726 49.914 49.0871 50.0527 48.4365 50.0527C48.1699 50.0527 47.8447 50.021 47.4609 49.957C47.0769 49.9037 46.65 49.7809 46.1807 49.5889C45.9461 49.5036 45.733 49.4986 45.541 49.5732C45.3491 49.6585 45.1945 49.7914 45.0771 49.9727C44.9705 50.154 44.912 50.3571 44.9014 50.5811C44.8908 50.805 44.9492 51.0181 45.0771 51.2207C45.2051 51.4232 45.4234 51.5779 45.7324 51.6846C46.1057 51.8339 46.5487 51.9458 47.0605 52.0205C47.5725 52.1058 48.1223 52.1484 48.709 52.1484C50.1383 52.1484 51.2369 51.8017 52.0049 51.1084C52.7727 50.4258 53.1572 49.4022 53.1572 48.0371V42.501C53.1572 42.0423 53.0344 41.6897 52.7891 41.4443C52.5544 41.1991 52.2126 41.0771 51.7646 41.0771C51.3169 41.0772 50.9649 41.1992 50.709 41.4443C50.5124 41.6409 50.3955 41.9066 50.3564 42.2402C50.1765 41.9315 49.9052 41.6714 49.541 41.4609C49.0717 41.1836 48.5378 41.0449 47.9404 41.0449ZM36.1094 37.8125C35.7148 37.8125 35.4105 37.9146 35.1973 38.1172C34.9949 38.3198 34.8936 38.6183 34.8936 39.0127C34.8936 39.3967 34.9946 39.6958 35.1973 39.9092C35.4105 40.1118 35.7148 40.2128 36.1094 40.2129H38.6221V47.749C38.6221 48.2182 38.7499 48.5859 39.0059 48.8525C39.2619 49.1085 39.6244 49.2363 40.0938 49.2363C40.5843 49.2363 40.9519 49.1085 41.1973 48.8525C41.4426 48.5859 41.5654 48.2182 41.5654 47.749V40.2129H44.0781C44.4724 40.2128 44.7711 40.1116 44.9736 39.9092C45.187 39.6958 45.2939 39.3967 45.2939 39.0127C45.2939 38.6182 45.1868 38.3198 44.9736 38.1172C44.771 37.9146 44.4726 37.8126 44.0781 37.8125H36.1094Z" fill="#5EE663"/>
</svg>
