<svg width="16" height="16" viewBox="0 0 16 16" fill="none" xmlns="http://www.w3.org/2000/svg">
<path d="M7 7.5C7 8.89434 5.86667 10 4.5 10C3.13333 10 2 8.89434 2 7.5C2 6.10566 3.13333 5 4.5 5C5.86667 5 7 6.10566 7 7.5Z" stroke="white" stroke-width="2"/>
<path d="M14 4C14 5.11547 13.0933 6 12 6C10.9067 6 10 5.11547 10 4C10 2.88453 10.9067 2 12 2C13.0933 2 14 2.88453 14 4Z" stroke="white" stroke-width="2"/>
<path d="M13 12C13 13.1155 12.0933 14 11 14C9.90667 14 9 13.1155 9 12C9 10.8845 9.90667 10 11 10C12.0933 10 13 10.8845 13 12Z" stroke="white" stroke-width="2"/>
<path d="M10.1733 4.84082L7.01929 6.35863" stroke="white" stroke-width="2" stroke-linecap="round"/>
<path d="M9.20694 10.9159L6.5896 9.12427" stroke="white" stroke-width="2" stroke-linecap="round"/>
</svg>
