<svg width="72" height="72" viewBox="0 0 72 72" fill="none" xmlns="http://www.w3.org/2000/svg">
<path fill-rule="evenodd" clip-rule="evenodd" d="M14.0661 8C12.9022 8 11.845 8.7238 11.5033 9.84716C10.617 12.7636 10.6386 14.8591 11.4822 17.5271C11.8345 18.618 12.8808 19.3094 14.0127 19.3094H57.878C58.9778 19.3094 60.0028 18.6612 60.3872 17.6243C61.3268 15.1075 61.5083 13.0443 60.3658 9.73904C59.9921 8.66968 58.9671 8 57.8459 8H14.0661ZM8.63095 10.83H9.79494C9.34647 12.8391 9.33575 14.5891 9.75219 16.4794H8.63095C8.25722 16.4794 7.89428 16.3389 7.68072 16.0365C6.77309 14.6971 6.77309 12.6231 7.68072 11.2837C7.89428 10.9705 8.25722 10.83 8.63095 10.83ZM63.3773 16.49H62.2238C62.4266 15.6799 62.5442 14.8699 62.5548 14.0057C62.5762 12.9904 62.4375 11.9534 62.1599 10.83H63.3773C63.7511 10.83 64.1137 10.9705 64.3273 11.2837C65.2242 12.6231 65.2242 14.6971 64.3273 16.0365C64.1137 16.3497 63.7511 16.49 63.3773 16.49ZM16.0096 24.008V29.9057C16.0096 30.2513 16.1376 30.5861 16.3618 30.8454L18.1452 32.8437C19.245 34.0858 19.0527 36.0193 17.7286 37.013L16.5753 37.8772C16.2229 38.1365 16.0096 38.5578 16.0096 39.0114V62.17C16.0096 63.7362 17.2588 65 18.8071 65H52.3466C53.8949 65 55.1444 63.7362 55.1444 62.17V39.0114C55.1444 38.5578 54.9308 38.1365 54.5784 37.8772L53.4251 37.013C52.0903 36.0193 51.9089 34.0858 53.0088 32.8437L54.7812 30.8454C55.0161 30.5861 55.1444 30.2513 55.1444 29.9057V24.008H16.0096Z" fill="white"/>
</svg>
