<svg width="72" height="72" viewBox="0 0 72 72" fill="none" xmlns="http://www.w3.org/2000/svg">
<path fill-rule="evenodd" clip-rule="evenodd" d="M18.1169 13.2634C17.1679 13.2634 16.3059 13.8536 16.0273 14.7695C15.3047 17.1473 15.3223 18.8558 16.0101 21.031C16.2974 21.9205 17.1505 22.4842 18.0733 22.4842H53.8375C54.7342 22.4842 55.5698 21.9557 55.8832 21.1103C56.6494 19.0583 56.7974 17.3762 55.8658 14.6813C55.5611 13.8094 54.7255 13.2634 53.8113 13.2634H18.1169ZM13.6855 15.5708H14.6345C14.2688 17.2088 14.2601 18.6356 14.5996 20.1768H13.6855C13.3807 20.1768 13.0848 20.0623 12.9107 19.8157C12.1707 18.7237 12.1707 17.0327 12.9107 15.9407C13.0848 15.6853 13.3807 15.5708 13.6855 15.5708ZM58.3212 20.1855H57.3806C57.5461 19.525 57.6419 18.8646 57.6506 18.16C57.668 17.3322 57.5549 16.4867 57.3286 15.5708H58.3212C58.6259 15.5708 58.9216 15.6853 59.0957 15.9407C59.827 17.0327 59.827 18.7237 59.0957 19.8157C58.9216 20.0711 58.6259 20.1855 58.3212 20.1855ZM19.7014 26.3151V31.1235C19.7014 31.4053 19.8057 31.6783 19.9886 31.8897L21.4426 33.5189C22.3393 34.5317 22.1825 36.1081 21.103 36.9183L20.1626 37.6229C19.8753 37.8342 19.7014 38.1777 19.7014 38.5476V57.4292C19.7014 58.7062 20.7199 59.7366 21.9823 59.7366H49.3276C50.59 59.7366 51.6087 58.7062 51.6087 57.4292V38.5476C51.6087 38.1777 51.4346 37.8342 51.1473 37.6229L50.2069 36.9183C49.1187 36.1081 48.9708 34.5317 49.8675 33.5189L51.3126 31.8897C51.5041 31.6783 51.6087 31.4053 51.6087 31.1235V26.3151H19.7014Z" fill="white"/>
</svg>
