<svg width="16" height="16" viewBox="0 0 16 16" fill="none" xmlns="http://www.w3.org/2000/svg">
<path fill-rule="evenodd" clip-rule="evenodd" d="M0 2.04255C0 0.914822 0.914822 0 2.04255 0H13.9574C15.0852 0 16 0.914822 16 2.04255V13.9574C16 15.0852 15.0852 16 13.9574 16H2.04255C0.914822 16 0 15.0852 0 13.9574V2.04255ZM6.70711 4.29289C7.09763 4.68342 7.09763 5.31658 6.70711 5.70711C6.31658 6.09763 5.68342 6.09763 5.29289 5.70711L5 5.41421V10.9999H10.5854L10.2927 10.7073C9.90222 10.3167 9.90222 9.68357 10.2927 9.29304C10.6833 8.90252 11.3164 8.90252 11.707 9.29304L13.7005 11.2866L13.707 11.293C14.0975 11.6836 14.0975 12.3167 13.707 12.7073L11.707 14.7073C11.3165 15.0978 10.6833 15.0978 10.2928 14.7073C9.90228 14.3167 9.90228 13.6836 10.2928 13.293L10.5859 12.9999H4.00484L4 12.9999C3.68036 12.9999 3.39574 12.8499 3.21268 12.6165C3.07944 12.4466 3 12.2326 3 11.9999V11.9999V5.41427L2.70711 5.70716C2.31658 6.09769 1.68342 6.09769 1.29289 5.70716C0.902369 5.31664 0.902369 4.68348 1.29289 4.29295L3.28646 2.29939L3.29289 2.29289C3.68342 1.90237 4.31658 1.90237 4.70711 2.29289L6.70711 4.29289Z" fill="white"/>
</svg>
