<svg width="18" height="18" viewBox="0 0 18 18" fill="none" xmlns="http://www.w3.org/2000/svg">
<path fill-rule="evenodd" clip-rule="evenodd" d="M10.1013 3.40734C9.54344 1.8997 7.41106 1.8997 6.85319 3.40734L6.19883 5.17572C6.02343 5.64972 5.64971 6.02343 5.17572 6.19883L3.40734 6.85319C1.8997 7.41106 1.8997 9.54344 3.40734 10.1013L5.17572 10.7557C5.64972 10.9311 6.02343 11.3048 6.19883 11.7788L6.85319 13.5472C7.41106 15.0548 9.54344 15.0548 10.1013 13.5472L10.7557 11.7788C10.9311 11.3048 11.3048 10.9311 11.7788 10.7557L13.5472 10.1013C15.0548 9.54344 15.0548 7.41106 13.5472 6.85319L11.7788 6.19883C11.3048 6.02343 10.9311 5.64971 10.7557 5.17572L10.1013 3.40734ZM9.09323 6.55432C8.88164 5.9825 8.07287 5.9825 7.86127 6.55432L7.61309 7.22504C7.54656 7.40482 7.40482 7.54656 7.22504 7.61309L6.55432 7.86127C5.9825 8.07287 5.9825 8.88164 6.55432 9.09323L7.22504 9.34142C7.40482 9.40794 7.54656 9.54969 7.61309 9.72947L7.86127 10.4002C8.07287 10.972 8.88164 10.972 9.09323 10.4002L9.34142 9.72947C9.40794 9.54969 9.54969 9.40794 9.72947 9.34142L10.4002 9.09323C10.972 8.88164 10.972 8.07287 10.4002 7.86127L9.72947 7.61309C9.54969 7.54656 9.40794 7.40482 9.34142 7.22504L9.09323 6.55432Z" fill="#78FFD4"/>
</svg>
