<svg width="16" height="17" viewBox="0 0 16 17" fill="none" xmlns="http://www.w3.org/2000/svg">
<path fill-rule="evenodd" clip-rule="evenodd" d="M9.30975 1.59426C8.8497 0.393059 7.1503 0.393061 6.69025 1.59426L6.43619 2.25761C6.14854 3.00868 5.2895 3.36451 4.55501 3.03682L3.90631 2.74741C2.73163 2.22333 1.52997 3.42499 2.05405 4.59967L2.34346 5.24838C2.67115 5.98286 2.31532 6.8419 1.56425 7.12955L0.900897 7.38361C-0.300301 7.84366 -0.300298 9.54306 0.900899 10.0031L1.56425 10.2572C2.31532 10.5448 2.67115 11.4039 2.34346 12.1383L2.05405 12.7871C1.52997 13.9617 2.73163 15.1634 3.90631 14.6393L4.55502 14.3499C5.2895 14.0222 6.14854 14.378 6.43619 15.1291L6.69025 15.7925C7.1503 16.9937 8.8497 16.9937 9.30975 15.7925L9.5638 15.1291C9.85146 14.378 10.7105 14.0222 11.445 14.3499L12.0937 14.6393C13.2684 15.1634 14.47 13.9617 13.946 12.7871L13.6565 12.1383C13.3289 11.4039 13.6847 10.5448 14.4357 10.2572L15.0991 10.0031C16.3003 9.54306 16.3003 7.84366 15.0991 7.38361L14.4357 7.12955C13.6847 6.8419 13.3289 5.98286 13.6565 5.24837L13.946 4.59967C14.47 3.42499 13.2684 2.22333 12.0937 2.74741L11.445 3.03682C10.7105 3.36451 9.85146 3.00868 9.5638 2.25761L9.30975 1.59426ZM5.97607 12.189L12.0311 8.69315L5.97607 5.19727L5.97607 12.189Z" fill="white"/>
</svg>
