<svg width="16" height="16" viewBox="0 0 16 16" fill="none" xmlns="http://www.w3.org/2000/svg">
<path d="M7.6712 1L0 8H2.30136V14.2222H6.13696V9.55556H9.20545V10.4189L13.3709 6.19556L7.6712 1ZM14.606 7.33111C14.4945 7.33382 14.388 7.37814 14.3068 7.45556L13.5397 8.23333L15.1123 9.82778L15.8794 9.05C15.9567 8.97004 16 8.86253 16 8.75056C16 8.63858 15.9567 8.53108 15.8794 8.45111L14.8975 7.45556C14.8208 7.37778 14.7134 7.33111 14.606 7.33111ZM13.0871 8.68444L8.01721 13.8189V15.4211H9.59748L14.6597 10.2789L13.0871 8.68444Z" fill="white"/>
</svg>
