<svg width="16" height="16" viewBox="0 0 16 16" fill="none" xmlns="http://www.w3.org/2000/svg">
<path d="M14.6602 10.2793L9.56243 15.4561H7.98235V13.8536L13.0869 8.68457L14.6602 10.2793Z" fill="white"/>
<path fill-rule="evenodd" clip-rule="evenodd" d="M8 1.4873C10.9244 1.4873 13.2948 3.8579 13.2949 6.78223V7.23145L6.87402 13.6514L5.35254 12.4873L2.70508 14.5127V6.78223C2.70521 3.8579 5.07564 1.4873 8 1.4873ZM5.39746 4.00098C4.69722 4.00102 4.12262 4.53732 4.06152 5.22168C4.167 5.15257 4.29319 5.1123 4.42871 5.1123C4.79916 5.11231 5.09961 5.41275 5.09961 5.7832V6.66406C5.09961 7.03451 4.79916 7.33495 4.42871 7.33496C4.30584 7.33496 4.19084 7.30182 4.0918 7.24414C4.23134 7.83617 4.76283 8.2773 5.39746 8.27734C6.13843 8.27734 6.73919 7.6765 6.73926 6.93555V5.34277C6.73926 4.60177 6.13847 4.00098 5.39746 4.00098ZM10.0186 4.00098C9.31838 4.00109 8.7437 4.53736 8.68262 5.22168C8.78808 5.15255 8.91429 5.11233 9.0498 5.1123C9.42026 5.1123 9.7207 5.41275 9.7207 5.7832V6.66406C9.7207 7.03452 9.42026 7.33496 9.0498 7.33496C8.92696 7.33494 8.81191 7.30181 8.71289 7.24414C8.85242 7.83613 9.38399 8.27724 10.0186 8.27734C10.7595 8.27734 11.3603 7.6765 11.3604 6.93555V5.34277C11.3604 4.60177 10.7596 4.00098 10.0186 4.00098Z" fill="white"/>
<path d="M13.2949 14.5127L12.5029 13.9062L13.2949 13.1152V14.5127Z" fill="white"/>
<path d="M14.6064 7.33105C14.7136 7.33119 14.8209 7.37755 14.8975 7.45508L15.8789 8.45117C15.9562 8.53114 16 8.639 16 8.75098C15.9999 8.86278 15.9561 8.96995 15.8789 9.0498L15.1123 9.82812L13.54 8.2334L14.3066 7.45508C14.3878 7.37774 14.4951 7.33377 14.6064 7.33105Z" fill="white"/>
</svg>
