<svg width="16" height="16" viewBox="0 0 16 16" fill="none" xmlns="http://www.w3.org/2000/svg">
<path d="M10.1615 7.38455L7.34733 2.51025L0.218506 14.2689H2.56873L6.04941 8.82908L7.34733 10.5258L8.7544 9.01815L9.32588 10.008L11.6434 7.69049L10.8141 6.25416L10.1615 7.38455Z" fill="white"/>
<path d="M13.4313 14.2689L12.2216 12.7628L13.7116 11.2728L15.7815 14.2689H13.4313Z" fill="white"/>
<path d="M13.5582 7.12793C13.4448 7.13069 13.3364 7.17579 13.2537 7.25457L12.4731 8.0461L14.0735 9.66874L14.8541 8.87721C14.9328 8.79583 14.9769 8.68642 14.9769 8.57247C14.9769 8.45852 14.9328 8.34911 14.8541 8.26773L13.8549 7.25457C13.7768 7.17542 13.6675 7.12793 13.5582 7.12793Z" fill="white"/>
<path d="M12.0125 8.50519L6.74873 13.8346V15.4652H8.35694L13.6129 10.1278L12.0125 8.50519Z" fill="white"/>
</svg>
