<svg width="16" height="16" viewBox="0 0 16 16" fill="none" xmlns="http://www.w3.org/2000/svg">
<path d="M14.6597 10.2793L9.56986 15.4492H7.98978V13.8467L13.0874 8.68457L14.6597 10.2793Z" fill="white"/>
<path d="M7.16846 13.3809H3.96827C3.76044 13.3807 3.56943 13.2557 3.50538 13.0576C3.35014 12.5745 3.34598 12.1947 3.50831 11.665C3.57028 11.4622 3.76455 11.3312 3.97706 11.3311H9.21827L7.16846 13.3809Z" fill="white"/>
<path d="M3.19581 11.8438C3.11289 12.2084 3.11065 12.5244 3.188 12.8682H2.98096C2.91315 12.8681 2.84652 12.8425 2.80811 12.7871C2.64209 12.5442 2.64209 12.1677 2.80811 11.9248C2.84648 11.8692 2.91303 11.8439 2.98096 11.8438H3.19581Z" fill="white"/>
<path d="M11.5874 5.84375C11.5873 5.91177 11.5598 5.97684 11.5122 6.02441L11.2612 6.27637C11.0323 6.50545 11.0704 6.88609 11.3394 7.06543L11.4732 7.1543C11.5444 7.20144 11.5874 7.28207 11.5874 7.36816V8.96191L9.47511 11.0742H4.41261V7.36816C4.41261 7.28208 4.45565 7.20145 4.52686 7.1543L4.66163 7.06543C4.93058 6.88604 4.9678 6.50542 4.73878 6.27637L4.4878 6.02441C4.44024 5.97684 4.41271 5.91176 4.41261 5.84375V4.9248H11.5874V5.84375Z" fill="white"/>
<path d="M14.606 7.33105C14.7131 7.33106 14.8203 7.37757 14.897 7.45508L15.8794 8.45117C15.9567 8.53113 15.9995 8.63904 15.9995 8.75098C15.9994 8.86273 15.9565 8.96996 15.8794 9.0498L15.1118 9.82812L13.5396 8.2334L14.3071 7.45508C14.3883 7.3779 14.4947 7.33376 14.606 7.33105Z" fill="white"/>
<path d="M12.0054 2.61816C12.2102 2.61835 12.3987 2.74055 12.4663 2.93359C12.6763 3.53291 12.6428 3.90691 12.4712 4.3623C12.4 4.55084 12.2131 4.66888 12.0112 4.66895H3.96827C3.76039 4.66875 3.56939 4.5429 3.50538 4.34473C3.3502 3.86161 3.34589 3.48193 3.50831 2.95215C3.5703 2.74937 3.76456 2.61834 3.97706 2.61816H12.0054Z" fill="white"/>
<path d="M3.19581 3.13086C3.11279 3.49574 3.11061 3.81238 3.188 4.15625H2.98096C2.91302 4.15614 2.84648 4.12986 2.80811 4.07422C2.64209 3.83131 2.64209 3.45482 2.80811 3.21191C2.84652 3.15653 2.91317 3.13097 2.98096 3.13086H3.19581Z" fill="white"/>
<path d="M13.0191 3.13086C13.0869 3.13096 13.1535 3.15653 13.1919 3.21191C13.3579 3.45483 13.3579 3.8313 13.1919 4.07422C13.1535 4.12986 13.087 4.15615 13.0191 4.15625H12.8062C12.8436 4.01076 12.8661 3.8628 12.8687 3.70605C12.8712 3.5231 12.8467 3.33534 12.7944 3.13086H13.0191Z" fill="white"/>
</svg>
