<svg width="13" height="12" viewBox="0 0 13 12" fill="none" xmlns="http://www.w3.org/2000/svg">
<path d="M12.0832 7.21864L8.79954 9.11445L8.79954 5.32282L12.0832 7.21864Z" fill="#F7C440"/>
<path d="M8.32755 9.93188L9.86466 9.04321C9.87679 9.06464 9.88851 9.0867 9.89689 9.1106C10.0924 9.66848 10.0605 10.0168 9.90079 10.4407C9.83452 10.6161 9.6609 10.7258 9.47306 10.7258H1.98966C1.79617 10.7258 1.61774 10.6094 1.55802 10.425C1.41353 9.97535 1.40978 9.62127 1.56095 9.12817C1.61878 8.93954 1.7997 8.8186 1.99747 8.8186H8.32755V9.93188ZM1.26993 9.29517C1.19277 9.63451 1.19115 9.92847 1.2631 10.2483H1.07072C1.00735 10.2483 0.944389 10.225 0.908606 10.1731C0.754097 9.94705 0.754097 9.5964 0.908606 9.37036C0.944379 9.31842 1.00732 9.29517 1.07072 9.29517H1.26993ZM10.4106 9.29517C10.4738 9.29518 10.5359 9.31867 10.5717 9.37036C10.7262 9.5964 10.7262 9.94705 10.5717 10.1731C10.5359 10.2247 10.4738 10.2483 10.4106 10.2483H10.2123C10.2471 10.1131 10.2685 9.97601 10.2709 9.83032C10.2733 9.66022 10.2511 9.48526 10.2026 9.29517H10.4106ZM9.07853 3.71216C9.0784 3.77541 9.05343 3.83589 9.00919 3.88013L8.77482 4.1145C8.6002 4.28935 8.59478 4.5571 8.73575 4.74048L8.32755 4.50513V8.57935H2.40275V5.13013C2.40278 5.09456 2.41156 5.06067 2.42618 5.02954H2.78654V6.47485H4.67618V5.02954H6.04044V3.13892H4.67618V2.85669H9.07853V3.71216ZM2.78654 3.13892H2.40275V2.85669H2.78654V3.13892ZM9.4672 0.711182C9.65795 0.711182 9.83394 0.824367 9.89689 1.00415C10.0922 1.56182 10.0605 1.91041 9.90079 2.33423C9.83438 2.50939 9.66072 2.61836 9.47306 2.61841H4.67618V1.6936H2.78654V2.61841H1.98966C1.7961 2.61841 1.61767 2.5021 1.55802 2.31763C1.41356 1.86802 1.40988 1.51466 1.56095 1.02173C1.61865 0.832884 1.79957 0.711182 1.99747 0.711182H9.4672ZM1.26993 1.18774C1.19274 1.5271 1.19118 1.82106 1.2631 2.14087H1.07072C1.00729 2.14087 0.944372 2.11765 0.908606 2.06567C0.754103 1.83963 0.754099 1.48898 0.908606 1.26294C0.944397 1.21111 1.00738 1.18774 1.07072 1.18774H1.26993ZM10.4106 1.18774C10.4737 1.18776 10.5359 1.21135 10.5717 1.26294C10.7262 1.48898 10.7262 1.83963 10.5717 2.06567C10.5359 2.11742 10.4738 2.14086 10.4106 2.14087H10.2123C10.2471 2.00564 10.2685 1.8686 10.2709 1.7229C10.2733 1.55273 10.2511 1.37792 10.2026 1.18774H10.4106Z" fill="white"/>
<path d="M4.36304 3.45215H5.75952V4.7168H4.36304V6.11328H3.09839V4.7168H1.7019V3.45215H3.09839V2.05566H4.36304V3.45215Z" fill="#C2F671"/>
</svg>
