<svg width="65" height="65" viewBox="0 0 65 65" fill="none" xmlns="http://www.w3.org/2000/svg">
<path fill-rule="evenodd" clip-rule="evenodd" d="M31.648 4.73212H33.2504L33.2518 4.73141C34.1835 4.73141 35.1038 4.77881 36.0114 4.87077C35.9513 5.00518 35.9159 5.15374 35.9159 5.3115V29.2359C35.9159 29.3159 35.9258 29.3937 35.9428 29.4694C35.9266 29.543 35.9174 29.6194 35.9174 29.6979C35.9174 30.2971 36.4034 30.7831 37.0026 30.7831H42.3613V31.6978C42.3613 32.1944 42.7645 32.5976 43.2612 32.5976H43.3142C43.8115 32.5976 44.2148 32.1951 44.2148 31.6978V30.7831H46.7749V31.6978C46.7749 32.1944 47.1782 32.5976 47.6748 32.5976H47.7278C48.2252 32.5976 48.6277 32.1951 48.6277 31.6978V30.7831H59.6034C59.8835 30.7831 60.1368 30.6741 60.3292 30.4994C60.3512 30.9451 60.3632 31.3929 60.3632 31.8442V33.4465C60.3632 48.4206 48.2237 60.5594 33.2504 60.5594H31.648C27.6836 60.5594 23.9222 59.7013 20.528 58.1725V44.5001H23.129C22.9856 44.1576 22.9063 43.7819 22.9063 43.388V42.3283H19.6402C19.613 42.3283 19.5864 42.332 19.5599 42.3356C19.5478 42.3373 19.5356 42.339 19.5235 42.3403C19.5137 42.3395 19.5041 42.3382 19.4944 42.3368C19.4788 42.3347 19.4632 42.3325 19.4471 42.3325C18.8493 42.3325 18.3654 42.8164 18.3654 43.4142V47.6658H13.7877C13.1885 47.6658 12.7025 48.1518 12.7025 48.751C12.7025 49.3502 13.1885 49.8362 13.7877 49.8362H18.3654V57.0795C10.1126 52.4317 4.53523 43.5925 4.53523 33.4458V31.8435C4.53523 26.9814 5.82062 22.4227 8.06245 18.4767H18.2352C18.8344 18.4767 19.3204 17.9907 19.3204 17.3915C19.3204 17.3708 19.3177 17.3508 19.3149 17.3309C19.3133 17.3189 19.3116 17.3068 19.3105 17.2946C19.3116 17.2824 19.3133 17.2703 19.3149 17.2583C19.3177 17.2383 19.3204 17.2184 19.3204 17.1977V7.69906C23.0196 5.8067 27.2068 4.73212 31.648 4.73212ZM24.5277 43.3873C24.5277 43.8674 24.7951 44.2854 25.1892 44.5001H25.1999C25.3383 44.5737 25.4895 44.626 25.6516 44.6457C25.6983 44.6509 25.7459 44.6536 25.794 44.6536H41.1572C42.5147 44.6536 43.6148 43.5535 43.6148 42.196C43.6148 42.1125 43.6106 42.0299 43.6025 41.9486C43.4781 40.7076 42.4311 39.7391 41.1573 39.7391H29.9835L29.9834 20.1193C29.9834 20.0254 29.9787 19.9326 29.9694 19.8411C29.9626 19.7742 29.9534 19.7079 29.9418 19.6425C29.8427 19.0805 29.5715 18.5777 29.1846 18.1907C28.691 17.6969 28.009 17.3915 27.2556 17.3915C26.0067 17.3915 24.9541 18.2309 24.6304 19.3762C24.5636 19.6127 24.5278 19.8622 24.5278 20.1201L24.5277 43.3873ZM10.2746 34.3846C10.1762 34.5558 10.2993 34.7701 10.4974 34.7701H15.8689C16.067 34.7701 16.1908 34.5558 16.0917 34.3846L13.4056 29.7311C13.3568 29.6455 13.2705 29.6024 13.1835 29.6024C13.0965 29.6024 13.0102 29.6455 12.9607 29.7311L10.2746 34.3846ZM48.8548 37.2666C48.8548 37.9911 49.4419 38.5782 50.1663 38.5782H55.5343C56.2587 38.5782 56.8459 37.9911 56.8459 37.2666C56.8459 36.5422 56.2587 35.9551 55.5343 35.9551H50.1663C49.4419 35.9551 48.8548 36.5422 48.8548 37.2666ZM51.7241 41.9887C51.7835 42.0007 51.8429 42.0071 51.8974 42.0071H51.8981C52.3282 42.0071 52.711 41.7015 52.7951 41.265C52.8906 40.7628 52.5673 40.2895 52.0714 40.194C52.012 40.1827 51.954 40.177 51.896 40.177C51.4666 40.177 51.0846 40.4798 51.0004 40.9177C50.9042 41.4143 51.2275 41.8932 51.7241 41.9887ZM49.0613 46.6783C49.2226 46.7985 49.4143 46.8579 49.5997 46.8579C49.8812 46.8579 50.1621 46.7264 50.3418 46.4809C50.462 46.3132 50.5215 46.1222 50.5215 45.9305C50.5151 45.6553 50.3899 45.3808 50.1444 45.2011C49.9803 45.0809 49.79 45.0222 49.6011 45.0222C49.3203 45.0222 49.0429 45.1516 48.864 45.3985C48.7437 45.5598 48.6843 45.7572 48.6843 45.9489C48.6907 46.2241 48.8159 46.4993 49.0613 46.6783ZM44.8861 50.0463C45.0594 50.3279 45.3587 50.4835 45.6643 50.4835C45.8319 50.4835 45.9996 50.441 46.1489 50.3455C46.4297 50.1722 46.5853 49.8673 46.5853 49.5624C46.5797 49.4004 46.538 49.2328 46.4481 49.0899C46.2755 48.8041 45.9741 48.6491 45.665 48.6491C45.5009 48.6491 45.3346 48.693 45.1853 48.7843C44.9045 48.9576 44.7489 49.2632 44.7489 49.5737C44.7489 49.7357 44.797 49.897 44.8861 50.0463ZM39.7898 51.7335C39.8853 52.158 40.2624 52.4516 40.6868 52.4516H40.6875C40.7526 52.4516 40.8191 52.4452 40.8849 52.4275C41.3157 52.3377 41.6086 51.9486 41.6029 51.5241C41.6029 51.4647 41.5959 51.3982 41.5846 51.3388C41.4855 50.9087 41.1085 50.6179 40.6868 50.6179C40.6217 50.6179 40.556 50.625 40.4895 50.6391C40.065 50.7346 39.7771 51.106 39.7714 51.5241C39.7714 51.5899 39.7778 51.6614 39.7898 51.7335ZM29.5802 52.0129C29.5802 52.7374 30.1674 53.3245 30.8918 53.3245H36.2598C36.9842 53.3245 37.5713 52.7374 37.5713 52.0129C37.5713 51.2885 36.9842 50.7014 36.2598 50.7014H30.8918C30.1674 50.7014 29.5802 51.2885 29.5802 52.0129Z" fill="white"/>
<path fill-rule="evenodd" clip-rule="evenodd" d="M38.0656 5.19533C38.0642 5.18573 38.0629 5.17614 38.0616 5.16652V5.16581C49.7539 7.26121 58.8444 16.8475 60.1856 28.7854C60.0173 28.6771 59.8178 28.6127 59.602 28.6127H48.6263V27.698C48.6263 27.2014 48.2238 26.7982 47.7264 26.7982H47.6734C47.1768 26.7982 46.7735 27.2007 46.7735 27.698V28.6127H44.2134V27.698C44.2134 27.2014 43.8101 26.7982 43.3128 26.7982H43.2598C42.7631 26.7982 42.3599 27.2007 42.3599 27.698V28.6127H38.0764V5.31225C38.0764 5.27207 38.071 5.2337 38.0656 5.19533ZM41.1354 18.0707C41.1354 19.2584 42.0982 20.2213 43.2859 20.2213C44.4744 20.2213 45.4372 19.2584 45.4372 18.0707C45.4372 16.8829 44.4737 15.9201 43.2859 15.9201C42.0982 15.9201 41.1354 16.8829 41.1354 18.0707Z" fill="white"/>
<path d="M17.1486 8.93923C14.1159 10.8634 11.492 13.3705 9.43485 16.3071H17.1486V8.93923Z" fill="white"/>
<path fill-rule="evenodd" clip-rule="evenodd" d="M32.4492 64.6454C50.1223 64.6454 64.4492 50.3185 64.4492 32.6454C64.4492 14.9723 50.1223 0.645386 32.4492 0.645386C14.7761 0.645386 0.449219 14.9723 0.449219 32.6454C0.449219 50.3185 14.7761 64.6454 32.4492 64.6454ZM62.2023 32.6454C62.2023 49.0775 48.8814 62.3984 32.4492 62.3984C16.0171 62.3984 2.69616 49.0775 2.69616 32.6454C2.69616 16.2132 16.0171 2.89233 32.4492 2.89233C48.8814 2.89233 62.2023 16.2132 62.2023 32.6454Z" fill="white"/>
</svg>
