<svg width="35" height="35" viewBox="0 0 35 35" fill="none" xmlns="http://www.w3.org/2000/svg">
<path d="M24.476 20.7C24.604 19.644 24.7 18.588 24.7 17.5C24.7 16.412 24.604 15.356 24.476 14.3H29.884C30.14 15.324 30.3 16.396 30.3 17.5C30.3 18.604 30.14 19.676 29.884 20.7H24.476ZM21.644 29.596C22.604 27.82 23.34 25.9 23.852 23.9H28.572C27.0219 26.5692 24.5626 28.5912 21.644 29.596ZM21.244 20.7H13.756C13.596 19.644 13.5 18.588 13.5 17.5C13.5 16.412 13.596 15.34 13.756 14.3H21.244C21.388 15.34 21.5 16.412 21.5 17.5C21.5 18.588 21.388 19.644 21.244 20.7ZM17.5 30.236C16.172 28.316 15.1 26.188 14.444 23.9H20.556C19.9 26.188 18.828 28.316 17.5 30.236ZM11.1 11.1H6.428C7.96217 8.42354 10.4197 6.39838 13.34 5.404C12.38 7.18 11.66 9.1 11.1 11.1ZM6.428 23.9H11.1C11.66 25.9 12.38 27.82 13.34 29.596C10.4258 28.5907 7.97175 26.5684 6.428 23.9ZM5.116 20.7C4.86 19.676 4.7 18.604 4.7 17.5C4.7 16.396 4.86 15.324 5.116 14.3H10.524C10.396 15.356 10.3 16.412 10.3 17.5C10.3 18.588 10.396 19.644 10.524 20.7H5.116ZM17.5 4.748C18.828 6.668 19.9 8.812 20.556 11.1H14.444C15.1 8.812 16.172 6.668 17.5 4.748ZM28.572 11.1H23.852C23.3512 9.11833 22.6097 7.20543 21.644 5.404C24.588 6.412 27.036 8.444 28.572 11.1ZM17.5 1.5C8.652 1.5 1.5 8.7 1.5 17.5C1.5 21.7435 3.18571 25.8131 6.18629 28.8137C7.67203 30.2994 9.43586 31.478 11.3771 32.2821C13.3183 33.0862 15.3988 33.5 17.5 33.5C21.7435 33.5 25.8131 31.8143 28.8137 28.8137C31.8143 25.8131 33.5 21.7435 33.5 17.5C33.5 15.3988 33.0862 13.3183 32.2821 11.3771C31.478 9.43586 30.2994 7.67203 28.8137 6.18629C27.328 4.70055 25.5641 3.522 23.6229 2.71793C21.6817 1.91385 19.6011 1.5 17.5 1.5Z" fill="white"/>
</svg>
