<svg width="31" height="100" viewBox="0 0 31 100" fill="none" xmlns="http://www.w3.org/2000/svg">
<path fill-rule="evenodd" clip-rule="evenodd" d="M30 70L30 30L5.24537e-06 -4.37115e-07L-7.31161e-06 100L30 70Z" fill="white"/>
<path d="M30 70L30.3536 70.3535L30.5 70.2071L30.5 70L30 70ZM30 30L30.5 30L30.5 29.7929L30.3536 29.6464L30 30ZM5.24537e-06 -4.37115e-07L0.353559 -0.353554L-0.499995 -1.20711L-0.499995 -4.99899e-07L5.24537e-06 -4.37115e-07ZM-7.31161e-06 100L-0.500007 100L-0.500007 101.207L0.353546 100.354L-7.31161e-06 100ZM30.5 70L30.5 30L29.5 30L29.5 70L30.5 70ZM-0.353548 0.353553L29.6465 30.3536L30.3536 29.6464L0.353559 -0.353554L-0.353548 0.353553ZM0.499993 100L0.500005 -3.7433e-07L-0.499995 -4.99899e-07L-0.500007 100L0.499993 100ZM29.6464 69.6464L-0.353561 99.6464L0.353546 100.354L30.3536 70.3535L29.6464 69.6464Z" fill="#597CAF"/>
</svg>
