<svg width="16" height="16" viewBox="0 0 16 16" fill="none" xmlns="http://www.w3.org/2000/svg">
<path fill-rule="evenodd" clip-rule="evenodd" d="M2 4C1.44772 4 1 4.44772 1 5V11C1 11.5523 1.44772 12 2 12H14C14.5523 12 15 11.5523 15 11V5C15 4.44772 14.5523 4 14 4H2ZM12.0795 10.7712C11.4341 10.7712 10.9005 10.6213 10.4787 10.3215C10.2603 10.1617 10.0943 9.96352 9.98059 9.72696C9.90546 9.96321 9.77219 10.1601 9.58077 10.3175C9.27078 10.5716 8.82358 10.6987 8.23917 10.6987H5.55414H5.41113H2.57043V5.30176H4.26268V9.15916H5.41113V5.30176H8.16294C8.71178 5.30176 9.14373 5.42118 9.45881 5.66003C9.68656 5.83268 9.83199 6.06242 9.89511 6.34925C9.9392 6.21656 10.0016 6.09485 10.0823 5.98414C10.2653 5.73513 10.5117 5.54711 10.8217 5.42006C11.1368 5.29301 11.49 5.22949 11.8813 5.22949C12.5419 5.22949 13.0654 5.38195 13.4516 5.68686C13.8429 5.99177 14.0487 6.42118 14.069 6.9751H12.2472C12.2421 6.82264 12.204 6.71338 12.1328 6.64732C12.0617 6.58126 11.9753 6.54822 11.8737 6.54822C11.8025 6.54822 11.7441 6.57363 11.6984 6.62445C11.6526 6.67019 11.6297 6.73625 11.6297 6.82264C11.6297 6.94461 11.6958 7.04624 11.8279 7.12755C11.9651 7.20378 12.1811 7.29779 12.4759 7.40959C12.8164 7.53664 13.0959 7.6586 13.3144 7.77549C13.538 7.89237 13.7311 8.05499 13.8937 8.26334C14.0563 8.47169 14.1376 8.73341 14.1376 9.04848C14.1376 9.3788 14.0563 9.67609 13.8937 9.94034C13.7311 10.1995 13.4948 10.4028 13.1848 10.5502C12.8748 10.6975 12.5064 10.7712 12.0795 10.7712ZM11.5993 8.9875H10.0351C10.0001 8.77209 9.9147 8.57766 9.77896 8.40421C9.6011 8.16536 9.34954 8.00783 9.02431 7.9316C9.29873 7.86046 9.51725 7.71816 9.67986 7.50473C9.7469 7.41737 9.80054 7.3223 9.84079 7.21951C9.87555 7.41909 9.94591 7.59171 10.0518 7.73737C10.2145 7.96097 10.4076 8.13121 10.6312 8.24809C10.8599 8.36498 11.147 8.4844 11.4925 8.60636C11.7822 8.708 11.9956 8.79947 12.1328 8.88078C12.2701 8.95701 12.3387 9.05865 12.3387 9.18569C12.3387 9.27716 12.3056 9.34577 12.2396 9.3915C12.1786 9.43216 12.1024 9.45249 12.0109 9.45249C11.7619 9.45249 11.6247 9.29749 11.5993 8.9875ZM7.75893 7.40563H7.10338V6.64336H7.75893C7.91139 6.64336 8.02319 6.67639 8.09434 6.74245C8.17056 6.80344 8.20868 6.89999 8.20868 7.03212C8.20868 7.15916 8.17056 7.25318 8.09434 7.31416C8.02319 7.37514 7.91139 7.40563 7.75893 7.40563ZM8.20868 9.25796C8.13753 9.31386 8.02573 9.34181 7.87328 9.34181H7.10338V8.57953H7.87328C8.1731 8.57953 8.32302 8.70912 8.32302 8.96829C8.32302 9.10042 8.2849 9.19698 8.20868 9.25796Z" fill="#C4C4C4"/>
</svg>
