<svg width="13" height="13" viewBox="0 0 13 13" fill="none" xmlns="http://www.w3.org/2000/svg">
<path d="M2.39223 1.93869C2.44895 1.7553 2.62657 1.63721 2.82108 1.63721H10.1628C10.3503 1.63721 10.5228 1.74697 10.5846 1.92156C10.7768 2.46339 10.7463 2.80145 10.5893 3.21315C10.5242 3.38357 10.3531 3.48961 10.1684 3.48961H2.8131C2.62281 3.48961 2.44753 3.37663 2.38894 3.1974C2.24693 2.7607 2.24366 2.41753 2.39223 1.93869Z" fill="white"/>
<path d="M2.39223 9.81165C2.44895 9.62827 2.62657 9.51017 2.82108 9.51017H10.1628C10.3503 9.51017 10.5228 9.61994 10.5846 9.79452C10.7768 10.3364 10.7463 10.6744 10.5893 11.0861C10.5242 11.2565 10.3531 11.3626 10.1684 11.3626H2.8131C2.62281 11.3626 2.44753 11.2496 2.38894 11.0704C2.24693 10.6337 2.24366 10.2905 2.39223 9.81165Z" fill="white"/>
<path d="M1.91011 2.10006H2.10604C2.03011 2.42979 2.02823 2.71553 2.099 3.02627H1.91011C1.84777 3.02627 1.78638 3.00311 1.75122 2.95263C1.59936 2.73312 1.59936 2.3932 1.75122 2.17369C1.78638 2.12322 1.84777 2.10006 1.91011 2.10006Z" fill="white"/>
<path d="M10.8954 3.02627H11.0899C11.1523 3.02627 11.2137 3.00311 11.2488 2.95263C11.4007 2.73312 11.4007 2.3932 11.2488 2.17369C11.2137 2.12322 11.1523 2.10006 11.0899 2.10006H10.8851C10.9329 2.28484 10.9549 2.45434 10.9526 2.61967C10.9502 2.76138 10.9296 2.89475 10.8954 3.02627Z" fill="white"/>
<path d="M3.21919 3.72087V4.55122C3.21919 4.61282 3.24403 4.67161 3.28762 4.71468L3.51776 4.94208C3.72727 5.14909 3.69257 5.49316 3.4465 5.65524L3.32372 5.73628C3.25857 5.77889 3.21919 5.85114 3.21919 5.92894V9.27809H9.78098V5.92894C9.78098 5.85114 9.7416 5.77889 9.67645 5.73628L9.55367 5.65524C9.3076 5.49316 9.2729 5.14909 9.48241 4.94208L9.71256 4.71468C9.75614 4.67161 9.78098 4.61282 9.78098 4.55122V3.72087H3.21919Z" fill="white"/>
<path d="M2.10604 9.97303H1.91011C1.84777 9.97303 1.78638 9.99618 1.75122 10.0467C1.59936 10.2662 1.59936 10.6061 1.75122 10.8256C1.78638 10.8761 1.84777 10.8992 1.91011 10.8992H2.099C2.02823 10.5885 2.03011 10.3028 2.10604 9.97303Z" fill="white"/>
<path d="M11.0899 10.8992H10.8954C10.9296 10.7677 10.9502 10.6343 10.9526 10.4926C10.9549 10.3273 10.9329 10.1578 10.8851 9.97303H11.0899C11.1523 9.97303 11.2137 9.99618 11.2488 10.0467C11.4007 10.2662 11.4007 10.6061 11.2488 10.8256C11.2137 10.8761 11.1523 10.8992 11.0899 10.8992Z" fill="white"/>
</svg>
