<svg width="24" height="24" viewBox="0 0 24 24" fill="none" xmlns="http://www.w3.org/2000/svg">
<rect x="0.5" y="0.5" width="23" height="23" rx="2.5" fill="#303030"/>
<rect x="0.5" y="0.5" width="23" height="23" rx="2.5" stroke="#78FFD4"/>
<path d="M8.33337 16.8462L8.33337 7.17962C8.33337 6.90258 8.65171 6.74645 8.87077 6.91605L15.3151 11.9052C15.4909 12.0413 15.4868 12.308 15.3069 12.4386L8.86251 17.116C8.64215 17.2759 8.33337 17.1185 8.33337 16.8462Z" fill="white"/>
<path d="M7.83337 7.17969C7.83337 6.53041 8.53298 6.14633 9.07166 6.4502L9.17712 6.52051L15.6215 11.5098C16.0606 11.8498 16.0502 12.5163 15.601 12.8428L9.15662 17.5205C8.60572 17.9204 7.83337 17.5264 7.83337 16.8457L7.83337 7.17969Z" stroke="black" stroke-opacity="0.3"/>
</svg>
