<svg width="8" height="6" viewBox="0 0 8 6" fill="none" xmlns="http://www.w3.org/2000/svg">
<path d="M5.89117 5.58366V2.75847H6.87705V3.29555H6.90648C6.95798 3.0969 7.03952 2.95159 7.15111 2.85963C7.26392 2.76766 7.39574 2.72168 7.54656 2.72168C7.5907 2.72168 7.63424 2.72536 7.67715 2.73272C7.7213 2.73885 7.7636 2.74804 7.80407 2.76031V3.62662C7.75379 3.60946 7.69187 3.59658 7.61829 3.588C7.54472 3.57942 7.48157 3.57512 7.42884 3.57512C7.32952 3.57512 7.24001 3.59781 7.1603 3.64318C7.08183 3.68732 7.0199 3.74986 6.97453 3.83079C6.92916 3.91049 6.90648 4.0043 6.90648 4.1122V5.58366H5.89117Z" fill="white"/>
<path d="M5.22189 3.00004C5.22189 3.57532 5.11003 4.0606 4.88631 4.45589C4.66259 4.8495 4.36066 5.14807 3.9805 5.3516C3.60035 5.55345 3.17646 5.65438 2.70884 5.65438C2.23786 5.65438 1.81229 5.55261 1.43214 5.34908C1.05367 5.14387 0.752573 4.84445 0.528855 4.45084C0.306819 4.05555 0.195801 3.57195 0.195801 3.00004C0.195801 2.42477 0.306819 1.94032 0.528855 1.54672C0.752573 1.15142 1.05367 0.852853 1.43214 0.651002C1.81229 0.44747 2.23786 0.345703 2.70884 0.345703C3.17646 0.345703 3.60035 0.44747 3.9805 0.651002C4.36066 0.852853 4.66259 1.15142 4.88631 1.54672C5.11003 1.94032 5.22189 2.42477 5.22189 3.00004ZM3.77865 3.00004C3.77865 2.69054 3.73744 2.42981 3.65502 2.21787C3.57428 2.00424 3.45401 1.84276 3.29421 1.73343C3.13609 1.62241 2.94097 1.5669 2.70884 1.5669C2.47672 1.5669 2.28075 1.62241 2.12095 1.73343C1.96284 1.84276 1.84257 2.00424 1.76014 2.21787C1.6794 2.42981 1.63903 2.69054 1.63903 3.00004C1.63903 3.30955 1.6794 3.57111 1.76014 3.78474C1.84257 3.99668 1.96284 4.15816 2.12095 4.26918C2.28075 4.37851 2.47672 4.43318 2.70884 4.43318C2.94097 4.43318 3.13609 4.37851 3.29421 4.26918C3.45401 4.15816 3.57428 3.99668 3.65502 3.78474C3.73744 3.57111 3.77865 3.30955 3.77865 3.00004Z" fill="white"/>
</svg>
