<svg width="13" height="13" viewBox="0 0 13 13" fill="none" xmlns="http://www.w3.org/2000/svg">
<path d="M7.85052 6.64502C8.23568 6.64642 8.28715 6.647 8.29388 6.64697V6.65771C8.29392 6.6656 8.29462 6.67792 8.29486 6.69385C8.29536 6.72722 8.29643 6.778 8.29877 6.84033C8.30347 6.96548 8.31318 7.13924 8.33295 7.33252C8.37488 7.74208 8.45481 8.15886 8.58002 8.4126C8.6017 8.4562 8.67532 8.5538 8.83099 8.69482C8.97645 8.82653 9.15577 8.96184 9.33685 9.0874C9.51634 9.21185 9.68919 9.32063 9.81732 9.39795C9.88013 9.43584 9.93221 9.46541 9.96771 9.48584L10.2617 8.979L11.5302 11.1772H8.99213L9.35834 10.5425C9.3165 10.5184 9.25789 10.4834 9.18744 10.4409C9.04436 10.3546 8.84887 10.2324 8.64252 10.0894C8.4377 9.94734 8.21159 9.77833 8.01263 9.59814C7.9593 9.54983 7.90517 9.49604 7.85052 9.43994V10.7163H8.5097L7.24115 12.9146L5.97162 10.7163H6.63177V9.43994C6.57697 9.49622 6.52218 9.5497 6.46869 9.59814C6.26972 9.77832 6.04362 9.94734 5.83881 10.0894C5.63248 10.2324 5.43693 10.3546 5.29388 10.4409C5.22319 10.4836 5.16385 10.5174 5.12201 10.5415L5.4892 11.1772H2.95111L4.22064 8.979L4.51263 9.48584C4.54815 9.4654 4.60074 9.43612 4.664 9.39795C4.79213 9.32063 4.96492 9.21189 5.14447 9.0874C5.32556 8.96184 5.50485 8.82654 5.65033 8.69482C5.80595 8.55386 5.87955 8.45626 5.90131 8.4126C6.02653 8.15887 6.10644 7.74211 6.14838 7.33252C6.16814 7.13923 6.17785 6.96549 6.18256 6.84033C6.18489 6.778 6.18694 6.72722 6.18744 6.69385V6.64893L6.18842 6.64697C6.19598 6.647 6.24981 6.64641 6.63177 6.64502V6.64307H7.85052V6.64502Z" fill="#F7C440"/>
<path d="M6.35346 12.2264H3.48988C3.29629 12.2264 3.11787 12.1094 3.05824 11.9249C3.02406 11.8186 2.99867 11.7174 2.98048 11.6187H6.00275L6.35346 12.2264Z" fill="white"/>
<path d="M11.4982 11.6187C11.4758 11.7244 11.4433 11.8306 11.4014 11.9416C11.3351 12.1169 11.1607 12.2263 10.973 12.2264H8.12763L8.47834 11.6187H11.4982Z" fill="white"/>
<path d="M2.76307 11.7488H2.57105C2.50774 11.7488 2.44498 11.7252 2.40919 11.6734C2.39745 11.6562 2.38819 11.6371 2.37824 11.6187H2.73768C2.74476 11.6617 2.75322 11.705 2.76307 11.7488Z" fill="white"/>
<path d="M12.0727 11.6734C12.037 11.7252 11.9741 11.7487 11.9108 11.7488H11.7133C11.7243 11.7059 11.7314 11.6622 11.7394 11.6187H12.1036C12.0937 11.6372 12.0844 11.6562 12.0727 11.6734Z" fill="white"/>
<path d="M11.9108 10.795C11.9742 10.7951 12.037 10.8193 12.0727 10.8712C12.1891 11.0417 12.2169 11.2827 12.1576 11.4877L11.8823 11.0093L11.7585 10.795H11.9108Z" fill="white"/>
<path d="M2.59882 11.0093L2.32349 11.4869C2.26451 11.282 2.29285 11.0415 2.40919 10.8712C2.44497 10.8193 2.50768 10.795 2.57105 10.795H2.7226L2.59882 11.0093Z" fill="white"/>
<path d="M10.5794 5.21228C10.5794 5.27557 10.5538 5.33619 10.5096 5.38049L10.2755 5.61456C10.0624 5.82773 10.0974 6.1824 10.3477 6.3493L10.4731 6.43262C10.5391 6.47653 10.5794 6.55107 10.5794 6.63098V8.75348L10.2612 8.20441L10.0859 8.50751L9.82325 8.95898C9.7432 8.90787 9.65627 8.85078 9.56855 8.78998C9.39566 8.67009 9.23203 8.54449 9.10438 8.42896C9.03662 8.36756 8.99047 8.31961 8.96314 8.28772C8.95185 8.2745 8.94428 8.26485 8.94013 8.25916C8.85144 8.07289 8.77848 7.72403 8.7378 7.32684C8.72844 7.23531 8.72159 7.14807 8.71638 7.06897L8.70527 6.8595L8.70051 6.71906V6.61908L8.69733 6.60162L8.68147 6.50958L8.67115 6.44849L8.6283 6.40405L8.50532 6.27472L8.41724 6.27551L8.29108 6.27631H8.25617V6.27155H6.22492V6.27631C6.20138 6.27638 6.19264 6.27632 6.19001 6.27631L6.06464 6.27551L5.99006 6.27472L5.93293 6.32233L5.78138 6.44928V6.69525C5.78117 6.70094 5.7808 6.70844 5.78059 6.72302C5.78014 6.75299 5.77884 6.80018 5.77662 6.8595C5.77216 6.97835 5.76279 7.144 5.74409 7.32684C5.70324 7.72568 5.628 8.07583 5.53858 8.26154L5.51795 8.28851C5.49061 8.32038 5.44506 8.36776 5.37751 8.42896C5.2499 8.54448 5.08631 8.67003 4.91334 8.78998C4.82524 8.85104 4.73704 8.90704 4.65626 8.95819L4.57215 8.8114L4.21986 8.20203L3.90247 8.7511V6.63098C3.90247 6.57261 3.92392 6.51743 3.96119 6.47467H4.67609V5.02979H6.04084V4.35693H10.5794V5.21228Z" fill="white"/>
<path d="M10.9674 2.21143C11.158 2.21154 11.3337 2.32456 11.3967 2.50421C11.5921 3.062 11.5611 3.41023 11.4014 3.83405C11.3352 4.00944 11.1607 4.11878 10.973 4.1189H6.04084V3.13977H4.67609V2.21143H10.9674Z" fill="white"/>
<path d="M11.9108 2.68829C11.9741 2.68837 12.037 2.71182 12.0727 2.76367C12.227 2.98962 12.227 3.33985 12.0727 3.56586C12.037 3.61776 11.9742 3.64195 11.9108 3.64203H11.7133C11.7481 3.50662 11.7688 3.36898 11.7712 3.22308C11.7736 3.05291 11.7508 2.87847 11.7022 2.68829H11.9108Z" fill="white"/>
<path d="M2.77021 2.68829C2.73431 2.84616 2.71497 2.99429 2.71149 3.13977H2.29493C2.29914 3.00417 2.33642 2.87013 2.40919 2.76367C2.44498 2.71187 2.50773 2.68829 2.57105 2.68829H2.77021Z" fill="white"/>
<path d="M6.35346 12.2264H3.48988C3.29629 12.2264 3.11787 12.1094 3.05824 11.9249C3.02406 11.8186 2.99867 11.7174 2.98048 11.6187H6.00275L6.35346 12.2264Z" stroke="black" stroke-opacity="0.2"/>
<path d="M11.4982 11.6187C11.4758 11.7244 11.4433 11.8306 11.4014 11.9416C11.3351 12.1169 11.1607 12.2263 10.973 12.2264H8.12763L8.47834 11.6187H11.4982Z" stroke="black" stroke-opacity="0.2"/>
<path d="M2.76307 11.7488H2.57105C2.50774 11.7488 2.44498 11.7252 2.40919 11.6734C2.39745 11.6562 2.38819 11.6371 2.37824 11.6187H2.73768C2.74476 11.6617 2.75322 11.705 2.76307 11.7488Z" stroke="black" stroke-opacity="0.2"/>
<path d="M12.0727 11.6734C12.037 11.7252 11.9741 11.7487 11.9108 11.7488H11.7133C11.7243 11.7059 11.7314 11.6622 11.7394 11.6187H12.1036C12.0937 11.6372 12.0844 11.6562 12.0727 11.6734Z" stroke="black" stroke-opacity="0.2"/>
<path d="M11.9108 10.795C11.9742 10.7951 12.037 10.8193 12.0727 10.8712C12.1891 11.0417 12.2169 11.2827 12.1576 11.4877L11.8823 11.0093L11.7585 10.795H11.9108Z" stroke="black" stroke-opacity="0.2"/>
<path d="M2.59882 11.0093L2.32349 11.4869C2.26451 11.282 2.29285 11.0415 2.40919 10.8712C2.44497 10.8193 2.50768 10.795 2.57105 10.795H2.7226L2.59882 11.0093Z" stroke="black" stroke-opacity="0.2"/>
<path d="M10.5794 5.21228C10.5794 5.27557 10.5538 5.33619 10.5096 5.38049L10.2755 5.61456C10.0624 5.82773 10.0974 6.1824 10.3477 6.3493L10.4731 6.43262C10.5391 6.47653 10.5794 6.55107 10.5794 6.63098V8.75348L10.2612 8.20441L10.0859 8.50751L9.82325 8.95898C9.7432 8.90787 9.65627 8.85078 9.56855 8.78998C9.39566 8.67009 9.23203 8.54449 9.10438 8.42896C9.03662 8.36756 8.99047 8.31961 8.96314 8.28772C8.95185 8.2745 8.94428 8.26485 8.94013 8.25916C8.85144 8.07289 8.77848 7.72403 8.7378 7.32684C8.72844 7.23531 8.72159 7.14807 8.71638 7.06897L8.70527 6.8595L8.70051 6.71906V6.61908L8.69733 6.60162L8.68147 6.50958L8.67115 6.44849L8.6283 6.40405L8.50532 6.27472L8.41724 6.27551L8.29108 6.27631H8.25617V6.27155H6.22492V6.27631C6.20138 6.27638 6.19264 6.27632 6.19001 6.27631L6.06464 6.27551L5.99006 6.27472L5.93293 6.32233L5.78138 6.44928V6.69525C5.78117 6.70094 5.7808 6.70844 5.78059 6.72302C5.78014 6.75299 5.77884 6.80018 5.77662 6.8595C5.77216 6.97835 5.76279 7.144 5.74409 7.32684C5.70324 7.72568 5.628 8.07583 5.53858 8.26154L5.51795 8.28851C5.49061 8.32038 5.44506 8.36776 5.37751 8.42896C5.2499 8.54448 5.08631 8.67003 4.91334 8.78998C4.82524 8.85104 4.73704 8.90704 4.65626 8.95819L4.57215 8.8114L4.21986 8.20203L3.90247 8.7511V6.63098C3.90247 6.57261 3.92392 6.51743 3.96119 6.47467H4.67609V5.02979H6.04084V4.35693H10.5794V5.21228Z" stroke="black" stroke-opacity="0.2"/>
<path d="M10.9674 2.21143C11.158 2.21154 11.3337 2.32456 11.3967 2.50421C11.5921 3.062 11.5611 3.41023 11.4014 3.83405C11.3352 4.00944 11.1607 4.11878 10.973 4.1189H6.04084V3.13977H4.67609V2.21143H10.9674Z" stroke="black" stroke-opacity="0.2"/>
<path d="M11.9108 2.68829C11.9741 2.68837 12.037 2.71182 12.0727 2.76367C12.227 2.98962 12.227 3.33985 12.0727 3.56586C12.037 3.61776 11.9742 3.64195 11.9108 3.64203H11.7133C11.7481 3.50662 11.7688 3.36898 11.7712 3.22308C11.7736 3.05291 11.7508 2.87847 11.7022 2.68829H11.9108Z" stroke="black" stroke-opacity="0.2"/>
<path d="M2.77021 2.68829C2.73431 2.84616 2.71497 2.99429 2.71149 3.13977H2.29493C2.29914 3.00417 2.33642 2.87013 2.40919 2.76367C2.44498 2.71187 2.50773 2.68829 2.57105 2.68829H2.77021Z" stroke="black" stroke-opacity="0.2"/>
<path d="M4.36304 3.45215H5.75952V4.7168H4.36304V6.11328H3.09839V4.7168H1.7019V3.45215H3.09839V2.05566H4.36304V3.45215Z" fill="#C2F671"/>
</svg>
