<svg width="12" height="12" viewBox="0 0 12 12" fill="none" xmlns="http://www.w3.org/2000/svg">
<path d="M1.50476 7.21864L4.78841 9.11445L4.78841 5.32282L1.50476 7.21864Z" fill="#F7C440"/>
<path d="M5.26017 9.93188V8.8186H9.4672C9.65789 8.8186 9.83389 8.93092 9.89689 9.1106C10.0924 9.66848 10.0605 10.0168 9.90079 10.4407C9.83452 10.6161 9.6609 10.7258 9.47306 10.7258H1.98966C1.79617 10.7258 1.61774 10.6094 1.55802 10.425C1.41353 9.97535 1.40978 9.62127 1.56095 9.12817C1.61878 8.93954 1.7997 8.8186 1.99747 8.8186H3.33243L5.26017 9.93188ZM1.26993 9.29517C1.19277 9.63451 1.19115 9.92847 1.2631 10.2483H1.07072C1.00735 10.2483 0.944389 10.225 0.908606 10.1731C0.754097 9.94705 0.754097 9.5964 0.908606 9.37036C0.944379 9.31842 1.00732 9.29517 1.07072 9.29517H1.26993ZM10.4106 9.29517C10.4738 9.29518 10.5359 9.31867 10.5717 9.37036C10.7262 9.5964 10.7262 9.94705 10.5717 10.1731C10.5359 10.2247 10.4738 10.2483 10.4106 10.2483H10.2123C10.2471 10.1131 10.2685 9.97601 10.2709 9.83032C10.2733 9.66022 10.2511 9.48526 10.2026 9.29517H10.4106ZM2.91837 8.57935H2.40275V8.28149L2.91837 8.57935ZM9.03654 3.13892H7.6713V5.02954H9.03654V6.47485H9.07853V8.57935H5.26017V4.50513L2.40275 6.15454V5.13013C2.40283 5.05011 2.44298 4.97571 2.50919 4.93188L2.63322 4.84888C2.88346 4.68205 2.91929 4.3277 2.70646 4.1145L2.47208 3.88013C2.42784 3.83589 2.40287 3.77541 2.40275 3.71216V2.85669H9.03654V3.13892ZM9.4672 0.711182C9.65795 0.711182 9.83394 0.824367 9.89689 1.00415C9.99059 1.27167 10.0304 1.49106 10.0307 1.6936H9.03654V2.61841H1.98966C1.7961 2.61841 1.61767 2.5021 1.55802 2.31763C1.41356 1.86802 1.40988 1.51466 1.56095 1.02173C1.61865 0.832884 1.79957 0.711182 1.99747 0.711182H9.4672ZM1.26993 1.18774C1.19274 1.5271 1.19118 1.82106 1.2631 2.14087H1.07072C1.00729 2.14087 0.944372 2.11765 0.908606 2.06567C0.754103 1.83963 0.754099 1.48898 0.908606 1.26294C0.944397 1.21111 1.00738 1.18774 1.07072 1.18774H1.26993ZM10.4106 1.18774C10.4737 1.18776 10.5359 1.21135 10.5717 1.26294C10.6542 1.3836 10.6915 1.54 10.686 1.6936H10.2699C10.2695 1.53261 10.2484 1.36711 10.2026 1.18774H10.4106Z" fill="white"/>
<path d="M10.6131 3.45215H12.0096V4.7168H10.6131V6.11328H9.34845V4.7168H7.95197V3.45215H9.34845V2.05566H10.6131V3.45215Z" fill="#C2F671"/>
</svg>
