<svg width="16" height="17" viewBox="0 0 16 17" fill="none" xmlns="http://www.w3.org/2000/svg">
<path fill-rule="evenodd" clip-rule="evenodd" d="M13.9492 13.2002L11.9629 15.1875L11.0195 14.2441L11.7881 13.4766H10.5977C9.63767 13.4765 8.75192 12.96 8.27832 12.125L7.00098 9.87305C6.76577 9.45872 6.32751 9.20087 5.85156 9.19727C5.84833 9.19728 5.84503 9.19824 5.8418 9.19824H5.38086C5.10614 9.96897 4.37181 10.5215 3.50684 10.5215C2.40772 10.5214 1.51673 9.63037 1.5166 8.53125C1.5166 7.43202 2.40764 6.54115 3.50684 6.54102C4.37188 6.54102 5.10619 7.0935 5.38086 7.86426H5.85156C6.3275 7.86065 6.76577 7.60378 7.00098 7.18945L8.27832 4.9375C8.75192 4.10248 9.63767 3.58597 10.5977 3.58594L11.7881 3.58594L11.0195 2.81836L11.9629 1.875L13.9492 3.8623L14.4209 4.33301L11.9629 6.79199L11.0195 5.84863L11.9482 4.91992H10.5977C10.1176 4.91995 9.67427 5.17811 9.4375 5.5957L8.16113 7.84668C8.01286 8.10811 7.8242 8.33837 7.60547 8.53125C7.8242 8.72413 8.01286 8.95439 8.16113 9.21582L9.4375 11.4668C9.67427 11.8844 10.1176 12.1425 10.5977 12.1426H11.9482L11.0195 11.2139L11.9629 10.2705L14.4209 12.7295L13.9492 13.2002ZM4.24121 8.53125C4.24121 8.12571 3.91237 7.79687 3.50684 7.79687C3.10148 7.79709 2.77344 8.12585 2.77344 8.53125C2.77348 8.93662 3.10151 9.2654 3.50684 9.26562C3.91235 9.26562 4.24117 8.93675 4.24121 8.53125Z" fill="white"/>
</svg>
