<svg width="6" height="7" viewBox="0 0 6 7" fill="none" xmlns="http://www.w3.org/2000/svg">
<path fill-rule="evenodd" clip-rule="evenodd" d="M2.52785 0.302734C2.87489 0.302766 3.17341 0.37459 3.42363 0.517832C3.67594 0.661146 3.86985 0.852084 4.00509 1.09027C4.14226 1.32838 4.21115 1.59058 4.21116 1.87711C4.21116 2.16572 4.13935 2.43519 3.99607 2.68546C3.85478 2.93573 3.65195 3.15483 3.38755 3.34254L3.08988 3.55278L3.88158 4.42428C3.92618 4.34578 3.96895 4.26441 4.00509 4.17795C4.10998 3.92974 4.16259 3.65942 4.16259 3.36683H5.48301C5.48301 3.72612 5.44529 4.07249 5.37061 4.40554C5.29592 4.73852 5.17598 5.04357 5.01049 5.32005C4.96906 5.38925 4.92389 5.45542 4.87588 5.51919L5.85839 6.60023H4.18688L3.86423 6.25885C3.86275 6.25959 3.86155 6.26088 3.86007 6.26162C3.61179 6.42108 3.35204 6.53362 3.08156 6.60023C2.81121 6.66478 2.54596 6.69734 2.2857 6.69737C1.84173 6.69737 1.45894 6.61882 1.13805 6.46145C0.817173 6.30404 0.570654 6.093 0.399085 5.82865C0.227569 5.56432 0.141719 5.27249 0.141663 4.95369C0.141663 4.72164 0.186132 4.51652 0.274884 4.33893C0.363698 4.15928 0.488026 3.99427 0.647488 3.8449C0.806904 3.6956 0.993568 3.54818 1.20743 3.40291L1.21646 3.39667C1.0854 3.21953 0.969864 3.02338 0.871606 2.80688C0.764664 2.56677 0.710669 2.30529 0.71063 2.02282C0.71063 1.70793 0.786828 1.42004 0.938216 1.15965C1.08959 0.899299 1.30134 0.691288 1.57379 0.535872C1.84629 0.380447 2.16452 0.302734 2.52785 0.302734ZM2.02272 4.31118C1.95709 4.3645 1.89861 4.4237 1.84648 4.48742C1.77591 4.57621 1.74032 4.69105 1.74032 4.83227C1.74032 4.94934 1.7677 5.04926 1.8222 5.13201C1.8767 5.21477 1.95366 5.27842 2.05256 5.32283C2.1534 5.36715 2.27134 5.38943 2.40643 5.38944C2.58339 5.38944 2.75958 5.35079 2.93654 5.27773L2.02272 4.31118ZM2.52785 1.62315C2.43298 1.62315 2.35086 1.64094 2.28223 1.67728C2.21364 1.71159 2.16028 1.76044 2.12195 1.82299C2.08574 1.88544 2.06717 1.95985 2.06713 2.04641C2.06713 2.16545 2.10195 2.28768 2.17052 2.41277C2.21928 2.50026 2.28223 2.59194 2.35647 2.68962L2.61251 2.53142C2.75362 2.44272 2.84925 2.3507 2.89976 2.25596C2.95017 2.15918 2.97534 2.07316 2.9754 1.99853C2.9754 1.89963 2.93913 1.81157 2.86646 1.73487C2.79382 1.65829 2.68106 1.62118 2.52785 1.62315Z" fill="white"/>
</svg>
