<svg width="47" height="48" viewBox="0 0 47 48" fill="none" xmlns="http://www.w3.org/2000/svg">
<path d="M7.19702 34.2422L1.52198 15.8119L12.8721 15.8119L7.19702 34.2422Z" fill="#5499E5"/>
<path d="M12.832 40.8206L31.2623 35.1455L31.2623 46.4956L12.832 40.8206Z" fill="#EB5A31"/>
<rect x="1.56201" y="35.1855" width="11.2703" height="11.2703" fill="#ECF0E5"/>
<circle cx="7.30737" cy="6.78296" r="6.10522" fill="#303030"/>
<path d="M4.45996 10.0884V9.00604L7.66451 5.03871V4.99183H4.57076V3.54297H9.85059V4.72337L6.84206 8.59268V8.63956H9.96138V10.0884H4.45996Z" fill="white"/>
<circle cx="40.7034" cy="39.9841" r="6.10522" fill="#303030"/>
<path d="M39.3895 36.7441L40.5912 39.0325L41.8227 36.7441H43.6849L41.7886 40.0169L43.7361 43.2896H41.8824L40.5912 41.0268L39.3213 43.2896H37.4463L39.3895 40.0169L37.5145 36.7441H39.3895Z" fill="white"/>
</svg>
