<svg width="17" height="17" viewBox="0 0 17 17" fill="none" xmlns="http://www.w3.org/2000/svg">
<path d="M0.3125 3.85512V1.91705C0.3125 1.56174 0.438905 1.25746 0.691716 1.00422C0.944958 0.751405 1.24924 0.625 1.60455 0.625H3.54262V3.85512H0.3125Z" fill="white"/>
<path d="M0.3125 12.2534V5.14717H3.54262V12.2534H0.3125Z" fill="white"/>
<path d="M4.83467 3.85512V0.625H11.9409V3.85512H4.83467Z" fill="white"/>
<path d="M4.83467 16.6249V13.3947H11.9409V16.6249H4.83467Z" fill="white"/>
<path d="M13.0822 12.2534V5.14717H16.3124V12.2534H13.0822Z" fill="white"/>
<path d="M16.3124 13.3535V15.2915C16.3124 15.6469 16.186 15.9511 15.9332 16.2044C15.6799 16.4572 15.3756 16.5836 15.0203 16.5836L13.0822 16.5836V13.3535H16.3124Z" fill="#999999"/>
<path d="M13.0822 0.625L15.0203 0.625C15.3756 0.625 15.6799 0.751407 15.9332 1.00422C16.186 1.25746 16.3124 1.56174 16.3124 1.91705V3.85512H13.0822V0.625Z" fill="white"/>
<path d="M3.54262 16.6249H1.60455C1.24924 16.6249 0.944958 16.4985 0.691716 16.2457C0.438906 15.9924 0.3125 15.6881 0.3125 15.3328L0.3125 13.3947H3.54262V16.6249Z" fill="white"/>
</svg>
