<svg width="17" height="17" viewBox="0 0 17 17" fill="none" xmlns="http://www.w3.org/2000/svg">
<path d="M8.93726 4.67578H14.3689C14.7422 4.67578 15.0618 4.80927 15.3279 5.0752C15.5936 5.34088 15.7273 5.66077 15.7273 6.03418V12.8232C15.7273 13.1967 15.5936 13.5171 15.3279 13.7832C15.0618 14.0486 14.7421 14.1816 14.3689 14.1816H3.50562C3.13255 14.1815 2.81312 14.0486 2.54761 13.7832C2.28147 13.5171 2.14819 13.1967 2.14819 12.8232V4.67578C2.1483 4.30256 2.28157 3.98336 2.54761 3.71777C2.81319 3.45174 3.13239 3.31846 3.50562 3.31836H7.57983L8.93726 4.67578ZM13.2937 7.50586C12.9813 7.50598 12.7273 7.75889 12.7273 8.07129V8.35449H11.03V8.07129C11.03 7.75882 10.7771 7.50586 10.4646 7.50586C10.1522 7.506 9.89917 7.7589 9.89917 8.07129V8.35449H9.61597C9.30361 8.35461 9.05055 8.60754 9.05054 8.91992C9.05076 9.23213 9.30373 9.48523 9.61597 9.48535H9.89917V11.1826H9.61597C9.3036 11.1827 9.05054 11.4366 9.05054 11.749C9.05086 12.0611 9.3038 12.3143 9.61597 12.3145H9.89917V12.5977C9.89947 12.9098 10.1524 13.1629 10.4646 13.1631C10.7769 13.1631 11.0297 12.9099 11.03 12.5977V12.3145H12.7273V12.5977C12.7276 12.9098 12.9815 13.163 13.2937 13.1631C13.6059 13.163 13.8588 12.9098 13.8591 12.5977V12.3145H14.1423L14.2566 12.3027C14.514 12.2498 14.7075 12.022 14.7078 11.749C14.7078 11.4757 14.5142 11.2472 14.2566 11.1943L14.1423 11.1826H13.8591V9.48535H14.1423L14.2566 9.47461C14.5141 9.42176 14.7076 9.19305 14.7078 8.91992C14.7077 8.64663 14.5143 8.4181 14.2566 8.36523L14.1423 8.35449H13.8591V8.07129C13.8591 7.75888 13.6061 7.50596 13.2937 7.50586ZM12.7273 9.48535V11.1826H11.03V9.48535H12.7273Z" fill="white"/>
</svg>
