<svg width="16" height="16" viewBox="0 0 16 16" fill="none" xmlns="http://www.w3.org/2000/svg">
<path d="M14 11.5774L14 13.031C14 13.2974 13.9052 13.5257 13.7156 13.7156C13.5257 13.9052 13.2974 14 13.031 14L11.5774 14L11.5774 11.5774L14 11.5774Z" fill="#616161"/>
<path d="M14 5.2786L14 10.6083L10.5774 10.6083L10.5774 5.2786L14 5.2786Z" fill="#A3A0FB"/>
<path d="M10.6083 11.5774L10.6083 14L5.2786 14L5.2786 11.5774L10.6083 11.5774Z" fill="#616161"/>
<path d="M10.6083 2L10.6083 4.42261L5.2786 4.42261L5.2786 2L10.6083 2Z" fill="#616161"/>
<path d="M4.42261 5.2786L4.42261 10.6083L2 10.6083L2 5.2786L4.42261 5.2786Z" fill="#616161"/>
<path d="M2 4.45356L2 3C2 2.73351 2.09481 2.5053 2.28442 2.31537C2.47435 2.12576 2.70256 2.03095 2.96905 2.03095L4.42261 2.03096L4.42261 4.45356L2 4.45356Z" fill="#616161"/>
<path d="M4.42261 14L2.96904 14C2.70256 14 2.47435 13.9052 2.28441 13.7156C2.0948 13.5257 2 13.2974 2 13.031L2 11.5774L4.42261 11.5774L4.42261 14Z" fill="#616161"/>
<path d="M11.5774 2L13.031 2C13.2974 2 13.5257 2.0948 13.7156 2.28441C13.9052 2.47435 14 2.70256 14 2.96904L14 4.42261L11.5774 4.42261L11.5774 2Z" fill="#616161"/>
</svg>
