<svg width="16" height="16" viewBox="0 0 16 16" fill="none" xmlns="http://www.w3.org/2000/svg">
<path d="M2 4.42261V2.96904C2 2.70256 2.0948 2.47435 2.28441 2.28441C2.47435 2.0948 2.70256 2 2.96904 2H4.42261V4.42261H2Z" fill="#616161"/>
<path d="M2 10.7214V5.39166H4.42261V10.7214H2Z" fill="#616161"/>
<path d="M5.39166 5.42261V2H10.7214V5.42261H5.39166Z" fill="#A3A0FB"/>
<path d="M5.39166 14V11.5774H10.7214V14H5.39166Z" fill="#616161"/>
<path d="M11.5774 10.7214V5.39166H14V10.7214H11.5774Z" fill="#616161"/>
<path d="M14 11.5464V13C14 13.2665 13.9052 13.4947 13.7156 13.6846C13.5257 13.8742 13.2974 13.969 13.031 13.969L11.5774 13.969V11.5464H14Z" fill="#616161"/>
<path d="M11.5774 2L13.031 2C13.2974 2 13.5257 2.09481 13.7156 2.28442C13.9052 2.47435 14 2.70256 14 2.96904V4.42261H11.5774V2Z" fill="#616161"/>
<path d="M4.42261 14H2.96904C2.70256 14 2.47435 13.9052 2.28441 13.7156C2.0948 13.5257 2 13.2974 2 13.031L2 11.5774H4.42261V14Z" fill="#616161"/>
</svg>
