<svg width="16" height="16" viewBox="0 0 16 16" fill="none" xmlns="http://www.w3.org/2000/svg">
<path d="M4.42261 14L2.96904 14C2.70256 14 2.47435 13.9052 2.28441 13.7156C2.0948 13.5257 2 13.2974 2 13.031L2 11.5774L4.42261 11.5774L4.42261 14Z" fill="#616161"/>
<path d="M10.7214 14L5.39166 14L5.39166 10.5774L10.7214 10.5774L10.7214 14Z" fill="#A3A0FB"/>
<path d="M4.42261 10.6083L2 10.6083L2 5.2786L4.42261 5.2786L4.42261 10.6083Z" fill="#616161"/>
<path d="M14 10.6083L11.5774 10.6083L11.5774 5.2786L14 5.2786L14 10.6083Z" fill="#616161"/>
<path d="M10.7214 4.42261L5.39166 4.42261L5.39166 2L10.7214 2L10.7214 4.42261Z" fill="#616161"/>
<path d="M11.5464 2L13 2C13.2665 2 13.4947 2.0948 13.6846 2.28441C13.8742 2.47435 13.969 2.70256 13.969 2.96904L13.969 4.42261L11.5464 4.42261L11.5464 2Z" fill="#616161"/>
<path d="M2 4.42261L2 2.96904C2 2.70256 2.09481 2.47435 2.28442 2.28441C2.47435 2.0948 2.70256 2 2.96904 2L4.42261 2L4.42261 4.42261L2 4.42261Z" fill="#616161"/>
<path d="M14 11.5774L14 13.031C14 13.2974 13.9052 13.5257 13.7156 13.7156C13.5257 13.9052 13.2974 14 13.031 14L11.5774 14L11.5774 11.5774L14 11.5774Z" fill="#616161"/>
</svg>
