<svg width="17" height="16" viewBox="0 0 17 16" fill="none" xmlns="http://www.w3.org/2000/svg">
<path d="M7.83252 7.49609C7.83252 8.89043 6.69919 9.99609 5.33252 9.99609C3.96585 9.99609 2.83252 8.89043 2.83252 7.49609C2.83252 6.10175 3.96585 4.99609 5.33252 4.99609C6.69919 4.99609 7.83252 6.10175 7.83252 7.49609Z" stroke="white" stroke-width="2"/>
<path d="M14.8325 3.99609C14.8325 5.11157 13.9259 5.99609 12.8325 5.99609C11.7392 5.99609 10.8325 5.11157 10.8325 3.99609C10.8325 2.88062 11.7392 1.99609 12.8325 1.99609C13.9259 1.99609 14.8325 2.88062 14.8325 3.99609Z" stroke="white" stroke-width="2"/>
<path d="M13.8325 11.9961C13.8325 13.1116 12.9259 13.9961 11.8325 13.9961C10.7392 13.9961 9.83252 13.1116 9.83252 11.9961C9.83252 10.8806 10.7392 9.99609 11.8325 9.99609C12.9259 9.99609 13.8325 10.8806 13.8325 11.9961Z" stroke="white" stroke-width="2"/>
<path d="M11.0058 4.83691L7.85181 6.35473" stroke="white" stroke-width="2" stroke-linecap="round"/>
<path d="M10.0395 10.9118L7.42212 9.12012" stroke="white" stroke-width="2" stroke-linecap="round"/>
</svg>
