<svg width="14" height="14" viewBox="0 0 14 14" fill="none" xmlns="http://www.w3.org/2000/svg">
<path fill-rule="evenodd" clip-rule="evenodd" d="M6.35046 6.68307H5.60873L4.94019 7.35161C4.75028 7.1407 4.58265 6.91684 4.4373 6.68307H2.38093C2.59053 5.76232 3.06837 4.94358 3.7279 4.31341C3.70163 3.3406 3.97331 2.36124 4.54296 1.52393C4.569 2.18528 4.70375 2.84314 4.94721 3.46844C5.56826 3.16936 6.26456 3.00177 7.00001 3.00177C7.73545 3.00177 8.43174 3.16936 9.05279 3.46843C9.29624 2.84313 9.43099 2.18527 9.45703 1.52393C10.0267 2.36124 10.2984 3.34059 10.2721 4.31338C10.9316 4.94356 11.4095 5.7623 11.6191 6.68307H9.56269C9.41735 6.91684 9.24972 7.1407 9.0598 7.35161L8.39126 6.68307H7.64951C7.6497 7.81168 8.56468 8.72654 9.69333 8.72654C10.6791 8.72654 11.5018 8.02873 11.6945 7.10015C11.7227 7.30907 11.7372 7.52232 11.7372 7.73896C11.7372 10.3552 9.61629 12.4761 7.00001 12.4761C4.38373 12.4761 2.26282 10.3552 2.26282 7.73896C2.26282 7.52236 2.27735 7.30916 2.3055 7.10027C2.49825 8.02879 3.32096 8.72654 4.30664 8.72654C5.4353 8.72654 6.35028 7.81168 6.35046 6.68307ZM5.5865 10.0674C5.5865 10.8481 6.21937 11.481 7.00007 11.481C7.78076 11.481 8.41364 10.8481 8.41364 10.0674H5.5865Z" fill="white"/>
</svg>
