<svg width="14" height="14" viewBox="0 0 14 14" fill="none" xmlns="http://www.w3.org/2000/svg">
<path fill-rule="evenodd" clip-rule="evenodd" d="M10.8179 4.74137C10.8179 6.85003 6.99992 11.2294 6.99992 11.2294C6.99992 11.2294 3.18188 6.85003 3.18188 4.74137C3.18188 2.63271 4.89128 0.92334 6.99992 0.92334C9.10855 0.92334 10.8179 2.63271 10.8179 4.74137ZM8.71752 4.74137C8.71752 5.68999 7.94853 6.45897 6.99992 6.45897C6.0513 6.45897 5.28231 5.68999 5.28231 4.74137C5.28231 3.79275 6.0513 3.02377 6.99992 3.02377C7.94853 3.02377 8.71752 3.79275 8.71752 4.74137Z" fill="white"/>
<path fill-rule="evenodd" clip-rule="evenodd" d="M6.34039 11.8045L6.33654 11.8L6.32724 11.7893L6.293 11.7496C6.26346 11.7151 6.22077 11.6651 6.16682 11.6011C6.05895 11.4731 5.90581 11.289 5.72245 11.0618C5.52424 10.8162 5.28971 10.519 5.03824 10.187C4.33931 10.4854 3.89294 10.94 3.89294 11.4491C3.89294 12.348 5.28397 13.0766 6.99988 13.0766C8.71579 13.0766 10.1068 12.348 10.1068 11.4491C10.1068 10.94 9.66048 10.4855 8.9616 10.187C8.71014 10.519 8.47561 10.8162 8.27741 11.0618C8.09405 11.289 7.94092 11.4731 7.83304 11.6011C7.77909 11.6651 7.7364 11.7151 7.70686 11.7496L7.67262 11.7893L7.66333 11.8L7.65947 11.8045C7.03975 11.2642 6.96012 11.2642 6.34039 11.8045ZM6.34039 11.8045L6.99993 12.561L7.65947 11.8045C7.03975 11.2642 6.96012 11.2642 6.34039 11.8045Z" fill="white"/>
</svg>
