<svg width="16" height="17" viewBox="0 0 16 17" fill="none" xmlns="http://www.w3.org/2000/svg">
<path d="M1.01123 13.2994C1.01123 12.7472 1.45895 12.2994 2.01123 12.2994H3.96143C4.51371 12.2994 4.96143 12.7472 4.96143 13.2994V14.317C4.96143 14.8693 4.51371 15.317 3.96143 15.317H2.01123C1.45895 15.317 1.01123 14.8693 1.01123 14.317V13.2994Z" fill="#D9D9D9"/>
<path d="M11.0387 13.2994C11.0387 12.7472 11.4864 12.2994 12.0387 12.2994H13.9889C14.5412 12.2994 14.9889 12.7472 14.9889 13.2994V14.317C14.9889 14.8693 14.5412 15.317 13.9889 15.317H12.0387C11.4864 15.317 11.0387 14.8693 11.0387 14.317V13.2994Z" fill="#D9D9D9"/>
<path d="M6.99969 13.9197C6.99969 13.5273 6.68155 13.2092 6.28911 13.2092C5.89668 13.2092 5.57854 13.5273 5.57854 13.9197C5.57854 14.3122 5.89668 14.6303 6.28911 14.6303C6.68155 14.6303 6.99969 14.3122 6.99969 13.9197Z" fill="#D9D9D9"/>
<path d="M8.00005 13.2092C8.39249 13.2092 8.71062 13.5273 8.71062 13.9197C8.71062 14.3122 8.39249 14.6303 8.00005 14.6303C7.60761 14.6303 7.28948 14.3122 7.28948 13.9197C7.28948 13.5273 7.60761 13.2092 8.00005 13.2092Z" fill="#D9D9D9"/>
<path d="M10.4216 13.9197C10.4216 13.5273 10.1034 13.2092 9.71099 13.2092C9.31855 13.2092 9.00042 13.5273 9.00042 13.9197C9.00042 14.3122 9.31855 14.6303 9.71099 14.6303C10.1034 14.6303 10.4216 14.3122 10.4216 13.9197Z" fill="#D9D9D9"/>
<path fill-rule="evenodd" clip-rule="evenodd" d="M6.37656 2.56648C6.66018 2.31813 7.08594 2.33844 7.34572 2.60568C7.34794 2.60769 7.35062 2.60947 7.35281 2.61152L7.40286 2.66323L11.908 7.80554C12.1483 8.08017 12.1373 8.48866 11.8938 8.7501L11.8421 8.80056L8.47419 11.751L8.41747 11.7956C8.12621 12.0027 7.71977 11.9596 7.47917 11.6851L5.44326 9.36145C5.40119 9.33096 5.36136 9.29585 5.32566 9.25511L2.93154 6.52194C2.67492 6.22896 2.70446 5.78358 2.99743 5.52693L6.37656 2.56648ZM6.59967 9.07621L8.04215 10.7226L10.8796 8.23716L9.43709 6.59075L6.59967 9.07621Z" fill="#D9D9D9"/>
<path d="M3.96143 12.0493C4.65174 12.0493 5.21136 12.609 5.21143 13.2993V14.3169C5.21143 15.0072 4.65178 15.5669 3.96143 15.5669H2.01123C1.32087 15.5669 0.76123 15.0072 0.76123 14.3169V13.2993C0.761297 12.609 1.32092 12.0493 2.01123 12.0493H3.96143ZM13.9888 12.0493C14.6791 12.0493 15.2387 12.609 15.2388 13.2993V14.3169C15.2388 15.0072 14.6791 15.5669 13.9888 15.5669H12.0386C11.3483 15.5668 10.7886 15.0072 10.7886 14.3169V13.2993C10.7886 12.6091 11.3483 12.0494 12.0386 12.0493H13.9888ZM9.71143 12.9595C10.2416 12.9597 10.6712 13.3892 10.6714 13.9194C10.6714 14.4498 10.2417 14.8801 9.71143 14.8804C9.33736 14.8804 9.01362 14.6661 8.85498 14.354C8.69632 14.6657 8.37419 14.8802 8.00049 14.8804C7.62643 14.8804 7.30268 14.6661 7.14404 14.354C6.98539 14.6657 6.66325 14.8802 6.28955 14.8804C5.75904 14.8804 5.32861 14.4499 5.32861 13.9194C5.32878 13.3891 5.75914 12.9595 6.28955 12.9595C6.66275 12.9596 6.98516 13.1729 7.14404 13.4839C7.30291 13.1725 7.62693 12.9595 8.00049 12.9595C8.37369 12.9596 8.69609 13.1729 8.85498 13.4839C9.01385 13.1725 9.33787 12.9595 9.71143 12.9595ZM6.28564 2.31982C6.66061 2.05112 7.17654 2.09104 7.50732 2.41455L7.50928 2.4165L7.50732 2.41553C7.50913 2.4173 7.51138 2.41862 7.51318 2.42041H7.51416L7.52295 2.42822L7.53271 2.43701L7.35889 2.60596L7.53271 2.43799L7.58252 2.48975L7.59131 2.49854L12.0962 7.64111L12.1528 7.7124C12.4186 8.08116 12.3861 8.5882 12.0767 8.92041L12.0688 8.9292L12.0171 8.979L12.0073 8.98877L11.8423 8.80029L12.0063 8.98877L8.63916 11.939L8.62939 11.9478L8.47412 11.7515L8.62842 11.9478L8.57178 11.9917L8.56201 11.9995C8.19195 12.2624 7.68543 12.2274 7.35498 11.9155L7.2915 11.8501L5.27002 9.54248C5.25183 9.52836 5.23303 9.51442 5.21533 9.49854L5.13721 9.41943L2.74365 6.68701C2.39613 6.29023 2.43606 5.68699 2.83252 5.33936L6.21143 2.37842L6.28564 2.31982ZM6.95166 9.09912L8.06494 10.3696L10.5269 8.21338L9.41357 6.94287L6.95166 9.09912Z" stroke="black" stroke-opacity="0.33" stroke-width="0.5" stroke-linecap="round"/>
</svg>
