<svg width="17" height="17" viewBox="0 0 17 17" fill="none" xmlns="http://www.w3.org/2000/svg">
<path d="M10.855 3.87703C10.855 3.5238 11.1413 3.23745 11.4945 3.23745L12.7154 3.23745V2.01653C12.7154 1.6633 13.0018 1.37695 13.355 1.37695C13.7082 1.37695 13.9946 1.6633 13.9946 2.01653V3.23745L15.2154 3.23745C15.5686 3.23745 15.855 3.5238 15.855 3.87703C15.855 4.23025 15.5686 4.5166 15.2154 4.5166H13.9946V5.73738C13.9946 6.09061 13.7082 6.37695 13.355 6.37695C13.0018 6.37695 12.7154 6.09061 12.7154 5.73738V4.5166H11.4945C11.1413 4.5166 10.855 4.23025 10.855 3.87703Z" fill="#D9D9D9"/>
<path d="M5.92774 5.5904C5.32395 5.5904 4.83447 6.07987 4.83447 6.68367V14.571C4.83447 14.9284 5.23995 15.1349 5.52899 14.9247L7.57374 13.4376C7.95709 13.1588 8.47644 13.1588 8.8598 13.4376L10.9045 14.9247C11.1936 15.1349 11.5991 14.9284 11.5991 14.571V6.68367C11.5991 6.07987 11.1096 5.5904 10.5058 5.5904H5.92774Z" fill="#D9D9D9"/>
<path d="M10.5054 5.34082C11.2472 5.34082 11.8491 5.94176 11.8491 6.68359V14.5713C11.8489 15.0978 11.2885 15.4163 10.8442 15.1816L10.7573 15.127L8.7124 13.6396C8.45376 13.4517 8.1151 13.4284 7.83643 13.5693L7.72119 13.6396L5.67627 15.127C5.22205 15.4573 4.58466 15.1329 4.58447 14.5713V6.68359C4.58451 5.94176 5.18638 5.34082 5.92822 5.34082H10.5054ZM13.355 1.12695C13.8463 1.12695 14.2446 1.5253 14.2446 2.0166V2.9873H15.2153L15.3062 2.99219C15.7548 3.03766 16.1049 3.41634 16.105 3.87695C16.105 4.36825 15.7066 4.7666 15.2153 4.7666H14.2446V5.7373L14.2397 5.82812C14.1943 6.27679 13.8156 6.62695 13.355 6.62695C12.8637 6.62694 12.4653 6.2286 12.4653 5.7373V4.7666H11.4946C11.0033 4.7666 10.605 4.36825 10.605 3.87695L10.6099 3.78613C10.6554 3.33755 11.034 2.9873 11.4946 2.9873H12.4653V2.0166C12.4653 1.52531 12.8637 1.12697 13.355 1.12695Z" stroke="black" stroke-opacity="0.33" stroke-width="0.5" stroke-linecap="round"/>
</svg>
