<svg width="17" height="17" viewBox="0 0 17 17" fill="none" xmlns="http://www.w3.org/2000/svg">
<path d="M3.68012 3.93476H3.94013C4.47427 3.93476 4.90727 3.50176 4.90727 2.96762C4.90727 2.43349 4.47427 2.00049 3.94013 2.00049H3.3469C2.46267 2.00049 1.74585 2.71731 1.74585 3.60154V4.19477C1.74585 4.72891 2.17885 5.16191 2.71298 5.16191C3.24712 5.16191 3.68012 4.72891 3.68012 4.19477V3.93476Z" fill="#D9D9D9"/>
<path d="M6.69942 2.96762C6.69942 2.43349 7.13242 2.00049 7.66656 2.00049H8.85301C9.38715 2.00049 9.82015 2.43349 9.82015 2.96762C9.82015 3.50176 9.38715 3.93476 8.85301 3.93476H7.66656C7.13242 3.93476 6.69942 3.50176 6.69942 2.96762Z" fill="#D9D9D9"/>
<path d="M12.5794 2.00049C12.0453 2.00049 11.6123 2.43349 11.6123 2.96762C11.6123 3.50176 12.0453 3.93476 12.5794 3.93476H12.8395V4.19477C12.8395 4.7289 13.2725 5.16191 13.8066 5.16191C14.3407 5.16191 14.7737 4.7289 14.7737 4.19477V3.60154C14.7737 2.7173 14.0569 2.00049 13.1727 2.00049H12.5794Z" fill="#D9D9D9"/>
<path d="M13.8066 6.95406C14.3407 6.95406 14.7737 7.38706 14.7737 7.9212V9.10765C14.7737 9.64179 14.3407 10.0748 13.8066 10.0748C13.2725 10.0748 12.8395 9.64179 12.8395 9.10765V7.9212C12.8395 7.38706 13.2725 6.95406 13.8066 6.95406Z" fill="#D9D9D9"/>
<path d="M3.68012 7.9212C3.68012 7.38706 3.24712 6.95406 2.71298 6.95406C2.17885 6.95406 1.74585 7.38706 1.74585 7.9212V9.10765C1.74585 9.64179 2.17885 10.0748 2.71298 10.0748C3.24712 10.0748 3.68012 9.64179 3.68012 9.10765V7.9212Z" fill="#D9D9D9"/>
<path d="M2.71298 11.8669C3.24712 11.8669 3.68012 12.2999 3.68012 12.8341V13.0941H3.94013C4.47427 13.0941 4.90727 13.5271 4.90727 14.0612C4.90727 14.5954 4.47427 15.0284 3.94013 15.0284H3.34691C2.46267 15.0284 1.74585 14.3115 1.74585 13.4273V12.8341C1.74585 12.2999 2.17885 11.8669 2.71298 11.8669Z" fill="#D9D9D9"/>
<path d="M7.66656 13.0941C7.13243 13.0941 6.69942 13.5271 6.69942 14.0612C6.69942 14.5954 7.13243 15.0284 7.66656 15.0284H8.85301C9.38715 15.0284 9.82015 14.5954 9.82015 14.0612C9.82015 13.5271 9.38715 13.0941 8.85301 13.0941H7.66656Z" fill="#D9D9D9"/>
<path d="M12.9313 15.3949C14.0891 15.3949 15.0276 14.4564 15.0276 13.2987C15.0276 12.141 14.0891 11.2025 12.9313 11.2025C11.7736 11.2025 10.8351 12.141 10.8351 13.2987C10.8351 14.4564 11.7736 15.3949 12.9313 15.3949Z" fill="#D9D9D9"/>
<path d="M12.9314 10.9526C14.227 10.9527 15.2769 12.0027 15.2771 13.2983C15.2771 14.5941 14.2272 15.645 12.9314 15.645C11.6356 15.645 10.5847 14.5941 10.5847 13.2983C10.5849 12.0027 11.6357 10.9526 12.9314 10.9526ZM2.71265 11.6167C3.38485 11.6167 3.93042 12.1623 3.93042 12.8345V12.8442H3.94019C4.6123 12.8443 5.15688 13.3889 5.15698 14.061C5.15698 14.7332 4.61237 15.2788 3.94019 15.2788H3.34644C2.32434 15.2786 1.49585 14.4494 1.49585 13.4272V12.8345C1.49585 12.1624 2.0406 11.6169 2.71265 11.6167ZM8.85327 12.8442C9.5253 12.8444 10.07 13.389 10.0701 14.061C10.0701 14.7332 9.52536 15.2787 8.85327 15.2788H7.66675C6.99454 15.2788 6.44897 14.7332 6.44897 14.061C6.44908 13.3889 6.99461 12.8442 7.66675 12.8442H8.85327ZM2.71265 6.70361C3.38485 6.70361 3.93042 7.24918 3.93042 7.92139V9.10791C3.93028 9.78 3.38477 10.3247 2.71265 10.3247C2.04068 10.3245 1.49599 9.77989 1.49585 9.10791V7.92139C1.49585 7.24929 2.0406 6.7038 2.71265 6.70361ZM13.8064 6.70361C14.4786 6.70361 15.0242 7.24918 15.0242 7.92139V9.10791C15.024 9.78 14.4785 10.3247 13.8064 10.3247C13.1344 10.3246 12.5897 9.77993 12.5896 9.10791V7.92139C12.5896 7.24925 13.1343 6.70372 13.8064 6.70361ZM3.94019 1.75049C4.61225 1.75052 5.1568 2.29525 5.15698 2.96729C5.15698 3.63947 4.61237 4.18503 3.94019 4.18506H3.93042V4.19482C3.93039 4.867 3.38483 5.41162 2.71265 5.41162C2.04061 5.41144 1.49588 4.86689 1.49585 4.19482V3.60107C1.4961 2.57914 2.3245 1.75074 3.34644 1.75049H3.94019ZM13.1726 1.75049C14.1948 1.75049 15.0239 2.57898 15.0242 3.60107V4.19482C15.0241 4.867 14.4786 5.41162 13.8064 5.41162C13.1343 5.41152 12.5896 4.86694 12.5896 4.19482V4.18506H12.5798C11.9076 4.18506 11.3621 3.63949 11.3621 2.96729C11.3622 2.29524 11.9077 1.75049 12.5798 1.75049H13.1726ZM8.85327 1.75049C9.52525 1.75063 10.0699 2.29532 10.0701 2.96729C10.0701 3.6394 9.52536 4.18492 8.85327 4.18506H7.66675C6.99454 4.18506 6.44897 3.63949 6.44897 2.96729C6.44916 2.29524 6.99466 1.75049 7.66675 1.75049H8.85327Z" stroke="black" stroke-opacity="0.3" stroke-width="0.5"/>
</svg>
