<svg width="17" height="17" viewBox="0 0 17 17" fill="none" xmlns="http://www.w3.org/2000/svg">
<g clip-path="url(#clip0_1857_14745)">
<path d="M15.042 13.8306L13.6279 15.2446L10.6104 12.228L12.0254 10.814L15.042 13.8306Z" fill="#D9D9D9"/>
<path fill-rule="evenodd" clip-rule="evenodd" d="M13.1309 8.44385L8.2168 13.3579L3.30176 8.44385L8.2168 3.52881L13.1309 8.44385ZM5.50391 8.44385L8.2168 11.1558L10.9297 8.44385L8.2168 5.73096L5.50391 8.44385Z" fill="#D9D9D9"/>
<path d="M5.8457 4.63428L4.43066 6.04834L1.4375 3.05518L2.85254 1.64111L5.8457 4.63428Z" fill="#D9D9D9"/>
<path d="M15.3955 13.8306L13.6279 15.5981L13.4512 15.4214L10.4336 12.4048L10.2568 12.228L10.4336 12.0513L11.8486 10.6372L12.0254 10.4604L15.3955 13.8306ZM8.39355 3.35205L13.3076 8.26709L13.4844 8.44385L8.2168 13.7114L8.04004 13.5347L3.125 8.62061L2.94824 8.44385L8.2168 3.17529L8.39355 3.35205ZM5.85742 8.44287L8.2168 10.8022L10.5752 8.44287L8.2168 6.08447L5.85742 8.44287ZM6.19922 4.63428L6.02246 4.81104L4.60742 6.2251L4.43066 6.40186L1.08398 3.05518L1.26074 2.87842L2.67578 1.46436L2.85254 1.2876L6.19922 4.63428Z" stroke="black" stroke-opacity="0.3" stroke-width="0.5"/>
</g>
<defs>
<clipPath id="clip0_1857_14745">
<rect width="16" height="16" fill="white" transform="translate(0.216797 0.442871)"/>
</clipPath>
</defs>
</svg>
