<svg width="17" height="17" viewBox="0 0 17 17" fill="none" xmlns="http://www.w3.org/2000/svg">
<path d="M4.58478 6.56825C4.52183 6.53191 4.49666 6.45378 4.52656 6.38753L6.74359 1.47492C6.77992 1.39443 6.8803 1.36652 6.95296 1.41671L9.19924 2.96837C9.24055 2.99691 9.26365 3.04522 9.25991 3.09529L9.18446 4.10783C9.17706 4.20705 9.27169 4.28271 9.36685 4.25366L10.4903 3.91072C10.5325 3.89784 10.5783 3.90539 10.6142 3.93116L11.0649 4.25513C11.1077 4.28592 11.1298 4.33798 11.1223 4.39019L10.9677 5.46335C10.9495 5.58976 11.0949 5.67369 11.1952 5.59471L12.0481 4.92357C12.0891 4.8913 12.1446 4.88422 12.1924 4.90517L13.1184 5.31087C13.2039 5.34833 13.2303 5.45686 13.1716 5.52944L9.941 9.52278C9.89722 9.57691 9.82056 9.59113 9.76027 9.55632L4.58478 6.56825Z" fill="#D9D9D9"/>
<path fill-rule="evenodd" clip-rule="evenodd" d="M3.58711 8.6061C3.31644 8.44983 3.2237 8.10372 3.37997 7.83305L3.59219 7.46547C3.74846 7.1948 4.09457 7.10206 4.36524 7.25833L9.26622 10.0879C9.53689 10.2442 9.62963 10.5903 9.47336 10.861L9.26114 11.2285C9.10487 11.4992 8.75876 11.592 8.48809 11.4357L7.01779 10.5868L5.24913 14.6955C5.15316 14.9185 5.00551 15.1215 4.79249 15.2379C3.49376 15.9473 2.04764 15.1049 2.11926 13.6721C2.13032 13.4508 2.23382 13.2473 2.37137 13.0736L5.17993 9.52571L3.58711 8.6061ZM3.48939 14.4318C3.76006 14.5881 4.10617 14.4954 4.26244 14.2247C4.41872 13.954 4.32598 13.6079 4.0553 13.4516C3.78463 13.2954 3.43852 13.3881 3.28225 13.6588C3.12597 13.9295 3.21871 14.2756 3.48939 14.4318Z" fill="#D9D9D9"/>
<path d="M3.42139 7.27051C3.6633 6.93513 4.12488 6.83078 4.49072 7.04199L9.39111 9.87109L9.46143 9.91699C9.77424 10.1427 9.88594 10.5592 9.72803 10.9111L9.68994 10.9863L9.47803 11.3535C9.26675 11.7195 8.81427 11.8602 8.43701 11.6904L8.36279 11.6523L7.13623 10.9434L5.479 14.7939C5.38329 15.0163 5.23432 15.241 5.01221 15.3955L4.9126 15.457C4.1896 15.852 3.40962 15.8216 2.81592 15.4746C2.2205 15.1265 1.82916 14.4688 1.86963 13.6592L1.88037 13.5518C1.91817 13.3056 2.03866 13.0906 2.17529 12.918L4.80322 9.59668L3.4624 8.82227C3.07216 8.59696 2.93826 8.09826 3.16357 7.70801L3.37549 7.34082L3.42139 7.27051ZM3.93018 13.668C3.7791 13.5809 3.58574 13.6331 3.49854 13.7842C3.41161 13.9352 3.46378 14.1277 3.61475 14.2148C3.76584 14.302 3.95916 14.2507 4.04639 14.0996C4.13341 13.9485 4.08119 13.7552 3.93018 13.668ZM6.56104 1.2959C6.66655 1.15682 6.85387 1.10465 7.01611 1.16895L7.09521 1.21094L9.34131 2.7627L9.41748 2.83105C9.46134 2.88269 9.49077 2.94516 9.50342 3.01172L9.50928 3.11426L9.4458 3.96777L10.4175 3.67188L10.5063 3.65527C10.5661 3.65141 10.6258 3.66169 10.6812 3.68457L10.7603 3.72852L11.2104 4.05176L11.2886 4.12598C11.3328 4.18146 11.3612 4.24805 11.3706 4.31836L11.3696 4.42578L11.2534 5.23047L11.8931 4.72754L11.9849 4.67285C12.0499 4.64578 12.1212 4.63752 12.1909 4.64746L12.2925 4.67578L13.2183 5.08203L13.2993 5.12891C13.4457 5.24005 13.4943 5.44141 13.4155 5.60742L13.3657 5.68652L10.1353 9.67969C10.0293 9.81072 9.85371 9.85765 9.69971 9.80273L9.63525 9.77246L4.45947 6.78516C4.2855 6.68468 4.21598 6.46835 4.29834 6.28516L6.51611 1.37207L6.56104 1.2959Z" stroke="black" stroke-opacity="0.33" stroke-width="0.5"/>
<rect x="10.5049" y="10.7793" width="4" height="4" rx="1" fill="#D9D9D9"/>
<rect x="10.2549" y="10.5293" width="4.5" height="4.5" rx="1.25" stroke="black" stroke-opacity="0.3" stroke-width="0.5"/>
</svg>
