<svg width="17" height="17" viewBox="0 0 17 17" fill="none" xmlns="http://www.w3.org/2000/svg">
<g clip-path="url(#clip0_75_849)">
<path d="M6.49632 3.74522C6.3789 2.94281 6.73116 2.14433 7.40829 1.69422L7.42788 1.68251C7.97195 1.31848 8.68039 1.33413 9.20879 1.71773C9.8155 2.15611 10.1326 2.89197 10.0347 3.63566L9.41233 8.46961C9.55715 8.48918 9.70197 8.50877 9.84679 8.53225C10.1051 8.5753 10.3087 8.78271 10.3478 9.04106L10.4417 9.71041C10.9193 9.75346 11.3929 9.80824 11.8626 9.88261C12.5202 9.98046 13.0251 10.5089 13.0955 11.1665L13.3656 13.6402C13.3813 13.7732 13.2756 13.8907 13.1386 13.8907H3.29455C3.16147 13.8907 3.0558 13.7732 3.06754 13.6402L3.32197 11.323C3.40416 10.5754 3.98345 9.98044 4.73105 9.87869L5.13814 9.82389C5.41995 9.78865 5.70565 9.75344 5.99138 9.72604L6.07748 9.10762C6.12055 8.81014 6.35544 8.5753 6.65681 8.53225L6.8486 8.50483C6.96212 8.48524 7.07563 8.47351 7.19304 8.46178L6.49632 3.74522Z" fill="#D9D9D9"/>
<path d="M11.4626 15.4662C11.9656 15.4662 12.3733 15.0584 12.3733 14.5554C12.3733 14.4045 12.251 14.2822 12.1001 14.2822H4.39562C4.24472 14.2822 4.12239 14.4045 4.12239 14.5554C4.12239 15.0584 4.53016 15.4662 5.03315 15.4662H11.4626Z" fill="#D9D9D9"/>
<path d="M7.30005 1.46826C7.93012 1.05308 8.74648 1.07291 9.35571 1.51514H9.35474C10.0361 2.00743 10.3923 2.83383 10.2825 3.66846L9.69165 8.25732C9.75635 8.26662 9.82179 8.27508 9.88696 8.28564H9.88794L10.0208 8.31885C10.2783 8.40599 10.4807 8.61227 10.5637 8.87061L10.595 9.00342V9.00635L10.6614 9.48193C11.0766 9.52237 11.4903 9.57013 11.9016 9.63525H11.9006C12.6702 9.75033 13.2612 10.3693 13.344 11.1392L13.6145 13.6128H13.6135C13.646 13.8978 13.4206 14.1409 13.1389 14.1411H12.4163C12.5413 14.2367 12.6232 14.3857 12.6233 14.5552C12.6233 15.1963 12.1032 15.7163 11.4622 15.7163H5.03345C4.39239 15.7163 3.87231 15.1963 3.87231 14.5552C3.87239 14.3857 3.95435 14.2367 4.07935 14.1411H3.29419C3.01158 14.1409 2.79452 13.8945 2.8186 13.6187V13.6128L3.07349 11.2954L3.0979 11.1362C3.25252 10.3504 3.89016 9.74123 4.69751 9.63135L5.10474 9.57568H5.10669L5.76978 9.49951L5.83032 9.07275V9.07178L5.8645 8.92334C5.97127 8.58799 6.26215 8.33602 6.62134 8.28467L6.81274 8.25732C6.84432 8.25195 6.87618 8.24997 6.90747 8.24561L6.24927 3.78174C6.11795 2.88436 6.5115 1.98989 7.26978 1.48584L7.27954 1.479L7.40454 1.68799L7.28052 1.47998L7.30005 1.46826Z" stroke="black" stroke-opacity="0.33" stroke-width="0.5"/>
</g>
<defs>
<clipPath id="clip0_75_849">
<rect width="16" height="16" fill="white" transform="translate(0.216797 0.442871)"/>
</clipPath>
</defs>
</svg>
