<svg width="17" height="17" viewBox="0 0 17 17" fill="none" xmlns="http://www.w3.org/2000/svg">
<g clip-path="url(#clip0_74_2)">
<path d="M13.7986 1.92813C13.7986 1.58975 13.5242 1.31543 13.1859 1.31543C12.8475 1.31543 12.5732 1.58975 12.5732 1.92813V2.91131H11.6541C11.3157 2.91131 11.0414 3.18562 11.0414 3.52401C11.0414 3.8624 11.3157 4.13671 11.6541 4.13671H12.5732V5.02014C12.5732 5.35853 12.8475 5.63285 13.1859 5.63285C13.5242 5.63285 13.7986 5.35853 13.7986 5.02014V4.13671H14.8197C15.1581 4.13671 15.4324 3.8624 15.4324 3.52401C15.4324 3.18562 15.1581 2.91131 14.8197 2.91131H13.7986V1.92813Z" fill="#D9D9D9"/>
<path fill-rule="evenodd" clip-rule="evenodd" d="M12.9865 8.79533C12.9865 11.6188 10.6976 13.9077 7.87409 13.9077C5.05061 13.9077 2.76172 11.6188 2.76172 8.79533C2.76172 5.97184 5.05061 3.68295 7.87409 3.68295C10.6976 3.68295 12.9865 5.97184 12.9865 8.79533ZM11.3348 8.79533C11.3348 10.7066 9.78541 12.2561 7.87409 12.2561C5.96278 12.2561 4.41335 10.7066 4.41335 8.79533C4.41335 6.88401 5.96278 5.33459 7.87409 5.33459C9.78541 5.33459 11.3348 6.88401 11.3348 8.79533Z" fill="#D9D9D9"/>
<path d="M7.87402 3.43262C10.8354 3.43262 13.2361 5.83355 13.2363 8.79492C13.2363 11.7565 10.8356 14.1572 7.87402 14.1572C4.9125 14.1572 2.51172 11.7565 2.51172 8.79492C2.51194 5.83357 4.91263 3.43265 7.87402 3.43262ZM7.87402 5.58496C6.10095 5.585 4.6633 7.02189 4.66309 8.79492C4.66309 10.5681 6.10081 12.0058 7.87402 12.0059C9.64727 12.0059 11.085 10.5682 11.085 8.79492C11.0847 7.02187 9.64713 5.58496 7.87402 5.58496ZM13.1855 1.06543C13.6619 1.06543 14.0486 1.45146 14.0488 1.92773V2.66113H14.8193C15.2958 2.66113 15.6826 3.04796 15.6826 3.52441C15.6824 4.00069 15.2957 4.38672 14.8193 4.38672H14.0488V5.02051C14.0486 5.4968 13.6619 5.88281 13.1855 5.88281C12.7094 5.88265 12.3234 5.49669 12.3232 5.02051V4.38672H11.6543C11.178 4.38672 10.7912 4.00069 10.791 3.52441C10.791 3.04796 11.1778 2.66113 11.6543 2.66113H12.3232V1.92773C12.3235 1.45156 12.7094 1.0656 13.1855 1.06543Z" stroke="black" stroke-opacity="0.33" stroke-width="0.5" stroke-linecap="round" stroke-linejoin="round"/>
</g>
<defs>
<clipPath id="clip0_74_2">
<rect width="16" height="16" fill="white" transform="translate(0.216797 0.442871)"/>
</clipPath>
</defs>
</svg>
