<svg width="16" height="17" viewBox="0 0 16 17" fill="none" xmlns="http://www.w3.org/2000/svg">
<path fill-rule="evenodd" clip-rule="evenodd" d="M6.37683 2.03962C6.66044 1.79127 7.08621 1.81158 7.34599 2.07882C7.34821 2.08084 7.35088 2.08262 7.35308 2.08466L7.40312 2.13637L11.9082 7.27868C12.1486 7.55332 12.1376 7.9618 11.894 8.22324L11.8423 8.2737L8.47445 11.2241L8.41774 11.2688C8.12648 11.4758 7.72003 11.4328 7.47944 11.1582L5.44353 8.8346C5.40145 8.80411 5.36162 8.76899 5.32593 8.72825L2.9318 5.99509C2.67519 5.7021 2.70473 5.25672 2.99769 5.00007L6.37683 2.03962ZM6.59994 8.54935L8.04242 10.1958L10.8798 7.7103L9.43736 6.0639L6.59994 8.54935Z" fill="#D9D9D9"/>
<path fill-rule="evenodd" clip-rule="evenodd" d="M3.18508 11.3988C4.18515 11.3988 4.9961 12.2098 4.9961 13.2099L4.98653 13.395C4.89368 14.308 4.12256 15.0202 3.18508 15.0202L2.99995 15.0113C2.0871 14.9184 1.37487 14.1472 1.37476 13.2099L1.38364 13.0247C1.47006 12.1725 2.14783 11.4951 2.99995 11.4084L3.18508 11.3988ZM2.366 13.2099C2.36612 13.6622 2.73276 14.0287 3.18508 14.0289C3.63759 14.0289 4.00473 13.6623 4.00486 13.2099C4.00486 12.7573 3.63767 12.3901 3.18508 12.3901C2.73268 12.3903 2.366 12.7574 2.366 13.2099Z" fill="#D9D9D9"/>
<path fill-rule="evenodd" clip-rule="evenodd" d="M12.8147 11.3988C13.8147 11.3988 14.6257 12.2098 14.6257 13.2099L14.6161 13.395C14.5233 14.308 13.7521 15.0202 12.8147 15.0202L12.6295 15.0113C11.7166 14.9185 11.0045 14.1473 11.0043 13.2099L11.0132 13.0247C11.0996 12.1725 11.7773 11.4951 12.6295 11.4084L12.8147 11.3988ZM11.9956 13.2099C11.9957 13.6623 12.3623 14.0288 12.8147 14.0289C13.2672 14.0289 13.6343 13.6623 13.6344 13.2099C13.6344 12.7573 13.2672 12.3901 12.8147 12.3901C12.3622 12.3902 11.9956 12.7573 11.9956 13.2099Z" fill="#D9D9D9"/>
<path d="M9.7142 12.6854L9.78593 12.6888C10.1387 12.7246 10.4137 13.0227 10.4137 13.3849C10.4137 13.7471 10.1387 14.0452 9.78594 14.081L9.71421 14.0844H6.2862C5.89985 14.0844 5.58666 13.7713 5.58666 13.3849C5.58666 12.9986 5.89985 12.6854 6.2862 12.6854H9.7142Z" fill="#D9D9D9"/>
<path d="M3.39624 11.1592C4.43523 11.2649 5.24585 12.1431 5.24585 13.21V13.2227L5.23608 13.4082L5.23511 13.4199C5.12942 14.4592 4.25222 15.2704 3.1853 15.2705H3.17261V15.2686L2.98804 15.2607H2.97437V15.2598C1.93532 15.1539 1.12492 14.2767 1.12476 13.21V13.1982L1.13354 13.0127L1.13452 12.999L1.16089 12.8203C1.33012 11.9356 2.06494 11.2529 2.97437 11.1602L2.98706 11.1582L3.17261 11.1494L3.1853 11.1484L3.39624 11.1592ZM13.0251 11.1592C14.0645 11.2646 14.8757 12.1429 14.8757 13.21V13.2227L14.866 13.4082L14.865 13.4199C14.7593 14.4593 13.8812 15.2705 12.8142 15.2705H12.8025V15.2695L12.6179 15.2607H12.6042V15.2598C11.5649 15.1541 10.7548 14.2768 10.7546 13.21V13.1982L10.7634 13.0127L10.7644 12.999L10.7908 12.8203C10.96 11.9355 11.6946 11.2527 12.6042 11.1602L12.6169 11.1582L12.8015 11.1494L12.8142 11.1484L13.0251 11.1592ZM9.72632 12.4355L9.79761 12.4395H9.81128L9.78589 12.6846L9.81128 12.4404C10.2905 12.4891 10.6637 12.8933 10.6638 13.3848C10.6638 13.8763 10.2905 14.2814 9.81128 14.3301L9.79761 14.3311L9.72632 14.334L9.7146 14.335V14.334H6.28589C5.76161 14.3338 5.33667 13.9091 5.33667 13.3848L5.34155 13.2881C5.39005 12.8093 5.7943 12.4357 6.28589 12.4355H9.72632ZM3.07007 12.6514C2.81091 12.7047 2.61597 12.9349 2.61597 13.21L2.62769 13.3242C2.68071 13.5836 2.91012 13.7792 3.1853 13.7793L3.29956 13.7676C3.55929 13.7146 3.75448 13.485 3.75464 13.21L3.74292 13.0947C3.68962 12.8354 3.46026 12.6398 3.1853 12.6396L3.07007 12.6514ZM12.8142 12.6396C12.5002 12.64 12.2458 12.8955 12.2458 13.21L12.2576 13.3242C12.3106 13.5835 12.5393 13.778 12.8142 13.7783C13.1288 13.7783 13.3843 13.5241 13.3845 13.21L13.3728 13.0947C13.3195 12.8353 13.0893 12.6396 12.8142 12.6396ZM6.28687 1.79297C6.66178 1.52476 7.17697 1.56438 7.50757 1.8877L7.50952 1.88965L7.50757 1.88867C7.50938 1.89044 7.51163 1.89176 7.51343 1.89355H7.5144L7.52319 1.90137L7.53296 1.91016L7.35913 2.0791L7.53296 1.91113L7.58276 1.96289L7.59155 1.97168L12.0964 7.11426L12.1531 7.18555C12.4189 7.55431 12.3864 8.06134 12.0769 8.39355L12.0691 8.40234L12.0173 8.45215L12.0076 8.46191L11.8425 8.27344L12.0066 8.46191L8.6394 11.4121L8.62964 11.4209L8.47437 11.2246L8.62866 11.4209L8.57202 11.4648L8.56323 11.4727L8.41772 11.2686L8.56226 11.4727C8.19219 11.7355 7.68567 11.7006 7.35522 11.3887L7.29175 11.3232L5.27026 9.01562C5.25208 9.00151 5.23327 8.98756 5.21558 8.97168L5.13745 8.89258L2.7439 6.16016C2.39637 5.76338 2.43632 5.16013 2.83276 4.8125L6.21167 1.85156L6.28687 1.79297ZM6.9519 8.57227L8.06519 9.84277L10.5271 7.68652L9.41382 6.41602L6.9519 8.57227Z" stroke="black" stroke-opacity="0.33" stroke-width="0.5" stroke-linecap="round"/>
</svg>
