<svg width="17" height="17" viewBox="0 0 17 17" fill="none" xmlns="http://www.w3.org/2000/svg">
<path fill-rule="evenodd" clip-rule="evenodd" d="M6.9195 2.36218C7.24354 2.08056 7.71368 2.07429 8.04306 2.32444C8.08169 2.35378 8.11838 2.38665 8.15268 2.42301C8.16077 2.43062 8.16875 2.4384 8.17661 2.44636C8.18914 2.45906 8.20138 2.47221 8.21329 2.48581L13.7081 8.758C14.0326 9.12843 13.9954 9.6918 13.6249 10.0163L9.76398 13.3987C10.8313 13.4008 11.8866 13.4027 12.6707 13.4041C13.0401 13.4048 13.339 13.7047 13.3383 14.0741C13.3377 14.4434 13.0377 14.7423 12.6684 14.7417C10.3415 14.7376 5.59741 14.7285 5.27888 14.7252C4.90954 14.7214 4.61325 14.4188 4.6171 14.0495C4.62095 13.6802 4.92348 13.3839 5.29281 13.3877C5.44617 13.3893 6.67601 13.3923 8.16303 13.3955C6.35604 11.3328 4.53244 9.28464 2.72539 7.22193C2.40087 6.85149 2.43809 6.28813 2.80852 5.96361L6.91679 2.36455L6.9195 2.36218ZM8.94294 12.9325L13.0373 9.34559L11.5866 7.68963L7.49223 11.2766L8.94294 12.9325Z" fill="#D9D9D9"/>
<path d="M6.83545 2.11035C7.24504 1.81338 7.79837 1.82495 8.19385 2.125L8.26611 2.18555C8.28588 2.2033 8.30503 2.22189 8.32373 2.24121L8.35498 2.27051L8.40088 2.32129L13.896 8.59277L13.9683 8.68457C14.2816 9.12475 14.2419 9.7278 13.8735 10.123L13.7896 10.2041L10.4272 13.1494C11.2595 13.151 12.0505 13.1532 12.6714 13.1543L12.7651 13.1592C13.2282 13.2071 13.5891 13.5987 13.5884 14.0742L13.5835 14.1689C13.5386 14.6009 13.1944 14.944 12.7622 14.9873L12.6675 14.9912L5.27588 14.9756C4.76866 14.9701 4.36141 14.5541 4.3667 14.0469L4.37256 13.9531C4.42437 13.4903 4.81968 13.1327 5.29541 13.1377L7.60791 13.1436C6.82598 12.2528 6.04231 11.3634 5.25732 10.4746L2.5376 7.38672C2.1221 6.91243 2.16976 6.19089 2.64404 5.77539L6.75244 2.17676V2.17578L6.75537 2.17383L6.83545 2.11035ZM7.84521 11.2988L8.96533 12.5791L12.6841 9.32227L11.563 8.04199L7.84521 11.2988Z" stroke="black" stroke-opacity="0.33" stroke-width="0.5" stroke-linecap="round"/>
</svg>
