<svg width="17" height="17" viewBox="0 0 17 17" fill="none" xmlns="http://www.w3.org/2000/svg">
<path d="M7.36263 5.06445C7.71112 5.06445 7.99363 5.34696 7.99363 5.69546V6.95746H9.25564C9.60413 6.95746 9.88664 7.23997 9.88664 7.58846C9.88664 7.93695 9.60413 8.21946 9.25564 8.21946H7.99363V9.48147C7.99363 9.82996 7.71112 10.1125 7.36263 10.1125C7.01414 10.1125 6.73163 9.82996 6.73163 9.48147V8.21946H5.46963C5.12113 8.21946 4.83862 7.93695 4.83862 7.58846C4.83862 7.23997 5.12113 6.95746 5.46963 6.95746H6.73163V5.69546C6.73163 5.34696 7.01414 5.06445 7.36263 5.06445Z" fill="#D9D9D9"/>
<path fill-rule="evenodd" clip-rule="evenodd" d="M2.3147 7.58854C2.3147 4.80519 4.57936 2.54053 7.36271 2.54053C10.1461 2.54053 12.4107 4.80519 12.4107 7.58854C12.4105 8.70885 12.0353 9.79684 11.345 10.6792L13.6727 13.007C13.9191 13.2533 13.9191 13.6528 13.6727 13.8992C13.4264 14.1456 13.0269 14.1456 12.7805 13.8992L10.4527 11.5714C9.57047 12.2614 8.48273 12.6363 7.36271 12.6366C4.57936 12.6366 2.3147 10.3719 2.3147 7.58854ZM3.5767 7.58854C3.5767 9.67653 5.27473 11.3746 7.36271 11.3746C9.4507 11.3746 11.1487 9.67653 11.1487 7.58854C11.1487 5.50056 9.4507 3.80253 7.36271 3.80253C5.27473 3.80253 3.5767 5.50056 3.5767 7.58854Z" fill="#D9D9D9"/>
<path d="M7.36255 2.29053C10.2839 2.29053 12.6603 4.66703 12.6604 7.58838L12.6565 7.80908C12.6134 8.83306 12.271 9.82171 11.6741 10.6548L13.8499 12.8306C14.1934 13.1745 14.1934 13.7318 13.8499 14.0757C13.5272 14.3983 13.0162 14.4188 12.6702 14.1362L12.6038 14.0757L10.428 11.9009C9.5951 12.4973 8.60678 12.8393 7.58325 12.8823L7.36255 12.8862C4.4412 12.8861 2.0647 10.5097 2.0647 7.58838C2.06479 4.66709 4.44126 2.29062 7.36255 2.29053ZM7.36255 4.05225C5.41277 4.05234 3.82651 5.6386 3.82642 7.58838C3.82642 9.53824 5.41271 11.1244 7.36255 11.1245C9.31246 11.1245 10.8987 9.53829 10.8987 7.58838C10.8986 5.63854 9.31241 4.05225 7.36255 4.05225ZM7.36255 4.81494C7.84911 4.81494 8.24341 5.20924 8.24341 5.6958V6.70752H9.2561C9.74243 6.70777 10.1369 7.10201 10.137 7.58838C10.137 8.07479 9.74245 8.46899 9.2561 8.46924H8.24341V9.48193C8.24316 9.96828 7.84896 10.3628 7.36255 10.3628C6.87618 10.3627 6.48194 9.96826 6.48169 9.48193V8.46924H5.46997C4.98341 8.46924 4.58911 8.07494 4.58911 7.58838C4.58916 7.10185 4.98343 6.70752 5.46997 6.70752H6.48169V5.6958C6.48169 5.20926 6.87602 4.81499 7.36255 4.81494Z" stroke="black" stroke-opacity="0.33" stroke-width="0.5"/>
</svg>
