<svg width="17" height="17" viewBox="0 0 17 17" fill="none" xmlns="http://www.w3.org/2000/svg">
<g clip-path="url(#clip0_74_65)">
<path fill-rule="evenodd" clip-rule="evenodd" d="M2.37245 7.22351C3.56299 8.25315 5.36281 8.12272 6.39245 6.93218C7.4221 5.74164 7.29167 3.94183 6.10113 2.91218C4.91059 1.88254 3.11077 2.01297 2.08113 3.20351C1.05148 4.39405 1.18191 6.19386 2.37245 7.22351ZM3.28826 6.16459C3.89398 6.68845 4.80968 6.62209 5.33354 6.01638C5.8574 5.41066 5.79104 4.49495 5.18532 3.97109C4.5796 3.44723 3.6639 3.51359 3.14004 4.11931C2.61618 4.72503 2.68254 5.64074 3.28826 6.16459Z" fill="#D9D9D9"/>
<path fill-rule="evenodd" clip-rule="evenodd" d="M9.89857 14.0089C11.0891 15.0386 12.8889 14.9081 13.9186 13.7176C14.9482 12.527 14.8178 10.7272 13.6273 9.69758C12.4367 8.66794 10.6369 8.79837 9.60725 9.98891C8.5776 11.1794 8.70803 12.9793 9.89857 14.0089ZM10.8144 12.95C11.4201 13.4739 12.3358 13.4075 12.8597 12.8018C13.3835 12.1961 13.3172 11.2804 12.7114 10.7565C12.1057 10.2326 11.19 10.299 10.6662 10.9047C10.1423 11.5104 10.2087 12.4261 10.8144 12.95Z" fill="#D9D9D9"/>
<path d="M7.73032 7.30393C7.45106 7.03659 7.00795 7.04626 6.74061 7.32552C6.47327 7.60478 6.48293 8.04789 6.76219 8.31523L8.2731 9.76165C8.55237 10.029 8.99548 10.0193 9.26282 9.74006C9.53016 9.4608 9.5205 9.01769 9.24123 8.75035L7.73032 7.30393Z" fill="#D9D9D9"/>
<path d="M6.55957 7.15234C6.92236 6.77337 7.52432 6.76031 7.90332 7.12305L9.41406 8.56934L9.48047 8.64062C9.70772 8.90708 9.76417 9.27053 9.64746 9.58594C10.7906 8.51677 12.5806 8.46197 13.791 9.50879L13.9092 9.61621C15.0552 10.7139 15.185 12.5064 14.209 13.7578L14.1074 13.8809C13.0224 15.1354 11.1516 15.3077 9.8584 14.2988L9.73535 14.1982C8.5256 13.152 8.32135 11.374 9.21289 10.0889C8.88647 10.2676 8.47637 10.2418 8.17383 10.0059L8.10059 9.94238L6.58887 8.49609C6.20999 8.13329 6.19685 7.53131 6.55957 7.15234ZM12.5479 10.9453C12.0779 10.5391 11.3827 10.5622 10.9404 10.9795L10.8555 11.0684C10.422 11.5695 10.4765 12.3272 10.9775 12.7607L11.0752 12.8369C11.573 13.1859 12.2646 13.1084 12.6709 12.6387L12.7461 12.541C13.072 12.0763 13.0264 11.443 12.6367 11.0303L12.5479 10.9453ZM1.99902 2.92188C3.13321 1.7372 5.01008 1.63784 6.26465 2.72266L6.38281 2.83008C7.5294 3.92782 7.65901 5.7211 6.68262 6.97266L6.58203 7.0957C5.497 8.35028 3.62525 8.52254 2.33203 7.51367L2.20898 7.41309C0.914097 6.29319 0.771876 4.33501 1.8916 3.04004L1.99902 2.92188ZM5.02148 4.16016C4.55149 3.75384 3.85632 3.77678 3.41406 4.19434L3.3291 4.2832C2.89576 4.78449 2.95093 5.54211 3.45215 5.97559L3.54883 6.05078C4.04672 6.40016 4.73808 6.3225 5.14453 5.85254L5.21973 5.75586C5.54586 5.29112 5.50011 4.65796 5.11035 4.24512L5.02148 4.16016Z" stroke="black" stroke-opacity="0.33" stroke-width="0.5" stroke-linecap="round"/>
</g>
<defs>
<clipPath id="clip0_74_65">
<rect width="16" height="16" fill="white" transform="translate(0.216797 0.442871)"/>
</clipPath>
</defs>
</svg>
