<svg width="17" height="17" viewBox="0 0 17 17" fill="none" xmlns="http://www.w3.org/2000/svg">
<path d="M12.4396 9.08671C12.7035 9.0127 12.7657 8.66687 12.5441 8.5055L5.37211 3.28227C5.14214 3.11479 4.82256 3.2993 4.85262 3.5822L5.79005 12.405C5.81902 12.6775 6.14962 12.7966 6.34569 12.605L7.96764 11.0203C8.04424 10.9455 8.17084 10.9629 8.22439 11.0556L9.60988 13.4554C9.65518 13.5338 9.75553 13.5607 9.834 13.5154L11.4838 12.5629C11.5623 12.5176 11.5892 12.4173 11.5439 12.3388L10.1584 9.93904C10.1048 9.84629 10.1531 9.72794 10.2562 9.69902L12.4396 9.08671Z" fill="#D9D9D9"/>
<path d="M4.60105 3.51778C4.6204 3.07224 5.13899 2.80375 5.51896 3.0803L12.691 8.30342L12.7587 8.36017C13.0463 8.64183 12.9576 9.13429 12.5897 9.29785L12.5074 9.32729L10.4305 9.9096L11.7606 12.2134C11.8749 12.4113 11.8068 12.6645 11.609 12.779L9.959 13.7316C9.76095 13.846 9.50772 13.7781 9.39338 13.5801L8.0633 11.2763L6.52054 12.7838C6.1751 13.1213 5.59224 12.9116 5.54121 12.4313L4.60388 3.60862L4.60105 3.51778Z" stroke="black" stroke-opacity="0.33" stroke-width="0.5"/>
</svg>
