<svg width="17" height="17" viewBox="0 0 17 17" fill="none" xmlns="http://www.w3.org/2000/svg">
<g clip-path="url(#clip0_1855_14690)">
<path d="M14.2744 12.6274C14.7788 12.6785 15.1719 13.1047 15.1719 13.6226C15.1719 14.1404 14.7788 14.5666 14.2744 14.6177L14.1719 14.6226H2.26074C1.70857 14.6224 1.26074 14.1748 1.26074 13.6226C1.26074 13.0704 1.70857 12.6227 2.26074 12.6226H14.1719L14.2744 12.6274Z" fill="#D9D9D9"/>
<path d="M3.34668 7.44775C3.85081 7.49909 4.24414 7.92519 4.24414 8.44287C4.24414 8.96055 3.85081 9.38666 3.34668 9.43799L3.24414 9.44287H2.26074C1.70857 9.44274 1.26074 8.99507 1.26074 8.44287C1.26074 7.89067 1.70857 7.443 2.26074 7.44287H3.24414L3.34668 7.44775Z" fill="#D9D9D9"/>
<path d="M9.31641 7.44775C9.82088 7.49875 10.2148 7.92495 10.2148 8.44287C10.2148 8.9608 9.82088 9.38699 9.31641 9.43799L9.21484 9.44287H7.21875C6.66658 9.44274 6.21875 8.99507 6.21875 8.44287C6.21875 7.89067 6.66658 7.443 7.21875 7.44287H9.21484L9.31641 7.44775Z" fill="#D9D9D9"/>
<path d="M14.2744 7.44775C14.7787 7.49897 15.1719 7.92511 15.1719 8.44287C15.1719 8.96063 14.7787 9.38677 14.2744 9.43799L14.1719 9.44287H13.1787C12.6267 9.44261 12.1787 8.99499 12.1787 8.44287C12.1787 7.89059 12.6274 7.44287 13.1797 7.44287H14.1729L14.2744 7.44775Z" fill="#D9D9D9"/>
<path d="M14.2744 2.55127C14.7788 2.60238 15.1719 3.02854 15.1719 3.54639C15.1719 4.06423 14.7788 4.4904 14.2744 4.5415L14.1719 4.54639H2.26074C1.70857 4.54625 1.26074 4.09859 1.26074 3.54639C1.26074 2.99418 1.70857 2.54652 2.26074 2.54639H14.1719L14.2744 2.55127Z" fill="#D9D9D9"/>
<path d="M14.1836 12.3726L14.2861 12.3774L14.2998 12.3784L14.416 12.396C14.99 12.5095 15.4219 13.0157 15.4219 13.6226C15.4219 14.2697 14.9307 14.8027 14.2998 14.8667L14.2861 14.8677L14.1836 14.8726H2.26074C1.5706 14.8724 1.01074 14.3129 1.01074 13.6226C1.01074 12.9322 1.5706 12.3727 2.26074 12.3726H14.1836ZM3.25586 7.19287L3.3584 7.19775L3.37207 7.19873L3.48828 7.21631C4.06196 7.32998 4.49414 7.83608 4.49414 8.44287C4.49414 9.04966 4.06196 9.55576 3.48828 9.66943L3.37207 9.68701L3.3584 9.68799L3.25586 9.69287H2.26074C1.5706 9.69271 1.01074 9.1332 1.01074 8.44287C1.01074 7.75254 1.5706 7.19304 2.26074 7.19287H3.25586ZM9.22656 7.19287L9.32812 7.19775L9.3418 7.19873L9.45801 7.21631C10.032 7.32968 10.4648 7.83574 10.4648 8.44287C10.4648 9.09036 9.97255 9.62314 9.3418 9.68701L9.32812 9.68799L9.22656 9.69287H7.21875C6.52861 9.69271 5.96875 9.1332 5.96875 8.44287C5.96875 7.75254 6.52861 7.19304 7.21875 7.19287H9.22656ZM14.1846 7.19287L14.2861 7.19775L14.2998 7.19873L14.416 7.21631C14.9898 7.32989 15.4219 7.83607 15.4219 8.44287C15.4219 9.09001 14.9305 9.6229 14.2998 9.68701L14.2861 9.68799L14.1836 9.69287H13.1787C12.4888 9.69254 11.9287 9.13318 11.9287 8.44287C11.9287 7.7522 12.4896 7.19287 13.1797 7.19287H14.1846ZM14.1836 2.29639L14.2861 2.30127L14.2998 2.30225L14.416 2.31982C14.99 2.43332 15.4219 2.93957 15.4219 3.54639C15.4219 4.19353 14.9307 4.72652 14.2998 4.79053L14.2861 4.7915L14.1836 4.79639H2.26074C1.5706 4.79622 1.01074 4.23672 1.01074 3.54639C1.01074 2.85605 1.5706 2.29655 2.26074 2.29639H14.1836Z" stroke="black" stroke-opacity="0.3" stroke-width="0.5" stroke-linecap="round"/>
</g>
<defs>
<clipPath id="clip0_1855_14690">
<rect width="16" height="16" fill="white" transform="translate(0.216797 0.442871)"/>
</clipPath>
</defs>
</svg>
