<svg width="17" height="17" viewBox="0 0 17 17" fill="none" xmlns="http://www.w3.org/2000/svg">
<mask id="path-1-outside-1_74_25" maskUnits="userSpaceOnUse" x="3.2168" y="2.26514" width="11" height="11" fill="black">
<rect fill="white" x="3.2168" y="2.26514" width="11" height="11"/>
<path fill-rule="evenodd" clip-rule="evenodd" d="M12.1966 8.03802C12.9169 7.5783 13.3946 6.77196 13.3946 5.85405C13.3946 4.42423 12.2355 3.26514 10.8057 3.26514C9.88784 3.26514 9.08152 3.74281 8.6218 4.46312C8.48862 4.44973 8.35351 4.44287 8.2168 4.44287C6.00766 4.44287 4.2168 6.23373 4.2168 8.44287C4.2168 10.652 6.00766 12.4429 8.2168 12.4429C10.4259 12.4429 12.2168 10.652 12.2168 8.44287C12.2168 8.30621 12.2099 8.17115 12.1966 8.03802ZM10.9245 8.44029C10.8851 8.44207 10.8455 8.44297 10.8057 8.44297C9.37589 8.44297 8.2168 7.28387 8.2168 5.85405C8.2168 5.8142 8.2177 5.77455 8.21948 5.73514L8.2168 5.73513C6.72136 5.73513 5.50906 6.94743 5.50906 8.44287C5.50906 9.93831 6.72136 11.1506 8.2168 11.1506C9.71224 11.1506 10.9245 9.93831 10.9245 8.44287L10.9245 8.44029ZM10.8057 4.38449C11.0376 4.38449 11.2256 4.57246 11.2256 4.80432V5.50402H11.9253C12.1571 5.50402 12.3451 5.69199 12.3451 5.92385C12.3451 6.15571 12.1571 6.34367 11.9253 6.34367H11.2256V6.97341C11.2256 7.20527 11.0376 7.39323 10.8057 7.39323C10.5739 7.39323 10.3859 7.20527 10.3859 6.97341V6.34367H9.75617C9.52431 6.34367 9.33634 6.15571 9.33634 5.92385C9.33634 5.69199 9.52431 5.50402 9.75617 5.50402H10.3859V4.80432C10.3859 4.57246 10.5739 4.38449 10.8057 4.38449Z"/>
</mask>
<path fill-rule="evenodd" clip-rule="evenodd" d="M12.1966 8.03802C12.9169 7.5783 13.3946 6.77196 13.3946 5.85405C13.3946 4.42423 12.2355 3.26514 10.8057 3.26514C9.88784 3.26514 9.08152 3.74281 8.6218 4.46312C8.48862 4.44973 8.35351 4.44287 8.2168 4.44287C6.00766 4.44287 4.2168 6.23373 4.2168 8.44287C4.2168 10.652 6.00766 12.4429 8.2168 12.4429C10.4259 12.4429 12.2168 10.652 12.2168 8.44287C12.2168 8.30621 12.2099 8.17115 12.1966 8.03802ZM10.9245 8.44029C10.8851 8.44207 10.8455 8.44297 10.8057 8.44297C9.37589 8.44297 8.2168 7.28387 8.2168 5.85405C8.2168 5.8142 8.2177 5.77455 8.21948 5.73514L8.2168 5.73513C6.72136 5.73513 5.50906 6.94743 5.50906 8.44287C5.50906 9.93831 6.72136 11.1506 8.2168 11.1506C9.71224 11.1506 10.9245 9.93831 10.9245 8.44287L10.9245 8.44029ZM10.8057 4.38449C11.0376 4.38449 11.2256 4.57246 11.2256 4.80432V5.50402H11.9253C12.1571 5.50402 12.3451 5.69199 12.3451 5.92385C12.3451 6.15571 12.1571 6.34367 11.9253 6.34367H11.2256V6.97341C11.2256 7.20527 11.0376 7.39323 10.8057 7.39323C10.5739 7.39323 10.3859 7.20527 10.3859 6.97341V6.34367H9.75617C9.52431 6.34367 9.33634 6.15571 9.33634 5.92385C9.33634 5.69199 9.52431 5.50402 9.75617 5.50402H10.3859V4.80432C10.3859 4.57246 10.5739 4.38449 10.8057 4.38449Z" fill="#D9D9D9"/>
<path d="M10.9245 8.44029L11.4245 8.43955L11.4238 7.91723L10.902 7.9408L10.9245 8.44029ZM8.21948 5.73514L8.71897 5.75772L8.74256 5.23588L8.22019 5.23514L8.21948 5.73514ZM8.2168 5.73513L8.21751 5.23513H8.2168V5.73513ZM10.9245 8.44287H11.4245L11.4245 8.44213L10.9245 8.44287ZM12.1966 8.03802L11.9276 7.61653L11.6683 7.78199L11.6991 8.08802L12.1966 8.03802ZM8.6218 4.46312L8.57178 4.96061L8.8778 4.99138L9.04327 4.73212L8.6218 4.46312ZM11.2256 5.50402H10.7256V6.00402H11.2256V5.50402ZM11.2256 6.34367V5.84367H10.7256V6.34367H11.2256ZM10.3859 6.34367H10.8859V5.84367H10.3859V6.34367ZM10.3859 5.50402V6.00402H10.8859V5.50402H10.3859ZM10.8057 8.94297C10.8531 8.94297 10.9002 8.9419 10.9471 8.93978L10.902 7.9408C10.8701 7.94224 10.838 7.94297 10.8057 7.94297V8.94297ZM7.7168 5.85405C7.7168 7.56001 9.09975 8.94297 10.8057 8.94297V7.94297C9.65204 7.94297 8.7168 7.00773 8.7168 5.85405H7.7168ZM7.71999 5.71256C7.71787 5.75949 7.7168 5.80666 7.7168 5.85405H8.7168C8.7168 5.82173 8.71753 5.78962 8.71897 5.75772L7.71999 5.71256ZM8.21609 6.23513L8.21877 6.23514L8.22019 5.23514L8.21751 5.23514L8.21609 6.23513ZM6.00906 8.44287C6.00906 7.22357 6.9975 6.23513 8.2168 6.23513V5.23513C6.44521 5.23513 5.00906 6.67129 5.00906 8.44287H6.00906ZM8.2168 10.6506C6.9975 10.6506 6.00906 9.66217 6.00906 8.44287H5.00906C5.00906 10.2145 6.44521 11.6506 8.2168 11.6506V10.6506ZM10.4245 8.44287C10.4245 9.66217 9.4361 10.6506 8.2168 10.6506V11.6506C9.98838 11.6506 11.4245 10.2145 11.4245 8.44287H10.4245ZM10.4245 8.44103L10.4245 8.44361L11.4245 8.44213L11.4245 8.43955L10.4245 8.44103ZM12.4655 8.4595C13.3237 7.91183 13.8946 6.94977 13.8946 5.85405H12.8946C12.8946 6.59416 12.5101 7.24478 11.9276 7.61653L12.4655 8.4595ZM13.8946 5.85405C13.8946 4.14809 12.5117 2.76514 10.8057 2.76514V3.76514C11.9594 3.76514 12.8946 4.70038 12.8946 5.85405H13.8946ZM10.8057 2.76514C9.71003 2.76514 8.74801 3.33598 8.20032 4.19413L9.04327 4.73212C9.41504 4.14963 10.0656 3.76514 10.8057 3.76514V2.76514ZM8.67182 3.96563C8.52205 3.95057 8.37024 3.94287 8.2168 3.94287V4.94287C8.33678 4.94287 8.45519 4.94889 8.57178 4.96061L8.67182 3.96563ZM8.2168 3.94287C5.73152 3.94287 3.7168 5.95759 3.7168 8.44287H4.7168C4.7168 6.50987 6.2838 4.94287 8.2168 4.94287V3.94287ZM3.7168 8.44287C3.7168 10.9282 5.73152 12.9429 8.2168 12.9429V11.9429C6.2838 11.9429 4.7168 10.3759 4.7168 8.44287H3.7168ZM8.2168 12.9429C10.7021 12.9429 12.7168 10.9282 12.7168 8.44287H11.7168C11.7168 10.3759 10.1498 11.9429 8.2168 11.9429V12.9429ZM12.7168 8.44287C12.7168 8.28948 12.7091 8.13774 12.6941 7.98801L11.6991 8.08802C11.7108 8.20457 11.7168 8.32294 11.7168 8.44287H12.7168ZM11.7256 4.80432C11.7256 4.29631 11.3137 3.88449 10.8057 3.88449V4.88449C10.7614 4.88449 10.7256 4.8486 10.7256 4.80432H11.7256ZM11.7256 5.50402V4.80432H10.7256V5.50402H11.7256ZM11.9253 5.00402H11.2256V6.00402H11.9253V5.00402ZM12.8451 5.92385C12.8451 5.41584 12.4333 5.00402 11.9253 5.00402V6.00402C11.881 6.00402 11.8451 5.96813 11.8451 5.92385H12.8451ZM11.9253 6.84367C12.4333 6.84367 12.8451 6.43185 12.8451 5.92385H11.8451C11.8451 5.87957 11.881 5.84367 11.9253 5.84367V6.84367ZM11.2256 6.84367H11.9253V5.84367H11.2256V6.84367ZM11.7256 6.97341V6.34367H10.7256V6.97341H11.7256ZM10.8057 7.89323C11.3137 7.89323 11.7256 7.48141 11.7256 6.97341H10.7256C10.7256 6.92913 10.7614 6.89323 10.8057 6.89323V7.89323ZM9.88591 6.97341C9.88591 7.48141 10.2977 7.89323 10.8057 7.89323V6.89323C10.85 6.89323 10.8859 6.92913 10.8859 6.97341H9.88591ZM9.88591 6.34367V6.97341H10.8859V6.34367H9.88591ZM9.75617 6.84367H10.3859V5.84367H9.75617V6.84367ZM8.83634 5.92385C8.83634 6.43185 9.24816 6.84367 9.75617 6.84367V5.84367C9.80045 5.84367 9.83634 5.87957 9.83634 5.92385H8.83634ZM9.75617 5.00402C9.24816 5.00402 8.83634 5.41584 8.83634 5.92385H9.83634C9.83634 5.96813 9.80045 6.00402 9.75617 6.00402V5.00402ZM10.3859 5.00402H9.75617V6.00402H10.3859V5.00402ZM9.88591 4.80432V5.50402H10.8859V4.80432H9.88591ZM10.8057 3.88449C10.2977 3.88449 9.88591 4.29631 9.88591 4.80432H10.8859C10.8859 4.8486 10.85 4.88449 10.8057 4.88449V3.88449Z" fill="black" fill-opacity="0.33" mask="url(#path-1-outside-1_74_25)"/>
</svg>
