<svg width="17" height="17" viewBox="0 0 17 17" fill="none" xmlns="http://www.w3.org/2000/svg">
<g clip-path="url(#clip0_629_7347)">
<path fill-rule="evenodd" clip-rule="evenodd" d="M1.24072 3.10729C1.24072 2.20177 1.97568 1.4668 2.88243 1.4668H13.5511C14.4579 1.4668 15.1929 2.20177 15.1929 3.10729V13.7772C15.1929 14.684 14.4579 15.4189 13.5511 15.4189H2.88243C1.97568 15.4189 1.24072 14.684 1.24072 13.7772V3.10729ZM4.82231 3.10729C3.75115 3.10729 2.88243 3.97599 2.88243 5.04716C2.88243 5.52078 3.05177 5.95514 3.33398 6.29133C3.18183 6.63612 3.06526 6.99808 2.98919 7.37599C2.9352 7.63857 3.10448 7.89501 3.36705 7.94777C3.62963 8.00054 3.88609 7.83121 3.93885 7.56864C3.98793 7.32692 4.05789 7.09257 4.14501 6.8668C4.35605 6.9441 4.58428 6.98704 4.82231 6.98704C5.89348 6.98704 6.7622 6.11955 6.7622 5.04716C6.7622 4.80912 6.71922 4.5809 6.6407 4.37108C6.86646 4.28274 7.10082 4.21404 7.34376 4.16496C7.60634 4.11097 7.77567 3.85575 7.72169 3.59317C7.66892 3.3306 7.41246 3.16127 7.14989 3.21404C6.7732 3.29134 6.41 3.40667 6.06644 3.55881C5.72902 3.2766 5.29593 3.10729 4.82231 3.10729ZM11.6113 3.10729C11.1389 3.10729 10.7045 3.2766 10.3683 3.55881C10.0235 3.40667 9.66033 3.29134 9.28365 3.21404C9.02107 3.16127 8.76461 3.3306 8.71185 3.59317C8.65786 3.85575 8.82842 4.11097 9.08977 4.16496C9.33272 4.21404 9.56707 4.28274 9.79284 4.37108C9.71431 4.5809 9.6714 4.80912 9.6714 5.04716C9.6714 6.11955 10.5401 6.98704 11.6113 6.98704C11.8493 6.98704 12.0775 6.9441 12.2886 6.86557C12.3757 7.09257 12.4456 7.32692 12.4947 7.56864C12.5474 7.83121 12.8039 8.00054 13.0665 7.94777C13.3291 7.89501 13.4984 7.63857 13.4456 7.37599C13.3683 6.99808 13.2517 6.63612 13.1008 6.29133C13.3818 5.95514 13.5511 5.52078 13.5511 5.04716C13.5511 3.97599 12.6837 3.10729 11.6113 3.10729ZM8.70208 6.98704C8.70208 6.71956 8.48488 6.50237 8.2174 6.50237C7.94868 6.50237 7.73151 6.71956 7.73151 6.98704V7.95759H6.7622C6.49349 7.95759 6.27631 8.17477 6.27631 8.44226C6.27631 8.70974 6.49349 8.92691 6.7622 8.92691H7.73151V9.89747C7.73151 10.165 7.94868 10.3821 8.2174 10.3821C8.48488 10.3821 8.70208 10.165 8.70208 9.89747V8.92691H9.6714C9.94011 8.92691 10.1573 8.70974 10.1573 8.44226C10.1573 8.17477 9.94011 7.95759 9.6714 7.95759H8.70208V6.98704ZM3.93885 9.31588C3.88609 9.0533 3.62963 8.88398 3.36705 8.93674C3.10448 8.99073 2.9352 9.24593 2.98919 9.50851C3.06526 9.88642 3.18183 10.2496 3.33398 10.5932C3.05177 10.9294 2.88243 11.3637 2.88243 11.8374C2.88243 12.9085 3.75115 13.7772 4.82231 13.7772C5.29593 13.7772 5.72902 13.6079 6.06644 13.3257C6.41 13.4778 6.7732 13.5944 7.14989 13.6705C7.41246 13.7232 7.66892 13.5539 7.72169 13.2913C7.77567 13.0288 7.60634 12.7735 7.34376 12.7196C7.10082 12.6705 6.86646 12.6018 6.6407 12.5146C6.71186 12.3232 6.75358 12.1171 6.76094 11.9024C6.76094 11.8815 6.7622 11.8594 6.7622 11.8374C6.7622 10.7662 5.89348 9.89747 4.82231 9.89747C4.80145 9.89747 4.78056 9.89747 4.7597 9.8987C4.54375 9.90483 4.33765 9.94778 4.14501 10.0189C4.05789 9.79317 3.98793 9.55759 3.93885 9.31588ZM13.4456 9.50851C13.4984 9.24593 13.3291 8.99073 13.0665 8.93674C12.8039 8.88398 12.5474 9.0533 12.4947 9.31588C12.4456 9.55759 12.3757 9.79317 12.2886 10.0189C12.0775 9.94041 11.8493 9.89747 11.6113 9.89747C10.5401 9.89747 9.6714 10.7662 9.6714 11.8374C9.6714 11.8545 9.6726 11.8729 9.6726 11.8901C9.67873 12.1097 9.72044 12.3196 9.79284 12.5146C9.56707 12.6018 9.33272 12.6705 9.08977 12.7196C8.82842 12.7735 8.65786 13.0288 8.71185 13.2913C8.76461 13.5539 9.02107 13.7232 9.28365 13.6705C9.66033 13.5944 10.0235 13.4778 10.3671 13.3257C10.7045 13.6079 11.1377 13.7772 11.6113 13.7772C12.6837 13.7772 13.5511 12.9085 13.5511 11.8374C13.5511 11.3637 13.3818 10.9306 13.1008 10.5932C13.2517 10.2496 13.3683 9.88642 13.4456 9.50851Z" fill="#D9D9D9"/>
<path d="M13.5513 1.2168C14.5959 1.21688 15.4429 2.06375 15.4429 3.10742V13.7773C15.4428 14.8221 14.596 15.6689 13.5513 15.6689H2.88232C1.83759 15.6689 0.990786 14.8221 0.990723 13.7773V3.10742C0.990723 2.06374 1.83767 1.21685 2.88232 1.2168H13.5513ZM3.4165 9.18066L3.41748 9.18164C3.30527 9.20471 3.22883 9.30234 3.229 9.41113L3.23389 9.45801V9.45898L3.29541 9.72656C3.36397 9.99092 3.45435 10.2469 3.56299 10.4922L3.62549 10.6348L3.52588 10.7539C3.28038 11.0464 3.13243 11.4241 3.13232 11.8369C3.13232 12.77 3.88966 13.5273 4.82275 13.5273C5.23531 13.5272 5.61172 13.3797 5.90576 13.1338L6.02588 13.0342L6.16748 13.0967C6.49464 13.2416 6.84102 13.3533 7.19971 13.4258H7.19873C7.32696 13.4515 7.45169 13.3684 7.47705 13.2422V13.2412L7.48193 13.1943C7.48227 13.0855 7.40576 12.988 7.29346 12.9648V12.9639C7.03696 12.912 6.78885 12.8401 6.55029 12.748L6.31982 12.6592L6.40674 12.4277C6.46857 12.2614 6.50479 12.0813 6.51123 11.8936C6.51135 11.8821 6.511 11.8713 6.51123 11.8633C6.51156 11.8519 6.51221 11.8438 6.51221 11.8369C6.51197 10.9042 5.7555 10.1477 4.82275 10.1475C4.80068 10.1475 4.78623 10.1477 4.77393 10.1484H4.76709C4.58005 10.1538 4.40069 10.1916 4.23193 10.2539L4.00049 10.3389L3.91162 10.1094C3.84271 9.93078 3.78385 9.74575 3.73682 9.55664L3.69385 9.36523C3.66852 9.23918 3.54459 9.15516 3.4165 9.18066ZM13.0161 9.18066C12.9042 9.15881 12.7956 9.22041 12.7534 9.32031L12.7397 9.36523C12.6878 9.62122 12.6139 9.87107 12.522 10.1094L12.4331 10.3398L12.2017 10.2529C12.018 10.1846 11.8186 10.1475 11.6108 10.1475C10.6781 10.1477 9.92163 10.9042 9.92139 11.8369C9.92139 11.8406 9.92106 11.8458 9.92139 11.8555C9.92161 11.8621 9.92224 11.872 9.92236 11.8828L9.93213 12.0254C9.94759 12.1659 9.97969 12.3006 10.0269 12.4277L10.1128 12.6592L9.8833 12.748C9.64447 12.8402 9.39597 12.912 9.13916 12.9639L9.14014 12.9648C9.02836 12.9881 8.95158 13.0859 8.95166 13.1943L8.95654 13.2412V13.2422L8.97119 13.2871C9.01356 13.387 9.12188 13.448 9.23389 13.4258L9.50049 13.3643C9.76451 13.2957 10.0207 13.2054 10.2661 13.0967L10.4077 13.0342L10.5278 13.1338C10.8219 13.3797 11.1983 13.5272 11.6108 13.5273C12.5451 13.5273 13.3013 12.7701 13.3013 11.8369C13.3012 11.4243 13.1537 11.0472 12.9087 10.7529L12.8101 10.6338L12.8716 10.4922C13.0154 10.1647 13.127 9.81828 13.2007 9.45801C13.2255 9.33114 13.1438 9.20789 13.0161 9.18164V9.18066ZM8.21729 6.75195C8.08629 6.75201 7.98193 6.85833 7.98193 6.9873V8.20801H6.76221C6.63116 8.20801 6.52588 8.31337 6.52588 8.44238C6.52595 8.57133 6.6312 8.67676 6.76221 8.67676H7.98193V9.89746C7.98193 10.0264 8.08628 10.1318 8.21729 10.1318C8.34672 10.1318 8.45166 10.0269 8.45166 9.89746V8.67676H9.67139C9.8024 8.67676 9.90765 8.57133 9.90771 8.44238C9.90771 8.31337 9.80243 8.20801 9.67139 8.20801H8.45166V6.9873C8.45166 6.8579 8.34671 6.75195 8.21729 6.75195ZM4.82275 3.35742C3.88975 3.35742 3.13248 4.11391 3.13232 5.04688C3.13232 5.45989 3.28029 5.83829 3.52588 6.13086L3.62549 6.25L3.56299 6.39258C3.41796 6.72126 3.30627 7.06619 3.23389 7.42578V7.42676C3.20797 7.554 3.29036 7.67778 3.4165 7.70312L3.46436 7.70703C3.57413 7.70654 3.67164 7.62976 3.69385 7.51953V7.51855L3.73682 7.32812C3.78389 7.13922 3.84275 6.95485 3.91162 6.77637L4.00049 6.54785L4.23096 6.63184C4.41534 6.69937 4.61497 6.7373 4.82275 6.7373C5.75575 6.73707 6.51221 5.98095 6.51221 5.04688C6.51217 4.83926 6.47478 4.64088 6.40674 4.45898L6.31982 4.22852L6.54932 4.13867C6.78863 4.04503 7.03692 3.97179 7.29346 3.91992L7.33936 3.90625C7.44043 3.86318 7.49975 3.75415 7.47705 3.64355V3.64258C7.4517 3.51639 7.32697 3.43224 7.19873 3.45801L7.19971 3.45898C6.84013 3.5328 6.49403 3.6425 6.16748 3.78711L6.02588 3.85059L5.90576 3.75098C5.61171 3.50504 5.23536 3.35753 4.82275 3.35742ZM11.6108 3.35742C11.1993 3.35753 10.8213 3.50446 10.5288 3.75L10.4097 3.85059L10.2671 3.78711C9.93908 3.6424 9.59247 3.53277 9.23291 3.45898V3.45801C9.10526 3.43327 8.98179 3.51693 8.95654 3.64258V3.64355C8.93073 3.76928 9.01248 3.89342 9.14014 3.91992H9.13916C9.39598 3.9718 9.64472 4.04493 9.88428 4.13867L10.1138 4.22852L10.0269 4.45898C9.95883 4.64085 9.92142 4.83921 9.92139 5.04688C9.92139 5.98095 10.6778 6.73707 11.6108 6.7373C11.8186 6.7373 12.018 6.69919 12.2017 6.63086L12.4331 6.54492L12.522 6.77637C12.6136 7.01516 12.6877 7.26254 12.7397 7.51855V7.51953L12.7534 7.56445C12.7958 7.66455 12.9049 7.72556 13.0171 7.70312L13.062 7.68848C13.162 7.64617 13.2229 7.53788 13.2007 7.42578L13.1382 7.15918C13.0691 6.89461 12.9797 6.63856 12.8716 6.3916L12.8101 6.25L12.9087 6.13086C13.1534 5.83811 13.3013 5.45994 13.3013 5.04688C13.3011 4.1138 12.545 3.35742 11.6108 3.35742Z" stroke="black" stroke-opacity="0.3" stroke-width="0.5"/>
</g>
<defs>
<clipPath id="clip0_629_7347">
<rect width="16" height="16" fill="white" transform="translate(0.216797 0.442871)"/>
</clipPath>
</defs>
</svg>
