<svg width="16" height="17" viewBox="0 0 16 17" fill="none" xmlns="http://www.w3.org/2000/svg">
<g clip-path="url(#clip0_1857_14785)">
<path d="M14.2688 12.3449V13.7994H11.065L11.7923 13.0721L11.065 12.3449H14.2688Z" fill="#D9D9D9"/>
<path d="M4.90166 12.3449L4.17438 13.0721L4.90166 13.7994H1.7312V12.3449H4.90166Z" fill="#D9D9D9"/>
<path fill-rule="evenodd" clip-rule="evenodd" d="M10.8402 13.0721L7.98369 15.9287L5.12715 13.0721L7.15143 11.0475L7.5552 11.2458C7.84137 11.3863 8.17739 11.3819 8.45982 11.234L8.81594 11.0475L10.8402 13.0721ZM6.69107 13.0721L7.98369 14.3641L9.2763 13.0721L7.98369 11.7795L6.69107 13.0721Z" fill="#D9D9D9"/>
<path fill-rule="evenodd" clip-rule="evenodd" d="M6.22402 1.13882C6.51888 0.880626 6.96152 0.901743 7.2316 1.17958C7.23391 1.18167 7.23669 1.18352 7.23897 1.18565L7.291 1.23941L11.9747 6.5856C12.2246 6.87112 12.2132 7.2958 11.96 7.5676L11.9062 7.62006L8.40481 10.6875L8.34584 10.7339C8.04303 10.9491 7.62048 10.9044 7.37034 10.619L5.25372 8.20319C5.20997 8.1715 5.16856 8.13499 5.13146 8.09264L2.64241 5.25111C2.37562 4.94651 2.40633 4.48347 2.71091 4.21664L6.22402 1.13882ZM6.45597 7.90664L7.95564 9.61832L10.9056 7.03433L9.40589 5.32264L6.45597 7.90664Z" fill="#D9D9D9"/>
<path d="M8.94409 10.9194L10.9685 12.9438L11.0974 13.0718L8.11206 16.0571L7.98413 16.186L4.86987 13.0718L4.99878 12.9438L7.02319 10.9194L7.11499 10.8267L7.2312 10.8843L7.6355 11.0825L7.72534 11.1196C7.93791 11.1942 8.17362 11.1786 8.37573 11.0728L8.7312 10.8862L8.85034 10.8247L8.94409 10.9194ZM6.948 13.0718L7.98315 14.1069L9.01929 13.0718L7.98315 12.0356L6.948 13.0718ZM5.34058 12.1626L5.03003 12.4731L4.43042 13.0718L5.03003 13.6704L5.34058 13.981H1.54956V12.1626H5.34058ZM14.4509 12.1626V13.981H10.6257L11.5349 13.0718L10.6257 12.1626H14.4509ZM6.17554 0.945801C6.53784 0.686535 7.03693 0.727898 7.35327 1.04541H7.35425L7.35229 1.04346L7.36304 1.05225L7.36987 1.05908L7.42163 1.11279L7.42749 1.11963L12.1111 6.46533V6.46631L12.1658 6.53467C12.4202 6.88786 12.3889 7.37375 12.0925 7.69189L12.0867 7.69775L12.033 7.75049L12.0261 7.75732L12.0251 7.75635L8.52417 10.8247L8.51733 10.8306L8.45874 10.8765L8.45093 10.8823C8.09659 11.134 7.61119 11.1008 7.29468 10.8022L7.23315 10.7388L5.12573 8.3335C5.10654 8.31877 5.08666 8.30426 5.06812 8.2876L4.99487 8.2124L2.50562 5.37061C2.17281 4.99044 2.21154 4.4125 2.59155 4.07959L6.10425 1.00244L6.17554 0.945801ZM6.71265 7.92334L7.97241 9.36182L10.6492 7.01709L9.38843 5.57861L6.71265 7.92334Z" stroke="black" stroke-opacity="0.3" stroke-width="0.363636"/>
</g>
<defs>
<clipPath id="clip0_1857_14785">
<rect width="16" height="16" fill="white" transform="translate(0 0.442871)"/>
</clipPath>
</defs>
</svg>
