<svg width="16" height="17" viewBox="0 0 16 17" fill="none" xmlns="http://www.w3.org/2000/svg">
<g clip-path="url(#clip0_1857_14866)">
<path d="M7.371 9.67231C8.04661 10.0179 8.87446 9.7504 9.22007 9.07479C9.56568 8.39919 9.29816 7.57133 8.62256 7.22573C7.94696 6.88012 7.1191 7.14763 6.77349 7.82324C6.42788 8.49884 6.6954 9.3267 7.371 9.67231Z" fill="#D9D9D9"/>
<path d="M9.56489 11.6178L8.40053 14.4528L11.6985 15.5858C12.014 15.6942 12.3575 15.5263 12.4659 15.2109C12.5743 14.8954 12.4064 14.5518 12.091 14.4434L10.9818 14.0624C11.1922 13.9462 11.3963 13.8177 11.593 13.6772C12.4521 13.0635 13.1414 12.2419 13.5966 11.2893C14.0517 10.3367 14.2578 9.28413 14.1954 8.23021C14.133 7.17629 13.8043 6.15541 13.24 5.2631C12.7836 4.5414 12.1852 3.9229 11.4834 3.44394C11.2079 3.25591 10.8387 3.36516 10.6782 3.65755C10.5176 3.94994 10.6272 4.31429 10.8983 4.50867C11.423 4.88494 11.872 5.35982 12.2191 5.90872C12.6742 6.62833 12.9393 7.45162 12.9896 8.30155C13.0399 9.15149 12.8737 10.0003 12.5067 10.7685C12.1396 11.5368 11.5837 12.1994 10.8909 12.6943C10.6938 12.835 10.4875 12.9609 10.2738 13.0712L10.6822 12.0767C10.809 11.7681 10.6616 11.4153 10.353 11.2885C10.0445 11.1618 9.69162 11.3092 9.56489 11.6178Z" fill="#D9D9D9"/>
<path d="M6.43509 5.26756L7.59945 2.43258L4.30149 1.29952C3.98603 1.19114 3.64244 1.35901 3.53405 1.67448C3.42567 1.98994 3.59355 2.33353 3.90901 2.44191L5.01815 2.82297C4.80776 2.93913 4.60367 3.06767 4.407 3.20816C3.5479 3.82184 2.85854 4.64343 2.4034 5.59606C1.94826 6.54868 1.74223 7.6012 1.80459 8.65512C1.86695 9.70904 2.19565 10.7299 2.75995 11.6222C3.21635 12.3439 3.81479 12.9624 4.51659 13.4414C4.79211 13.6294 5.16128 13.5202 5.32181 13.2278C5.48234 12.9354 5.3728 12.571 5.10172 12.3767C4.57699 12.0004 4.12798 11.5255 3.78086 10.9766C3.32578 10.257 3.06069 9.43371 3.01041 8.58378C2.96012 7.73384 3.12627 6.88503 3.49332 6.11679C3.86036 5.34854 4.4163 4.68597 5.10912 4.19106C5.30616 4.05031 5.51243 3.92443 5.72621 3.81409L5.31773 4.80865C5.19101 5.1172 5.33841 5.47006 5.64696 5.59678C5.95551 5.72351 6.30837 5.57611 6.43509 5.26756Z" fill="#D9D9D9"/>
<path d="M7.371 9.67231C8.04661 10.0179 8.87446 9.7504 9.22007 9.07479C9.56568 8.39919 9.29816 7.57133 8.62256 7.22573C7.94696 6.88012 7.1191 7.14763 6.77349 7.82324C6.42788 8.49884 6.6954 9.3267 7.371 9.67231Z" fill="#D9D9D9"/>
<path d="M7.83036 2.52793L6.66655 5.36265L6.62957 5.44136C6.43928 5.7978 6.0221 5.97195 5.63476 5.85716L5.55205 5.82801C5.14307 5.66004 4.93443 5.21115 5.05753 4.79623L5.08668 4.71351L5.20061 4.43504C4.56766 4.90078 4.05842 5.51466 3.71929 6.22432L3.59707 6.50184C3.33383 7.15637 3.21827 7.86263 3.26009 8.56937L3.28702 8.87054C3.37316 9.57079 3.61414 10.2444 3.99257 10.8428L4.12007 11.0353C4.42957 11.4761 4.81141 11.8609 5.24777 12.1738L5.37214 12.2802C5.62171 12.534 5.72696 12.9207 5.57968 13.2683L5.54094 13.3483C5.33139 13.7298 4.85181 13.9056 4.45417 13.6951L4.37512 13.6481C3.73653 13.2123 3.18089 12.6646 2.73383 12.0319L2.54813 11.7559C2.03471 10.944 1.70874 10.0295 1.59181 9.07943L1.55453 8.66986C1.49779 7.71076 1.65505 6.75269 2.01228 5.86445L2.17734 5.48818C2.65071 4.49741 3.36817 3.64304 4.26166 3.00478L4.43613 2.88671L3.82747 2.67846C3.40957 2.53475 3.17494 2.09885 3.27327 1.67757L3.29763 1.5935C3.45087 1.14746 3.93699 0.909549 4.38303 1.06279L7.68099 2.19593L7.93176 2.28253L7.83036 2.52793ZM11.6244 3.23805L11.893 3.43138C12.5075 3.89845 13.0366 4.47271 13.4519 5.1294L13.66 5.48377C14.1194 6.32365 14.3887 7.2564 14.4455 8.21545L14.4561 8.62565C14.4522 9.5832 14.2369 10.53 13.8227 11.3971L13.6337 11.7623C13.2339 12.4787 12.7016 13.1129 12.0656 13.6311L11.7383 13.8805C11.6813 13.9213 11.6217 13.9584 11.5634 13.9973L12.1725 14.2068L12.2535 14.2395C12.6464 14.4207 12.8459 14.8737 12.7024 15.2918C12.5587 15.71 12.1225 15.9455 11.701 15.8469L11.617 15.8225L8.319 14.6894L8.06823 14.6028L8.16919 14.3582L9.33345 11.5227C9.51264 11.0864 10.0117 10.8781 10.4479 11.0573L10.5275 11.0947C10.909 11.2989 11.0812 11.7629 10.9133 12.1718L10.799 12.4489C11.3504 12.0431 11.8092 11.5263 12.142 10.9301L12.2807 10.661C12.586 10.0221 12.7456 9.32428 12.7485 8.61868L12.7399 8.31593C12.698 7.6093 12.4999 6.92212 12.1614 6.3033L12.0074 6.04245C11.7187 5.58597 11.356 5.18339 10.9357 4.85031L10.7522 4.71148C10.394 4.45433 10.229 3.95593 10.4591 3.53698L10.5043 3.46359C10.7483 3.11019 11.2392 2.97515 11.6244 3.23805ZM8.7365 7.00291C9.53494 7.41135 9.851 8.38988 9.44271 9.18836L9.35928 9.33215C8.91233 10.0235 8.00597 10.2776 7.25727 9.89456C6.45876 9.48607 6.14257 8.50763 6.55106 7.70912L6.63449 7.56532C7.08155 6.87431 7.98798 6.62002 8.7365 7.00291Z" stroke="black" stroke-opacity="0.3" stroke-width="0.5"/>
</g>
<defs>
<clipPath id="clip0_1857_14866">
<rect width="16" height="16" fill="white" transform="translate(0 0.442871)"/>
</clipPath>
</defs>
</svg>
