<svg width="17" height="17" viewBox="0 0 17 17" fill="none" xmlns="http://www.w3.org/2000/svg">
<path d="M13.0457 2.44043C13.3587 2.44043 13.6325 2.54427 13.8673 2.75194C14.102 2.95962 14.2194 3.21977 14.2194 3.5324C14.2194 3.81377 14.1188 4.15096 13.9176 4.54399C12.4331 7.35319 11.3936 9.03246 10.7989 9.5818C10.3652 9.98822 9.87789 10.1914 9.33688 10.1914C8.77351 10.1914 8.28951 9.98487 7.88488 9.57175C7.48024 9.15863 7.27792 8.66847 7.27792 8.10127C7.27792 7.5296 7.48359 7.05619 7.89494 6.68104L12.1738 2.80219C12.4376 2.56102 12.7282 2.44043 13.0457 2.44043ZM6.94929 9.36742C7.12366 9.70685 7.36175 9.99715 7.66355 10.2383C7.96536 10.4795 8.30181 10.6492 8.67291 10.7475L8.67962 11.2231C8.69751 12.1744 8.408 12.9493 7.8111 13.5477C7.21421 14.1462 6.43511 14.4454 5.47381 14.4454C4.92387 14.4454 4.43651 14.3416 4.01175 14.1339C3.58699 13.9262 3.24607 13.6415 2.98898 13.2798C2.73189 12.918 2.53851 12.5094 2.40885 12.0538C2.27919 11.5983 2.21436 11.107 2.21436 10.58C2.24565 10.6023 2.33731 10.6693 2.48933 10.781C2.64135 10.8926 2.77995 10.992 2.90515 11.0791C3.03034 11.1662 3.16224 11.2477 3.30084 11.3236C3.43945 11.3995 3.54228 11.4375 3.60935 11.4375C3.79267 11.4375 3.91562 11.3549 3.97822 11.1896C4.09 10.8948 4.21854 10.6436 4.36385 10.436C4.50917 10.2283 4.66454 10.0586 4.82997 9.92681C4.9954 9.79506 5.19213 9.68899 5.42016 9.6086C5.64819 9.52821 5.87845 9.47126 6.11095 9.43777C6.34345 9.40427 6.6229 9.38082 6.94929 9.36742Z" fill="#D9D9D9"/>
<path d="M7.17139 9.25293C7.32943 9.56056 7.54525 9.82355 7.81982 10.043L8.03174 10.1953C8.17671 10.2887 8.32918 10.366 8.48975 10.4268L8.73682 10.5059L8.92041 10.5547L8.92334 10.7441L8.9292 11.2188V11.4062C8.90976 12.2713 8.63823 13.0078 8.10596 13.5996L7.98779 13.7246C7.33753 14.3764 6.4916 14.6952 5.47412 14.6953C4.96499 14.6953 4.49818 14.6116 4.07861 14.4385L3.90186 14.3584C3.49963 14.1617 3.16336 13.8986 2.896 13.5693L2.78564 13.4248C2.511 13.0383 2.30538 12.6031 2.16846 12.1221C2.03183 11.642 1.96436 11.1276 1.96436 10.5801V10.0947L2.35986 10.377C2.39327 10.4008 2.48668 10.4685 2.63721 10.5791L3.04834 10.874L3.229 10.9932C3.29122 11.0316 3.35579 11.0686 3.42139 11.1045L3.56885 11.1748C3.60751 11.189 3.61768 11.1875 3.60889 11.1875C3.66274 11.1875 3.68831 11.1756 3.69971 11.168C3.7104 11.1608 3.72811 11.1442 3.74463 11.1006L3.83643 10.876C3.93203 10.6588 4.0391 10.464 4.15869 10.293L4.27881 10.1318C4.40182 9.97739 4.5336 9.84352 4.67432 9.73145L4.82275 9.62402C4.9772 9.5226 5.14941 9.43932 5.3374 9.37305L5.52002 9.31348C5.70341 9.25853 5.88886 9.21735 6.07568 9.19043L6.47412 9.14551C6.61808 9.13343 6.7731 9.124 6.93896 9.11719L7.09912 9.11133L7.17139 9.25293ZM13.0454 2.19043C13.4194 2.19043 13.7524 2.31654 14.0327 2.56445L14.1343 2.66406C14.3556 2.90291 14.4692 3.19596 14.4692 3.53223C14.4692 3.86947 14.3501 4.248 14.1401 4.6582L14.1382 4.66113C13.3948 6.06793 12.7608 7.19562 12.2368 8.04199C11.7181 8.87999 11.2941 9.46309 10.9692 9.76367L10.9702 9.76465C10.4952 10.2098 9.94742 10.4414 9.33643 10.4414C8.783 10.4413 8.29449 10.2612 7.87939 9.9082L7.70654 9.74707C7.25721 9.28831 7.0279 8.73546 7.02783 8.10156C7.02783 7.46179 7.2613 6.92003 7.72607 6.49609H7.72705L12.0054 2.61719L12.1216 2.51953C12.3969 2.30515 12.7063 2.19049 13.0454 2.19043Z" stroke="black" stroke-opacity="0.33" stroke-width="0.5"/>
</svg>
