<svg width="16" height="17" viewBox="0 0 16 17" fill="none" xmlns="http://www.w3.org/2000/svg">
<mask id="path-1-outside-1_1860_12231" maskUnits="userSpaceOnUse" x="1.23535" y="1.67822" width="14" height="14" fill="black">
<rect fill="white" x="1.23535" y="1.67822" width="14" height="14"/>
<path d="M11.8584 2.67822C12.1088 2.67823 12.3566 2.72791 12.5879 2.82373C12.8191 2.91953 13.0291 3.05985 13.2061 3.23682C13.3831 3.41381 13.5243 3.62372 13.6201 3.85498C13.7159 4.08616 13.7646 4.33424 13.7646 4.58447C13.7646 4.83486 13.7159 5.08362 13.6201 5.31494C13.5243 5.54618 13.3831 5.75612 13.2061 5.93311L12.2324 6.90771C12.4029 7.26247 12.4586 7.66132 12.3926 8.04932C12.3264 8.43753 12.1418 8.79629 11.8633 9.07471L11.4092 9.52783C11.1708 9.76611 10.8468 9.8999 10.5098 9.8999C10.1729 9.89981 9.84959 9.76602 9.61133 9.52783L5.49023 13.6489C5.31323 13.826 5.10335 13.9671 4.87207 14.063C4.64069 14.1588 4.39205 14.2075 4.1416 14.2075H2.99805C2.79594 14.2075 2.60197 14.1277 2.45898 13.9849C2.31597 13.8418 2.23535 13.6471 2.23535 13.4448V12.3013C2.23542 12.0509 2.28498 11.8031 2.38086 11.5718C2.47682 11.3404 2.61769 11.1297 2.79492 10.9526L6.91504 6.83154C6.67685 6.59321 6.54297 6.27006 6.54297 5.93311C6.54298 5.59614 6.67684 5.273 6.91504 5.03467L7.36914 4.58057C7.64744 4.30208 8.00545 4.11653 8.39355 4.05029C8.78173 3.98407 9.18118 4.04092 9.53613 4.21143L10.5098 3.23682C10.6868 3.05975 10.8976 2.91956 11.1289 2.82373C11.3602 2.72792 11.608 2.67822 11.8584 2.67822ZM4.85742 10.687H6.65527L8.71289 8.62939L7.81445 7.72998L4.85742 10.687Z"/>
</mask>
<path d="M11.8584 2.67822C12.1088 2.67823 12.3566 2.72791 12.5879 2.82373C12.8191 2.91953 13.0291 3.05985 13.2061 3.23682C13.3831 3.41381 13.5243 3.62372 13.6201 3.85498C13.7159 4.08616 13.7646 4.33424 13.7646 4.58447C13.7646 4.83486 13.7159 5.08362 13.6201 5.31494C13.5243 5.54618 13.3831 5.75612 13.2061 5.93311L12.2324 6.90771C12.4029 7.26247 12.4586 7.66132 12.3926 8.04932C12.3264 8.43753 12.1418 8.79629 11.8633 9.07471L11.4092 9.52783C11.1708 9.76611 10.8468 9.8999 10.5098 9.8999C10.1729 9.89981 9.84959 9.76602 9.61133 9.52783L5.49023 13.6489C5.31323 13.826 5.10335 13.9671 4.87207 14.063C4.64069 14.1588 4.39205 14.2075 4.1416 14.2075H2.99805C2.79594 14.2075 2.60197 14.1277 2.45898 13.9849C2.31597 13.8418 2.23535 13.6471 2.23535 13.4448V12.3013C2.23542 12.0509 2.28498 11.8031 2.38086 11.5718C2.47682 11.3404 2.61769 11.1297 2.79492 10.9526L6.91504 6.83154C6.67685 6.59321 6.54297 6.27006 6.54297 5.93311C6.54298 5.59614 6.67684 5.273 6.91504 5.03467L7.36914 4.58057C7.64744 4.30208 8.00545 4.11653 8.39355 4.05029C8.78173 3.98407 9.18118 4.04092 9.53613 4.21143L10.5098 3.23682C10.6868 3.05975 10.8976 2.91956 11.1289 2.82373C11.3602 2.72792 11.608 2.67822 11.8584 2.67822ZM4.85742 10.687H6.65527L8.71289 8.62939L7.81445 7.72998L4.85742 10.687Z" fill="#D9D9D9"/>
<path d="M11.8584 2.67822L11.8584 2.17822H11.8584V2.67822ZM12.5879 2.82373L12.7793 2.36181L12.7793 2.3618L12.5879 2.82373ZM13.2061 3.23682L12.8525 3.59039L12.8525 3.5904L13.2061 3.23682ZM13.6201 3.85498L14.082 3.66362L14.082 3.66358L13.6201 3.85498ZM13.7646 4.58447H14.2646V4.58435L13.7646 4.58447ZM13.6201 5.31494L14.082 5.50636L14.082 5.5063L13.6201 5.31494ZM13.2061 5.93311L12.8525 5.57952L12.8523 5.57973L13.2061 5.93311ZM12.2324 6.90771L11.8787 6.55434L11.6283 6.80494L11.7817 7.12424L12.2324 6.90771ZM12.3926 8.04932L12.8855 8.1333L12.8855 8.13322L12.3926 8.04932ZM11.8633 9.07471L12.2165 9.42864L12.2168 9.42833L11.8633 9.07471ZM11.4092 9.52783L11.056 9.1739L11.0557 9.17423L11.4092 9.52783ZM10.5098 9.8999L10.5096 10.3999H10.5098V9.8999ZM9.61133 9.52783L9.96483 9.17423L9.61127 8.82078L9.25777 9.17428L9.61133 9.52783ZM5.49023 13.6489L5.13668 13.2954L5.13663 13.2954L5.49023 13.6489ZM4.87207 14.063L5.06342 14.5249L5.06349 14.5249L4.87207 14.063ZM4.1416 14.2075L4.14166 13.7075H4.1416V14.2075ZM2.45898 13.9849L2.10543 14.3384L2.10563 14.3386L2.45898 13.9849ZM2.23535 12.3013L1.73535 12.3011V12.3013H2.23535ZM2.38086 11.5718L1.919 11.3802L1.91898 11.3803L2.38086 11.5718ZM2.79492 10.9526L3.14826 11.3064L3.14852 11.3061L2.79492 10.9526ZM6.91504 6.83154L7.26863 7.18505L7.622 6.83161L7.2687 6.4781L6.91504 6.83154ZM6.54297 5.93311L6.04297 5.93309V5.93311H6.54297ZM6.91504 5.03467L6.56149 4.68111L6.56139 4.68121L6.91504 5.03467ZM7.36914 4.58057L7.72269 4.93412L7.72281 4.93401L7.36914 4.58057ZM8.39355 4.05029L8.30947 3.55741L8.30943 3.55742L8.39355 4.05029ZM9.53613 4.21143L9.31963 4.66212L9.63926 4.81566L9.88986 4.5648L9.53613 4.21143ZM10.5098 3.23682L10.1562 2.88329L10.156 2.88344L10.5098 3.23682ZM11.1289 2.82373L10.9376 2.36179L10.9375 2.3618L11.1289 2.82373ZM4.85742 10.687L4.50387 10.3335L3.65032 11.187H4.85742V10.687ZM6.65527 10.687V11.187H6.86238L7.00883 11.0406L6.65527 10.687ZM8.71289 8.62939L9.06644 8.98295L9.41981 8.62959L9.06664 8.27603L8.71289 8.62939ZM7.81445 7.72998L8.1682 7.37662L7.81465 7.02268L7.4609 7.37643L7.81445 7.72998ZM11.8584 2.67822L11.8584 3.17822C12.0426 3.17823 12.2254 3.21478 12.3965 3.28566L12.5879 2.82373L12.7793 2.3618C12.4877 2.24104 12.1749 2.17824 11.8584 2.17822L11.8584 2.67822ZM12.5879 2.82373L12.3965 3.28566C12.5671 3.35631 12.7219 3.45981 12.8525 3.59039L13.2061 3.23682L13.5596 2.88324C13.3362 2.65989 13.0712 2.48274 12.7793 2.36181L12.5879 2.82373ZM13.2061 3.23682L12.8525 3.5904C12.9839 3.72171 13.0879 3.87674 13.1582 4.04639L13.6201 3.85498L14.082 3.66358C13.9607 3.37071 13.7823 3.10591 13.5596 2.88323L13.2061 3.23682ZM13.6201 3.85498L13.1582 4.04634C13.2285 4.21606 13.2646 4.39907 13.2646 4.58459L13.7646 4.58447L14.2646 4.58435C14.2646 4.26941 14.2033 3.95627 14.082 3.66362L13.6201 3.85498ZM13.7646 4.58447H13.2646C13.2646 4.77025 13.2285 4.95389 13.1582 5.12358L13.6201 5.31494L14.082 5.5063C14.2034 5.21334 14.2646 4.89948 14.2646 4.58447H13.7646ZM13.6201 5.31494L13.1582 5.12352C13.0879 5.29317 12.9838 5.44823 12.8525 5.57952L13.2061 5.93311L13.5596 6.28669C13.7823 6.06402 13.9607 5.79919 14.082 5.50636L13.6201 5.31494ZM13.2061 5.93311L12.8523 5.57973L11.8787 6.55434L12.2324 6.90771L12.5862 7.26109L13.5598 6.28648L13.2061 5.93311ZM12.2324 6.90771L11.7817 7.12424C11.9072 7.38541 11.9484 7.67926 11.8997 7.96541L12.3926 8.04932L12.8855 8.13322C12.9689 7.64338 12.8985 7.13954 12.6831 6.69119L12.2324 6.90771ZM12.3926 8.04932L11.8997 7.96534C11.8508 8.25207 11.7145 8.51642 11.5098 8.72109L11.8633 9.07471L12.2168 9.42833C12.5691 9.07617 12.802 8.62299 12.8855 8.1333L12.3926 8.04932ZM11.8633 9.07471L11.5101 8.72077L11.056 9.1739L11.4092 9.52783L11.7624 9.88177L12.2165 9.42864L11.8633 9.07471ZM11.4092 9.52783L11.0557 9.17423C10.9114 9.31848 10.7146 9.3999 10.5098 9.3999V9.8999V10.3999C10.979 10.3999 11.4303 10.2137 11.7627 9.88144L11.4092 9.52783ZM10.5098 9.8999L10.5099 9.3999C10.3054 9.39985 10.1093 9.31861 9.96483 9.17423L9.61133 9.52783L9.25783 9.88144C9.58992 10.2134 10.0403 10.3998 10.5096 10.3999L10.5098 9.8999ZM9.61133 9.52783L9.25777 9.17428L5.13668 13.2954L5.49023 13.6489L5.84379 14.0025L9.96488 9.88139L9.61133 9.52783ZM5.49023 13.6489L5.13663 13.2954C5.00534 13.4268 4.85036 13.5308 4.68065 13.6011L4.87207 14.063L5.06349 14.5249C5.35634 14.4035 5.62113 14.2252 5.84384 14.0024L5.49023 13.6489ZM4.87207 14.063L4.68072 13.6011C4.51092 13.6714 4.3274 13.7075 4.14166 13.7075L4.1416 14.2075L4.14154 14.7075C4.4567 14.7076 4.77046 14.6463 5.06342 14.5249L4.87207 14.063ZM4.1416 14.2075V13.7075H2.99805V14.2075V14.7075H4.1416V14.2075ZM2.99805 14.2075V13.7075C2.92769 13.7075 2.86104 13.6798 2.81234 13.6311L2.45898 13.9849L2.10563 14.3386C2.3429 14.5756 2.66419 14.7075 2.99805 14.7075V14.2075ZM2.45898 13.9849L2.81254 13.6313C2.76336 13.5821 2.73535 13.5146 2.73535 13.4448H2.23535H1.73535C1.73535 13.7796 1.86858 14.1016 2.10543 14.3384L2.45898 13.9849ZM2.23535 13.4448H2.73535V12.3013H2.23535H1.73535V13.4448H2.23535ZM2.23535 12.3013L2.73535 12.3014C2.7354 12.1169 2.77191 11.9341 2.84274 11.7633L2.38086 11.5718L1.91898 11.3803C1.79804 11.672 1.73544 11.9849 1.73535 12.3011L2.23535 12.3013ZM2.38086 11.5718L2.84272 11.7633C2.91355 11.5925 3.01758 11.4369 3.14826 11.3064L2.79492 10.9526L2.44159 10.5989C2.21779 10.8224 2.04008 11.0883 1.919 11.3802L2.38086 11.5718ZM2.79492 10.9526L3.14852 11.3061L7.26863 7.18505L6.91504 6.83154L6.56144 6.47803L2.44133 10.5991L2.79492 10.9526ZM6.91504 6.83154L7.2687 6.4781C7.12415 6.33346 7.04297 6.13742 7.04297 5.93311H6.54297H6.04297C6.04297 6.4027 6.22955 6.85296 6.56138 7.18499L6.91504 6.83154ZM6.54297 5.93311L7.04297 5.93312C7.04297 5.72877 7.12415 5.53274 7.26869 5.38813L6.91504 5.03467L6.56139 4.68121C6.22952 5.01326 6.04298 5.46352 6.04297 5.93309L6.54297 5.93311ZM6.91504 5.03467L7.26859 5.38822L7.72269 4.93412L7.36914 4.58057L7.01559 4.22701L6.56149 4.68111L6.91504 5.03467ZM7.36914 4.58057L7.72281 4.93401C7.92808 4.7286 8.19198 4.59193 8.47768 4.54317L8.39355 4.05029L8.30943 3.55742C7.81893 3.64114 7.36681 3.87556 7.01547 4.22713L7.36914 4.58057ZM8.39355 4.05029L8.47764 4.54317C8.76298 4.4945 9.05745 4.53618 9.31963 4.66212L9.53613 4.21143L9.75263 3.76073C9.30491 3.54566 8.80048 3.47365 8.30947 3.55741L8.39355 4.05029ZM9.53613 4.21143L9.88986 4.5648L10.8635 3.59019L10.5098 3.23682L10.156 2.88344L9.1824 3.85805L9.53613 4.21143ZM10.5098 3.23682L10.8633 3.59034C10.9934 3.46024 11.1489 3.35665 11.3203 3.28566L11.1289 2.82373L10.9375 2.3618C10.6463 2.48247 10.3802 2.65925 10.1562 2.88329L10.5098 3.23682ZM11.1289 2.82373L11.3202 3.28567C11.4914 3.21478 11.6742 3.17822 11.8584 3.17822V2.67822V2.17822C11.5418 2.17822 11.229 2.24106 10.9376 2.36179L11.1289 2.82373ZM4.85742 10.687V11.187H6.65527V10.687V10.187H4.85742V10.687ZM6.65527 10.687L7.00883 11.0406L9.06644 8.98295L8.71289 8.62939L8.35934 8.27584L6.30172 10.3335L6.65527 10.687ZM8.71289 8.62939L9.06664 8.27603L8.1682 7.37662L7.81445 7.72998L7.46071 8.08334L8.35915 8.98276L8.71289 8.62939ZM7.81445 7.72998L7.4609 7.37643L4.50387 10.3335L4.85742 10.687L5.21098 11.0406L8.16801 8.08353L7.81445 7.72998Z" fill="black" fill-opacity="0.3" mask="url(#path-1-outside-1_1860_12231)"/>
</svg>
