<svg width="17" height="17" viewBox="0 0 17 17" fill="none" xmlns="http://www.w3.org/2000/svg">
<path d="M5.14166 6.56825C5.07871 6.53191 5.05355 6.45378 5.08344 6.38753L7.30048 1.47492C7.3368 1.39443 7.43718 1.36652 7.50984 1.41671L9.75612 2.96837C9.79744 2.99691 9.82053 3.04522 9.8168 3.09529L9.74134 4.10783C9.73395 4.20705 9.82857 4.28271 9.92373 4.25366L11.0472 3.91072C11.0894 3.89784 11.1352 3.90539 11.1711 3.93116L11.6218 4.25513C11.6646 4.28592 11.6867 4.33798 11.6792 4.39019L11.5246 5.46335C11.5064 5.58976 11.6517 5.67369 11.7521 5.59471L12.605 4.92357C12.646 4.8913 12.7015 4.88422 12.7493 4.90517L13.6753 5.31087C13.7608 5.34833 13.7872 5.45686 13.7285 5.52944L10.4979 9.52278C10.4541 9.57691 10.3774 9.59113 10.3172 9.55632L5.14166 6.56825Z" fill="#D9D9D9"/>
<path fill-rule="evenodd" clip-rule="evenodd" d="M4.14399 8.6061C3.87332 8.44983 3.78058 8.10372 3.93685 7.83305L4.14907 7.46547C4.30535 7.1948 4.65145 7.10206 4.92213 7.25833L9.82311 10.0879C10.0938 10.2442 10.1865 10.5903 10.0302 10.861L9.81803 11.2285C9.66175 11.4992 9.31564 11.592 9.04497 11.4357L7.57468 10.5868L5.80602 14.6955C5.71004 14.9185 5.5624 15.1215 5.34938 15.2379C4.05065 15.9473 2.60452 15.1049 2.67614 13.6721C2.6872 13.4508 2.79071 13.2473 2.92825 13.0736L5.73681 9.52571L4.14399 8.6061ZM4.04627 14.4318C4.31695 14.5881 4.66305 14.4954 4.81933 14.2247C4.9756 13.954 4.88286 13.6079 4.61219 13.4516C4.34151 13.2954 3.99541 13.3881 3.83913 13.6588C3.68286 13.9295 3.7756 14.2756 4.04627 14.4318Z" fill="#D9D9D9"/>
<path d="M3.97827 7.27051C4.22018 6.93513 4.68177 6.83078 5.04761 7.04199L9.948 9.87109L10.0183 9.91699C10.3311 10.1427 10.4428 10.5592 10.2849 10.9111L10.2468 10.9863L10.0349 11.3535C9.82363 11.7195 9.37116 11.8602 8.9939 11.6904L8.91968 11.6523L7.69312 10.9434L6.03589 14.7939C5.94017 15.0163 5.7912 15.241 5.56909 15.3955L5.46948 15.457C4.74648 15.852 3.96651 15.8216 3.3728 15.4746C2.77739 15.1265 2.38604 14.4688 2.42651 13.6592L2.43726 13.5518C2.47506 13.3056 2.59554 13.0906 2.73218 12.918L5.36011 9.59668L4.01929 8.82227C3.62904 8.59696 3.49515 8.09826 3.72046 7.70801L3.93237 7.34082L3.97827 7.27051ZM4.48706 13.668C4.33599 13.5809 4.14262 13.6331 4.05542 13.7842C3.9685 13.9352 4.02066 14.1277 4.17163 14.2148C4.32272 14.302 4.51605 14.2507 4.60327 14.0996C4.6903 13.9485 4.63807 13.7552 4.48706 13.668ZM7.11792 1.2959C7.22344 1.15682 7.41076 1.10465 7.573 1.16895L7.6521 1.21094L9.89819 2.7627L9.97437 2.83105C10.0182 2.88269 10.0477 2.94516 10.0603 3.01172L10.0662 3.11426L10.0027 3.96777L10.9744 3.67188L11.0632 3.65527C11.123 3.65141 11.1827 3.66169 11.238 3.68457L11.3171 3.72852L11.7673 4.05176L11.8455 4.12598C11.8897 4.18146 11.9181 4.24805 11.9275 4.31836L11.9265 4.42578L11.8103 5.23047L12.45 4.72754L12.5417 4.67285C12.6067 4.64578 12.6781 4.63752 12.7478 4.64746L12.8494 4.67578L13.7751 5.08203L13.8562 5.12891C14.0026 5.24005 14.0512 5.44141 13.9724 5.60742L13.9226 5.68652L10.6921 9.67969C10.5861 9.81072 10.4106 9.85765 10.2566 9.80273L10.1921 9.77246L5.01636 6.78516C4.84238 6.68468 4.77287 6.46835 4.85522 6.28516L7.073 1.37207L7.11792 1.2959Z" stroke="black" stroke-opacity="0.33" stroke-width="0.5"/>
</svg>
