<svg width="17" height="17" viewBox="0 0 17 17" fill="none" xmlns="http://www.w3.org/2000/svg">
<path d="M2.48091 8.89858C2.24862 8.66048 2.24633 8.28128 2.47574 8.0404L4.36222 6.0596C4.59772 5.81233 4.98908 5.80278 5.23636 6.03828C5.48363 6.27378 5.49318 6.66514 5.25768 6.91242L4.42396 7.78782H7.71937V4.41093L6.84914 5.25994C6.60472 5.4984 6.21326 5.49356 5.9748 5.24914C5.73634 5.00472 5.74118 4.61327 5.9856 4.37481L7.84627 2.55952C8.08437 2.32723 8.46357 2.32495 8.70445 2.55435L10.6105 4.36964C10.8578 4.60514 10.8673 4.99651 10.6318 5.24378C10.3963 5.49106 10.005 5.5006 9.75769 5.2651L8.95595 4.50154V7.78782H11.491C11.4943 7.78782 11.4977 7.78784 11.501 7.7879H12.0301L11.181 6.9176C10.9425 6.67318 10.9473 6.28172 11.1918 6.04326C11.4362 5.80481 11.8276 5.80964 12.0661 6.05406L13.9526 7.9877C14.1849 8.2258 14.1872 8.605 13.9577 8.84588L12.0713 10.8267C11.8358 11.074 11.4444 11.0835 11.1971 10.848C10.9499 10.6125 10.9403 10.2211 11.1758 9.97386L12.08 9.02448H11.4909C11.4875 9.02448 11.4842 9.02446 11.4809 9.0244H8.95595V11.8651L8.95594 11.8683V12.4041L9.82624 11.555C10.0707 11.3166 10.4621 11.3214 10.7006 11.5658C10.939 11.8102 10.9342 12.2017 10.6898 12.4401L8.75614 14.3266C8.51804 14.5589 8.13884 14.5612 7.89796 14.3318L5.91716 12.4453C5.66989 12.2098 5.66034 11.8184 5.89584 11.5712C6.13134 11.3239 6.5227 11.3143 6.76998 11.5498L7.71936 12.454V11.5694L7.71936 11.5662V9.0244H4.33126L5.25251 9.96868C5.49097 10.2131 5.48614 10.6046 5.24172 10.843C4.9973 11.0815 4.60584 11.0766 4.36738 10.8322L2.48091 8.89858Z" fill="#D9D9D9"/>
<path d="M7.73682 2.32324C8.07195 2.05546 8.55936 2.07137 8.87646 2.37305L10.7827 4.18848L10.8442 4.25293C11.1116 4.56481 11.1224 5.02408 10.8706 5.34863L10.813 5.41602C10.5029 5.74157 10.0006 5.77366 9.65283 5.50391L9.58545 5.44629L9.20557 5.08398V7.53809H11.437L11.0024 7.0918C10.6676 6.74855 10.6739 6.19914 11.0171 5.86426L11.0835 5.80566C11.428 5.53149 11.9306 5.558 12.2446 5.87988L14.1313 7.81348L14.189 7.87793C14.4391 8.19086 14.4422 8.63721 14.1958 8.95312L14.1392 9.01855L12.2524 10.999C11.9218 11.3462 11.3722 11.3598 11.0249 11.0293C10.6777 10.6987 10.6641 10.149 10.9946 9.80176L11.4966 9.27441H9.20557V11.8115L9.65186 11.376L9.71826 11.3174C10.0627 11.0434 10.5654 11.0698 10.8794 11.3916C11.1933 11.7134 11.2067 12.2162 10.9243 12.5537L10.8647 12.6191L8.93115 14.5059C8.61774 14.8116 8.12995 14.8331 7.7915 14.5693L7.7251 14.5127L5.74463 12.626C5.39763 12.2952 5.38377 11.7456 5.71436 11.3984L5.77881 11.3379C6.11297 11.0511 6.61718 11.059 6.94287 11.3691L7.46924 11.8701V9.27441H4.92432L5.43115 9.79395L5.49072 9.86035C5.74641 10.1818 5.74058 10.6419 5.47705 10.957L5.4165 11.0215C5.09469 11.3354 4.591 11.3498 4.25342 11.0674L4.18799 11.0068L2.30225 9.07324C1.97611 8.73895 1.97249 8.20645 2.29443 7.86816L4.18115 5.88672L4.24561 5.82617C4.57976 5.53968 5.0831 5.54733 5.40869 5.85742L5.47021 5.92188C5.73737 6.2338 5.74841 6.6931 5.49658 7.01758L5.43896 7.08496L5.00732 7.53809H7.46924V5.00391L7.02393 5.43848C6.70212 5.75243 6.19842 5.76674 5.86084 5.48438L5.79541 5.42383C5.46077 5.08063 5.46804 4.53113 5.81104 4.19629L7.67139 2.38086L7.73682 2.32324Z" stroke="black" stroke-opacity="0.33" stroke-width="0.5" stroke-linecap="round" stroke-linejoin="round"/>
</svg>
