<svg width="17" height="17" viewBox="0 0 17 17" fill="none" xmlns="http://www.w3.org/2000/svg">
<path d="M11.9053 12.2667C11.675 12.508 11.6839 12.8903 11.9252 13.1206C12.1666 13.3509 12.5489 13.3419 12.7791 13.1006C13.2171 12.6417 13.5839 12.1189 13.8663 11.5509C14.0148 11.2522 13.8931 10.8897 13.5945 10.7412C13.2958 10.5927 12.9333 10.7144 12.7848 11.013C12.5563 11.4724 12.2595 11.8955 11.9053 12.2667Z" fill="#D9D9D9"/>
<path d="M13.3139 8.63854C13.3218 8.97201 13.5986 9.23589 13.932 9.22794C14.2655 9.21999 14.5294 8.94322 14.5214 8.60976C14.514 8.29734 14.4832 7.98187 14.4276 7.6654C14.3721 7.34893 14.2938 7.0418 14.1944 6.7455C14.0884 6.42924 13.7461 6.2588 13.4298 6.36483C13.1136 6.47085 12.9431 6.81318 13.0491 7.12944C13.1294 7.36871 13.1928 7.61727 13.2379 7.8741C13.2829 8.13093 13.3078 8.38626 13.3139 8.63854Z" fill="#D9D9D9"/>
<path d="M11.7435 5.0768C11.9848 5.30708 12.3671 5.29813 12.5974 5.05682C12.8276 4.8155 12.8187 4.4332 12.5774 4.20292C12.1185 3.76501 11.5956 3.39821 11.0277 3.11575C10.729 2.96722 10.3665 3.08893 10.218 3.38759C10.0694 3.68626 10.1911 4.04878 10.4898 4.19731C10.9492 4.42579 11.3723 4.72258 11.7435 5.0768Z" fill="#D9D9D9"/>
<path d="M8.11531 3.66821C8.44877 3.66026 8.71266 3.38349 8.70471 3.05003C8.69676 2.71656 8.41999 2.45268 8.08652 2.46062C7.77411 2.46807 7.45864 2.49891 7.14217 2.55442C6.82569 2.60994 6.51856 2.68831 6.22226 2.78764C5.906 2.89366 5.73557 3.23599 5.84159 3.55225C5.94762 3.86851 6.28994 4.03895 6.60621 3.93292C6.84548 3.85271 7.09404 3.78923 7.35087 3.74418C7.60769 3.69913 7.86302 3.67422 8.11531 3.66821Z" fill="#D9D9D9"/>
<path d="M5.40811 6.68936L5.15359 3.63518L1.70147 4.12841C1.37127 4.17559 1.14183 4.48153 1.18901 4.81173C1.23619 5.14194 1.54212 5.37138 1.87233 5.3242L3.03331 5.15831C2.89891 5.35755 2.77575 5.56493 2.66464 5.77957C2.1793 6.71717 1.93974 7.76256 1.9684 8.81794C1.99705 9.87332 2.29296 10.9042 2.82846 11.8141C3.36396 12.7239 4.12153 13.4831 5.03028 14.0205C5.93904 14.5579 6.96928 14.856 8.02459 14.8869C9.07991 14.9177 10.1258 14.6804 11.0644 14.197L11.0985 14.1793C11.4163 14.0132 11.4787 13.5986 11.2539 13.3192L11.2004 13.2528C11.0358 13.0482 10.7448 13.0029 10.5114 13.1231C9.75443 13.5129 8.91097 13.7044 8.05991 13.6795C7.20885 13.6546 6.37801 13.4142 5.64514 12.9808C4.91227 12.5474 4.30133 11.9352 3.86948 11.2014C3.43763 10.4676 3.19898 9.63628 3.17588 8.78516C3.15277 7.93405 3.34596 7.09099 3.73737 6.33487C3.84868 6.11982 3.975 5.91381 4.11506 5.71822L4.20435 6.78968C4.23205 7.12208 4.52398 7.3691 4.85639 7.3414C5.18879 7.3137 5.43581 7.02177 5.40811 6.68936Z" fill="#D9D9D9"/>
<path d="M8.24035 10.6939C9.27941 10.6939 10.1217 9.85153 10.1217 8.81247C10.1217 7.77342 9.27941 6.93109 8.24035 6.93109C7.20129 6.93109 6.35896 7.77342 6.35896 8.81247C6.35896 9.85153 7.20129 10.6939 8.24035 10.6939Z" fill="#D9D9D9"/>
<path d="M5.40259 3.61475L5.65747 6.66846L5.6604 6.75635C5.65294 7.15998 5.36094 7.50444 4.96411 7.57861L4.8772 7.59033C4.43654 7.62705 4.04635 7.32251 3.96704 6.89697L3.95532 6.81006L3.92993 6.51025C3.57844 7.2133 3.40468 7.99239 3.42603 8.77881L3.4436 9.08057C3.50732 9.78321 3.72609 10.4645 4.08521 11.0747L4.24634 11.3306C4.64194 11.9148 5.16324 12.4047 5.77271 12.7651C6.46916 13.177 7.25885 13.4055 8.06763 13.4292H8.37036C9.07527 13.4051 9.76744 13.2249 10.3967 12.9009L10.5237 12.8481C10.8269 12.7505 11.1782 12.8272 11.3948 13.0962L11.4485 13.1626L11.5022 13.2378C11.7327 13.5982 11.6691 14.0963 11.2981 14.3501L11.2141 14.4009L11.1799 14.4185L11.179 14.4194C10.3247 14.8594 9.38492 15.1036 8.42798 15.1362L8.01685 15.1372C7.05646 15.1091 6.1162 14.8674 5.26294 14.4331L4.90259 14.2358C4.07572 13.7468 3.36905 13.0812 2.83228 12.2886L2.61255 11.9409C2.12526 11.1129 1.8289 10.1883 1.74243 9.23486L1.71802 8.82471C1.68823 7.72706 1.93785 6.63969 2.44263 5.66455L2.54419 5.47998L1.90747 5.57178C1.46992 5.63418 1.06251 5.35303 0.958252 4.93311L0.94165 4.84717C0.874941 4.38028 1.19937 3.94806 1.66626 3.88135L5.11841 3.38721L5.3811 3.3501L5.40259 3.61475ZM12.6038 10.8257C12.8345 10.4596 13.3095 10.3205 13.7053 10.5171L13.7825 10.5601C14.1241 10.7757 14.2678 11.2045 14.1252 11.5825L14.0901 11.6626C13.8332 12.1791 13.5091 12.6597 13.1272 13.0913L12.9602 13.2729C12.655 13.5928 12.1603 13.6245 11.8186 13.3589L11.7522 13.3013C11.4113 12.9756 11.3994 12.4353 11.7249 12.0942L11.967 11.8198C12.1986 11.5374 12.3979 11.2293 12.5608 10.9019L12.6038 10.8257ZM8.24048 6.68115C9.41739 6.68122 10.3711 7.63514 10.3713 8.81201C10.3713 9.9891 9.41755 10.9438 8.24048 10.9438C7.06335 10.9438 6.10864 9.98914 6.10864 8.81201C6.10889 7.63509 7.0635 6.68115 8.24048 6.68115ZM13.4348 6.104C13.8569 6.00878 14.2914 6.24738 14.4319 6.6665L14.5051 6.89893C14.5743 7.13415 14.6308 7.3759 14.6741 7.62256L14.7122 7.86865C14.7459 8.11482 14.7659 8.36036 14.7717 8.604L14.7688 8.69092C14.7377 9.09365 14.4263 9.4206 14.0256 9.47119L13.9377 9.47803C13.4959 9.48843 13.1246 9.16117 13.0706 8.73193L13.0637 8.64404C13.0609 8.52428 13.0532 8.40381 13.0413 8.28271L12.9915 7.91748C12.97 7.79536 12.9443 7.67511 12.9143 7.55713L12.8118 7.2085C12.6622 6.76145 12.9038 6.2773 13.3508 6.12744L13.4348 6.104ZM10.0374 3.19971C10.2684 2.83394 10.7432 2.69528 11.1389 2.89209L11.3586 3.00635C11.8646 3.28221 12.333 3.62377 12.7502 4.02197L12.8098 4.08545C13.0726 4.39254 13.0834 4.84455 12.8352 5.16357L12.7786 5.229C12.4733 5.54888 11.9787 5.58057 11.637 5.31494L11.5706 5.25732C11.3059 5.00478 11.0134 4.78298 10.6995 4.59619L10.3782 4.42139C9.95599 4.21133 9.78439 3.69812 9.99438 3.27588L10.0374 3.19971ZM8.16821 2.21338C8.59962 2.24697 8.94381 2.6025 8.95435 3.04443L8.95239 3.13135C8.92121 3.53423 8.6092 3.86131 8.20825 3.91162L8.12134 3.91846C8.00131 3.92132 7.8804 3.92793 7.75903 3.93994L7.3938 3.99072C7.27163 4.01216 7.15148 4.0379 7.03345 4.06787L6.68579 4.17041C6.26672 4.31088 5.81542 4.10749 5.63696 3.71338L5.60474 3.63135C5.45502 3.18425 5.69574 2.70017 6.14282 2.55029L6.37622 2.47705C6.61128 2.40791 6.8524 2.35134 7.09888 2.30811L7.34497 2.27002C7.59121 2.23628 7.83661 2.21627 8.08032 2.21045L8.16821 2.21338Z" stroke="black" stroke-opacity="0.3" stroke-width="0.5"/>
</svg>
