<svg width="17" height="17" viewBox="0 0 17 17" fill="none" xmlns="http://www.w3.org/2000/svg">
<path d="M13.2598 10.6274C13.8118 10.6277 14.2598 11.0753 14.2598 11.6274V13.6274C14.2598 14.1796 13.8118 14.6272 13.2598 14.6274H11.2598C10.7075 14.6274 10.2598 14.1797 10.2598 13.6274V11.6274C10.2598 11.0752 10.7075 10.6274 11.2598 10.6274H13.2598Z" fill="#D9D9D9"/>
<path d="M4.17676 7.44287C4.69442 7.44287 5.12053 7.83622 5.17188 8.34033L5.17676 8.44287V10.4644C5.17675 11.0166 5.62459 11.4652 6.17676 11.4653H8.20215L8.30371 11.4702C8.80809 11.5213 9.20215 11.9475 9.20215 12.4653C9.2019 12.983 8.80793 13.4084 8.30371 13.4595L8.20215 13.4653H6.17676C4.52001 13.4652 3.17675 12.1211 3.17676 10.4644V8.44287C3.17676 7.89068 3.6246 7.44302 4.17676 7.44287Z" fill="#D9D9D9"/>
<path d="M5.30078 2.47998C5.85295 2.48011 6.30078 2.92875 6.30078 3.48096V5.48096C6.30052 6.03294 5.85279 6.48083 5.30078 6.48096H3.30078C2.74866 6.48096 2.30105 6.03302 2.30078 5.48096V3.48096C2.30078 2.92867 2.7485 2.47998 3.30078 2.47998H5.30078Z" fill="#D9D9D9"/>
<path d="M13.2598 10.3774L13.3877 10.3843C14.0176 10.4486 14.5098 10.9803 14.5098 11.6274V13.6274C14.5098 14.2746 14.0176 14.8063 13.3877 14.8706L13.2598 14.8774H11.2598C10.5694 14.8774 10.0098 14.3178 10.0098 13.6274V11.6274C10.0098 10.9371 10.5694 10.3774 11.2598 10.3774H13.2598ZM5.30078 2.22998L5.42871 2.23682C6.05906 2.30113 6.55078 2.8341 6.55078 3.48096V5.48096L6.54395 5.60889C6.48392 6.19675 6.01669 6.66417 5.42871 6.72412L5.30078 6.73096H3.30078C2.61047 6.73096 2.05111 6.17088 2.05078 5.48096V3.48096C2.05078 2.79092 2.61011 2.22998 3.30078 2.22998H5.30078ZM5.42676 10.4644L5.43066 10.5415C5.4693 10.9197 5.78891 11.2152 6.17676 11.2153H8.21387L8.31543 11.2202L8.3291 11.2212L8.44531 11.2388C9.01917 11.3522 9.45215 11.8582 9.45215 12.4653L9.44629 12.5854C9.38959 13.1774 8.91994 13.6486 8.3291 13.7085L8.31836 13.7095L8.2168 13.7153H6.17676C4.38188 13.7152 2.92675 12.2591 2.92676 10.4644V8.44287L2.93359 8.31494C2.99771 7.68474 3.52984 7.19304 4.17676 7.19287L4.29688 7.19873C4.84936 7.2514 5.29723 7.66338 5.40332 8.19873L5.4209 8.31494L5.42188 8.32861L5.42676 8.43115V10.4644Z" stroke="black" stroke-opacity="0.3" stroke-width="0.5"/>
</svg>
