<svg width="17" height="17" viewBox="0 0 17 17" fill="none" xmlns="http://www.w3.org/2000/svg">
<path d="M13.114 4.41107C12.8849 4.41107 12.6651 4.5021 12.5031 4.66413C12.341 4.82615 12.25 5.04591 12.25 5.27505V7.867H11.674V4.12308C11.674 3.89393 11.583 3.67418 11.421 3.51215C11.2589 3.35012 11.0392 3.25909 10.81 3.25909C10.5809 3.25909 10.3611 3.35012 10.1991 3.51215C10.0371 3.67418 9.94606 3.89393 9.94606 4.12308V7.867H9.37008V3.54709C9.37008 3.31795 9.27905 3.09819 9.11702 2.93616C8.95499 2.77413 8.73524 2.68311 8.50609 2.68311C8.27695 2.68311 8.05719 2.77413 7.89516 2.93616C7.73314 3.09819 7.64211 3.31795 7.64211 3.54709V7.867H7.06612V4.69907C7.06612 4.46992 6.97509 4.25017 6.81307 4.08814C6.65104 3.92611 6.43128 3.83508 6.20214 3.83508C5.973 3.83508 5.75324 3.92611 5.59121 4.08814C5.42918 4.25017 5.33815 4.46992 5.33815 4.69907V10.9255L4.05946 8.85194C3.93878 8.65641 3.74536 8.51682 3.52176 8.4639C3.29816 8.41097 3.0627 8.44903 2.86716 8.56971C2.67163 8.69039 2.53204 8.88381 2.47911 9.10741C2.42618 9.33101 2.46425 9.56647 2.58493 9.76201L4.49145 12.8378C4.74946 13.255 5.10975 13.5993 5.53816 13.8382C5.96656 14.0771 6.44889 14.2026 6.9394 14.2029H11.098C11.8619 14.2029 12.5944 13.8995 13.1345 13.3594C13.6746 12.8193 13.978 12.0867 13.978 11.3229V5.27505C13.978 5.04591 13.887 4.82615 13.7249 4.66413C13.5629 4.5021 13.3431 4.41107 13.114 4.41107Z" fill="#D9D9D9"/>
<path d="M8.50562 2.43311C8.80101 2.43311 9.0848 2.55043 9.2937 2.75928L9.36792 2.84131C9.53024 3.03951 9.61987 3.28893 9.61987 3.54736V7.6167H9.69604V4.12354C9.69604 3.82814 9.81337 3.54435 10.0222 3.33545L10.1042 3.26123C10.3024 3.09891 10.5519 3.00928 10.8103 3.00928C11.1056 3.00934 11.3886 3.12668 11.5974 3.33545L11.6716 3.41748C11.834 3.61568 11.9236 3.8651 11.9236 4.12354V7.6167H11.9998V5.2749C11.9998 4.9797 12.1173 4.69663 12.3259 4.48779L12.408 4.41357C12.6062 4.25108 12.8554 4.16064 13.114 4.16064C13.4095 4.16065 13.6932 4.27888 13.9021 4.48779L13.9753 4.56885C14.1379 4.76709 14.2282 5.01631 14.2283 5.2749V11.3228C14.2283 12.1529 13.8983 12.9496 13.3113 13.5366C12.7244 14.1234 11.9283 14.4525 11.0984 14.4526H6.93921C6.47271 14.4524 6.01307 14.348 5.59351 14.1479L5.41675 14.0562C5.00933 13.829 4.65857 13.5142 4.3894 13.1353L4.27905 12.9692L2.3728 9.89404L2.37183 9.89307C2.21656 9.64129 2.16805 9.33817 2.23608 9.05029C2.30429 8.76217 2.48413 8.51244 2.73608 8.35693L2.83276 8.30322C3.0635 8.19071 3.32783 8.16056 3.57983 8.22021C3.86768 8.28846 4.11676 8.46852 4.27222 8.72021V8.72119L5.08862 10.0444V4.69873C5.08871 4.4034 5.20596 4.12045 5.41479 3.91162L5.49585 3.8374C5.69405 3.67493 5.94339 3.5855 6.2019 3.58545C6.49735 3.58545 6.78108 3.70271 6.98999 3.91162L7.06421 3.99268C7.22659 4.19083 7.31608 4.44031 7.31616 4.69873V7.6167H7.39233V3.54736C7.39233 3.25192 7.50959 2.96819 7.71851 2.75928L7.80054 2.68506C7.99858 2.52296 8.24745 2.43322 8.50562 2.43311Z" stroke="black" stroke-opacity="0.33" stroke-width="0.5"/>
</svg>
