<svg width="17" height="17" viewBox="0 0 17 17" fill="none" xmlns="http://www.w3.org/2000/svg">
<mask id="path-1-outside-1_624_11491" maskUnits="userSpaceOnUse" x="0.308838" y="0.936035" width="16" height="15" fill="black">
<rect fill="white" x="0.308838" y="0.936035" width="16" height="15"/>
<path fill-rule="evenodd" clip-rule="evenodd" d="M1.30884 2.93604C1.30884 2.38375 1.75655 1.93604 2.30884 1.93604H7.46851C8.02079 1.93604 8.46851 2.38375 8.46851 2.93604V4.44287C8.46851 4.99516 8.02079 5.44287 7.46851 5.44287H2.30884C1.75655 5.44287 1.30884 4.99516 1.30884 4.44287V2.93604ZM8.2168 12.5493C8.2168 11.997 8.66451 11.5493 9.2168 11.5493H14.3765C14.9288 11.5493 15.3765 11.997 15.3765 12.5493V14.3345C15.3765 14.8868 14.9288 15.3345 14.3765 15.3345H9.2168C8.66451 15.3345 8.2168 14.8868 8.2168 14.3345V12.5493ZM6.71692 7.6814C7.10936 7.6814 7.42749 7.36326 7.42749 6.97083C7.42749 6.57839 7.10936 6.26025 6.71692 6.26025C6.32448 6.26025 6.00635 6.57839 6.00635 6.97083C6.00635 7.36326 6.32448 7.6814 6.71692 7.6814ZM8.12598 8.68176C8.12598 9.0742 7.80784 9.39233 7.41541 9.39233C7.02297 9.39233 6.70483 9.0742 6.70483 8.68176C6.70483 8.28933 7.02297 7.97119 7.41541 7.97119C7.80784 7.97119 8.12598 8.28933 8.12598 8.68176ZM8.13806 11.1033C8.5305 11.1033 8.84863 10.7851 8.84863 10.3927C8.84863 10.0003 8.5305 9.68213 8.13806 9.68213C7.74562 9.68213 7.42749 10.0003 7.42749 10.3927C7.42749 10.7851 7.74562 11.1033 8.13806 11.1033Z"/>
</mask>
<path fill-rule="evenodd" clip-rule="evenodd" d="M1.30884 2.93604C1.30884 2.38375 1.75655 1.93604 2.30884 1.93604H7.46851C8.02079 1.93604 8.46851 2.38375 8.46851 2.93604V4.44287C8.46851 4.99516 8.02079 5.44287 7.46851 5.44287H2.30884C1.75655 5.44287 1.30884 4.99516 1.30884 4.44287V2.93604ZM8.2168 12.5493C8.2168 11.997 8.66451 11.5493 9.2168 11.5493H14.3765C14.9288 11.5493 15.3765 11.997 15.3765 12.5493V14.3345C15.3765 14.8868 14.9288 15.3345 14.3765 15.3345H9.2168C8.66451 15.3345 8.2168 14.8868 8.2168 14.3345V12.5493ZM6.71692 7.6814C7.10936 7.6814 7.42749 7.36326 7.42749 6.97083C7.42749 6.57839 7.10936 6.26025 6.71692 6.26025C6.32448 6.26025 6.00635 6.57839 6.00635 6.97083C6.00635 7.36326 6.32448 7.6814 6.71692 7.6814ZM8.12598 8.68176C8.12598 9.0742 7.80784 9.39233 7.41541 9.39233C7.02297 9.39233 6.70483 9.0742 6.70483 8.68176C6.70483 8.28933 7.02297 7.97119 7.41541 7.97119C7.80784 7.97119 8.12598 8.28933 8.12598 8.68176ZM8.13806 11.1033C8.5305 11.1033 8.84863 10.7851 8.84863 10.3927C8.84863 10.0003 8.5305 9.68213 8.13806 9.68213C7.74562 9.68213 7.42749 10.0003 7.42749 10.3927C7.42749 10.7851 7.74562 11.1033 8.13806 11.1033Z" fill="#D9D9D9"/>
<path d="M2.30884 1.43604C1.48041 1.43604 0.808838 2.10761 0.808838 2.93604H1.80884C1.80884 2.65989 2.0327 2.43604 2.30884 2.43604V1.43604ZM7.46851 1.43604H2.30884V2.43604H7.46851V1.43604ZM8.96851 2.93604C8.96851 2.10761 8.29693 1.43604 7.46851 1.43604V2.43604C7.74465 2.43604 7.96851 2.65989 7.96851 2.93604H8.96851ZM8.96851 4.44287V2.93604H7.96851V4.44287H8.96851ZM7.46851 5.94287C8.29693 5.94287 8.96851 5.2713 8.96851 4.44287H7.96851C7.96851 4.71901 7.74465 4.94287 7.46851 4.94287V5.94287ZM2.30884 5.94287H7.46851V4.94287H2.30884V5.94287ZM0.808838 4.44287C0.808838 5.2713 1.48041 5.94287 2.30884 5.94287V4.94287C2.0327 4.94287 1.80884 4.71901 1.80884 4.44287H0.808838ZM0.808838 2.93604V4.44287H1.80884V2.93604H0.808838ZM9.2168 11.0493C8.38837 11.0493 7.7168 11.7209 7.7168 12.5493H8.7168C8.7168 12.2732 8.94065 12.0493 9.2168 12.0493V11.0493ZM14.3765 11.0493H9.2168V12.0493H14.3765V11.0493ZM15.8765 12.5493C15.8765 11.7209 15.2049 11.0493 14.3765 11.0493V12.0493C14.6526 12.0493 14.8765 12.2732 14.8765 12.5493H15.8765ZM15.8765 14.3345V12.5493H14.8765V14.3345H15.8765ZM14.3765 15.8345C15.2049 15.8345 15.8765 15.1629 15.8765 14.3345H14.8765C14.8765 14.6106 14.6526 14.8345 14.3765 14.8345V15.8345ZM9.2168 15.8345H14.3765V14.8345H9.2168V15.8345ZM7.7168 14.3345C7.7168 15.1629 8.38837 15.8345 9.2168 15.8345V14.8345C8.94065 14.8345 8.7168 14.6106 8.7168 14.3345H7.7168ZM7.7168 12.5493V14.3345H8.7168V12.5493H7.7168ZM6.92749 6.97083C6.92749 7.08712 6.83321 7.1814 6.71692 7.1814V8.1814C7.3855 8.1814 7.92749 7.63941 7.92749 6.97083H6.92749ZM6.71692 6.76025C6.83321 6.76025 6.92749 6.85453 6.92749 6.97083H7.92749C7.92749 6.30225 7.3855 5.76025 6.71692 5.76025V6.76025ZM6.50635 6.97083C6.50635 6.85453 6.60062 6.76025 6.71692 6.76025V5.76025C6.04834 5.76025 5.50635 6.30225 5.50635 6.97083H6.50635ZM6.71692 7.1814C6.60062 7.1814 6.50635 7.08712 6.50635 6.97083H5.50635C5.50635 7.63941 6.04834 8.1814 6.71692 8.1814V7.1814ZM7.41541 9.89233C8.08399 9.89233 8.62598 9.35034 8.62598 8.68176H7.62598C7.62598 8.79806 7.5317 8.89233 7.41541 8.89233V9.89233ZM6.20483 8.68176C6.20483 9.35034 6.74683 9.89233 7.41541 9.89233V8.89233C7.29911 8.89233 7.20483 8.79806 7.20483 8.68176H6.20483ZM7.41541 7.47119C6.74683 7.47119 6.20483 8.01318 6.20483 8.68176H7.20483C7.20483 8.56547 7.29911 8.47119 7.41541 8.47119V7.47119ZM8.62598 8.68176C8.62598 8.01318 8.08399 7.47119 7.41541 7.47119V8.47119C7.5317 8.47119 7.62598 8.56547 7.62598 8.68176H8.62598ZM8.34863 10.3927C8.34863 10.509 8.25436 10.6033 8.13806 10.6033V11.6033C8.80664 11.6033 9.34863 11.0613 9.34863 10.3927H8.34863ZM8.13806 10.1821C8.25436 10.1821 8.34863 10.2764 8.34863 10.3927H9.34863C9.34863 9.72412 8.80664 9.18213 8.13806 9.18213V10.1821ZM7.92749 10.3927C7.92749 10.2764 8.02177 10.1821 8.13806 10.1821V9.18213C7.46948 9.18213 6.92749 9.72412 6.92749 10.3927H7.92749ZM8.13806 10.6033C8.02177 10.6033 7.92749 10.509 7.92749 10.3927H6.92749C6.92749 11.0613 7.46948 11.6033 8.13806 11.6033V10.6033Z" fill="black" fill-opacity="0.3" mask="url(#path-1-outside-1_624_11491)"/>
</svg>
