<svg width="33" height="32" viewBox="0 0 33 32" fill="none" xmlns="http://www.w3.org/2000/svg">
<mask id="mask0_1912_15262" style="mask-type:luminance" maskUnits="userSpaceOnUse" x="6" y="3" width="21" height="26">
<path d="M25.4432 3H7.44324C6.89095 3 6.44324 3.44772 6.44324 4V28C6.44324 28.5523 6.89095 29 7.44324 29H25.4432C25.9955 29 26.4432 28.5523 26.4432 28V4C26.4432 3.44772 25.9955 3 25.4432 3Z" fill="white"/>
</mask>
<g mask="url(#mask0_1912_15262)">
<path d="M25.4432 3H7.44324C6.89095 3 6.44324 3.44772 6.44324 4V28C6.44324 28.5523 6.89095 29 7.44324 29H25.4432C25.9955 29 26.4432 28.5523 26.4432 28V4C26.4432 3.44772 25.9955 3 25.4432 3Z" stroke="white" stroke-width="3" stroke-linejoin="round"/>
</g>
<path fill-rule="evenodd" clip-rule="evenodd" d="M15.7072 17.968C15.1572 18.6 14.3472 19 13.4432 19C11.7862 19 10.4432 17.657 10.4432 16C10.4432 14.343 11.7862 13 13.4432 13C13.5012 13 13.5582 13.002 13.6152 13.005C13.5042 12.691 13.4432 12.352 13.4432 12C13.4432 10.343 14.7862 9 16.4432 9C18.1002 9 19.4432 10.343 19.4432 12C19.4432 12.352 19.3822 12.691 19.2712 13.005C19.3282 13.002 19.3852 13 19.4432 13C21.1002 13 22.4432 14.343 22.4432 16C22.4432 17.657 21.1002 19 19.4432 19C18.5392 19 17.7293 18.601 17.1793 17.969C17.2943 19.422 17.8292 22 20.1752 22C20.9432 22 20.9432 22.75 20.1752 22.75H12.7112C11.9432 22.75 11.9432 22 12.7112 22C15.0572 22 15.5922 19.422 15.7072 17.968Z" fill="white"/>
</svg>
