<svg width="33" height="33" viewBox="0 0 33 33" fill="none" xmlns="http://www.w3.org/2000/svg">
<path fill-rule="evenodd" clip-rule="evenodd" d="M10.2775 5.68628C10.2775 5.13399 10.7252 4.68628 11.2775 4.68628C17.4118 4.68628 22.4076 9.56067 22.603 15.6475H24.0721V13.2607L29.0721 16.1475L24.0721 19.0342V16.6475H22.5917C22.2649 22.6127 17.3243 27.3491 11.2775 27.3491C10.7252 27.3491 10.2775 26.9014 10.2775 26.3491C10.2775 25.7968 10.7252 25.3491 11.2775 25.3491C11.3232 25.3491 11.3689 25.3488 11.4144 25.3481V16.6475H8.22931L5.84256 19.0342L2.95581 16.1475L5.84256 13.2607L8.22931 15.6475H11.4144V6.68726C11.3689 6.68661 11.3232 6.68628 11.2775 6.68628C10.7252 6.68628 10.2775 6.23856 10.2775 5.68628ZM12.4144 6.75485V15.6475H20.6017C20.4222 11.0467 16.9117 7.30114 12.4144 6.75485ZM12.4144 16.6475V25.2806C16.8268 24.7446 20.2893 21.1289 20.588 16.6475H12.4144Z" fill="white"/>
</svg>
