<svg width="17" height="16" viewBox="0 0 17 16" fill="none" xmlns="http://www.w3.org/2000/svg">
<path fill-rule="evenodd" clip-rule="evenodd" d="M7.78734 7.61238H6.87213L6.04722 8.43728C5.81289 8.17704 5.60606 7.90082 5.42671 7.61238H2.88938C3.14801 6.47627 3.73761 5.46605 4.5514 4.68848C4.51898 3.48815 4.85421 2.27974 5.55709 1.24658C5.58922 2.06261 5.75549 2.87434 6.05588 3.64589C6.82219 3.27686 7.68135 3.07007 8.58881 3.07007C9.49625 3.07007 10.3554 3.27686 11.1217 3.64588C11.4221 2.87433 11.5884 2.06261 11.6205 1.24658C12.3234 2.27973 12.6586 3.48813 12.6262 4.68846C13.44 5.46602 14.0296 6.47626 14.2882 7.61238H11.7509C11.5715 7.90082 11.3647 8.17704 11.1304 8.43728L10.3055 7.61238H9.39022C9.39045 9.00495 10.5194 10.1338 11.9121 10.1338C13.1283 10.1338 14.1435 9.27277 14.3813 8.12701C14.416 8.3848 14.434 8.64791 14.434 8.91522C14.434 12.1434 11.817 14.7604 8.58881 14.7604C5.36062 14.7604 2.74365 12.1434 2.74365 8.91522C2.74365 8.64797 2.76159 8.3849 2.79632 8.12716C3.03415 9.27284 4.04928 10.1338 5.2655 10.1338C6.65813 10.1338 7.78711 9.00495 7.78734 7.61238ZM6.84469 11.7882C6.84469 12.7515 7.62559 13.5324 8.58888 13.5324C9.55217 13.5324 10.3331 12.7515 10.3331 11.7882H6.84469Z" fill="white"/>
</svg>
