<svg width="33" height="33" viewBox="0 0 33 33" fill="none" xmlns="http://www.w3.org/2000/svg">
<rect x="7.87268" y="3.87183" width="4.14941" height="18.0966" transform="rotate(-15 7.87268 3.87183)" fill="#D9D9D9"/>
<rect x="6.97522" y="4.90186" width="6.32495" height="8.5019" rx="1" transform="rotate(-15 6.97522 4.90186)" fill="#D9D9D9"/>
<path d="M16.9478 18.657C23.1423 18.657 28.1644 23.6783 28.1646 29.8728V30.2175H25.7212V29.948C25.7212 25.1024 21.7933 21.1746 16.9478 21.1746C12.1022 21.1746 8.17432 25.1024 8.17432 29.948V30.2175H5.73096V29.8728C5.73109 23.6783 10.7532 18.657 16.9478 18.657Z" fill="#D9D9D9"/>
<path d="M9.56665 29.9907C9.56665 25.9143 12.8713 22.6096 16.9478 22.6096V22.6096C21.0242 22.6096 24.3289 25.9143 24.3289 29.9907V30.2171H9.56665V29.9907Z" fill="#D9D9D9"/>
</svg>
