<svg width="33" height="33" viewBox="0 0 33 33" fill="none" xmlns="http://www.w3.org/2000/svg">
<path d="M8.94324 7.94882L16.3223 6.10382C16.6373 6.02482 16.9432 6.26384 16.9432 6.58884V27.3088C16.9432 27.6338 16.6373 27.8728 16.3223 27.7938L8.94324 25.9488V7.94882Z" fill="white"/>
<path d="M21.4432 6.94897H18.4432C18.1671 6.94897 17.9432 7.17283 17.9432 7.44897V26.449C17.9432 26.7251 18.1671 26.949 18.4432 26.949H21.4432C21.7194 26.949 21.9432 26.7251 21.9432 26.449V7.44897C21.9432 7.17283 21.7194 6.94897 21.4432 6.94897Z" fill="white"/>
<path d="M23.9432 6.44897C23.9432 6.17283 23.7194 5.94897 23.4432 5.94897C23.1671 5.94897 22.9432 6.17283 22.9432 6.44897V27.449C22.9432 27.7251 23.1671 27.949 23.4432 27.949C23.7194 27.949 23.9432 27.7251 23.9432 27.449V6.44897Z" fill="white"/>
<path d="M20.6693 22.949V26.949V22.949Z" fill="white"/>
<path d="M20.6693 22.949V26.949" stroke="#404040" stroke-width="0.8" stroke-linecap="round" stroke-linejoin="round"/>
<path d="M19.4432 6.94897V11.949V6.94897Z" fill="white"/>
<path d="M19.4432 6.94897V11.949" stroke="#404040" stroke-width="0.8" stroke-linecap="round" stroke-linejoin="round"/>
</svg>
