<svg width="33" height="33" viewBox="0 0 33 33" fill="none" xmlns="http://www.w3.org/2000/svg">
<path d="M15.9989 15.3757C18.2482 13.938 18.906 10.9491 17.4683 8.69981C16.0306 6.45051 13.0418 5.79257 10.7925 7.23028C8.54316 8.66799 7.88521 11.6569 9.32292 13.9062C10.7606 16.1555 13.7496 16.8134 15.9989 15.3757Z" fill="white"/>
<path d="M14.9574 13.7455C16.3069 12.8829 16.7017 11.0895 15.839 9.73996C14.9764 8.39038 13.1831 7.99563 11.8335 8.85825C10.4839 9.72088 10.0892 11.5142 10.9518 12.8638C11.8144 14.2134 13.6078 14.6081 14.9574 13.7455Z" fill="#404040"/>
<path d="M14.3296 15.0074L16.3665 13.7064L23.5249 24.9064C23.8847 25.4687 23.7203 26.2152 23.158 26.575C22.5956 26.9348 21.848 26.7697 21.4884 26.2083L14.3296 15.0074Z" fill="white"/>
<path d="M21.2471 21.3436L20.2712 19.8163L22.053 18.6774C22.4748 18.4077 23.0353 18.5306 23.304 18.9527C23.5737 19.3745 23.4508 19.935 23.029 20.2046L21.2471 21.3436Z" fill="white"/>
<path d="M23.3008 24.5552L22.3239 23.0282L24.615 21.5632C25.0368 21.2936 25.5976 21.4174 25.8672 21.8392C26.1366 22.2601 26.0127 22.8209 25.5909 23.0905L23.3008 24.5552Z" fill="white"/>
</svg>
