<svg width="33" height="33" viewBox="0 0 33 33" fill="none" xmlns="http://www.w3.org/2000/svg">
<path d="M19.4603 7.90479H13.4261C13.1881 7.90479 12.9951 8.09776 12.9951 8.3358V18.6801C12.9951 18.9181 13.1881 19.1111 13.4261 19.1111H19.4603C19.6983 19.1111 19.8913 18.9181 19.8913 18.6801V8.3358C19.8913 8.09776 19.6983 7.90479 19.4603 7.90479Z" fill="white"/>
<path fill-rule="evenodd" clip-rule="evenodd" d="M10.4091 5.74962C10.4091 5.5117 10.6022 5.3186 10.8401 5.3186H22.0464C22.2843 5.3186 22.4774 5.5117 22.4774 5.74962V20.835L20.8792 19.2368C20.843 19.2006 20.7999 19.1705 20.7533 19.1498V7.04265H12.1331V19.1498C12.0866 19.1705 12.0435 19.2006 12.0073 19.2368L10.4091 20.835V5.74962Z" fill="white"/>
<path d="M22.1024 21.6969H10.7841C10.6453 21.6969 10.5763 21.5297 10.6737 21.4323L12.0073 20.0988C12.0875 20.0186 12.1969 19.9729 12.3116 19.9729H20.575C20.6896 19.9729 20.7991 20.0186 20.8792 20.0988L22.2128 21.4323C22.3102 21.5297 22.2412 21.6969 22.1024 21.6969Z" fill="white"/>
<path fill-rule="evenodd" clip-rule="evenodd" d="M9.54705 16.9558C9.54705 17.0326 9.54276 17.1084 9.53501 17.1834C9.54276 17.2498 9.54705 17.3179 9.54705 17.3869V22.559H23.3394V17.3869C23.3394 17.3179 23.3437 17.2498 23.3515 17.1834C23.3437 17.1084 23.3394 17.0326 23.3394 16.9558C23.3394 15.7654 24.304 14.8008 25.4945 14.8008C26.6849 14.8008 27.6495 15.7654 27.6495 16.9558C27.6495 18.1463 26.6849 19.1109 25.4945 19.1109C25.3471 19.1109 25.2031 19.0963 25.0635 19.0678V22.559V27.0415C25.0635 27.4225 24.7549 27.7311 24.3739 27.7311H19.4603C19.2224 27.7311 19.0327 27.5363 18.9939 27.3019C18.7897 26.0778 17.7251 25.1451 16.4432 25.1451C15.1614 25.1451 14.0968 26.0778 13.8925 27.3019C13.8537 27.5363 13.6641 27.7311 13.4262 27.7311H8.51262C8.1316 27.7311 7.82301 27.4225 7.82301 27.0415V22.559V19.0678C7.68336 19.0963 7.5394 19.1109 7.392 19.1109C6.20154 19.1109 5.23694 18.1463 5.23694 16.9558C5.23694 15.7654 6.20154 14.8008 7.392 14.8008C8.58245 14.8008 9.54705 15.7654 9.54705 16.9558Z" fill="white"/>
</svg>
