<svg width="33" height="33" viewBox="0 0 33 33" fill="none" xmlns="http://www.w3.org/2000/svg">
<path d="M26.8385 24.5249H7.04321C6.76707 24.5249 6.54321 24.7488 6.54321 25.0249C6.54321 25.301 6.76707 25.5249 7.04321 25.5249H26.8385C27.1146 25.5249 27.3385 25.301 27.3385 25.0249C27.3385 24.7488 27.1146 24.5249 26.8385 24.5249Z" fill="white"/>
<path d="M25.5432 12.5249H7.54321V24.5249H25.5432V12.5249Z" fill="white"/>
<path d="M13.5432 19.0249C13.5432 18.7489 13.7672 18.5249 14.0432 18.5249H19.0432C19.3192 18.5249 19.5432 18.7489 19.5432 19.0249V24.5249H13.5432V19.0249Z" fill="#404040"/>
<path d="M5.54333 12.125H5.14331V12.525V14.175C5.14331 15.694 6.37431 16.925 7.89331 16.925C9.41231 16.925 10.6433 15.694 10.6433 14.175V12.525V12.125H10.2433H5.54333Z" fill="white" stroke="#404040" stroke-width="0.8"/>
<path d="M11.2433 12.125H10.8433V12.525V14.175C10.8433 15.694 12.0743 16.925 13.5933 16.925C15.1123 16.925 16.3433 15.694 16.3433 14.175V12.525V12.125H15.9433H11.2433Z" fill="white" stroke="#404040" stroke-width="0.8"/>
<path d="M16.9432 12.125H16.5432V12.525V14.175C16.5432 15.694 17.7742 16.925 19.2932 16.925C20.8122 16.925 22.0432 15.694 22.0432 14.175V12.525V12.125H21.6432H16.9432Z" fill="white" stroke="#404040" stroke-width="0.8"/>
<path d="M22.6431 12.125H22.2432V12.525V14.175C22.2432 15.694 23.4742 16.925 24.9932 16.925C26.5122 16.925 27.7432 15.694 27.7432 14.175V12.525V12.125H27.3431H22.6431Z" fill="white" stroke="#404040" stroke-width="0.8"/>
<path d="M5.54321 12.5249L9.01721 7.5249H24.0692L27.3282 12.5249H5.54321Z" fill="white"/>
</svg>
