<svg width="33" height="32" viewBox="0 0 33 32" fill="none" xmlns="http://www.w3.org/2000/svg">
<path d="M9.44324 8H23.4432V14.8C23.4432 14.91 23.3532 15 23.2432 15H9.64325C9.53325 15 9.44324 14.91 9.44324 14.8V8Z" fill="white"/>
<path d="M24.4432 8C25.5482 8 26.4432 8.895 26.4432 10V14.923C26.4432 14.966 26.4092 15 26.3662 15H24.6432C24.5332 15 24.4432 14.91 24.4432 14.8V8Z" fill="white"/>
<path d="M6.44324 10C6.44324 8.895 7.33824 8 8.44324 8V14.8C8.44324 14.91 8.35323 15 8.24323 15H6.48224C6.46024 15 6.44324 14.983 6.44324 14.961V10Z" fill="white"/>
<path fill-rule="evenodd" clip-rule="evenodd" d="M6.84323 16C6.62223 16 6.44324 16.179 6.44324 16.4V23.6C6.44324 23.821 6.62223 24 6.84323 24H26.0432C26.2642 24 26.4432 23.821 26.4432 23.6V16.4C26.4432 16.179 26.2642 16 26.0432 16H19.4432V19.8C19.4432 19.91 19.3532 20 19.2432 20H13.6432C13.5332 20 13.4432 19.91 13.4432 19.8V16H6.84323Z" fill="white"/>
<path fill-rule="evenodd" clip-rule="evenodd" d="M16.9432 17.866C17.2422 17.693 17.4432 17.37 17.4432 17C17.4432 16.448 16.9952 16 16.4432 16C15.8912 16 15.4432 16.448 15.4432 17C15.4432 17.37 15.6442 17.693 15.9432 17.866V18.6C15.9432 18.821 16.1222 19 16.3432 19H16.5432C16.7642 19 16.9432 18.821 16.9432 18.6V17.866Z" fill="white"/>
</svg>
