<svg width="33" height="32" viewBox="0 0 33 32" fill="none" xmlns="http://www.w3.org/2000/svg">
<path fill-rule="evenodd" clip-rule="evenodd" d="M15.2941 15.4394H13.982L12.7993 16.6221C12.4634 16.249 12.1668 15.8529 11.9097 15.4394H8.27193C8.64271 13.8106 9.48803 12.3622 10.6548 11.2474C10.6083 9.52649 11.0889 7.79398 12.0966 6.31274C12.1427 7.48269 12.3811 8.64647 12.8117 9.75264C13.9104 9.22356 15.1422 8.92708 16.4432 8.92708C17.7442 8.92708 18.976 9.22355 20.0746 9.75262C20.5053 8.64645 20.7437 7.48268 20.7897 6.31274C21.7974 7.79397 22.2781 9.52646 22.2316 11.2474C23.3983 12.3622 24.2437 13.8105 24.6145 15.4394H20.9767C20.7195 15.8529 20.423 16.249 20.087 16.6221L18.9044 15.4394H17.5922C17.5925 17.4359 19.2111 19.0544 21.2078 19.0544C22.9515 19.0544 24.407 17.8199 24.7479 16.1772C24.7977 16.5468 24.8234 16.924 24.8234 17.3073C24.8234 21.9356 21.0715 25.6875 16.4432 25.6875C11.8149 25.6875 8.06299 21.9356 8.06299 17.3073C8.06299 16.9241 8.0887 16.547 8.1385 16.1774C8.47948 17.82 9.93487 19.0544 11.6786 19.0544C13.6752 19.0544 15.2938 17.4359 15.2941 15.4394ZM13.9427 21.4263C13.9427 22.8074 15.0622 23.927 16.4433 23.927C17.8244 23.927 18.9439 22.8074 18.9439 21.4263H13.9427Z" fill="white"/>
</svg>
