<svg width="33" height="33" viewBox="0 0 33 33" fill="none" xmlns="http://www.w3.org/2000/svg">
<path fill-rule="evenodd" clip-rule="evenodd" d="M24.3502 16.2098C24.3502 20.5768 20.8101 24.1169 16.4431 24.1169C12.0761 24.1169 8.53601 20.5768 8.53601 16.2098C8.53601 11.8429 12.0761 8.30273 16.4431 8.30273C20.8101 8.30273 24.3502 11.8429 24.3502 16.2098ZM14.8588 12.3652C14.8588 11.813 15.3065 11.3652 15.8588 11.3652H17.0277C17.58 11.3652 18.0277 11.8129 18.0277 12.3652V20.0544C18.0277 20.6067 17.58 21.0544 17.0277 21.0544H15.8588C15.3065 21.0544 14.8588 20.6067 14.8588 20.0544V12.3652Z" fill="white"/>
<path fill-rule="evenodd" clip-rule="evenodd" d="M25.9332 16.2098C25.9332 21.4509 21.6845 25.6997 16.4434 25.6997C11.2022 25.6997 6.95349 21.4509 6.95349 16.2098C6.95349 10.9687 11.2022 6.71997 16.4434 6.71997C21.6845 6.71997 25.9332 10.9687 25.9332 16.2098ZM24.9158 16.2098C24.9158 20.8891 21.1226 24.6823 16.4434 24.6823C11.7641 24.6823 7.97087 20.8891 7.97087 16.2098C7.97087 11.5306 11.7641 7.73735 16.4434 7.73735C21.1226 7.73735 24.9158 11.5306 24.9158 16.2098Z" fill="white"/>
</svg>
