<svg width="33" height="33" viewBox="0 0 33 33" fill="none" xmlns="http://www.w3.org/2000/svg">
<path d="M10.317 14.8987L10.821 15.3247L5.57802 21.3417C5.51802 21.4127 5.56802 21.5216 5.66102 21.5226L9.72401 21.5507L10.429 25.5517C10.445 25.6427 10.561 25.6747 10.621 25.6037L15.054 20.3027L15.558 20.7287L10.3031 27.0016C10.2311 27.0876 10.092 27.0497 10.073 26.9397L9.24605 22.2477C9.23505 22.1847 9.18004 22.1387 9.11604 22.1377L4.352 22.1057C4.24 22.1047 4.18003 21.9737 4.25203 21.8877L10.317 14.8987Z" fill="white"/>
<path d="M14.2269 20.3138L10.647 16.3098L6.90392 20.7948C6.85592 20.8518 6.89594 20.9398 6.97094 20.9398L10.111 20.9618C10.174 20.9618 10.2289 21.0078 10.2399 21.0708L10.785 24.1628C10.798 24.2368 10.891 24.2618 10.939 24.2048L14.2269 20.3138Z" fill="white"/>
<path d="M22.467 14.7368L21.963 15.1628L27.308 21.3308C27.368 21.4018 27.318 21.5108 27.225 21.5118L23.163 21.5398L22.458 25.5408C22.441 25.6328 22.325 25.6638 22.265 25.5928L17.894 20.4378L17.39 20.8638L22.583 26.9908C22.655 27.0768 22.794 27.0388 22.814 26.9288L23.641 22.2368C23.652 22.1738 23.706 22.1278 23.77 22.1278L28.534 22.0948C28.646 22.0938 28.707 21.9628 28.634 21.8768L22.467 14.7368Z" fill="white"/>
<path d="M18.66 20.3027L22.267 16.4597L25.982 20.7838C26.03 20.8408 25.99 20.9287 25.915 20.9287L22.775 20.9507C22.712 20.9507 22.657 20.9968 22.646 21.0598L22.101 24.1517C22.088 24.2257 21.996 24.2507 21.947 24.1937L18.66 20.3027Z" fill="white"/>
<path d="M16.437 20.4107C20.6344 20.4107 24.037 17.0081 24.037 12.8107C24.037 8.61334 20.6344 5.21069 16.437 5.21069C12.2396 5.21069 8.83704 8.61334 8.83704 12.8107C8.83704 17.0081 12.2396 20.4107 16.437 20.4107Z" fill="white" stroke="#404040" stroke-width="0.8"/>
<path d="M16.437 17.8108C19.1984 17.8108 21.437 15.5722 21.437 12.8108C21.437 10.0494 19.1984 7.81079 16.437 7.81079C13.6756 7.81079 11.437 10.0494 11.437 12.8108C11.437 15.5722 13.6756 17.8108 16.437 17.8108Z" fill="#404040"/>
<path d="M16.4371 17.0966C18.804 17.0966 20.7228 15.1778 20.7228 12.8109C20.7228 10.4439 18.804 8.52515 16.4371 8.52515C14.0701 8.52515 12.1514 10.4439 12.1514 12.8109C12.1514 15.1778 14.0701 17.0966 16.4371 17.0966Z" fill="white"/>
</svg>
