<svg width="33" height="33" viewBox="0 0 33 33" fill="none" xmlns="http://www.w3.org/2000/svg">
<path fill-rule="evenodd" clip-rule="evenodd" d="M8.13682 15.3004C7.88244 15.4674 7.57698 15.5643 7.24992 15.5643C6.35351 15.5643 5.62756 14.8383 5.62756 13.9419C5.62756 13.0464 6.35351 12.3196 7.24992 12.3196C8.15151 12.3196 10.1702 12.7522 11.0354 14.4827C11.9007 16.2132 11.8349 18.809 11.6948 19.8906H21.1917C21.0516 18.809 20.9858 16.2132 21.8511 14.4827C22.7163 12.7522 24.735 12.3196 25.6366 12.3196C26.533 12.3196 27.2589 13.0455 27.2589 13.9419C27.2589 14.8383 26.533 15.5643 25.6366 15.5643C25.3095 15.5643 25.0049 15.4674 24.7497 15.3004C24.4356 15.3575 24.0411 15.5375 23.4734 16.1051C22.4775 17.1001 22.9327 19.3498 23.4734 19.8906C23.6422 20.0593 23.7581 20.228 23.8386 20.3803C23.9493 20.5508 24.0142 20.7541 24.0142 20.9721V22.0537C24.0142 22.6507 23.5297 23.1353 22.9327 23.1353H21.8511V25.8392C21.8511 26.1377 21.6088 26.38 21.3103 26.38H20.2287C19.9302 26.38 19.688 26.1377 19.688 25.8392V23.1353H13.1985V25.8392C13.1985 26.1377 12.9563 26.38 12.6578 26.38H11.5762C11.2777 26.38 11.0354 26.1377 11.0354 25.8392V23.1353H9.95384C9.35681 23.1353 8.87227 22.6507 8.87227 22.0537V20.9721C8.87227 20.7541 8.93717 20.5508 9.04792 20.3803C9.12839 20.228 9.24433 20.0593 9.41305 19.8906C9.95384 19.3498 10.409 17.1001 9.41305 16.1051C8.84545 15.5375 8.45091 15.3575 8.13682 15.3004Z" fill="white"/>
<path fill-rule="evenodd" clip-rule="evenodd" d="M19.8826 18.8089C19.8826 18.8089 19.8826 11.8263 23.2364 11.2725C23.4717 11.2336 23.6707 11.0433 23.6387 10.807C23.3497 8.66986 20.9538 5.83008 16.0971 5.83008C11.2413 5.83008 9.31872 8.66899 9.09116 10.8062C9.0652 11.0441 9.26336 11.2345 9.50044 11.2647C13.3569 11.7536 12.8524 18.8089 12.8524 18.8089H12.9511H19.8826Z" fill="white"/>
</svg>
