<svg width="33" height="33" viewBox="0 0 33 33" fill="none" xmlns="http://www.w3.org/2000/svg">
<path d="M7.67925 6.78088C7.80025 6.38488 8.17922 6.12988 8.59422 6.12988H24.2582C24.6582 6.12988 25.0263 6.3669 25.1583 6.7439C25.5683 7.9139 25.5032 8.6439 25.1682 9.5329C25.0292 9.9009 24.6642 10.1299 24.2703 10.1299H8.5772C8.1712 10.1299 7.79723 9.8859 7.67223 9.4989C7.36923 8.5559 7.36225 7.81488 7.67925 6.78088Z" fill="white"/>
<path d="M7.67925 23.7809C7.80025 23.3849 8.17922 23.1299 8.59422 23.1299H24.2582C24.6582 23.1299 25.0263 23.3669 25.1583 23.7439C25.5683 24.9139 25.5032 25.6439 25.1682 26.5329C25.0292 26.9009 24.6642 27.1299 24.2703 27.1299H8.5772C8.1712 27.1299 7.79723 26.8859 7.67223 26.4989C7.36923 25.5559 7.36225 24.8149 7.67925 23.7809Z" fill="white"/>
<path fill-rule="evenodd" clip-rule="evenodd" d="M7.06826 7.12988H6.65023C6.51723 7.12988 6.38624 7.17988 6.31124 7.28888C5.98724 7.76288 5.98724 8.49689 6.31124 8.97089C6.38624 9.07989 6.51723 9.12988 6.65023 9.12988H7.05324C6.90224 8.45888 6.90626 7.84188 7.06826 7.12988ZM8.09829 7.12988H8.44326V9.12988H8.08327C7.89527 8.45088 7.89329 7.88388 8.09829 7.12988Z" fill="white"/>
<path fill-rule="evenodd" clip-rule="evenodd" d="M25.8212 9.12988H26.2363C26.3693 9.12988 26.5003 9.07989 26.5753 8.97089C26.8993 8.49689 26.8993 7.76288 26.5753 7.28888C26.5003 7.17988 26.3693 7.12988 26.2363 7.12988H25.7993C25.9013 7.52888 25.9482 7.89489 25.9432 8.25189C25.9382 8.55789 25.8942 8.84588 25.8212 9.12988ZM24.7802 9.12988H24.4432V7.12988H24.7603C24.8963 7.56988 24.9482 7.9219 24.9432 8.2359C24.9382 8.5309 24.8832 8.81388 24.7802 9.12988Z" fill="white"/>
<path fill-rule="evenodd" clip-rule="evenodd" d="M9.44324 12.4229V10.6299H23.4432V12.4229C23.4432 12.5559 23.3902 12.6829 23.2972 12.7759L22.8062 13.2669C22.3592 13.7139 22.4333 14.4569 22.9583 14.8069L23.2202 14.9819C23.3592 15.0739 23.4432 15.2299 23.4432 15.3979V22.6299H9.44324V15.3979C9.44324 15.2299 9.52726 15.0739 9.66626 14.9819L9.92822 14.8069C10.4532 14.4569 10.5273 13.7139 10.0803 13.2669L9.58923 12.7759C9.49623 12.6829 9.44324 12.5559 9.44324 12.4229Z" fill="white"/>
<path fill-rule="evenodd" clip-rule="evenodd" d="M7.06826 24.1299H6.65023C6.51723 24.1299 6.38624 24.1799 6.31124 24.2889C5.98724 24.7629 5.98724 25.4969 6.31124 25.9709C6.38624 26.0799 6.51723 26.1299 6.65023 26.1299H7.05324C6.90224 25.4589 6.90626 24.8419 7.06826 24.1299ZM8.09829 24.1299H8.44326V26.1299H8.08327C7.89527 25.4509 7.89329 24.8839 8.09829 24.1299Z" fill="white"/>
<path fill-rule="evenodd" clip-rule="evenodd" d="M25.8212 26.1299H26.2363C26.3693 26.1299 26.5003 26.0799 26.5753 25.9709C26.8993 25.4969 26.8993 24.7629 26.5753 24.2889C26.5003 24.1799 26.3693 24.1299 26.2363 24.1299H25.7993C25.9013 24.5289 25.9482 24.8949 25.9432 25.2519C25.9382 25.5579 25.8942 25.8459 25.8212 26.1299ZM24.7802 26.1299H24.4432V24.1299H24.7603C24.8963 24.5699 24.9482 24.9219 24.9432 25.2359C24.9382 25.5309 24.8832 25.8139 24.7802 26.1299Z" fill="white"/>
</svg>
