<svg width="33" height="33" viewBox="0 0 33 33" fill="none" xmlns="http://www.w3.org/2000/svg">
<mask id="mask0_1912_15249" style="mask-type:luminance" maskUnits="userSpaceOnUse" x="6" y="3" width="21" height="27">
<path d="M25.4432 3.01172H7.44324C6.89095 3.01172 6.44324 3.45943 6.44324 4.01172V28.0117C6.44324 28.564 6.89095 29.0117 7.44324 29.0117H25.4432C25.9955 29.0117 26.4432 28.564 26.4432 28.0117V4.01172C26.4432 3.45943 25.9955 3.01172 25.4432 3.01172Z" fill="white"/>
</mask>
<g mask="url(#mask0_1912_15249)">
<path d="M25.4432 3.01172H7.44324C6.89095 3.01172 6.44324 3.45943 6.44324 4.01172V28.0117C6.44324 28.564 6.89095 29.0117 7.44324 29.0117H25.4432C25.9955 29.0117 26.4432 28.564 26.4432 28.0117V4.01172C26.4432 3.45943 25.9955 3.01172 25.4432 3.01172Z" stroke="white" stroke-width="3" stroke-linejoin="round"/>
</g>
<path d="M16.7512 13.0117L17.4622 17.0117C17.4622 17.0117 17.2152 22.0117 20.4832 22.0117C21.2512 22.0117 21.2512 22.7617 20.4832 22.7617C17.2512 22.7617 13.3542 22.7617 13.0192 22.7617C12.2512 22.7617 12.2512 22.0117 13.0192 22.0117C16.2872 22.0117 16.0402 17.0117 16.0402 17.0117L16.7512 13.0117Z" fill="white"/>
<path d="M19.3443 19.0148C17.8973 19.0148 17.1263 17.8538 16.8293 17.2528C16.7873 17.1688 16.6563 17.1688 16.6143 17.2528C16.3173 17.8538 15.5453 19.0148 14.0993 19.0148C12.4213 19.0148 11.4773 18.1408 11.2143 17.7038C9.60532 15.0208 11.2043 11.0389 16.6663 8.03086C16.7003 8.01286 16.7423 8.01385 16.7743 8.03385C21.4813 11.0419 23.4283 15.0218 21.9663 17.7038C21.7043 18.1848 21.0223 19.0148 19.3443 19.0148Z" fill="white"/>
</svg>
