<svg width="33" height="33" viewBox="0 0 33 33" fill="none" xmlns="http://www.w3.org/2000/svg">
<mask id="mask0_1912_15256" style="mask-type:luminance" maskUnits="userSpaceOnUse" x="6" y="3" width="21" height="27">
<path d="M25.4432 3.23413H7.44324C6.89095 3.23413 6.44324 3.68185 6.44324 4.23413V28.2341C6.44324 28.7864 6.89095 29.2341 7.44324 29.2341H25.4432C25.9955 29.2341 26.4432 28.7864 26.4432 28.2341V4.23413C26.4432 3.68185 25.9955 3.23413 25.4432 3.23413Z" fill="white"/>
</mask>
<g mask="url(#mask0_1912_15256)">
<path d="M25.4432 3.23413H7.44324C6.89095 3.23413 6.44324 3.68185 6.44324 4.23413V28.2341C6.44324 28.7864 6.89095 29.2341 7.44324 29.2341H25.4432C25.9955 29.2341 26.4432 28.7864 26.4432 28.2341V4.23413C26.4432 3.68185 25.9955 3.23413 25.4432 3.23413Z" stroke="white" stroke-width="3" stroke-linejoin="round"/>
</g>
<path d="M13.6393 10.7783C15.0743 10.7783 15.8393 11.9293 16.1333 12.5253C16.1753 12.6093 16.3053 12.6093 16.3463 12.5253C16.6413 11.9293 17.4063 10.7783 18.8413 10.7783C20.5053 10.7783 21.4413 11.6453 21.7013 12.0783C22.9123 13.8953 23.5193 18.3543 16.2853 21.6803C16.2573 21.6933 16.2233 21.6933 16.1953 21.6803C9.58432 18.5593 10.0013 13.9813 11.0393 12.0783C11.2993 11.6013 11.9753 10.7783 13.6393 10.7783Z" fill="white"/>
</svg>
