<svg width="33" height="33" viewBox="0 0 33 33" fill="none" xmlns="http://www.w3.org/2000/svg">
<path d="M16.4432 5.0249C22.7945 5.0249 27.9432 10.1736 27.9432 16.5249C27.9432 22.8762 22.7945 28.0249 16.4432 28.0249C10.092 28.0249 4.94324 22.8762 4.94324 16.5249C4.94324 10.1736 10.092 5.0249 16.4432 5.0249ZM16.4432 7.18115C11.2828 7.18115 7.09949 11.3645 7.09949 16.5249C7.09949 21.6853 11.2828 25.8687 16.4432 25.8687C21.6036 25.8687 25.787 21.6853 25.787 16.5249C25.787 11.3645 21.6036 7.18115 16.4432 7.18115Z" fill="white"/>
<path d="M24.5752 16.5249C24.5752 17.5929 24.3642 18.6499 23.9562 19.6369C23.5472 20.6229 22.9482 21.5199 22.1932 22.2749C21.4382 23.0299 20.5412 23.6289 19.5552 24.0379C18.5682 24.4459 17.5112 24.6569 16.4432 24.6569C15.3752 24.6569 14.3182 24.4459 13.3312 24.0379C12.3452 23.6289 11.4482 23.0299 10.6932 22.2749C9.93818 21.5199 9.33918 20.6229 8.93018 19.6369C8.52218 18.6499 8.31116 17.5929 8.31116 16.5249H13.3531C13.3531 16.9309 13.4332 17.3319 13.5882 17.7069C13.7432 18.0819 13.9712 18.4229 14.2582 18.7099C14.5452 18.9969 14.8862 19.2239 15.2602 19.3799C15.6352 19.5349 16.0372 19.6149 16.4432 19.6149C16.8492 19.6149 17.2512 19.5349 17.6262 19.3799C18.0002 19.2239 18.3412 18.9969 18.6282 18.7099C18.9152 18.4229 19.1432 18.0819 19.2982 17.7069C19.4532 17.3319 19.5332 16.9309 19.5332 16.5249H24.5752Z" fill="white"/>
</svg>
