<svg width="33" height="33" viewBox="0 0 33 33" fill="none" xmlns="http://www.w3.org/2000/svg">
<path d="M27.4432 26.0249H5.44324C5.16709 26.0249 4.94324 26.2488 4.94324 26.5249C4.94324 26.801 5.16709 27.0249 5.44324 27.0249H27.4432C27.7194 27.0249 27.9432 26.801 27.9432 26.5249C27.9432 26.2488 27.7194 26.0249 27.4432 26.0249Z" fill="white"/>
<path d="M25.9432 14.0249H6.94324V26.0249H25.9432V14.0249Z" fill="white"/>
<path d="M13.9432 20.5249C13.9432 20.2489 14.1672 20.0249 14.4432 20.0249H18.4432C18.7192 20.0249 18.9432 20.2489 18.9432 20.5249V26.0249H13.9432V20.5249Z" fill="#404040"/>
<path d="M4.94324 13.625H4.54321V14.025V16.125C4.54321 17.395 5.57326 18.425 6.84326 18.425C8.11326 18.425 9.14325 17.395 9.14325 16.125V14.025V13.625H8.74323H4.94324Z" fill="white" stroke="#404040" stroke-width="0.8"/>
<path d="M9.74323 13.625H9.34326V14.025V16.125C9.34326 17.395 10.3732 18.425 11.6432 18.425C12.9132 18.425 13.9432 17.395 13.9432 16.125V14.025V13.625H13.5432H9.74323Z" fill="white" stroke="#404040" stroke-width="0.8"/>
<path d="M14.5432 13.625H14.1432V14.025V16.125C14.1432 17.395 15.1732 18.425 16.4432 18.425C17.7132 18.425 18.7432 17.395 18.7432 16.125V14.025V13.625H18.3432H14.5432Z" fill="white" stroke="#404040" stroke-width="0.8"/>
<path d="M19.3433 13.625H18.9432V14.025V16.125C18.9432 17.395 19.9732 18.425 21.2432 18.425C22.5132 18.425 23.5432 17.395 23.5432 16.125V14.025V13.625H23.1432H19.3433Z" fill="white" stroke="#404040" stroke-width="0.8"/>
<path d="M24.1433 13.625H23.7433V14.025V16.125C23.7433 17.395 24.7733 18.425 26.0433 18.425C27.3133 18.425 28.3433 17.395 28.3433 16.125V14.025V13.625H27.9433H24.1433Z" fill="white" stroke="#404040" stroke-width="0.8"/>
<path d="M4.94324 11.0249C4.94324 10.4729 5.39124 10.0249 5.94324 10.0249H26.9432C27.4952 10.0249 27.9432 10.4729 27.9432 11.0249V13.0249H4.94324V11.0249Z" fill="white"/>
<path d="M9.94324 7.0249C9.94324 6.4729 10.3912 6.0249 10.9432 6.0249H21.9432C22.4952 6.0249 22.9432 6.4729 22.9432 7.0249V9.0249H9.94324V7.0249Z" fill="white"/>
</svg>
