<svg width="33" height="33" viewBox="0 0 33 33" fill="none" xmlns="http://www.w3.org/2000/svg">
<path d="M11.5267 8.16117C11.5077 8.05217 11.5807 7.94817 11.6897 7.92917L17.2047 6.95716C17.3127 6.93716 17.4167 7.01018 17.4357 7.11918L17.6267 8.20218C17.6467 8.31118 17.5737 8.41518 17.4647 8.43418L17.0707 8.50318C16.8537 8.54218 16.7077 8.74917 16.7467 8.96717L16.9377 10.0502L12.9987 10.7442L12.8077 9.66117C12.7687 9.44417 12.5617 9.29816 12.3437 9.33716L11.9497 9.40616C11.8407 9.42516 11.7377 9.35317 11.7187 9.24417L11.5267 8.16117Z" fill="white"/>
<path fill-rule="evenodd" clip-rule="evenodd" d="M10.4478 11.5862C10.2588 11.6892 10.1557 11.9012 10.1937 12.1132L12.4747 25.0532C12.5227 25.3252 12.7817 25.5062 13.0537 25.4592L21.9177 23.8962C22.1897 23.8482 22.3708 23.5882 22.3228 23.3162L20.0418 10.3762C20.0038 10.1652 19.8347 10.0002 19.6227 9.96923L16.9307 9.57022C16.8777 9.56222 16.8238 9.56223 16.7708 9.57223L12.9917 10.2382C12.9387 10.2482 12.8877 10.2652 12.8397 10.2912L10.4478 11.5862ZM11.5507 12.0342C11.3567 12.1352 11.2507 12.3502 11.2887 12.5652L13.2857 23.8942C13.3337 24.1662 13.5937 24.3482 13.8657 24.3002L20.7587 23.0842C21.0307 23.0372 21.2127 22.7772 21.1647 22.5052L19.1668 11.1762C19.1288 10.9612 18.9558 10.7952 18.7398 10.7672L17.1007 10.5522C17.0497 10.5462 16.9987 10.5472 16.9487 10.5562L13.1607 11.2242C13.1107 11.2332 13.0617 11.2492 13.0167 11.2722L11.5507 12.0342Z" fill="white"/>
<path d="M15.5757 13.8441C13.7007 13.2861 13.3957 13.7201 12.5347 13.8721L14.1837 23.2281L20.0927 22.1861L18.4427 12.8301C17.6577 13.4131 17.3047 14.3581 15.5757 13.8441Z" fill="white"/>
<path d="M22.7927 20.4253H21.7927C21.2957 20.4253 20.8927 20.8283 20.8927 21.3253V23.8253C20.8927 24.3223 21.2957 24.7253 21.7927 24.7253H22.7927C23.2897 24.7253 23.6927 24.3223 23.6927 23.8253V21.3253C23.6927 20.8283 23.2897 20.4253 22.7927 20.4253Z" fill="white" stroke="#404040" stroke-width="0.8"/>
<path d="M24.9767 20.5092L22.9927 18.0552C22.6327 17.6092 21.9527 17.6092 21.5927 18.0552L19.6086 20.5092C19.1326 21.0982 19.5517 21.9752 20.3087 21.9752H24.2767C25.0337 21.9752 25.4527 21.0982 24.9767 20.5092Z" fill="white" stroke="#404040" stroke-width="0.8"/>
<path d="M21.2927 21.3252C21.2927 21.0492 21.5167 20.8252 21.7927 20.8252H22.7927C23.0687 20.8252 23.2927 21.0492 23.2927 21.3252V23.8252C23.2927 24.1012 23.0687 24.3252 22.7927 24.3252H21.7927C21.5167 24.3252 21.2927 24.1012 21.2927 23.8252V21.3252Z" fill="white"/>
</svg>
