<svg width="33" height="33" viewBox="0 0 33 33" fill="none" xmlns="http://www.w3.org/2000/svg">
<path d="M11.5341 13.6555L14.8069 16.5192L15.5842 18.4615C15.6087 18.5237 15.6692 18.5646 15.7355 18.5646H17.151C17.2172 18.5646 17.2778 18.5237 17.3023 18.4615L18.0796 16.5192L21.3523 13.6555C22.3039 14.6071 22.4512 16.0978 21.705 17.2171L19.716 20.201V26.7464L25.1953 24.3983C25.3459 24.3336 25.4432 24.1856 25.4432 24.0219V11.7942C25.4432 11.4023 25.3778 11.0095 25.1855 10.6675C24.3191 9.13099 21.6068 5.88281 16.4432 5.88281C11.5505 5.88281 9.04688 8.79882 7.94806 10.4123C7.60279 10.9195 7.44324 11.5258 7.44324 12.1395V24.0219C7.44324 24.1856 7.54058 24.3336 7.69113 24.3983L13.1705 26.7464V20.201L11.1815 17.2171C10.4353 16.0978 10.5826 14.6071 11.5341 13.6555Z" fill="white"/>
</svg>
