<svg width="33" height="33" viewBox="0 0 33 33" fill="none" xmlns="http://www.w3.org/2000/svg">
<path d="M8.42488 20.0363C9.73299 19.5945 10.2203 17.5396 9.51334 15.4466C8.80638 13.3537 7.17285 12.0152 5.86475 12.457C4.55664 12.8989 4.06932 14.9538 4.77628 17.0467C5.48325 19.1397 7.11678 20.4782 8.42488 20.0363Z" fill="white"/>
<path d="M13.2589 14.6263C14.6205 14.3975 15.4277 12.446 15.0618 10.2674C14.6958 8.08878 13.2954 6.50806 11.9337 6.73677C10.5721 6.96547 9.76491 8.917 10.1308 11.0956C10.4968 13.2742 11.8972 14.855 13.2589 14.6263Z" fill="white"/>
<path d="M23.6891 20.0363C22.381 19.5945 21.8937 17.5396 22.6007 15.4466C23.3076 13.3537 24.9412 12.0152 26.2493 12.457C27.5574 12.8989 28.0447 14.9538 27.3377 17.0467C26.6308 19.1397 24.9972 20.4782 23.6891 20.0363Z" fill="white"/>
<path d="M18.8551 14.9988C17.4935 14.7701 16.6863 12.8186 17.0522 10.64C17.4182 8.46133 18.8187 6.88062 20.1803 7.10933C21.5419 7.33803 22.3491 9.28956 21.9832 11.4682C21.6172 13.6468 20.2168 15.2275 18.8551 14.9988Z" fill="white"/>
<path d="M14.3296 16.8026C15.4666 15.9384 17.0417 15.9432 18.1734 16.8144L18.9353 17.4009C20.2376 18.4034 21.3505 19.6303 22.2216 21.024C23.371 22.8632 22.0488 25.2488 19.88 25.2488H12.5371C10.4009 25.2488 9.09205 22.9062 10.2119 21.087C11.095 19.6525 12.2359 18.3938 13.577 17.3746L14.3296 16.8026Z" fill="white"/>
</svg>
