<svg width="33" height="33" viewBox="0 0 33 33" fill="none" xmlns="http://www.w3.org/2000/svg">
<path d="M16.2685 10.0015C16.3141 9.82014 16.5724 9.82014 16.618 10.0015L16.7826 10.6584C17.4791 13.4405 19.4774 15.7135 22.1492 16.758C22.2809 16.8099 22.2809 16.9973 22.1492 17.0492C19.4774 18.0937 17.4791 20.3667 16.7826 23.1487L16.618 23.8057C16.5724 23.987 16.3141 23.987 16.2685 23.8057L16.1039 23.1487C15.4075 20.3667 13.4092 18.0937 10.7373 17.0492C10.6056 16.9973 10.6056 16.8099 10.7373 16.758C13.4092 15.7135 15.4075 13.4405 16.1039 10.6584L16.2685 10.0015Z" fill="white"/>
<mask id="mask0_1912_15268" style="mask-type:luminance" maskUnits="userSpaceOnUse" x="6" y="3" width="21" height="27">
<path d="M25.3453 3.90356H7.34534C6.79305 3.90356 6.34534 4.35128 6.34534 4.90356V28.9036C6.34534 29.4558 6.79305 29.9036 7.34534 29.9036H25.3453C25.8976 29.9036 26.3453 29.4558 26.3453 28.9036V4.90356C26.3453 4.35128 25.8976 3.90356 25.3453 3.90356Z" fill="white"/>
</mask>
<g mask="url(#mask0_1912_15268)">
<path d="M25.3453 3.90356H7.34534C6.79305 3.90356 6.34534 4.35128 6.34534 4.90356V28.9036C6.34534 29.4558 6.79305 29.9036 7.34534 29.9036H25.3453C25.8976 29.9036 26.3453 29.4558 26.3453 28.9036V4.90356C26.3453 4.35128 25.8976 3.90356 25.3453 3.90356Z" stroke="white" stroke-width="3" stroke-linejoin="round"/>
</g>
</svg>
