<svg width="33" height="33" viewBox="0 0 33 33" fill="none" xmlns="http://www.w3.org/2000/svg">
<path fill-rule="evenodd" clip-rule="evenodd" d="M24.2449 10.9586C24.5849 11.3536 24.932 11.8666 25.173 12.4976C24.834 11.9696 24.477 11.6036 24.098 11.3946C23.691 11.1696 23.2789 11.1366 22.8939 11.2526C22.5229 11.3646 22.2019 11.6056 21.9379 11.8856C21.6709 12.1666 21.444 12.5056 21.26 12.8456C21.147 13.0556 21.0889 13.3046 21.0529 13.5366C21.0169 13.7736 21.0009 14.0257 20.9869 14.2537C20.9819 14.3247 20.9639 14.3596 20.9539 14.3726C20.9499 14.3796 20.9459 14.3826 20.9449 14.3826C20.9439 14.3836 20.9439 14.3837 20.9429 14.3837C20.9429 14.3837 20.9419 14.3847 20.9379 14.3837C20.9339 14.3837 20.9259 14.3827 20.9149 14.3787C20.8919 14.3697 20.8529 14.3466 20.8079 14.2906C20.5669 13.9896 20.3569 13.6956 20.1519 13.4086L20.1389 13.3896C19.9409 13.1116 19.7449 12.8366 19.5399 12.5846C19.1139 12.0626 18.6249 11.6116 17.9039 11.3506C16.7369 10.9296 15.308 10.7746 13.78 11.5386C13.365 11.7456 12.8639 12.0986 12.4379 12.4056C12.3629 12.4596 12.2909 12.5126 12.2219 12.5626C12.0869 12.6606 11.963 12.7506 11.85 12.8306L11.8159 12.8547C11.7219 12.8507 11.6299 12.8336 11.5449 12.8046C11.3529 12.7396 11.2729 12.5306 11.3069 12.3306C11.4509 11.4646 12.065 9.69664 12.804 9.20464C13.457 8.76864 14.154 8.77762 16.26 8.80462C16.884 8.81262 17.632 8.82165 18.538 8.82165C19.939 8.82165 21.019 9.06266 21.778 9.32366C22.723 9.64766 23.5929 10.2026 24.2449 10.9586ZM25.051 14.9076C24.979 15.7626 24.747 16.7127 24.455 17.6437C23.387 20.5857 21.619 23.7736 20.145 24.8246C20.104 24.8416 20.0619 24.8576 20.0189 24.8726C19.9399 24.8566 19.821 24.7996 19.674 24.6636C19.5 24.5026 19.3239 24.2656 19.1779 23.9846C18.8769 23.4056 18.7569 22.7556 18.9009 22.3226C18.9589 22.1506 19.0659 21.9587 19.2059 21.7457C19.2739 21.6407 19.347 21.5366 19.421 21.4296L19.426 21.4236C19.497 21.3206 19.5709 21.2136 19.6389 21.1106C19.7699 20.9106 19.911 20.6716 19.96 20.4326C19.987 20.3056 19.9919 20.1576 19.9399 20.0076C19.8859 19.8536 19.7839 19.7316 19.6539 19.6406C19.5209 19.5476 19.371 19.5227 19.246 19.5297C19 19.5437 18.6519 19.6026 18.2659 19.6766C18.0449 19.7186 17.7989 19.7677 17.5419 19.8187L17.541 19.8196C17.35 19.8576 17.1519 19.8977 16.9539 19.9357C16.0079 20.1217 15.0269 20.2906 14.3329 20.2906C13.5729 20.2906 13.0139 20.2677 12.4849 20.1677C11.9619 20.0687 11.4529 19.8916 10.8029 19.5666C10.5859 19.4576 10.447 19.2697 10.35 19.0477C11.642 17.7337 12.2719 15.0597 12.3989 13.3787C12.4869 13.3157 12.5799 13.2477 12.6769 13.1777C12.7459 13.1277 12.8159 13.0766 12.8859 13.0256C13.3199 12.7126 13.772 12.3976 14.122 12.2226C15.414 11.5766 16.6159 11.6986 17.6439 12.0696C18.1859 12.2656 18.569 12.6046 18.947 13.0676C19.137 13.3006 19.3199 13.5576 19.5239 13.8436L19.53 13.8516C19.733 14.1376 19.955 14.4486 20.21 14.7676C20.445 15.0616 20.8009 15.2196 21.1539 15.1186C21.5139 15.0156 21.7259 14.6837 21.7499 14.3007C21.7639 14.0697 21.779 13.8496 21.809 13.6526C21.84 13.4506 21.8819 13.3046 21.9329 13.2096C22.0939 12.9106 22.2849 12.6316 22.4929 12.4106C22.7039 12.1886 22.915 12.0446 23.114 11.9846C23.301 11.9286 23.5 11.9377 23.728 12.0637C23.968 12.1957 24.254 12.4686 24.567 12.9706C24.93 13.5536 25.107 14.2346 25.051 14.9076ZM9.69495 19.4526C9.84095 19.7476 10.0739 20.0567 10.4609 20.2507C11.1579 20.5987 11.735 20.8036 12.343 20.9186C12.946 21.0326 13.5639 21.0557 14.3329 21.0557C15.1129 21.0557 16.166 20.8696 17.101 20.6866C17.308 20.6456 17.508 20.6056 17.7 20.5676C17.951 20.5166 18.1879 20.4697 18.4089 20.4277C18.7459 20.3637 19.0169 20.3176 19.2059 20.2996C19.1829 20.3836 19.119 20.5096 18.999 20.6926C18.937 20.7866 18.8689 20.8846 18.7949 20.9916L18.7939 20.9927C18.7199 21.0987 18.6409 21.2117 18.5659 21.3267C18.4169 21.5537 18.265 21.8127 18.176 22.0817C17.937 22.7957 18.1549 23.6746 18.4999 24.3376C18.6049 24.5396 18.727 24.7316 18.861 24.9036C17.318 24.8936 15.046 24.7476 13.186 24.2186C11.436 23.7216 9.78893 22.8387 8.69293 22.1437C8.02193 21.7177 7.59196 20.9856 7.74396 20.2046C7.86096 19.5976 8.11294 18.8676 8.59894 18.1536C9.19194 17.2806 9.24195 17.6116 9.33295 18.2186C9.38895 18.5976 9.46195 19.0856 9.69495 19.4526Z" fill="white"/>
</svg>
