<svg width="33" height="33" viewBox="0 0 33 33" fill="none" xmlns="http://www.w3.org/2000/svg">
<path d="M15.0155 4.49927C16.4008 4.49927 17.6246 5.19003 18.3641 6.24536C18.8072 6.04915 19.2982 5.93974 19.8173 5.9397C21.8054 5.9397 23.4169 7.55168 23.4169 9.54028C23.4169 9.60826 23.416 9.67546 23.411 9.74243C23.7478 9.61175 24.1155 9.54028 24.4979 9.54028C26.1542 9.54033 27.4989 10.8842 27.4989 12.5413C27.4987 13.9963 26.4628 15.2094 25.0878 15.4836C25.6905 16.1271 26.0575 16.9912 26.0575 17.9417C26.0575 19.9301 24.4474 21.542 22.4569 21.5422C21.5604 21.5422 20.7369 21.2139 20.1063 20.6702C19.7384 21.218 19.1594 21.612 18.4852 21.7385L18.8573 28.1604C18.8573 28.4255 18.642 28.6409 18.3768 28.6409H14.0555C13.7906 28.6406 13.576 28.4254 13.576 28.1604L13.9276 22.0745C13.6334 22.1947 13.312 22.2629 12.9745 22.2629C11.7538 22.2629 10.7333 21.3917 10.5028 20.2366C9.93809 20.6068 9.26181 20.8225 8.53503 20.8225C6.54698 20.8225 4.93354 19.2105 4.93347 17.2219C4.93347 15.87 5.67847 14.6921 6.78015 14.0764C6.08622 13.42 5.65515 12.4905 5.65515 11.4602C5.65538 9.47191 7.26598 7.85979 9.25378 7.85962C9.86667 7.85962 10.4422 8.01181 10.9462 8.28052C11.1009 6.16661 12.8631 4.49941 15.0155 4.49927Z" fill="white"/>
</svg>
