<svg width="33" height="33" viewBox="0 0 33 33" fill="none" xmlns="http://www.w3.org/2000/svg">
<path d="M27.9432 5.7749H5.94324C5.39095 5.7749 4.94324 6.22262 4.94324 6.7749V26.7749C4.94324 27.3272 5.39095 27.7749 5.94324 27.7749H27.9432C28.4955 27.7749 28.9432 27.3272 28.9432 26.7749V6.7749C28.9432 6.22262 28.4955 5.7749 27.9432 5.7749Z" fill="white"/>
<path d="M7.84326 9.2749H4.04321C3.71221 9.2749 3.44324 9.54391 3.44324 9.87491V11.6749C3.44324 12.0059 3.71221 12.2749 4.04321 12.2749H7.84326C8.17426 12.2749 8.44324 12.0059 8.44324 11.6749V9.87491C8.44324 9.54391 8.17426 9.2749 7.84326 9.2749Z" stroke="#404040"/>
<path d="M11.8433 12.2749H8.04321C7.71221 12.2749 7.44324 12.5439 7.44324 12.8749V14.6749C7.44324 15.0059 7.71221 15.2749 8.04321 15.2749H11.8433C12.1743 15.2749 12.4432 15.0059 12.4432 14.6749V12.8749C12.4432 12.5439 12.1743 12.2749 11.8433 12.2749Z" stroke="#404040"/>
<path d="M28.8433 5.2749H25.0432C24.7122 5.2749 24.4432 5.54391 24.4432 5.87491V7.6749C24.4432 8.0059 24.7122 8.2749 25.0432 8.2749H28.8433C29.1743 8.2749 29.4432 8.0059 29.4432 7.6749V5.87491C29.4432 5.54391 29.1743 5.2749 28.8433 5.2749Z" stroke="#404040"/>
<path d="M24.8433 19.2749H21.0432C20.7122 19.2749 20.4432 19.5439 20.4432 19.8749V21.6749C20.4432 22.0059 20.7122 22.2749 21.0432 22.2749H24.8433C25.1743 22.2749 25.4432 22.0059 25.4432 21.6749V19.8749C25.4432 19.5439 25.1743 19.2749 24.8433 19.2749Z" stroke="#404040"/>
<path d="M27.8433 22.2749H24.0432C23.7122 22.2749 23.4432 22.5439 23.4432 22.8749V24.6749C23.4432 25.0059 23.7122 25.2749 24.0432 25.2749H27.8433C28.1743 25.2749 28.4432 25.0059 28.4432 24.6749V22.8749C28.4432 22.5439 28.1743 22.2749 27.8433 22.2749Z" stroke="#404040"/>
<path d="M8.84326 24.2749H5.04321C4.71221 24.2749 4.44324 24.5439 4.44324 24.8749V26.6749C4.44324 27.0059 4.71221 27.2749 5.04321 27.2749H8.84326C9.17426 27.2749 9.44324 27.0059 9.44324 26.6749V24.8749C9.44324 24.5439 9.17426 24.2749 8.84326 24.2749Z" stroke="#404040"/>
</svg>
