<svg width="33" height="33" viewBox="0 0 33 33" fill="none" xmlns="http://www.w3.org/2000/svg">
<path fill-rule="evenodd" clip-rule="evenodd" d="M4.94324 9.0249C4.66724 9.0249 4.44324 9.2489 4.44324 9.5249V10.5249C4.44324 10.8009 4.66724 11.0249 4.94324 11.0249H6.44324V23.5249C6.44324 23.8009 6.66724 24.0249 6.94324 24.0249H7.94324C8.21924 24.0249 8.44324 23.8009 8.44324 23.5249V11.0249H24.4432V23.5249C24.4432 23.8009 24.6672 24.0249 24.9432 24.0249H25.9432C26.2192 24.0249 26.4432 23.8009 26.4432 23.5249V11.0249H27.9432C28.2192 11.0249 28.4432 10.8009 28.4432 10.5249V9.5249C28.4432 9.2489 28.2192 9.0249 27.9432 9.0249H4.94324ZM23.4432 12.0249H9.44324V14.0249H23.4432V12.0249Z" fill="white"/>
</svg>
