<svg width="33" height="33" viewBox="0 0 33 33" fill="none" xmlns="http://www.w3.org/2000/svg">
<path d="M9.94324 12.7706C11.3862 12.7706 12.7172 12.4796 13.7062 11.9846C14.1882 11.7436 14.6262 11.4336 14.9432 11.0586V12.2736C14.9302 13.6486 12.6962 14.7616 9.94324 14.7616C7.18224 14.7616 4.94324 13.6426 4.94324 12.2616V11.0586C5.26024 11.4336 5.69824 11.7436 6.18024 11.9846C7.16924 12.4796 8.50024 12.7706 9.94324 12.7706Z" fill="white"/>
<path d="M4.94324 9.76273C4.94424 11.1427 7.18224 12.2617 9.94324 12.2617C12.7042 12.2617 14.9432 11.1427 14.9432 9.76172C14.9432 9.40572 14.7952 9.06772 14.5272 8.76172H5.35925C5.09225 9.06772 4.94324 9.40571 4.94324 9.76071V9.76273Z" fill="white"/>
<path d="M13.7062 14.4846C14.1882 14.2436 14.6262 13.9336 14.9432 13.5586V14.7736C14.9302 16.1486 12.6962 17.2616 9.94324 17.2616C7.18224 17.2616 4.94324 16.1426 4.94324 14.7616V13.5586C5.26024 13.9336 5.69824 14.2436 6.18024 14.4846C7.16924 14.9796 8.50024 15.2706 9.94324 15.2706C11.3862 15.2706 12.7172 14.9796 13.7062 14.4846Z" fill="white"/>
<path d="M4.94324 16.0586V17.2616C4.94324 18.6426 7.18224 19.7616 9.94324 19.7616C12.6962 19.7616 14.9302 18.6486 14.9432 17.2736V16.0586C14.6262 16.4336 14.1882 16.7436 13.7062 16.9846C12.7172 17.4796 11.3862 17.7706 9.94324 17.7706C8.50024 17.7706 7.16924 17.4796 6.18024 16.9846C5.69824 16.7436 5.26024 16.4336 4.94324 16.0586Z" fill="white"/>
<path d="M4.94324 19.7616V18.5586C5.26024 18.9336 5.69824 19.2436 6.18024 19.4846C7.16924 19.9796 8.50024 20.2706 9.94324 20.2706C11.3862 20.2706 12.7172 19.9796 13.7062 19.4846C14.1882 19.2436 14.6262 18.9336 14.9432 18.5586V19.7736C14.9302 21.1486 12.6962 22.2616 9.94324 22.2616C7.18224 22.2616 4.94324 21.1426 4.94324 19.7616Z" fill="white"/>
<path d="M4.94324 21.0586V22.2616C4.94324 23.6426 7.18224 24.7616 9.94324 24.7616C12.6962 24.7616 14.9302 23.6486 14.9432 22.2736V21.0586C14.6262 21.4336 14.1882 21.7436 13.7062 21.9846C12.7172 22.4796 11.3862 22.7706 9.94324 22.7706C8.50024 22.7706 7.16924 22.4796 6.18024 21.9846C5.69824 21.7436 5.26024 21.4336 4.94324 21.0586Z" fill="white"/>
<path d="M9.94324 12.2617C12.7042 12.2617 14.9432 11.1427 14.9432 9.76172C14.9432 8.38101 12.7047 7.26172 9.94324 7.26172C7.18181 7.26172 4.94324 8.38101 4.94324 9.76172C4.94324 11.1424 7.18181 12.2617 9.94324 12.2617Z" fill="white"/>
<path d="M7.52246 8.78689L8.42922 8.26342L12.3641 10.535L11.4573 11.0585L7.52246 8.78689Z" fill="#404040"/>
<path d="M22.9432 20.2707C24.3862 20.2707 25.7172 19.9796 26.7062 19.4846C27.1882 19.2436 27.6262 18.9337 27.9432 18.5587V19.7737C27.9302 21.1487 25.6962 22.2617 22.9432 22.2617C20.1822 22.2617 17.9432 21.1427 17.9432 19.7617V18.5587C18.2602 18.9337 18.6982 19.2436 19.1802 19.4846C20.1692 19.9796 21.5002 20.2707 22.9432 20.2707Z" fill="white"/>
<path d="M17.9432 17.2628C17.9442 18.6428 20.1822 19.7618 22.9432 19.7618C25.7042 19.7618 27.9432 18.6428 27.9432 17.2618C27.9432 16.9058 27.7952 16.5678 27.5272 16.2618H18.3593C18.0923 16.5678 17.9432 16.9058 17.9432 17.2608V17.2628Z" fill="white"/>
<path d="M26.7062 21.9846C27.1882 21.7436 27.6262 21.4337 27.9432 21.0587V22.2737C27.9302 23.6487 25.6962 24.7617 22.9432 24.7617C20.1822 24.7617 17.9432 23.6427 17.9432 22.2617V21.0587C18.2602 21.4337 18.6982 21.7436 19.1802 21.9846C20.1692 22.4796 21.5002 22.7707 22.9432 22.7707C24.3862 22.7707 25.7172 22.4796 26.7062 21.9846Z" fill="white"/>
<path d="M22.9432 19.7618C25.7042 19.7618 27.9432 18.6428 27.9432 17.2618C27.9432 15.8811 25.7047 14.7618 22.9432 14.7618C20.1818 14.7618 17.9432 15.8811 17.9432 17.2618C17.9432 18.6425 20.1818 19.7618 22.9432 19.7618Z" fill="white"/>
<path d="M20.5225 16.3877L21.4292 15.8642L25.3641 18.1358L24.4573 18.6593L20.5225 16.3877Z" fill="#404040"/>
</svg>
