<svg width="33" height="33" viewBox="0 0 33 33" fill="none" xmlns="http://www.w3.org/2000/svg">
<path d="M25.6406 13.468C23.2376 9.25 17.9536 7.16499 15.7756 7.12099C15.6156 7.11799 15.4596 7.16399 15.3216 7.24599C12.9856 8.62699 12.0616 11.145 11.8316 12.558C11.7916 12.807 11.8606 13.06 12.0076 13.264C15.0326 17.47 19.5356 19.136 21.7266 19.506C21.9296 19.541 22.1366 19.508 22.3186 19.412C24.7456 18.126 25.6006 15.479 25.7616 14.034C25.7836 13.837 25.7386 13.64 25.6406 13.468Z" fill="white"/>
<path fill-rule="evenodd" clip-rule="evenodd" d="M15.3086 17.5911C15.6776 17.7511 16.1456 18.0541 16.4946 18.3601C16.5736 18.4291 16.5866 18.5451 16.5296 18.6331L15.5997 20.0761L15.8186 20.2171C15.8276 20.2231 15.8366 20.2291 15.8436 20.2371C16.3996 20.8331 13.0226 26.0631 12.1116 26.0001C12.0436 25.9901 11.9486 25.9651 11.8316 25.9231L11.8306 25.9251C11.5596 26.3441 11.0757 26.5391 10.6437 26.2891C10.5847 26.2541 10.5256 26.2181 10.4676 26.1811C10.0686 25.9201 10.0707 25.4091 10.3287 25.0091L10.3686 24.9471C10.3196 24.9011 10.2706 24.8521 10.2216 24.8011C10.1896 24.7681 10.1626 24.7321 10.1506 24.6871C9.85965 23.5821 13.3187 18.6031 13.8797 18.9661C13.8847 18.9691 13.8896 18.9731 13.8946 18.9771C13.8996 18.9801 13.9047 18.9841 13.9107 18.9881L14.1217 19.1241L15.0567 17.6731C15.1107 17.5881 15.2166 17.5511 15.3086 17.5911Z" fill="white"/>
<path d="M16.4357 8.52705C15.9367 8.50205 13.3157 10.8751 13.2167 12.8721" stroke="#404040" stroke-width="0.769207" stroke-linecap="round"/>
</svg>
