<svg width="33" height="33" viewBox="0 0 33 33" fill="none" xmlns="http://www.w3.org/2000/svg">
<path d="M16.4432 5.41284C22.7945 5.41284 27.9432 10.5616 27.9432 16.9128C27.9432 23.2641 22.7945 28.4128 16.4432 28.4128C10.092 28.4128 4.94324 23.2641 4.94324 16.9128C4.94324 10.5616 10.092 5.41284 16.4432 5.41284ZM16.4432 7.56909C11.2828 7.56909 7.09949 11.7524 7.09949 16.9128C7.09949 22.0733 11.2828 26.2566 16.4432 26.2566C21.6036 26.2566 25.787 22.0733 25.787 16.9128C25.787 11.7524 21.6036 7.56909 16.4432 7.56909Z" fill="white"/>
<path fill-rule="evenodd" clip-rule="evenodd" d="M16.4432 25.1631C20.9998 25.1631 24.6935 21.4695 24.6935 16.9128C24.6935 12.3562 20.9998 8.6626 16.4432 8.6626C11.8866 8.6626 8.19299 12.3562 8.19299 16.9128C8.19299 21.4695 11.8866 25.1631 16.4432 25.1631ZM16.5645 10.594C16.5183 10.4876 16.3682 10.4876 16.322 10.594L14.6901 14.385C14.6703 14.4287 14.629 14.4592 14.5803 14.4642L10.4709 14.8453C10.3562 14.856 10.3092 14.9988 10.3967 15.0755L13.4971 17.7989C13.5334 17.8311 13.5491 17.8806 13.5383 17.9276L12.6308 21.9537C12.6061 22.0668 12.7273 22.1551 12.8272 22.0957L16.3756 19.9894C16.4177 19.9646 16.4688 19.9646 16.5109 19.9894L20.0593 22.0957C20.1591 22.1551 20.2804 22.0668 20.2557 21.9537L19.3481 17.9276C19.3374 17.8806 19.3531 17.8311 19.3894 17.7989L22.4898 15.0755C22.5773 14.9988 22.5303 14.856 22.4156 14.8453L18.3061 14.4642C18.2575 14.4592 18.2162 14.4287 18.1964 14.385L16.5645 10.594Z" fill="white"/>
</svg>
