<svg width="33" height="33" viewBox="0 0 33 33" fill="none" xmlns="http://www.w3.org/2000/svg">
<path d="M20.7292 25.3434C20.7292 27.3554 19.0982 28.9864 17.0862 28.9864C15.0742 28.9864 13.4432 27.3554 13.4432 25.3434C13.4432 23.3314 15.0742 21.7004 17.0862 21.7004C18.2772 21.7004 19.3352 22.2724 20.0002 23.1574C20.4582 23.7664 20.7292 24.5234 20.7292 25.3434Z" fill="white"/>
<path d="M18.7122 20.2424C19.2442 21.6994 20.6392 23.9824 20.6392 24.6134C18.5752 25.0994 14.1232 25.8784 13.8072 24.6134C13.5052 23.4024 14.9643 22.1914 16.0933 21.6074C16.4743 21.4104 16.7922 21.0884 16.9092 20.6744L17.1492 19.8244C17.3232 19.2094 17.8842 18.7854 18.5232 18.7854C18.5312 18.7854 18.5362 18.7954 18.5322 18.8014C18.4872 18.8764 18.3412 19.2294 18.7122 20.2424Z" fill="white"/>
<path d="M19.0372 26.6435C19.0372 27.9375 17.9892 28.9855 16.6962 28.9855C15.4022 28.9855 14.3542 27.9375 14.3542 26.6435C14.3542 25.3505 15.4022 24.3025 16.6962 24.3025C17.4622 24.3025 18.1422 24.6695 18.5692 25.2385C18.8632 25.6305 19.0372 26.1165 19.0372 26.6435Z" fill="#404040"/>
<path d="M17.7413 23.3643C18.0833 24.3013 18.9803 25.7693 18.9803 26.1753C17.6533 26.4873 14.7913 26.9873 14.5883 26.1753C14.3933 25.3943 15.3373 24.6133 16.0633 24.2393C16.3083 24.1133 16.5213 23.9193 16.6233 23.6633L16.7143 23.4363C16.8553 23.0843 17.0993 22.7833 17.4143 22.5733L17.5583 22.4783C17.5693 22.4703 17.6014 22.4973 17.5984 22.5103C17.5704 22.6243 17.5613 22.8743 17.7413 23.3643Z" fill="#404040"/>
<path d="M6.44324 29.7854H10.4432C10.7192 29.7854 10.9432 29.5614 10.9432 29.2854V19.7854C10.9432 18.4524 12.1432 15.7854 16.9432 15.7854C21.7432 15.7854 22.9432 18.4524 22.9432 19.7854V29.2854C22.9432 29.5614 23.1672 29.7854 23.4432 29.7854H27.4432C27.7192 29.7854 27.9432 29.5614 27.9432 29.2854V11.7854H5.94324V29.2854C5.94324 29.5614 6.16724 29.7854 6.44324 29.7854Z" fill="white"/>
<path d="M28.4432 10.2854H5.44324C4.89095 10.2854 4.44324 10.7331 4.44324 11.2854V12.2854C4.44324 12.8377 4.89095 13.2854 5.44324 13.2854H28.4432C28.9955 13.2854 29.4432 12.8377 29.4432 12.2854V11.2854C29.4432 10.7331 28.9955 10.2854 28.4432 10.2854Z" fill="white" stroke="#404040"/>
<path d="M25.8433 15.2854H22.0432C21.7122 15.2854 21.4432 15.5544 21.4432 15.8854V17.6854C21.4432 18.0164 21.7122 18.2854 22.0432 18.2854H25.8433C26.1743 18.2854 26.4432 18.0164 26.4432 17.6854V15.8854C26.4432 15.5544 26.1743 15.2854 25.8433 15.2854Z" stroke="#404040"/>
<path d="M7.84326 22.2854H4.04321C3.71221 22.2854 3.44324 22.5544 3.44324 22.8854V24.6854C3.44324 25.0164 3.71221 25.2854 4.04321 25.2854H7.84326C8.17426 25.2854 8.44324 25.0164 8.44324 24.6854V22.8854C8.44324 22.5544 8.17426 22.2854 7.84326 22.2854Z" stroke="#404040"/>
<path d="M25.2492 9.7854H8.63716C8.29516 9.7854 8.05418 9.45141 8.16218 9.12741L9.82917 4.12741C9.89717 3.92341 10.0882 3.7854 10.3032 3.7854H23.5832C23.7982 3.7854 23.9892 3.92341 24.0572 4.12741L25.7242 9.12741C25.8322 9.45141 25.5912 9.7854 25.2492 9.7854Z" fill="white"/>
<path d="M13.8433 2.2854H10.0432C9.71221 2.2854 9.44324 2.55441 9.44324 2.88541V4.68539C9.44324 5.01639 9.71221 5.2854 10.0432 5.2854H13.8433C14.1743 5.2854 14.4432 5.01639 14.4432 4.68539V2.88541C14.4432 2.55441 14.1743 2.2854 13.8433 2.2854Z" stroke="#404040"/>
</svg>
