<svg width="33" height="32" viewBox="0 0 33 32" fill="none" xmlns="http://www.w3.org/2000/svg">
<path d="M24.4577 19.8154H8.42853C8.19557 19.8154 8.00671 20.0043 8.00671 20.2372V21.9245C8.00671 22.1575 8.19557 22.3464 8.42853 22.3464H24.4577C24.6907 22.3464 24.8795 22.1575 24.8795 21.9245V20.2372C24.8795 20.0043 24.6907 19.8154 24.4577 19.8154Z" fill="white"/>
<path d="M6.53681 10.1465C6.46932 9.74176 6.96074 9.48867 7.24969 9.77888L12.8261 15.3558C12.9464 15.476 13.1488 15.4458 13.229 15.2959L16.072 9.96786C16.2302 9.67005 16.6563 9.67005 16.8145 9.96786L19.6575 15.2959C19.7377 15.4458 19.9401 15.476 20.0604 15.3558L25.6368 9.77888C25.9258 9.48867 26.4172 9.74176 26.3497 10.1465L24.9155 18.7603C24.8944 18.8824 24.789 18.9718 24.6645 18.9718H8.22198C8.09754 18.9718 7.99207 18.8824 7.97098 18.7603L6.53681 10.1465Z" fill="white"/>
</svg>
