<svg width="33" height="33" viewBox="0 0 33 33" fill="none" xmlns="http://www.w3.org/2000/svg">
<path d="M4.44324 9.7356C4.44324 9.4596 4.66724 9.2356 4.94324 9.2356H27.9432C28.2192 9.2356 28.4432 9.4596 28.4432 9.7356V24.5956C28.4432 24.9206 28.1373 25.1656 27.8173 25.1066C27.0033 24.9586 25.4462 24.7356 23.4432 24.7356C20.6582 24.7356 17.0112 25.1666 16.5032 25.2286C16.4622 25.2336 16.4242 25.2336 16.3832 25.2286C15.8752 25.1666 12.2282 24.7356 9.44324 24.7356C7.44024 24.7356 5.88321 24.9586 5.06921 25.1066C4.74921 25.1656 4.44324 24.9206 4.44324 24.5956V9.7356Z" fill="white"/>
<path d="M26.4432 22.2948V9.29973C26.4432 8.79073 26.0573 8.35375 25.5363 8.31175C24.6903 8.24375 22.7523 8.12574 21.3613 8.35774C19.7913 8.61874 17.1273 9.56973 16.4453 9.81773C16.4433 9.81773 16.4422 9.81773 16.4432 9.81773C16.4432 9.81773 16.4432 9.81773 16.4412 9.81773C15.7592 9.56973 13.0952 8.61874 11.5252 8.35774C10.1342 8.12574 8.19622 8.24375 7.35022 8.31175C6.82922 8.35375 6.44324 8.79073 6.44324 9.29973V22.2948C6.44324 22.8898 6.95522 23.3447 7.53522 23.2997C8.42922 23.2317 10.1583 23.1437 11.3613 23.3437C12.8213 23.5867 15.3932 24.4997 16.0992 24.7567C16.3222 24.8387 16.5642 24.8387 16.7872 24.7567C17.4932 24.4997 20.0652 23.5867 21.5252 23.3437C22.7282 23.1427 24.4573 23.2317 25.3513 23.2997C25.9313 23.3447 26.4432 22.8898 26.4432 22.2948Z" fill="white" stroke="#404040"/>
<path fill-rule="evenodd" clip-rule="evenodd" d="M16.9432 8.73389V25.7339H15.9432V8.73389H16.9432Z" fill="#404040"/>
</svg>
