<svg width="33" height="32" viewBox="0 0 33 32" fill="none" xmlns="http://www.w3.org/2000/svg">
<path d="M14.4432 9H8.0202V10.5H14.4432V9Z" fill="white"/>
<path d="M14.4432 7.00024H8.0202V8.50024H14.4432V7.00024Z" fill="white"/>
<path d="M23.9432 6.00024V10.5002H22.4432V6.00024H23.9432Z" fill="white"/>
<path d="M21.9432 10.5002V4.5833H20.4432V10.5002H21.9432Z" fill="white"/>
<path d="M19.9432 4.5833V10.5002H18.4432V4.5833H19.9432Z" fill="white"/>
<path d="M17.4432 17.1186H22.4432V18.6186H17.4432V17.1186Z" fill="white"/>
<path d="M11.9432 18.6183V14.1183H10.4432V18.6183H11.9432Z" fill="white"/>
<path d="M13.9492 14.0104L14.9031 18.4082L13.4371 18.7261L12.4833 14.3284L13.9492 14.0104Z" fill="white"/>
<path d="M16.863 18.4082L15.9092 14.0104L14.4433 14.3284L15.3971 18.7261L16.863 18.4082Z" fill="white"/>
<path d="M9.94324 14.1183V18.6183H8.44324V14.1183H9.94324Z" fill="white"/>
<path d="M15.4404 25.9607V27.4607H10.4404V25.9607H15.4404Z" fill="white"/>
<path d="M24.9404 25.9607H19.9404V27.4607H24.9404V25.9607Z" fill="white"/>
<path d="M15.4404 23.9605V25.4605H10.4404V23.9605H15.4404Z" fill="white"/>
<path d="M24.9404 23.9605H19.9404V25.4605H24.9404V23.9605Z" fill="white"/>
<path d="M19.4404 22.4607V27.4607H17.9404V22.4607H19.4404Z" fill="white"/>
<path d="M17.4404 27.4607V22.9607H15.9404V27.4607H17.4404Z" fill="white"/>
<path fill-rule="evenodd" clip-rule="evenodd" d="M5.44324 4.00024C5.44324 2.89567 6.33867 2.00024 7.44324 2.00024H25.4432C26.5478 2.00024 27.4432 2.89567 27.4432 4.00024V28.0002C27.4432 29.1048 26.5478 30.0002 25.4432 30.0002H7.44324C6.33867 30.0002 5.44324 29.1048 5.44324 28.0002V4.00024ZM25.4432 4.00024H7.44324V10.9871H25.4432V4.00024ZM25.4432 13.0131H7.44324V18.9871H25.4432V13.0131ZM7.44324 28.0002V21.0131H25.4432V28.0002H7.44324Z" fill="white"/>
<path d="M10.0136 27.4607V24.3025H8.5136V27.4607H10.0136Z" fill="white"/>
<path d="M24.2725 18.6183V15.4602H22.7725V18.6183H24.2725Z" fill="white"/>
</svg>
