<svg width="33" height="33" viewBox="0 0 33 33" fill="none" xmlns="http://www.w3.org/2000/svg">
<path fill-rule="evenodd" clip-rule="evenodd" d="M22.2485 9.4819C21.9425 8.7399 21.1406 7.94191 20.6646 7.55191L20.6456 7.54287C20.5606 7.46687 20.4696 7.38891 20.3716 7.30691C20.0386 7.02991 19.6106 6.88689 19.1776 6.89889C17.8986 6.93689 16.6546 7.09089 15.4946 7.31289C13.9556 7.54989 12.4946 7.93789 11.5666 8.24289C10.0386 8.82689 9.33055 9.2269 9.06055 9.5159C9.03655 9.5299 9.01456 9.54389 8.99256 9.55789C7.03656 13.3329 10.0956 18.8979 11.5416 21.2879C12.3276 22.5889 12.5545 21.0619 12.7535 19.7259C12.9435 18.4509 13.1076 17.3499 13.7056 19.0439C16.3516 19.3309 16.6606 17.9629 16.9246 16.7969C17.1256 15.9109 17.2996 15.1419 18.4506 15.3039C16.9916 13.5889 16.6146 12.4759 16.8226 11.7199C15.9136 11.8589 14.9986 12.0339 14.0976 12.2549C13.3476 12.4399 12.7816 12.2329 12.3406 11.9409C12.1426 11.8089 11.9656 11.6579 11.8216 11.5329L11.8026 11.5169C11.6436 11.3809 11.5286 11.2839 11.4186 11.2179C10.8566 10.8769 10.7126 10.9829 10.6966 10.9939C10.6606 11.0199 10.6006 11.0849 10.5306 11.2419C10.4626 11.3969 10.4016 11.6019 10.3426 11.8629C10.2816 12.1329 10.0136 12.3019 9.74457 12.2409C9.47457 12.1799 9.30558 11.9119 9.36658 11.6419C9.43158 11.3579 9.50858 11.0789 9.61658 10.8369C9.72258 10.5969 9.87559 10.3519 10.1136 10.1809C10.6496 9.79787 11.2976 9.9759 11.9366 10.3619C12.1276 10.4779 12.3025 10.6289 12.4485 10.7539L12.4546 10.7589L12.4556 10.7599C12.6126 10.8949 12.7476 11.0109 12.8946 11.1079C13.1616 11.2859 13.4436 11.3859 13.8586 11.2839C15.2356 10.9459 16.6356 10.7149 17.9976 10.5529C18.0066 10.5489 18.0155 10.5439 18.0245 10.5399C18.2375 10.5189 18.4505 10.4979 18.6625 10.4789C19.7245 10.3679 20.7556 10.2969 21.7256 10.2469C22.1126 10.1689 22.4025 9.8559 22.2485 9.4819Z" fill="white"/>
<path fill-rule="evenodd" clip-rule="evenodd" d="M11.6615 11.3979C11.0895 11.8129 10.5185 12.3038 9.95851 12.8828C9.89851 12.9608 9.74552 12.9168 9.55952 12.8648C9.03952 12.7168 8.2705 12.4968 8.5995 14.6588C9.0195 17.4208 10.2325 23.6538 14.1525 25.3018C14.1775 25.2978 14.2045 25.2949 14.2315 25.2909C14.6235 25.3389 15.4245 25.1929 16.9715 24.6629C17.8795 24.3039 19.2505 23.6658 20.5845 22.8628C20.6985 22.7988 20.8135 22.7348 20.9285 22.6688C21.0315 22.6098 21.1235 22.5439 21.2065 22.4729C22.6075 21.5619 23.8765 20.4809 24.4025 19.3689C24.5185 18.7639 24.6235 17.6379 24.3835 16.8719C24.2625 16.4859 23.8395 16.4318 23.4915 16.6198C22.7145 17.2018 21.8775 17.8079 20.9905 18.4029C20.9185 18.4529 20.8465 18.5019 20.7745 18.5509L20.7725 18.5489C19.5255 19.3759 18.1855 20.1768 16.7855 20.8598C16.4005 21.0478 16.2485 21.3048 16.1575 21.6128C16.1065 21.7808 16.0775 21.9568 16.0425 22.1618V22.1629L16.0415 22.1698C16.0095 22.3588 15.9715 22.5879 15.8985 22.7989C15.6555 23.5049 15.2715 24.0558 14.6145 24.1048C14.3225 24.1258 14.0485 24.0358 13.8125 23.9198C13.5755 23.8018 13.3365 23.6378 13.1055 23.4608C12.8865 23.2928 12.8445 22.9789 13.0125 22.7599C13.1805 22.5399 13.4945 22.4988 13.7135 22.6668C13.9255 22.8288 14.1045 22.9479 14.2555 23.0229C14.4095 23.0989 14.4975 23.1108 14.5415 23.1068C14.5605 23.1058 14.7395 23.0949 14.9535 22.4729C14.9955 22.3519 15.0215 22.2039 15.0565 21.9969L15.0605 21.9729C15.0925 21.7849 15.1305 21.5549 15.1985 21.3269C15.3495 20.8209 15.6525 20.2998 16.3465 19.9608C17.6955 19.3028 18.9915 18.5288 20.2055 17.7248C19.4695 16.4418 18.9205 14.4938 18.7615 11.4738C17.2305 11.6328 15.6445 11.8748 14.0975 12.2548C13.3475 12.4388 12.7815 12.2328 12.3405 11.9408C12.1425 11.8088 11.9665 11.6579 11.8215 11.5329L11.8025 11.5168C11.7515 11.4728 11.7055 11.4339 11.6615 11.3979ZM18.7235 10.4718C18.7145 10.0558 18.7115 9.62083 18.7155 9.16683C17.3355 9.15383 14.9805 9.35084 12.5295 10.8228C12.6565 10.9318 12.7715 11.0268 12.8945 11.1078C13.1615 11.2858 13.4435 11.3858 13.8585 11.2838C15.4815 10.8848 17.1375 10.6348 18.7235 10.4718Z" fill="white"/>
</svg>
