<svg width="33" height="33" viewBox="0 0 33 33" fill="none" xmlns="http://www.w3.org/2000/svg">
<path d="M9.7431 8.67554C9.44324 9.0647 8.97253 9.31543 8.44324 9.31543C7.53748 9.31543 6.80322 8.58118 6.80322 7.67542C6.80322 6.76965 7.53748 6.0354 8.44324 6.0354C8.97263 6.0354 9.44345 6.28624 9.74332 6.67554H23.1431C23.4429 6.28624 23.9137 6.0354 24.4431 6.0354C25.3489 6.0354 26.0831 6.76965 26.0831 7.67542C26.0831 8.58118 25.3489 9.31543 24.4431 9.31543C23.9138 9.31543 23.4431 9.0647 23.1432 8.67554H9.7431Z" fill="white"/>
<path d="M11.0414 9.21753V24.8298C11.0414 25.3758 11.7104 25.6878 12.1279 25.3389L16.442 21.7441L20.7554 25.3384C21.1746 25.6884 21.8451 25.375 21.8451 24.8298V9.21753H22.8451V24.8298C22.8451 26.2245 21.1846 26.999 20.1153 26.1066L16.442 23.0458L12.7692 26.1061C11.6994 27.0001 10.0414 26.2227 10.0414 24.8298V9.21753H11.0414Z" fill="white"/>
<path d="M11.5414 9.2478H21.3451V24.8314C21.3451 24.97 21.183 25.0457 21.0766 24.9568L16.599 21.2258C16.5078 21.15 16.3761 21.15 16.2849 21.2258L11.8073 24.9568C11.7009 25.0457 11.5414 24.97 11.5414 24.8314V9.2478Z" fill="white"/>
</svg>
