<svg width="33" height="33" viewBox="0 0 33 33" fill="none" xmlns="http://www.w3.org/2000/svg">
<path d="M18.9682 18.6373C18.8023 18.3521 18.8992 17.986 19.1844 17.8201L20.2177 17.2192C20.5029 17.0534 20.869 17.1502 21.0349 17.4354L26.1426 26.2189C26.4743 26.7893 26.2806 27.5214 25.7102 27.8531C25.1398 28.1848 24.4077 27.9911 24.0759 27.4207L18.9682 18.6373Z" fill="white"/>
<path d="M7.74711 10.9529C10.2973 12.4871 12.1601 11.5339 14.1606 10.3705C15.8367 9.39583 20.4719 13.6143 17.1652 15.5372C14.1788 17.2739 13.6333 19.8478 13.7446 21.2377C13.7594 21.42 13.5836 21.572 13.4101 21.5139C7.12224 19.3779 5.97468 15.2788 7.39174 11.0766C7.44089 10.9305 7.61514 10.8734 7.74711 10.9529Z" fill="white"/>
<path d="M18.838 13.6577L16.6218 9.84671C16.4139 9.48918 16.7961 9.07884 17.1676 9.26106L19.6535 10.4801C19.7402 10.5223 19.7931 10.6132 19.7868 10.7095L19.6169 13.473C19.5916 13.8859 19.0459 14.0152 18.838 13.6577Z" fill="white"/>
<path d="M13.8603 9.8539C13.5286 9.28349 13.7223 8.55135 14.2927 8.21964C14.8631 7.88794 15.5953 8.08167 15.927 8.65207L19.8329 15.3688C19.9988 15.654 19.9019 16.0201 19.6167 16.1859L18.5834 16.7868C18.2982 16.9527 17.9321 16.8558 17.7663 16.5706L13.8603 9.8539Z" fill="white" stroke="#404040" stroke-width="0.7"/>
<path d="M22.0633 18.9114L19.7248 20.2713C19.5026 20.4005 19.3866 20.6574 19.4517 20.9072C20.1084 23.4347 21.873 25.7535 22.9423 26.8837C23.1254 27.0773 23.4179 27.1118 23.6483 26.9778L25.9868 25.6179C26.209 25.4887 26.325 25.2318 26.26 24.982C25.6032 22.4545 23.8386 20.1357 22.7693 19.0056C22.5862 18.812 22.2937 18.7774 22.0633 18.9114Z" fill="white"/>
</svg>
