<svg width="33" height="32" viewBox="0 0 33 32" fill="none" xmlns="http://www.w3.org/2000/svg">
<path d="M14.8855 17.2494L12.93 15.5212L21.1644 6.20302C21.2347 6.12339 21.3333 6.07504 21.4398 6.06807L25.1089 5.84184C25.33 5.82851 25.5196 5.99555 25.5329 6.2166L25.7601 9.88598C25.7661 9.99229 25.7307 10.0963 25.6605 10.1759L17.426 19.4942L15.512 17.803L21.8699 10.6081L22.1817 9.85608C22.2492 9.69427 22.0699 9.54161 21.9206 9.63378L21.2425 10.0544L14.8855 17.2494Z" fill="white"/>
<path d="M16.0549 23.3118L17.6904 21.461C17.8364 21.2947 17.8212 21.0426 17.6551 20.8957L14.5834 18.181L11.5107 15.4661C11.3454 15.3203 11.0924 15.3353 10.9464 15.5016L9.31086 17.3525C9.16411 17.5176 9.18013 17.7708 9.34545 17.9166L10.4323 18.8768C10.5974 19.0235 10.6136 19.2758 10.4666 19.4419L6.88812 23.4924C6.74137 23.6575 6.75736 23.9107 6.92268 24.0565L9.69504 26.5065C9.86135 26.6524 10.1134 26.6372 10.2601 26.4721L13.8386 22.4216C13.9856 22.2555 14.2376 22.2402 14.404 22.3862L15.4898 23.3462C15.6559 23.4932 15.9082 23.477 16.0549 23.3118Z" fill="white"/>
</svg>
