<svg width="33" height="33" viewBox="0 0 33 33" fill="none" xmlns="http://www.w3.org/2000/svg">
<path d="M19.5907 15.6388C19.837 15.5147 20.1372 15.6134 20.2616 15.8595L21.3876 18.0929L21.6678 17.9523C22.5396 17.647 25.3653 23.2485 24.7469 24.0558C24.6963 24.1129 24.6149 24.1867 24.5048 24.2726L24.5399 24.342C24.7885 24.8348 24.5904 25.4362 24.0975 25.6847C23.6047 25.9333 23.0033 25.7352 22.7548 25.2424L22.7089 25.1506C22.6301 25.1746 22.549 25.1984 22.4657 25.2209C22.4256 25.2321 22.3852 25.238 22.3446 25.2306C21.144 25.0108 18.6148 19.4593 19.3104 19.1398C19.3211 19.1345 19.3319 19.1311 19.3417 19.1261L19.6024 18.9933L18.4764 16.7599C18.3524 16.5137 18.4511 16.2134 18.6971 16.089L19.5907 15.6388ZM12.1102 4.84978C12.2432 4.78269 12.3864 4.87982 12.3641 5.02654C12.1967 6.13577 11.518 8.88404 13.7557 9.62127C13.8785 9.6617 14.4262 9.84184 14.6473 9.17107L14.4227 8.72478C14.4223 8.72387 14.4222 8.72276 14.4218 8.72185L14.288 8.4572C14.2384 8.35899 14.2786 8.23721 14.3768 8.18767L14.8055 7.97185L15.537 7.60271C15.7834 7.47842 16.0846 7.57796 16.2089 7.82439L19.3612 14.0744C19.4853 14.3208 19.3859 14.621 19.1395 14.7453L18.2469 15.1965C18.0006 15.3205 17.6993 15.2211 17.5751 14.9748L17.3505 14.5285L17.3036 14.4523C17.0445 14.1149 16.4562 14.3779 16.4579 14.9787C16.4622 16.0639 16.6733 16.5164 17.7108 17.5588C17.7586 17.6073 17.7468 17.6881 17.6854 17.717C15.7968 18.5956 10.8286 19.3622 8.40613 14.5597C5.38254 8.56516 10.6044 5.6149 12.1102 4.84978ZM17.6249 8.41033C17.5357 8.23354 17.7296 8.04843 17.9012 8.14666L20.3475 9.5324C20.4179 9.57195 20.4571 9.65055 20.4471 9.73064L20.1083 12.5217C20.0851 12.7179 19.8205 12.7638 19.7313 12.5871L17.6249 8.41033Z" fill="white"/>
</svg>
