<svg width="33" height="32" viewBox="0 0 33 32" fill="none" xmlns="http://www.w3.org/2000/svg">
<path d="M5.65444 7.23223C5.58119 7.10848 5.62194 6.94873 5.74569 6.87548L12.0192 3.15774C12.1429 3.08449 12.3027 3.12524 12.3762 3.24899L13.1064 4.48123C13.1797 4.60498 13.1389 4.76474 13.0152 4.83824L6.74145 8.55574C6.6177 8.62924 6.45795 8.58824 6.3847 8.46449L5.65444 7.23223Z" fill="white"/>
<path fill-rule="evenodd" clip-rule="evenodd" d="M20.4335 12.8944C19.3295 12.1834 17.687 11.7632 16.3772 11.8567C16.0138 11.8827 15.6982 11.6092 15.6722 11.2458C15.6463 10.8825 15.9198 10.5669 16.2832 10.5409C17.8778 10.427 19.8038 10.9198 21.1478 11.7853C21.454 11.9825 21.5424 12.3907 21.3452 12.6969C21.148 13.0032 20.7398 13.0916 20.4335 12.8944Z" fill="white"/>
<path d="M13.3463 5.39783C13.4701 5.32458 13.6305 5.36588 13.7038 5.48963L14.4342 6.72205C14.5072 6.84574 14.4661 7.00532 14.3424 7.07849L13.8942 7.34412C13.647 7.4909 13.5651 7.81053 13.7116 8.05799L13.945 8.45154C18.4002 7.15579 23.3357 8.97256 25.8112 13.1488C28.7436 18.0984 27.1091 24.4882 22.1598 27.4213C17.2101 30.3545 10.8196 28.7197 7.88638 23.7699C5.41206 19.5939 6.18882 14.3925 9.4645 11.1068L9.23111 10.7133C9.08437 10.4658 8.76473 10.3842 8.51724 10.5306L8.069 10.7963C7.94528 10.8695 7.78509 10.8289 7.71157 10.7054L6.98208 9.47303C6.90887 9.34935 6.94932 9.18891 7.0729 9.1156L13.3463 5.39783ZM24.6901 13.8129C22.1333 9.49812 16.5746 8.06176 12.2506 10.5883L12.152 10.6469C7.85961 13.2264 6.44977 18.7924 9.0065 23.1068C9.03619 21.8471 9.66067 19.8164 11.5514 18.4476C11.5197 18.5882 11.5016 18.7341 11.5016 18.8842C11.5016 19.9745 12.3859 20.8607 13.4762 20.8607H14.6071V21.5775C14.6071 22.6678 15.4934 23.5521 16.5836 23.5521C17.674 23.5521 18.5602 22.6679 18.5602 21.5775V20.8607H19.692C20.7822 20.8605 21.6657 19.9744 21.6657 18.8842C21.6656 17.794 20.7822 16.9078 19.692 16.9076H18.9821C23.2637 16.4768 24.5882 14.7456 24.6901 13.8129Z" fill="white"/>
<path d="M16.8868 14.8672C17.4391 14.8672 17.8868 15.3149 17.8868 15.8672V17.5947H19.9366C20.4888 17.5948 20.9366 18.0425 20.9366 18.5947V19.1738C20.9366 19.726 20.4888 20.1737 19.9366 20.1738H17.8868V21.8047C17.8868 22.357 17.4391 22.8047 16.8868 22.8047H16.2814C15.7291 22.8047 15.2814 22.357 15.2814 21.8047V20.1738H13.2316C12.6793 20.1738 12.2316 19.7261 12.2316 19.1738V18.5947C12.2316 18.0424 12.6793 17.5947 13.2316 17.5947H15.2814V15.8672C15.2814 15.3149 15.7291 14.8672 16.2814 14.8672H16.8868Z" fill="white"/>
</svg>
