<svg width="33" height="33" viewBox="0 0 33 33" fill="none" xmlns="http://www.w3.org/2000/svg">
<path d="M4.44324 10.2439C4.44324 9.9679 4.66724 9.7439 4.94324 9.7439H27.9432C28.2192 9.7439 28.4432 9.9679 28.4432 10.2439V25.1039C28.4432 25.4289 28.1373 25.6739 27.8173 25.6149C27.0033 25.4669 25.4462 25.2439 23.4432 25.2439C20.6582 25.2439 17.0112 25.6749 16.5032 25.7369C16.4622 25.7419 16.4242 25.7419 16.3832 25.7369C15.8752 25.6749 12.2282 25.2439 9.44324 25.2439C7.44024 25.2439 5.88321 25.4669 5.06921 25.6149C4.74921 25.6739 4.44324 25.4289 4.44324 25.1039V10.2439Z" fill="white"/>
<path d="M26.4432 22.6881V9.69304C26.4432 9.18404 26.0573 8.74706 25.5363 8.70506C24.6903 8.63706 22.7523 8.51905 21.3613 8.75105C19.7913 9.01205 17.1273 9.96304 16.4453 10.211C16.4433 10.211 16.4422 10.211 16.4432 10.211C16.4432 10.211 16.4432 10.211 16.4412 10.211C15.7592 9.96304 13.0952 9.01205 11.5252 8.75105C10.1342 8.51905 8.19622 8.63706 7.35022 8.70506C6.82922 8.74706 6.44324 9.18404 6.44324 9.69304V22.6881C6.44324 23.2831 6.95522 23.738 7.53522 23.693C8.42922 23.625 10.1583 23.537 11.3613 23.737C12.8213 23.98 15.3932 24.893 16.0992 25.15C16.3222 25.232 16.5642 25.232 16.7872 25.15C17.4932 24.893 20.0652 23.98 21.5252 23.737C22.7282 23.536 24.4573 23.625 25.3513 23.693C25.9313 23.738 26.4432 23.2831 26.4432 22.6881Z" fill="white" stroke="#404040"/>
<path d="M15.9522 24.9681H15.9532H16.9332H16.9343L16.9352 24.9661L16.9382 24.9491C16.9412 24.9341 16.9473 24.9101 16.9553 24.8781C16.9703 24.8131 16.9952 24.7191 17.0302 24.6021C17.1022 24.3691 17.2172 24.0541 17.3862 23.7281C17.7332 23.0621 18.2662 22.4291 19.0642 22.2291C20.4642 21.8791 22.1373 21.7811 22.9603 21.7541C23.4993 21.7361 23.9432 21.2971 23.9432 20.7441V7.66808C23.9432 7.18208 23.5883 6.7491 23.0803 6.6921C22.3703 6.6111 20.8723 6.49909 19.3613 6.75109C18.1203 6.95809 17.2693 8.0521 16.7603 8.9341C16.6413 9.1411 16.5352 9.34509 16.4432 9.53609C16.3512 9.34509 16.2452 9.1411 16.1262 8.9341C15.6172 8.0521 14.7662 6.95809 13.5252 6.75109C12.0142 6.49909 10.5163 6.6121 9.80725 6.6921C9.29825 6.7491 8.94324 7.18208 8.94324 7.66808V20.7441C8.94324 21.2961 9.38721 21.7361 9.92621 21.7541C10.7492 21.7811 12.4223 21.8791 13.8223 22.2291C14.6203 22.4291 15.1532 23.0621 15.5002 23.7281C15.6692 24.0541 15.7843 24.3691 15.8563 24.6021C15.8913 24.7191 15.9163 24.8131 15.9323 24.8781C15.9393 24.9101 15.9452 24.9341 15.9482 24.9491L15.9512 24.9661L15.9522 24.9681Z" fill="white" stroke="#404040"/>
<path d="M16.4432 26.2439V8.2439" stroke="#404040"/>
</svg>
