<svg width="33" height="33" viewBox="0 0 33 33" fill="none" xmlns="http://www.w3.org/2000/svg">
<path d="M24.7365 19.8134C24.7361 19.7863 24.7355 19.759 24.7347 19.7317C24.7365 19.6812 24.7374 19.6305 24.7374 19.5796C24.7374 19.1949 24.6861 18.8222 24.5898 18.4679C24.5125 18.1164 24.4046 17.8178 24.2664 17.6381C23.563 16.2791 22.1441 15.3504 20.5082 15.3504C19.6587 15.3504 18.8676 15.6009 18.2049 16.032C17.763 14.8121 16.5942 13.9404 15.2217 13.9404C13.4699 13.9404 12.0498 15.3605 12.0498 17.1123C12.0498 17.1744 12.0515 17.2361 12.0551 17.2973C11.55 16.9578 10.942 16.7597 10.2877 16.7597C8.53592 16.7597 7.11582 18.1798 7.11582 19.9316C7.11582 20.0491 7.12221 20.1651 7.13466 20.2792L7.11569 20.2842C6.41086 20.7541 5.42612 21.8389 6.41086 23.8085C7.11567 25.2182 8.1731 25.2182 8.52551 25.2182H23.9698C25.3323 25.2182 26.4369 24.1137 26.4369 22.7512C26.4369 21.6581 25.726 20.7311 24.7414 20.4072C24.7391 20.2388 24.7375 20.0794 24.7375 19.9317C24.7375 19.8925 24.7372 19.8531 24.7365 19.8134Z" fill="white"/>
</svg>
