<svg width="33" height="33" viewBox="0 0 33 33" fill="none" xmlns="http://www.w3.org/2000/svg">
<path d="M14.0551 12.9675L14.5383 13.2136C15.2324 13.5671 16.0418 13.618 16.7747 13.3543C17.4312 13.118 18.1519 13.1333 18.7978 13.3973L19.7374 13.7812L18.5169 22.3047C18.2922 23.8739 16.838 24.9638 15.2688 24.7391C13.6997 24.5144 12.6098 23.0602 12.8345 21.491L14.0551 12.9675Z" fill="white"/>
<path fill-rule="evenodd" clip-rule="evenodd" d="M23.0333 7.92685L12.5343 6.4234L12.4318 7.13947C13.3903 7.40151 14.0262 8.34251 13.8817 9.35174L12.144 21.4867C11.86 23.4697 13.2374 25.3074 15.2203 25.5914C17.2033 25.8754 19.041 24.498 19.325 22.515L21.0627 10.3801C21.2 9.42123 21.9962 8.7192 22.9274 8.66649L23.0333 7.92685ZM23.1843 9.67366C22.6376 9.59537 22.1309 9.9751 22.0526 10.5218L20.3149 22.6568C19.9527 25.1865 17.6083 26.9435 15.0786 26.5813C12.5489 26.219 10.7918 23.8747 11.1541 21.345L12.8918 9.20998C12.9701 8.66328 12.5904 8.15662 12.0437 8.07833L11.3023 7.97217L11.6862 5.29175L24.1649 7.0787L23.7811 9.75912L23.1843 9.67366Z" fill="white"/>
<path d="M13.854 4.02084C13.877 3.86254 14.024 3.75254 14.1823 3.77552L22.1965 4.92376C22.3539 4.94492 22.4639 5.09207 22.4409 5.25037L22.0439 8.01472C22.0223 8.17347 21.8752 8.28347 21.7169 8.26048L21.1446 8.17785C20.8289 8.13371 20.5351 8.3523 20.4905 8.66935L20.287 10.0909C20.2087 10.6377 19.702 11.0174 19.1552 10.9391L15.4111 10.4024C14.8645 10.324 14.4848 9.81741 14.5631 9.27076L14.7667 7.84892C14.8109 7.53324 14.5923 7.23945 14.2752 7.19486L13.7028 7.1122C13.5445 7.08922 13.4355 6.94396 13.4585 6.78566L13.854 4.02084Z" fill="white"/>
</svg>
