<svg width="33" height="32" viewBox="0 0 33 32" fill="none" xmlns="http://www.w3.org/2000/svg">
<path d="M10.8432 7.5C10.4566 7.5 10.1432 7.83092 10.1432 8.23913V8.97826C10.1432 9.38647 10.4566 9.71739 10.8432 9.71739H22.0432C22.4298 9.71739 22.7432 9.38647 22.7432 8.97826V8.23913C22.7432 7.83092 22.4298 7.5 22.0432 7.5H10.8432Z" fill="white"/>
<path d="M21.3432 10.087H11.5432V11.3275C11.5432 12.1218 11.218 12.866 10.7759 13.5086C10.4811 13.9371 10.2289 14.4003 10.0257 14.8913H22.8608C22.6576 14.4003 22.4054 13.9371 22.1106 13.5086C21.6685 12.866 21.3432 12.1218 21.3432 11.3275V10.087Z" fill="white"/>
<path fill-rule="evenodd" clip-rule="evenodd" d="M9.44324 17.8478C9.44324 17.0753 9.55548 16.3304 9.7637 15.6304H23.1228C23.331 16.3304 23.4432 17.0753 23.4432 17.8478C23.4432 18.0075 23.4384 18.166 23.429 18.3232L22.3099 16.3696L20.7222 19.1413H23.3364C23.2837 19.4566 23.2121 19.765 23.1228 20.0652H9.7637C9.67441 19.765 9.60277 19.4566 9.55006 19.1413H12.1643L10.5766 16.3696L9.45748 18.3232C9.44803 18.166 9.44324 18.0075 9.44324 17.8478ZM13.5099 19.3261L11.9222 16.5543H15.0976L13.5099 19.3261ZM18.031 19.1413L16.4432 16.3696L14.8555 19.1413H18.031ZM19.3766 19.3261L17.7889 16.5543H20.9643L19.3766 19.3261Z" fill="white"/>
<path d="M10.0257 20.8043C10.5638 22.1049 11.4462 23.2103 12.5512 23.9922C13.0793 24.366 13.7187 24.5 14.3545 24.5H18.5319C19.1678 24.5 19.8071 24.366 20.3353 23.9922C21.4403 23.2103 22.3226 22.1049 22.8608 20.8043H10.0257Z" fill="white"/>
</svg>
