<svg width="33" height="32" viewBox="0 0 33 32" fill="none" xmlns="http://www.w3.org/2000/svg">
<path d="M11.4432 11.7989C12.8862 11.7989 14.2172 11.5079 15.2062 11.0129C15.6882 10.7719 16.1262 10.4619 16.4432 10.0869V11.3019C16.4302 12.6769 14.1962 13.7899 11.4432 13.7899C8.68224 13.7899 6.44324 12.6709 6.44324 11.2899V10.0869C6.76024 10.4619 7.19824 10.7719 7.68024 11.0129C8.66924 11.5079 10.0002 11.7989 11.4432 11.7989Z" fill="white"/>
<path d="M22.7085 11.7989C24.1515 11.7989 25.4825 11.5079 26.4715 11.0129C26.9535 10.7719 27.3915 10.4619 27.7085 10.0869V11.3019C27.6955 12.6769 25.4615 13.7899 22.7085 13.7899C19.9475 13.7899 17.7085 12.6709 17.7085 11.2899V10.0869C18.0255 10.4619 18.4635 10.7719 18.9455 11.0129C19.9345 11.5079 21.2655 11.7989 22.7085 11.7989Z" fill="white"/>
<path d="M6.44324 8.79105C6.44424 10.171 8.68224 11.29 11.4432 11.29C14.2042 11.29 16.4432 10.171 16.4432 8.79004C16.4432 8.43404 16.2952 8.09604 16.0272 7.79004H6.85925C6.59225 8.09604 6.44324 8.43403 6.44324 8.78903V8.79105Z" fill="white"/>
<path d="M17.7085 8.79105C17.7095 10.171 19.9475 11.29 22.7085 11.29C25.4695 11.29 27.7085 10.171 27.7085 8.79004C27.7085 8.43404 27.5605 8.09604 27.2925 7.79004H18.1245C17.8575 8.09604 17.7085 8.43403 17.7085 8.78903V8.79105Z" fill="white"/>
<path d="M15.2062 13.5129C15.6882 13.2719 16.1262 12.9619 16.4432 12.5869V13.8019C16.4302 15.1769 14.1962 16.2899 11.4432 16.2899C8.68224 16.2899 6.44324 15.1709 6.44324 13.7899V12.5869C6.76024 12.9619 7.19824 13.2719 7.68024 13.5129C8.66924 14.0079 10.0002 14.2989 11.4432 14.2989C12.8862 14.2989 14.2172 14.0079 15.2062 13.5129Z" fill="white"/>
<path d="M26.4715 13.5129C26.9535 13.2719 27.3915 12.9619 27.7085 12.5869V13.8019C27.6955 15.1769 25.4615 16.2899 22.7085 16.2899C19.9475 16.2899 17.7085 15.1709 17.7085 13.7899V12.5869C18.0255 12.9619 18.4635 13.2719 18.9455 13.5129C19.9345 14.0079 21.2655 14.2989 22.7085 14.2989C24.1515 14.2989 25.4825 14.0079 26.4715 13.5129Z" fill="white"/>
<path d="M6.44324 15.0869V16.2899C6.44324 17.6709 8.68224 18.7899 11.4432 18.7899C14.1962 18.7899 16.4302 17.6769 16.4432 16.3019V15.0869C16.1262 15.4619 15.6882 15.7719 15.2062 16.0129C14.2172 16.5079 12.8862 16.7989 11.4432 16.7989C10.0002 16.7989 8.66924 16.5079 7.68024 16.0129C7.19824 15.7719 6.76024 15.4619 6.44324 15.0869Z" fill="white"/>
<path d="M17.7085 15.0869V16.2899C17.7085 17.6709 19.9475 18.7899 22.7085 18.7899C25.4615 18.7899 27.6955 17.6769 27.7085 16.3019V15.0869C27.3915 15.4619 26.9535 15.7719 26.4715 16.0129C25.4825 16.5079 24.1515 16.7989 22.7085 16.7989C21.2655 16.7989 19.9345 16.5079 18.9455 16.0129C18.4635 15.7719 18.0255 15.4619 17.7085 15.0869Z" fill="white"/>
<path d="M6.44324 18.7899V17.5869C6.76024 17.9619 7.19824 18.2719 7.68024 18.5129C8.66924 19.0079 10.0002 19.2989 11.4432 19.2989C12.8862 19.2989 14.2172 19.0079 15.2062 18.5129C15.6882 18.2719 16.1262 17.9619 16.4432 17.5869V18.8019C16.4302 20.1769 14.1962 21.2899 11.4432 21.2899C8.68224 21.2899 6.44324 20.1709 6.44324 18.7899Z" fill="white"/>
<path d="M17.7085 18.7899V17.5869C18.0255 17.9619 18.4635 18.2719 18.9455 18.5129C19.9345 19.0079 21.2655 19.2989 22.7085 19.2989C24.1515 19.2989 25.4825 19.0079 26.4715 18.5129C26.9535 18.2719 27.3915 17.9619 27.7085 17.5869V18.8019C27.6955 20.1769 25.4615 21.2899 22.7085 21.2899C19.9475 21.2899 17.7085 20.1709 17.7085 18.7899Z" fill="white"/>
<path d="M6.44324 20.0869V21.2899C6.44324 22.6709 8.68224 23.7899 11.4432 23.7899C14.1962 23.7899 16.4302 22.6769 16.4432 21.3019V20.0869C16.1262 20.4619 15.6882 20.7719 15.2062 21.0129C14.2172 21.5079 12.8862 21.7989 11.4432 21.7989C10.0002 21.7989 8.66924 21.5079 7.68024 21.0129C7.19824 20.7719 6.76024 20.4619 6.44324 20.0869Z" fill="white"/>
<path d="M17.7085 20.0869V21.2899C17.7085 22.6709 19.9475 23.7899 22.7085 23.7899C25.4615 23.7899 27.6955 22.6769 27.7085 21.3019V20.0869C27.3915 20.4619 26.9535 20.7719 26.4715 21.0129C25.4825 21.5079 24.1515 21.7989 22.7085 21.7989C21.2655 21.7989 19.9345 21.5079 18.9455 21.0129C18.4635 20.7719 18.0255 20.4619 17.7085 20.0869Z" fill="white"/>
<path d="M11.4432 11.29C14.2047 11.29 16.4432 10.1708 16.4432 8.79004C16.4432 7.40933 14.2047 6.29004 11.4432 6.29004C8.68181 6.29004 6.44324 7.40933 6.44324 8.79004C6.44324 10.1708 8.68181 11.29 11.4432 11.29Z" fill="white"/>
<path d="M22.7085 11.29C25.4699 11.29 27.7085 10.1708 27.7085 8.79004C27.7085 7.40933 25.4699 6.29004 22.7085 6.29004C19.9471 6.29004 17.7085 7.40933 17.7085 8.79004C17.7085 10.1708 19.9471 11.29 22.7085 11.29Z" fill="white"/>
<path d="M17.0516 16.9385C20.2608 16.9385 22.863 18.3481 22.8632 20.0869C22.8632 20.4093 22.7724 20.7199 22.6063 21.0127C22.7725 21.3055 22.8631 21.6161 22.8632 21.9385C22.8632 22.2782 22.7618 22.6046 22.578 22.9111C22.7618 23.2177 22.8631 23.544 22.8632 23.8838C22.8632 25.6227 20.2609 27.0322 17.0516 27.0322C13.8425 27.0321 11.2411 25.6226 11.2411 23.8838C11.2411 23.5441 11.3415 23.2176 11.5253 22.9111C11.3416 22.6046 11.2411 22.2781 11.2411 21.9385C11.2411 21.6162 11.3309 21.3055 11.4969 21.0127C11.3309 20.7199 11.2411 20.4092 11.2411 20.0869C11.2412 18.3481 13.8426 16.9386 17.0516 16.9385Z" fill="#404040"/>
<rect width="1.04701" height="4.54346" transform="matrix(0.866044 -0.499967 0.866044 0.499967 9.02246 7.81519)" fill="#404040"/>
<rect width="1.04701" height="4.54346" transform="matrix(0.866044 -0.499967 0.866044 0.499967 20.2877 7.81519)" fill="#404040"/>
<path d="M17.0519 23.096C18.4949 23.096 19.8259 22.805 20.8149 22.31C21.2969 22.069 21.7349 21.759 22.0519 21.384V22.599C22.0389 23.974 19.8049 25.087 17.0519 25.087C14.2909 25.087 12.0519 23.968 12.0519 22.587V21.384C12.3689 21.759 12.8069 22.069 13.2889 22.31C14.2779 22.805 15.6089 23.096 17.0519 23.096Z" fill="white"/>
<path d="M20.8149 24.81C21.2969 24.569 21.7349 24.259 22.0519 23.884V25.099C22.0389 26.474 19.8049 27.587 17.0519 27.587C14.2909 27.587 12.0519 26.468 12.0519 25.087V23.884C12.3689 24.259 12.8069 24.569 13.2889 24.81C14.2779 25.305 15.6089 25.596 17.0519 25.596C18.4949 25.596 19.8259 25.305 20.8149 24.81Z" fill="white"/>
<path d="M17.0519 22.5872C19.8133 22.5872 22.0519 21.4679 22.0519 20.0872C22.0519 18.7064 19.8133 17.5872 17.0519 17.5872C14.2905 17.5872 12.0519 18.7064 12.0519 20.0872C12.0519 21.4679 14.2905 22.5872 17.0519 22.5872Z" fill="white"/>
<rect width="1.04701" height="4.54346" transform="matrix(0.866044 -0.499967 0.866044 0.499967 14.631 19.2131)" fill="#404040"/>
</svg>
