<svg width="33" height="33" viewBox="0 0 33 33" fill="none" xmlns="http://www.w3.org/2000/svg">
<path d="M13.3212 10.9443C14.3403 11.0602 15.4224 10.9994 16.4432 10.6452C17.4641 10.9994 18.5461 11.0602 19.5653 10.9443C20.9474 10.7873 22.2843 10.3034 23.3503 9.72235C23.3503 13.216 23.1401 16.864 21.2041 19.7722C20.1879 21.2988 19.0415 22.3925 17.9783 23.1703C17.4382 23.5654 16.9174 23.8806 16.4432 24.1296C15.9691 23.8806 15.4482 23.5654 14.9082 23.1703C13.845 22.3925 12.6986 21.2988 11.6824 19.7722C9.74634 16.864 9.53613 13.216 9.53613 9.72235C10.6022 10.3034 11.9391 10.7873 13.3212 10.9443Z" fill="white"/>
<path fill-rule="evenodd" clip-rule="evenodd" d="M7.39111 5.19842C9.23804 6.76092 13.3298 8.52679 16.4432 6.83563C19.5566 8.52679 23.6484 6.76092 25.4954 5.19842C25.6313 5.08343 25.8503 5.1784 25.8503 5.35638V13.4079C25.8503 19.4326 21.1074 25.32 16.4432 27.2714C11.7791 25.32 7.03613 19.4326 7.03613 13.4079V5.35638C7.03613 5.1784 7.25513 5.08343 7.39111 5.19842ZM16.4432 25.247C17.9805 24.5204 20.0934 23.1259 21.8605 20.5854C24.1456 17.2997 24.3503 13.0954 24.3503 9.09344V8.2724C24.3503 8.09442 24.1283 7.99945 23.9904 8.11029C23.9233 8.16424 23.8523 8.21844 23.7783 8.2724C23.6593 8.36029 23.5304 8.44842 23.3943 8.53631L23.3503 8.56341C21.6361 9.64398 18.7443 10.5698 16.4432 9.57294C14.1422 10.5698 11.2504 9.64398 9.53613 8.56341L9.49219 8.53631C9.35608 8.44842 9.22717 8.36029 9.10815 8.2724C9.06213 8.23895 9.01721 8.20526 8.97375 8.17181L8.89612 8.11029C8.75818 7.99945 8.53613 8.09442 8.53613 8.2724V9.09344C8.53613 13.0954 8.74084 17.2997 11.026 20.5854C12.7931 23.1259 14.906 24.5204 16.4432 25.247Z" fill="white"/>
</svg>
