<svg width="33" height="33" viewBox="0 0 33 33" fill="none" xmlns="http://www.w3.org/2000/svg">
<path d="M16.7975 12.0029C15.3388 12.0029 13.9398 12.5929 12.9084 13.6431C11.8769 14.6933 11.2975 16.1177 11.2975 17.6029C11.2975 19.5069 12.2325 21.1789 13.6546 22.1949V24.0029C13.6546 24.2151 13.7374 24.4186 13.8848 24.5686C14.0321 24.7186 14.232 24.8029 14.4403 24.8029H19.1546C19.363 24.8029 19.5629 24.7186 19.7102 24.5686C19.8576 24.4186 19.9403 24.2151 19.9403 24.0029V22.1949C21.3625 21.1789 22.2975 19.5069 22.2975 17.6029C22.2975 16.1177 21.718 14.6933 20.6866 13.6431C19.6551 12.5929 18.2562 12.0029 16.7975 12.0029ZM14.4403 27.2029C14.4403 27.4151 14.5231 27.6186 14.6705 27.7686C14.8178 27.9186 15.0177 28.0029 15.2261 28.0029H18.3689C18.5773 28.0029 18.7771 27.9186 18.9245 27.7686C19.0718 27.6186 19.1546 27.4151 19.1546 27.2029V26.4029H14.4403V27.2029Z" fill="white"/>
<path d="M16.7975 5.00293C17.3498 5.00293 17.7975 5.45064 17.7975 6.00293V10.0029C17.7975 10.5552 17.3498 11.0029 16.7975 11.0029C16.2452 11.0029 15.7975 10.5552 15.7975 10.0029V6.00293C15.7975 5.45065 16.2452 5.00293 16.7975 5.00293Z" fill="white"/>
<path d="M9.78271 17.4355C9.78271 17.9878 9.335 18.4355 8.78271 18.4355L4.78271 18.4355C4.23043 18.4355 3.78271 17.9878 3.78271 17.4355C3.78271 16.8833 4.23043 16.4355 4.78271 16.4355H8.78271C9.335 16.4355 9.78271 16.8833 9.78271 17.4355Z" fill="white"/>
<path d="M30.1809 17.4355C30.1809 17.9878 29.7332 18.4355 29.1809 18.4355L25.1809 18.4355C24.6286 18.4355 24.1809 17.9878 24.1809 17.4355C24.1809 16.8833 24.6286 16.4355 25.1809 16.4355H29.1809C29.7332 16.4355 30.1809 16.8833 30.1809 17.4355Z" fill="white"/>
<path d="M24.9322 9.71672C25.3227 10.1072 25.3227 10.7404 24.9322 11.1309L23.3532 12.7099C22.9627 13.1005 22.3295 13.1005 21.939 12.7099C21.5484 12.3194 21.5484 11.6862 21.939 11.2957L23.518 9.71672C23.9085 9.3262 24.5417 9.3262 24.9322 9.71672Z" fill="white"/>
<path d="M8.53157 9.71672C8.14105 10.1072 8.14105 10.7404 8.53157 11.1309L10.1106 12.7099C10.5011 13.1005 11.1343 13.1005 11.5248 12.7099C11.9153 12.3194 11.9153 11.6862 11.5248 11.2957L9.94578 9.71672C9.55526 9.3262 8.92209 9.3262 8.53157 9.71672Z" fill="white"/>
<path d="M24.9322 25.1549C25.3227 24.7643 25.3227 24.1312 24.9322 23.7406L23.3532 22.1617C22.9627 21.7711 22.3295 21.7711 21.939 22.1617C21.5484 22.5522 21.5484 23.1853 21.939 23.5759L23.518 25.1549C23.9085 25.5454 24.5417 25.5454 24.9322 25.1549Z" fill="white"/>
<path d="M8.53157 25.1549C8.14105 24.7643 8.14105 24.1312 8.53157 23.7406L10.1106 22.1617C10.5011 21.7711 11.1343 21.7711 11.5248 22.1617C11.9153 22.5522 11.9153 23.1853 11.5248 23.5759L9.94578 25.1549C9.55526 25.5454 8.92209 25.5454 8.53157 25.1549Z" fill="white"/>
</svg>
